<?xml version="1.0" standalone="no"?>
<!DOCTYPE svg PUBLIC "-//W3C//DTD SVG 1.1//EN" "http://www.w3.org/Graphics/SVG/1.1/DTD/svg11.dtd" >
<svg xmlns="http://www.w3.org/2000/svg" xmlns:xlink="http://www.w3.org/1999/xlink" version="1.1">
<metadata>
Created by FontForge 20170731 at Mon May 17 18:29:54 2021
 By Aleksey,,,
Copyright 2018-2020 Dalton Maag Ltd. Modification of this file requires prior written permission from Dalton Maag Ltd.
</metadata>
<defs>
<font id="VennVFTrial-Medium" horiz-adv-x="366" >
  <font-face 
    font-family="Venn VF Trial Medium"
    font-weight="500"
    font-stretch="normal"
    units-per-em="1000"
    panose-1="2 11 6 3 3 5 3 2 2 4"
    ascent="800"
    descent="-200"
    x-height="517"
    cap-height="700"
    bbox="-214 -215 1129 954"
    underline-thickness="64"
    underline-position="-175"
    unicode-range="U+000D-FEFF"
  />
<missing-glyph horiz-adv-x="500" 
d="M50 750h400v-750h-400v750zM400 700h-300v-650h300v650z" />
    <glyph glyph-name="uniFB01" unicode="fi" horiz-adv-x="661" 
d="M19 515h364v-77h-364v77zM199.5 715q21.5 12 48 18t57.5 6q22 0 41.5 -3t35.5 -8t29 -11l-16 -77q-10 5 -22.5 9t-26 6.5t-28.5 2.5q-24 0 -41.5 -6.5t-29 -21t-17.5 -36t-6 -51.5v-543h-110v543q0 30 5.5 56t16 48t26.5 39t37.5 29zM476 517h110v-517h-110v517zM588 595
h-114v118h114v-118z" />
    <glyph glyph-name="uniFB02" unicode="fl" horiz-adv-x="661" 
d="M19 515h364v-77h-364v77zM199.5 715q21.5 12 48 18t57.5 6q22 0 41.5 -3t35.5 -8t29 -11l-16 -77q-10 5 -22.5 9t-26 6.5t-28.5 2.5q-24 0 -41.5 -6.5t-29 -21t-17.5 -36t-6 -51.5v-543h-110v543q0 30 5.5 56t16 48t26.5 39t37.5 29zM476 730h110v-730h-110v730z" />
    <glyph glyph-name=".notdef" horiz-adv-x="500" 
d="M50 750h400v-750h-400v750zM400 700h-300v-650h300v650z" />
    <glyph glyph-name="uni0000" horiz-adv-x="0" 
 />
    <glyph glyph-name="uni0000" horiz-adv-x="0" 
 />
    <glyph glyph-name="uni000D" unicode="&#xd;" horiz-adv-x="186" 
 />
    <glyph glyph-name="space" unicode=" " horiz-adv-x="186" 
 />
    <glyph glyph-name="exclam" unicode="!" horiz-adv-x="283" 
d="M190 205h-97l-10 495h117zM198 0h-113v128h113v-128z" />
    <glyph glyph-name="quotedbl" unicode="&#x22;" horiz-adv-x="402" 
d="M55 700h106l-11 -259h-84zM241 700h106l-11 -259h-84z" />
    <glyph glyph-name="numbersign" unicode="#" horiz-adv-x="613" 
d="M62 522h524v-71h-524v71zM27 229h524v-71h-524v71zM183 680h85l-78 -680h-85zM423 680h85l-78 -680h-85z" />
    <glyph glyph-name="dollar" unicode="$" horiz-adv-x="613" 
d="M65 48l16 83q23 -10 47.5 -19t50 -15t52.5 -9.5t57 -3.5q27 0 48 3.5t36.5 10.5t26.5 16.5t18 21.5t10 26t3 29q0 20 -5 35t-15.5 26.5t-27 19.5t-39.5 14.5t-54 12.5q-17 3 -34 6.5t-34 8t-33 10.5t-30.5 14t-27.5 18t-23 23t-17.5 29t-11.5 35.5t-4 43.5q0 26 5 48
t14.5 40.5t23 33t30 26t36.5 19.5t42 13.5t46.5 8t49.5 2.5q39 0 73 -4.5t64 -13t57 -21.5l-17 -83q-14 7 -29.5 13t-32 10.5t-35.5 8t-39.5 5.5t-44.5 2q-27 0 -48 -4.5t-37 -12.5t-26.5 -20t-16 -27.5t-5.5 -33.5q0 -15 3.5 -27.5t10.5 -22t18 -17.5t26 -14t34.5 -10.5
t43.5 -9.5q16 -3 32.5 -6.5t33.5 -8t33.5 -10.5t31.5 -14t28.5 -18.5t24.5 -24t19 -30.5t12.5 -38t4.5 -47q0 -33 -7.5 -60.5t-22.5 -49.5t-36.5 -38.5t-49.5 -27.5t-62 -16.5t-74 -5.5q-44 0 -84 6t-75 16.5t-64 24.5zM344 -129h-79v153h79v-153zM344 648l-79 3v147h79
v-150z" />
    <glyph glyph-name="percent" unicode="%" horiz-adv-x="824" 
d="M591 680h95l-452 -680h-95zM162.5 352.5q-20.5 4.5 -37.5 14t-30 23t-22 31t-13.5 39t-4.5 46.5v21q0 21 3.5 40t10.5 35t17 29.5t23 23.5t28 17t33 10.5t38 3.5q24 0 44 -4.5t37 -14t30 -23t22 -31t13.5 -39t4.5 -46.5v-21q0 -21 -3.5 -40t-10.5 -35t-17 -29.5
t-23 -23.5t-28 -17t-33 -10.5t-38 -3.5q-23 0 -43.5 4.5zM230.5 419q10.5 4 18.5 11.5t13.5 19t8.5 26t3 32.5v18q0 18 -3 33t-8.5 26t-13.5 18.5t-18.5 11.5t-23.5 4t-23.5 -4t-18.5 -11.5t-13.5 -18.5t-8.5 -26t-3 -33v-18q0 -18 3 -32.5t8.5 -26t13.5 -19t18.5 -11.5
t23.5 -4t23.5 4zM572.5 -1.5q-20.5 4.5 -37 14t-29.5 23t-22 31t-13.5 39t-4.5 46.5v21q0 21 3.5 40t10.5 35t16.5 29.5t22.5 23.5t28.5 17t33 10.5t37.5 3.5q24 0 44 -5t37 -14t30 -22.5t22 -31.5t13.5 -39t4.5 -46v-22q0 -21 -3.5 -40t-10.5 -35t-17 -29t-22.5 -23
t-28 -17t-33.5 -10.5t-38 -3.5q-23 0 -43.5 4.5zM641 65q10 4 18 11.5t13.5 18.5t8.5 26t3 33v18q0 18 -3 33t-8.5 26t-13.5 18.5t-18 11.5t-23 4t-24 -4t-19 -11.5t-13.5 -18.5t-8.5 -26t-3 -33v-18q0 -18 3 -33t8.5 -26t13.5 -18.5t19 -11.5t24 -4t23 4z" />
    <glyph glyph-name="ampersand" unicode="&#x26;" horiz-adv-x="720" 
d="M300 277q-10 10 -19 16.5t-17 11t-16.5 6.5t-17.5 2q-17 0 -31 -6t-24.5 -16.5t-17 -25t-10 -31t-3.5 -34.5q0 -26 7.5 -47t22 -37.5t35.5 -27.5t48.5 -17t60.5 -6q26 0 49.5 2.5t45 9.5t40 18.5t34.5 29.5t28.5 43.5t21.5 59t14.5 76.5t6.5 97h97q-2 -65 -11 -118.5
t-25.5 -97t-39 -76.5t-51 -57.5t-63 -39.5t-74 -22.5t-83.5 -7.5q-35 0 -66 4t-58.5 12.5t-50.5 21.5t-41 30t-30.5 38.5t-19 47.5t-6.5 56q0 31 6 56.5t17.5 46.5t26.5 37t33 27t38 16.5t41 5.5q11 0 20 -1.5t18 -3.5t17 -6l-18 -19q-25 26 -43.5 48.5t-31 44.5t-18.5 45
t-6 49q0 27 7.5 50.5t21 43t33.5 34t45 25t54.5 15.5t62.5 5q22 0 43 -2.5t40.5 -7.5t37.5 -11.5t33 -14.5l-19 -80q-19 9 -40 16.5t-43 11.5t-47 4q-18 0 -34 -2.5t-30 -7.5t-24.5 -12.5t-18 -18t-11.5 -24t-4 -30.5q0 -14 3 -27t10 -27t17.5 -28.5t25.5 -30.5t34 -35
l385 -384h-136z" />
    <glyph glyph-name="quotesingle" unicode="'" horiz-adv-x="216" 
d="M55 700h106l-11 -259h-84z" />
    <glyph glyph-name="parenleft" unicode="(" horiz-adv-x="329" 
d="M164 305q0 -64 9.5 -124.5t27.5 -117t44.5 -109t59.5 -100.5h-100q-26 34 -48.5 73.5t-40.5 83.5t-30.5 91.5t-19 98.5t-6.5 104t6.5 104t19 98.5t30.5 91.5t40.5 83.5t48.5 73.5h100q-33 -48 -59.5 -100.5t-44.5 -109t-27.5 -117t-9.5 -124.5z" />
    <glyph glyph-name="parenright" unicode=")" horiz-adv-x="329" 
d="M165 305q0 64 -9.5 124.5t-27.5 117t-44.5 109t-59.5 100.5h100q26 -34 48.5 -73.5t40.5 -83.5t30.5 -91.5t19 -98.5t6.5 -104t-6.5 -104t-19 -98.5t-30.5 -91.5t-40.5 -83t-48.5 -74h-100q33 48 59.5 100.5t44.5 109t27.5 117t9.5 124.5z" />
    <glyph glyph-name="asterisk" unicode="*" horiz-adv-x="373" 
d="M146 700h81l-12 -139l-17 9l132 53l24 -77l-140 -29l8 18l102 -111l-67 -45l-80 121h19l-79 -121l-67 45l101 111l9 -18l-141 29l24 77l132 -53l-17 -9z" />
    <glyph glyph-name="plus" unicode="+" horiz-adv-x="613" 
d="M92 326h429v-86h-429v86zM261 493h91v-420h-91v420z" />
    <glyph glyph-name="comma" unicode="," horiz-adv-x="223" 
d="M54.5 37.5q10.5 48.5 13.5 95.5h96q-2 -38 -9 -76.5t-19 -75.5t-28.5 -73t-36.5 -70h-85q24 51 41 101t27.5 98.5z" />
    <glyph glyph-name="hyphen" unicode="-" horiz-adv-x="402" 
d="M49 329h304v-90h-304v90z" />
    <glyph glyph-name="period" unicode="." horiz-adv-x="223" 
d="M168 0h-113v133h113v-133z" />
    <glyph glyph-name="slash" unicode="/" horiz-adv-x="476" 
d="M349 756h103l-325 -902h-103z" />
    <glyph glyph-name="zero" unicode="0" horiz-adv-x="613" 
d="M304 -14q-37 0 -68.5 6.5t-57.5 19.5t-46.5 32.5t-36 45.5t-25.5 59.5t-15 73.5t-5 87v59q0 47 5.5 87t16 73t26.5 59.5t37.5 46.5t48 33t58 19.5t67.5 6.5q37 0 68 -6.5t57 -19.5t46.5 -32.5t36 -45.5t26 -59.5t15.5 -73.5t5 -87v-59q0 -47 -5.5 -87t-16 -73
t-26.5 -59.5t-37.5 -46.5t-48 -33t-58 -19.5t-67.5 -6.5zM307 73q20 0 37.5 4.5t31.5 13t25.5 22.5t20 33t14 43.5t8 55t2.5 66.5v58q0 36 -2.5 66.5t-8 55t-14 43.5t-20 33t-26 22.5t-31.5 13t-38 4.5q-20 0 -37.5 -4.5t-32 -13t-25.5 -22.5t-19.5 -33t-14 -43.5t-8.5 -55
t-3 -66.5v-58q0 -36 3 -66.5t8.5 -55t14 -43.5t20 -33t25.5 -22.5t31.5 -13t38.5 -4.5z" />
    <glyph glyph-name="one" unicode="1" horiz-adv-x="613" 
d="M424 0h-111v665l48 -56l-239 -102l-16 84l215 89h103v-680z" />
    <glyph glyph-name="two" unicode="2" horiz-adv-x="613" 
d="M96 639q16 8 34.5 15.5t38.5 14t42 11t45 7t47 2.5q31 0 58 -3.5t50.5 -10.5t43 -18t34.5 -26t25.5 -34t16 -43t5.5 -52q0 -25 -5 -46t-14 -39.5t-22 -34t-29 -30t-34.5 -27t-38.5 -24.5t-42 -24q-25 -13 -47 -27t-40.5 -28.5t-33 -30.5t-24.5 -34.5t-15.5 -39
t-5.5 -44.5v-26l-20 41h369v-88h-454v59q0 30 5 56.5t14.5 49.5t22 43t28 37t32.5 32t35 27.5t36 23.5t36 21q29 16 51 29t38.5 26t27 26.5t15.5 30t5 36.5q0 28 -7.5 48t-23.5 33t-41 19t-60 6q-19 0 -37.5 -2t-37.5 -6t-37 -9.5t-35.5 -13t-34.5 -15.5z" />
    <glyph glyph-name="three" unicode="3" horiz-adv-x="613" 
d="M174 395h102q28 0 51 4t40.5 12.5t28.5 21.5t17 30t6 38q0 19 -4 34t-11.5 26.5t-19 19t-26 12.5t-32 7.5t-37.5 2.5q-34 0 -66 -5.5t-61 -16t-56 -24.5l-16 83q31 16 64 26.5t69 16.5t76 6q29 0 55.5 -3t49.5 -10t43 -17t35.5 -24t26.5 -32.5t16.5 -40.5t5.5 -49
q0 -25 -5 -46t-14.5 -38t-22.5 -31t-30 -24.5t-37.5 -18t-43.5 -12.5l-1 23q20 -3 38.5 -8t35 -13t30.5 -18.5t25.5 -24t19.5 -30.5t12.5 -37t4.5 -43q0 -30 -6.5 -55t-18.5 -45.5t-29 -37t-38.5 -28.5t-47.5 -19.5t-55.5 -11.5t-62.5 -4q-30 0 -58.5 3.5t-54.5 10t-50.5 16
t-46.5 20.5l16 83q21 -10 43.5 -19t47 -15t49.5 -9.5t50 -3.5q23 0 42.5 3t36 9t29.5 15t22 22.5t14 31t5 39.5q0 19 -4 35t-12.5 28.5t-21.5 22t-30 16t-38.5 9.5t-47.5 3h-102v84z" />
    <glyph glyph-name="four" unicode="4" horiz-adv-x="613" 
d="M484 0h-104v643l58 -13l-318 -436l-40 37h497v-79h-528v77l329 451h106v-680z" />
    <glyph glyph-name="five" unicode="5" horiz-adv-x="613" 
d="M101 680h401v-88h-298v-225l-56 27q16 8 34 13.5t38 10t42 6.5t46 2q32 0 60 -4.5t52 -13.5t43.5 -22t34.5 -30.5t25.5 -39t15.5 -47t5 -55.5q0 -29 -5.5 -55.5t-16.5 -49t-27 -41t-37 -33t-47.5 -24.5t-58 -15t-67.5 -5q-41 0 -79 6t-72 17.5t-65 26.5l17 83
q17 -9 34 -16t35.5 -13t37.5 -10t40 -6t43 -2q20 0 37.5 2.5t33 7.5t28.5 13t23.5 18.5t17.5 24.5t10.5 31t3.5 37t-3 36.5t-9.5 30t-16 24t-22.5 18.5t-28.5 13.5t-34.5 8t-41 2.5t-45 -1.5t-45 -5t-43.5 -7.5t-40.5 -9v359z" />
    <glyph glyph-name="six" unicode="6" horiz-adv-x="613" 
d="M511 573q-15 7 -32 12.5t-35.5 9.5t-37 6t-36.5 2q-21 0 -40.5 -4t-38 -12.5t-34.5 -20.5t-30 -28.5t-25 -37t-19 -45t-12 -53t-4 -61.5v-22v-12.5t0.5 -14.5t0.5 -14l-15 11q2 23 9 42t17.5 34t23.5 26t29 18.5t34 12.5t37 7t38 2q25 0 48 -3.5t43.5 -11t38.5 -18
t33 -24t26.5 -31t20 -37.5t12.5 -43.5t4 -49.5q0 -27 -4.5 -51t-13 -45t-21 -39t-29 -32.5t-36 -25.5t-42 -18.5t-48.5 -11.5t-54 -4q-23 0 -45.5 3t-43.5 8.5t-40 15t-36.5 23t-32 31t-26 39.5t-19.5 48.5t-12.5 58.5t-4.5 70v50q0 39 5 74t14.5 65.5t23 57t30.5 48.5
t37.5 40t43 31t47.5 22t51.5 13.5t54.5 4.5q24 0 46.5 -2.5t43 -7.5t38.5 -11t33 -13zM208.5 114.5q9.5 -11.5 21.5 -20t25.5 -14.5t29 -9t32.5 -3q18 0 33.5 2.5t29.5 8t25.5 14t21 20t15.5 26t9.5 31.5t3.5 38q0 20 -3 37t-9 31.5t-15 26t-20.5 20t-25.5 14.5t-30.5 9
t-34.5 3t-33.5 -2.5t-29.5 -8t-25.5 -14t-21 -19.5t-15.5 -25.5t-9.5 -32.5t-3.5 -39q0 -20 3.5 -36.5t10 -31t16 -26z" />
    <glyph glyph-name="seven" unicode="7" horiz-adv-x="613" 
d="M290 0h-121l267 624l49 -33h-403v89h456v-73z" />
    <glyph glyph-name="eight" unicode="8" horiz-adv-x="613" 
d="M368 689.5q28 -4.5 52 -12.5t43.5 -20t34.5 -27t25.5 -33.5t15.5 -39.5t5 -45q0 -20 -3.5 -38.5t-10.5 -35.5t-18 -32t-26 -27.5t-34.5 -21.5t-44.5 -14l-1 20q27 -5 48.5 -13.5t38.5 -21t29.5 -28t21 -34t12.5 -39.5t4 -45t-5.5 -46.5t-16.5 -42t-27 -36.5t-37 -30
t-47 -22t-56.5 -14t-65.5 -5q-34 0 -64 4.5t-55.5 13.5t-46.5 22t-37 29t-27 35.5t-16.5 42t-5.5 47.5q0 23 4 43.5t12 39.5t20.5 35t29.5 29t38.5 22t48.5 14v-20q-24 5 -44 13.5t-35 20t-26.5 26.5t-18.5 32t-10.5 36t-3.5 40q0 23 5.5 44t15.5 39t25 33.5t35 28t44.5 21
t53 13t61.5 4.5q32 0 60 -4.5zM272 70.5q16 -2.5 34 -2.5t34.5 2.5t30.5 7t26 11.5t21.5 17t15.5 22.5t9.5 28t3.5 33.5q0 17 -3 32t-9 27.5t-15 22.5t-21 17.5t-26 12.5t-31 7.5t-36 2.5t-35.5 -2.5t-30.5 -7.5t-26 -12.5t-21 -17.5t-15 -22.5t-9 -27.5t-3 -32
q0 -18 3.5 -33.5t9.5 -28t15.5 -22.5t21 -17t26 -11.5t30.5 -7zM400 584.5q-11 9.5 -25 15.5t-31.5 9t-37.5 3t-37 -3t-31 -9t-24.5 -15.5t-18 -21.5t-11.5 -27t-4 -33q0 -19 4 -34.5t11.5 -27.5t19 -21t25.5 -14.5t30.5 -8.5t35.5 -3t36 3t31 8.5t25 14.5t19 21t12 27.5
t4 34.5q0 18 -4 33t-11 27t-18 21.5z" />
    <glyph glyph-name="nine" unicode="9" horiz-adv-x="613" 
d="M84 108q14 -6 29 -11t31 -8.5t32.5 -6t33 -4t33.5 -1.5q22 0 42 3t38.5 9.5t34 16.5t29 24.5t23.5 33t17.5 42t11 51.5t3.5 62v26v16.5v16t-0.5 14t-0.5 10.5l14 -11q-2 -23 -9 -41t-17 -32.5t-23.5 -25.5t-29 -18.5t-33 -12t-36.5 -6.5t-38 -2q-25 0 -47.5 3.5
t-42.5 10.5t-38 17.5t-32.5 24.5t-26.5 31t-20 37t-12 42.5t-4 48.5q0 27 4.5 51t13 45t21 39t28.5 32t35.5 25t42 18.5t48 11.5t53.5 4q23 0 45.5 -3t43.5 -9t40 -15.5t36 -23.5t31.5 -32.5t26 -41.5t19.5 -51.5t12 -63t4 -74.5v-50q0 -41 -4.5 -76t-13.5 -65t-22 -55
t-29.5 -45.5t-36 -36.5t-42 -27.5t-47.5 -19t-51.5 -11t-55.5 -3.5q-27 0 -52.5 2.5t-48.5 7.5t-43 11t-37 13zM400.5 565.5q-9.5 11.5 -21 20t-25 14.5t-28.5 9t-32 3t-33 -2.5t-29.5 -8t-25 -14t-20.5 -19.5t-15 -25t-9.5 -31.5t-3.5 -37.5t3 -36.5t9 -31t14.5 -25.5
t20 -20t25.5 -14.5t30 -8.5t34 -3q17 0 32.5 2.5t29 8t25 13.5t20.5 19t15 25.5t9.5 32t3.5 38.5q0 19 -3.5 35.5t-9.5 30.5t-15.5 25.5z" />
    <glyph glyph-name="colon" unicode=":" horiz-adv-x="223" 
d="M168 385h-113v133h113v-133zM168 0h-113v133h113v-133z" />
    <glyph glyph-name="semicolon" unicode=";" horiz-adv-x="223" 
d="M54.5 37.5q10.5 48.5 13.5 95.5h96q-2 -38 -9 -76.5t-19 -75.5t-28.5 -73t-36.5 -70h-85q24 51 41 101t27.5 98.5zM168 385h-113v133h113v-133z" />
    <glyph glyph-name="less" unicode="&#x3c;" horiz-adv-x="613" 
d="M108 241v84l370 159v-94l-304 -124v37l304 -125v-96z" />
    <glyph glyph-name="equal" unicode="=" horiz-adv-x="613" 
d="M102 130v85h409v-85h-409zM102 348v85h409v-85h-409z" />
    <glyph glyph-name="greater" unicode="&#x3e;" horiz-adv-x="613" 
d="M504 325v-84l-370 -159v94l305 124v-36l-305 124v96z" />
    <glyph glyph-name="question" unicode="?" horiz-adv-x="512" 
d="M169 205l-3 156q29 9 54 19t46.5 21t38.5 23.5t28.5 27t18 31.5t6.5 36q0 21 -5.5 38t-16.5 29.5t-26.5 20.5t-36 12t-45.5 4t-47.5 -2.5t-43 -7.5t-38.5 -11t-33.5 -12.5t-28.5 -13.5l-17 85q16 9 38 17.5t49 16t59.5 11.5t70.5 4q37 0 68.5 -5.5t58 -15.5t47.5 -25.5
t35.5 -36t22 -45.5t7.5 -55q0 -34 -11.5 -63.5t-32 -53.5t-50 -44t-65 -36t-76.5 -28l29 38l-3 -135h-98zM275 128v-128h-114v128h114z" />
    <glyph glyph-name="at" unicode="@" horiz-adv-x="942" 
d="M657 193q-1 -10 -1.5 -19.5t-0.5 -17.5q0 -16 2.5 -28t8 -20.5t14.5 -13t22 -4.5q14 0 26 7t22 19.5t18 29.5t13.5 36.5t9.5 41t7 43.5t4 42.5t1 38.5q0 33 -4 61.5t-12 53t-19.5 45.5t-26 38t-33 30.5t-39.5 23.5t-45.5 16.5t-51 9.5t-56.5 3q-48 0 -89.5 -8.5
t-77 -24.5t-64.5 -39t-52 -52t-40 -63.5t-28.5 -74.5t-17 -83.5t-5.5 -90.5q0 -35 4 -66t11.5 -58t18.5 -50t25 -41.5t31.5 -33.5t38 -26t44 -18.5t49.5 -11t55 -3.5q31 0 58 3.5t52 10t49 16.5l16 -68q-18 -8 -38.5 -14t-42.5 -10.5t-46 -7t-51 -2.5q-37 0 -71 4.5
t-64.5 13t-58 22t-51 32t-43 41.5t-34.5 51.5t-25 61.5t-15.5 72t-5.5 83q0 56 7.5 107.5t23 97.5t38 86t52 73.5t66.5 60t80.5 44.5t94 27.5t107.5 9.5q39 0 75 -4.5t68 -13.5t60 -22.5t51.5 -31t43 -39.5t34.5 -48t25 -56.5t15 -64.5t5 -72q0 -30 -2.5 -60.5t-8 -59.5
t-14 -55.5t-20.5 -50t-27 -42.5t-34 -32.5t-41.5 -21t-48.5 -7.5q-23 0 -42.5 5t-34 14.5t-24.5 23t-15.5 31t-6.5 38.5l17 28q-4 -26 -13.5 -48t-23.5 -39t-32.5 -29t-42 -18t-50.5 -6q-21 0 -40.5 3.5t-36.5 11t-31 18t-25 25.5t-18.5 33t-11.5 40t-4 47q0 32 3.5 61
t10.5 55t17 49t23 42.5t29 34.5t34.5 25.5t39.5 16t44 5.5q32 0 56 -7.5t42 -21.5t29.5 -34.5t16.5 -47.5l-18 -4l21 102h77zM354 202q0 -22 4 -40t12 -31t19.5 -21.5t27 -13t34.5 -4.5t35 6.5t29 18t23 27.5t17.5 35t12 39.5t7 42t2.5 42.5q0 23 -4 40.5t-11.5 31t-19.5 22
t-27 13t-34 4.5t-35 -6.5t-29.5 -18.5t-23.5 -28t-17.5 -35t-12 -40t-7 -42t-2.5 -42z" />
    <glyph glyph-name="A" unicode="A" horiz-adv-x="719" 
d="M300 700h119l277 -700h-119l-236 640h33l-236 -640h-115zM184 270h349l32 -84h-413z" />
    <glyph glyph-name="B" unicode="B" horiz-adv-x="668" 
d="M81 700h107v-700h-107v700zM151 85h216q21 0 39.5 2.5t35 8t29.5 15t22 22.5t14 30.5t5 40.5q0 19 -4 35t-11.5 28t-18 21t-24 15.5t-29.5 10.5t-33.5 6t-36.5 2h-204v82h195q20 0 38 2.5t34 7.5t29 13.5t22 20.5t14 28t5 36t-4.5 35t-13 26.5t-20 19.5t-26 13t-31.5 7
t-36 2h-206v85h213q30 0 57 -3.5t50.5 -10t43.5 -17t35.5 -24.5t26.5 -32.5t16.5 -40.5t5.5 -49q0 -34 -10 -61t-28.5 -47.5t-44.5 -34.5t-59 -20l1 16q33 -5 59.5 -15.5t46 -26t33 -36t20 -45.5t6.5 -54q0 -30 -6 -55.5t-18 -46t-29 -36t-39 -27.5t-47.5 -19.5t-55 -11
t-62.5 -3.5h-215v85z" />
    <glyph glyph-name="C" unicode="C" horiz-adv-x="638" 
d="M564 586q-18 9 -37.5 16t-41 12t-45 8t-49.5 3q-25 0 -48 -4t-43.5 -12t-38 -20t-32 -28.5t-25.5 -37.5t-19 -46t-12 -54.5t-4 -63.5v-37q0 -32 4 -59.5t11.5 -50.5t18.5 -42.5t25.5 -34.5t32 -26.5t37.5 -19t43.5 -11t48.5 -3.5q28 0 53.5 3t48.5 9t44 14t40 17l16 -84
q-19 -10 -42.5 -18.5t-50.5 -14.5t-58 -9.5t-67 -3.5q-38 0 -71.5 5.5t-63.5 16t-55.5 26t-46.5 36.5t-37 47t-27 57t-16.5 67.5t-5.5 77.5v40q0 43 6 80.5t17.5 70.5t28 60.5t38 49.5t48 39t56.5 28.5t64.5 17t72.5 5.5q33 0 61 -3t52.5 -9t45.5 -13.5t39 -16.5z" />
    <glyph glyph-name="D" unicode="D" horiz-adv-x="731" 
d="M80 700h114v-700h-114v700zM673 252q-6 -36 -18 -67t-29.5 -57t-40 -46.5t-49.5 -35.5t-58.5 -25.5t-66.5 -15.5t-74 -5h-176v87h172q26 0 49.5 3.5t44.5 10t39 17.5t33 25.5t27 33.5t20 42.5t12 51.5t4 61v36q0 33 -4 61.5t-12 51.5t-20 42t-27 34t-33 25.5t-39 17
t-44.5 10t-49.5 3.5h-172v87h176q39 0 74.5 -5t67 -15t58.5 -25t49.5 -35t39.5 -45.5t29 -57t18 -68t6 -79.5v-40q0 -42 -6 -78z" />
    <glyph glyph-name="E" unicode="E" horiz-adv-x="635" 
d="M80 700h109v-700h-109v700zM110 405h428v-85h-428v85zM117 700h448v-85h-448v85zM117 85h461v-85h-461v85z" />
    <glyph glyph-name="F" unicode="F" horiz-adv-x="587" 
d="M80 700h109v-700h-109v700zM110 395h409v-85h-409v85zM117 700h424v-85h-424v85z" />
    <glyph glyph-name="G" unicode="G" horiz-adv-x="699" 
d="M639 33q-17 -7 -38.5 -14t-46.5 -12.5t-51.5 -9.5t-54.5 -6.5t-57 -2.5q-41 0 -77.5 5t-68.5 15.5t-58.5 26t-48 36t-38 46.5t-27.5 57.5t-16.5 68t-5.5 78.5v40q0 44 6 82t18.5 71t30 60.5t40 49.5t50 38.5t59.5 27.5t68 16.5t76 5.5q38 0 70.5 -4t60 -10.5t51 -15.5
t42.5 -19l-16 -84q-25 13 -55.5 23.5t-66.5 16.5t-78 6q-28 0 -53.5 -4t-47.5 -12t-41 -20t-34.5 -28.5t-27 -37t-20 -45.5t-12.5 -55t-4 -64v-37q0 -32 3.5 -59.5t11 -51t18.5 -42.5t25.5 -34.5t32.5 -27t39.5 -19t46.5 -11t53 -3.5t54.5 2.5t50.5 7.5t45 12l-16 -27v246
l28 -27h-192v84h272v-339z" />
    <glyph glyph-name="H" unicode="H" horiz-adv-x="748" 
d="M554 700h114v-700h-114v700zM80 700h114v-700h-114v700zM143 408h455v-87h-455v87z" />
    <glyph glyph-name="I" unicode="I" horiz-adv-x="274" 
d="M80 700h114v-700h-114v700z" />
    <glyph glyph-name="J" unicode="J" horiz-adv-x="549" 
d="M473 270q0 -45 -6 -82t-17.5 -66.5t-28 -51.5t-38 -37.5t-47 -25.5t-54.5 -14.5t-62 -4.5q-38 0 -72 5.5t-64 15.5t-58 24l16 84q20 -10 40 -18t40.5 -13t41.5 -8t43 -3q24 0 44 4t37 12.5t30.5 23t22.5 36t14 51.5t5 69v429h113v-430z" />
    <glyph glyph-name="K" unicode="K" horiz-adv-x="682" 
d="M80 700h111v-700h-111v700zM500 700h140l-366 -359l1 58l390 -399h-147l-337 360v13z" />
    <glyph glyph-name="L" unicode="L" horiz-adv-x="584" 
d="M80 700h109v-700h-109v700zM117 87h431v-87h-431v87z" />
    <glyph glyph-name="M" unicode="M" horiz-adv-x="857" 
d="M80 700h112l254 -505h-32l254 505h109v-700h-104v578l29 -3l-227 -445h-93l-226 445l28 3v-578h-104v700z" />
    <glyph glyph-name="N" unicode="N" horiz-adv-x="746" 
d="M665 0h-98l-6 61v639h104v-700zM185 0h-105v700h99l6 -63v-637zM100 656l79 44l466 -656l-78 -44z" />
    <glyph glyph-name="O" unicode="O" horiz-adv-x="740" 
d="M368 -18q-37 0 -70 5t-62 15.5t-54 26t-45.5 36.5t-36.5 48t-27 59.5t-16.5 71.5t-5.5 84v44q0 41 4.5 76.5t14 66t22.5 56t30 46.5t38 37.5t44.5 28.5t50.5 19.5t56 11.5t61 4q37 0 70 -5t62 -15.5t54 -26t45.5 -36.5t36 -48t26.5 -59.5t16.5 -71.5t5.5 -84v-44
q0 -41 -4.5 -76.5t-14 -66t-22.5 -56t-30 -46.5t-37.5 -37.5t-44 -28.5t-50.5 -19.5t-56 -11.5t-61 -4zM451 81.5q18 6.5 34 17.5t29.5 26t24 34.5t17.5 44.5t11 56t4 68v44q0 37 -4 68t-11 56t-17.5 44.5t-24 34.5t-29.5 26t-34 17.5t-38.5 9.5t-42.5 3t-42.5 -3
t-38.5 -9.5t-34 -17.5t-29.5 -26t-24 -34.5t-17.5 -44.5t-11 -56t-4 -68v-44q0 -37 4 -68t11 -56t17.5 -44.5t24 -34.5t29.5 -26t34 -17.5t38.5 -9.5t42.5 -3t42.5 3t38.5 9.5z" />
    <glyph glyph-name="P" unicode="P" horiz-adv-x="629" 
d="M81 700h109v-700h-109v700zM152 259v85h177q22 0 41.5 3t36.5 9t30.5 16.5t23 25.5t14.5 35t5 46t-5 46t-14.5 35t-23 25.5t-30.5 17t-36.5 9.5t-41.5 3h-177v85h181q33 0 62.5 -4t55.5 -12t48 -20.5t39 -30t29 -40.5t18.5 -51t6.5 -62t-6.5 -62t-19 -51t-30 -40.5
t-39.5 -30.5t-48 -21t-55 -12t-61 -4h-181z" />
    <glyph glyph-name="Q" unicode="Q" horiz-adv-x="741" 
d="M429 -11.5q-29 -3.5 -61 -3.5q-37 0 -70 5t-62 15t-54 25.5t-45.5 36t-36.5 47.5t-27 59.5t-16.5 71t-5.5 83.5v44q0 41 4.5 76.5t14 66t22.5 56t30 46.5t38 37.5t44.5 28.5t50.5 19.5t56 11.5t61 4q37 0 70 -5t62 -15.5t54 -26t45.5 -36.5t36 -48t26.5 -59.5t16.5 -71.5
t5.5 -84v-44q0 -41 -4.5 -76.5t-14 -65.5t-22.5 -55.5t-30 -46.5t-37.5 -37t-44 -27.5t-50.5 -19.5t-56 -11.5zM451 81.5q18 6.5 34 17.5t29.5 26t24 34.5t17.5 44.5t11 56t4 68v44q0 37 -4 68t-11 56t-17.5 44.5t-24 34.5t-29.5 26t-34 17.5t-38.5 9.5t-42.5 3t-42.5 -3
t-38.5 -9.5t-34 -17.5t-29.5 -26t-24 -34.5t-17.5 -44.5t-11 -56t-4 -68v-44q0 -37 4 -68t11 -56t17.5 -44.5t24 -34.5t29.5 -26t34 -17.5t38.5 -9.5t42.5 -3t42.5 3t38.5 9.5zM445 18l249 -144l-143 -20l-245 164h139z" />
    <glyph glyph-name="R" unicode="R" horiz-adv-x="662" 
d="M340 328h114l177 -328h-124zM81 700h109v-700h-109v700zM417.5 364q16.5 6 30.5 16t23.5 24.5t14.5 34t5 45.5q0 25 -5 44.5t-14.5 34t-23.5 24.5t-30.5 16.5t-36.5 9t-42 2.5h-187v85h192q33 0 62.5 -3.5t55.5 -11.5t48 -20t39.5 -29t29.5 -39t18.5 -49.5t6.5 -60.5
q0 -28 -5.5 -52t-15.5 -44.5t-24.5 -37.5t-32.5 -30t-39 -23t-44 -16.5t-48 -9.5t-51 -3h-192v82h187q22 0 42 2.5t36.5 8.5z" />
    <glyph glyph-name="S" unicode="S" horiz-adv-x="602" 
d="M60 126q25 -11 51.5 -20.5t54.5 -16t58 -10t63 -3.5q30 0 54 4t41.5 11t30 17t20 23t11 28t3.5 31q0 18 -4 32.5t-12 26t-20.5 20t-30 15.5t-39.5 13t-50 11q-19 3 -37.5 7t-37.5 8.5t-36.5 11t-34 14.5t-30.5 18.5t-25.5 24.5t-20 31t-13 38.5t-4.5 47.5q0 28 5.5 51
t15.5 42.5t24.5 35.5t32.5 28t39.5 20.5t45.5 14.5t50.5 8.5t54.5 2.5q32 0 61 -2.5t55.5 -8t51 -13t46.5 -17.5l-19 -87q-16 7 -33 13.5t-35 11t-38.5 8t-43.5 5.5t-49 2q-25 0 -46 -3t-37.5 -9.5t-29 -15.5t-21 -21t-12.5 -26t-4 -31t4 -30.5t11.5 -24.5t19.5 -19
t28.5 -14.5t37.5 -11.5t47 -10q17 -3 35.5 -7t37 -8.5t37 -10.5t35.5 -14t32.5 -19t28 -25.5t22 -32.5t14.5 -40t5 -50q0 -35 -8.5 -64.5t-24.5 -53t-39.5 -41.5t-54 -30t-68 -18t-80.5 -6q-49 0 -93 6t-81.5 17.5t-68.5 26.5z" />
    <glyph glyph-name="T" unicode="T" horiz-adv-x="665" 
d="M278 700h109v-700h-109v700zM36 700h594v-87h-594v87z" />
    <glyph glyph-name="U" unicode="U" horiz-adv-x="730" 
d="M654 264q0 -37 -5 -68.5t-14.5 -58.5t-23.5 -49t-32.5 -39t-41.5 -29.5t-50.5 -21t-59 -12.5t-66.5 -4t-65.5 4t-57 12t-49 21t-41 30t-32 39t-23 48.5t-14 58.5t-4.5 69v436h114v-435q0 -30 3.5 -55t11 -45t18 -36t25 -27t32.5 -18.5t39.5 -11t46.5 -3.5t46.5 3.5
t39.5 11t32.5 18.5t25 27t18 36t11 45t3.5 55v435h113v-436z" />
    <glyph glyph-name="V" unicode="V" horiz-adv-x="692" 
d="M405 0h-118l-264 700h119l222 -621h-33l222 621h117z" />
    <glyph glyph-name="W" unicode="W" horiz-adv-x="953" 
d="M741 0h-119l-160 591h30l-161 -591h-119l-178 700h117l136 -621h-24l162 601h106l162 -601h-24l136 621h114z" />
    <glyph glyph-name="X" unicode="X" horiz-adv-x="693" 
d="M305 400l2 -74l-266 374h131l201 -300h-49l201 300h126l-266 -374l2 74l285 -400h-134l-215 324h44l-217 -324h-130z" />
    <glyph glyph-name="Y" unicode="Y" horiz-adv-x="661" 
d="M274 0v304h113v-304h-113zM519 700h125l-262 -429h-103l-262 429h129l200 -353h-27z" />
    <glyph glyph-name="Z" unicode="Z" horiz-adv-x="647" 
d="M463 640l1 -25h-396v85h514v-77l-413 -563l-1 25h428v-85h-546v77z" />
    <glyph glyph-name="bracketleft" unicode="[" horiz-adv-x="342" 
d="M80 756h231v-75h-133v-752h133v-75h-231v902z" />
    <glyph glyph-name="backslash" unicode="\" horiz-adv-x="476" 
d="M24 756h103l325 -902h-103z" />
    <glyph glyph-name="bracketright" unicode="]" horiz-adv-x="342" 
d="M261 -146h-231v75h134v752h-134v75h231v-902z" />
    <glyph glyph-name="asciicircum" unicode="^" horiz-adv-x="613" 
d="M256 680h102l167 -350h-103l-137 296h40l-136 -296h-101z" />
    <glyph glyph-name="underscore" unicode="_" horiz-adv-x="470" 
d="M470 -154h-470v79h470v-79z" />
    <glyph glyph-name="grave" unicode="`" horiz-adv-x="587" 
d="M176 730h131l103 -132h-101z" />
    <glyph glyph-name="a" unicode="a" horiz-adv-x="551" 
d="M372 332q0 23 -4.5 41.5t-14 31.5t-23.5 22t-33 13t-43 4q-16 0 -32.5 -2t-33.5 -5.5t-33 -8.5t-31.5 -11t-29.5 -13l-15 80q16 8 36.5 16t45 14t51.5 9.5t56 3.5q54 0 94.5 -12.5t66.5 -37.5t39 -62t13 -85v-330h-98l-8 110l15 -17q-6 -20 -16 -36.5t-24.5 -29.5
t-33.5 -22t-42 -14t-51 -5q-20 0 -39.5 2.5t-37 8t-32.5 14t-27.5 21t-21.5 29t-14 37.5t-5 46q0 20 3 39t10.5 35.5t19.5 31t30 26t42.5 19.5t56 12.5t71.5 4.5q16 0 31.5 -0.5t29.5 -1.5t27.5 -2t26.5 -3l-1 -71l-22 2t-21.5 2t-21 1.5t-21 0.5h-21.5q-31 0 -53 -4
t-37 -11.5t-24 -18.5t-12.5 -25t-3.5 -31q0 -19 4 -33t12 -24t19 -16t25.5 -9t31.5 -3q22 0 40.5 4.5t34 13t26.5 23t17 34t6 45.5v147z" />
    <glyph glyph-name="b" unicode="b" horiz-adv-x="600" 
d="M75 730h110v-334l-21 5q5 19 12.5 36t19 31.5t26.5 26t33.5 19.5t40.5 12.5t48 4.5q27 0 51.5 -5t45.5 -15.5t38.5 -26t31 -36.5t22.5 -47t14 -57t5 -68v-32q0 -32 -4 -60.5t-11.5 -52.5t-18.5 -44t-25 -36.5t-31 -28.5t-36.5 -20t-41.5 -12t-46 -4t-45.5 4t-39 11.5
t-31.5 18.5t-24.5 24.5t-17.5 29t-11 33.5l12 19l-10 -126h-96v730zM413.5 392.5q-8.5 13.5 -19 23t-23.5 15.5t-27.5 9t-31.5 3q-16 0 -31 -3t-28 -9t-23.5 -15.5t-19 -23t-14 -31t-8.5 -39.5t-3 -49v-31q0 -27 3 -49t9 -40t14 -31.5t19 -23t23.5 -15.5t27.5 -9t31 -3
q17 0 31.5 3t27.5 9t23.5 15.5t19 23t14.5 31.5t9 40t3 49v31q0 27 -3 49t-9 39.5t-14.5 31z" />
    <glyph glyph-name="c" unicode="c" horiz-adv-x="500" 
d="M438 410q-13 7 -27.5 12.5t-30 9.5t-33 6.5t-37.5 2.5q-18 0 -35 -3.5t-32 -10t-28 -17t-23 -24.5t-17 -32t-11 -40t-4 -48v-30q0 -22 3.5 -41.5t10.5 -35.5t16.5 -29t22 -23.5t27.5 -17t32.5 -10t36.5 -3.5q20 0 38.5 2.5t36 6.5t33 9.5t30.5 12.5l16 -80
q-16 -8 -34.5 -14.5t-40 -11.5t-46 -7.5t-51.5 -2.5q-33 0 -61.5 5.5t-53 16t-45 25.5t-36 35.5t-26 45.5t-16 54t-5.5 63v30q0 36 6 67.5t17.5 58t28 48t37.5 37.5t46 27t54 16.5t61 5.5q34 0 62.5 -4.5t52 -12.5t41.5 -18z" />
    <glyph glyph-name="d" unicode="d" horiz-adv-x="600" 
d="M524 0h-96l-9 126l16 -9q-5 -19 -13.5 -36.5t-20 -32t-26 -26t-32.5 -19.5t-39.5 -12.5t-47.5 -4.5q-27 0 -51.5 5t-45.5 15.5t-38.5 26t-31 36.5t-22.5 47t-14 57t-5 68v33q0 32 4 60t11.5 52t18.5 44.5t25 36.5t31 28t36.5 20t41.5 12t46 4q25 0 45.5 -4t37.5 -11.5
t31 -18t24.5 -24t18 -29t12.5 -33.5l-16 -13v332h109v-730zM186.5 124.5q8.5 -13.5 19 -23t23.5 -15.5t28 -9t31 -3t31 3t27.5 9t23.5 15.5t19 23t14 31t9 39.5t3 49v31q0 27 -3 49.5t-9 40t-14.5 31.5t-19 23.5t-23.5 15.5t-27.5 9t-31.5 3q-16 0 -31 -3t-27.5 -9
t-23.5 -15.5t-19 -23.5t-14 -31.5t-9 -40t-3 -49.5v-31q0 -27 3 -49t9 -39.5t14.5 -31z" />
    <glyph glyph-name="e" unicode="e" horiz-adv-x="550" 
d="M491 31q-19 -9 -40.5 -16t-46.5 -12.5t-52 -8.5t-57 -3q-35 0 -65 5t-55 15.5t-45 26t-35.5 36.5t-26 47t-15.5 57.5t-5 68.5v32q0 36 5.5 67.5t16.5 57t26.5 46t35.5 36t43.5 25.5t51 15t57.5 5q31 0 57 -5t48 -15t40 -25t31 -34.5t22 -44.5t13.5 -55t4.5 -65v-59h-376
v73h305l-36 -16q0 32 -3 56.5t-9 43t-15.5 31.5t-22 21.5t-28.5 12t-36 3.5q-16 0 -30.5 -3t-26.5 -9t-22 -15.5t-18 -23t-13 -31t-8 -40t-3 -49.5v-43q0 -26 3.5 -47t10 -38.5t16.5 -30.5t22.5 -22.5t28 -15.5t33.5 -9t39 -3q30 0 58.5 5t55 13.5t49.5 18.5z" />
    <glyph glyph-name="f" unicode="f" horiz-adv-x="401" 
d="M19 515h364v-77h-364v77zM199.5 715q21.5 12 48 18t57.5 6q22 0 41.5 -3t35.5 -8t29 -11l-16 -77q-10 5 -22.5 9t-26 6.5t-28.5 2.5q-24 0 -41.5 -6.5t-29 -21t-17.5 -36t-6 -51.5v-543h-110v543q0 30 5.5 56t16 48t26.5 39t37.5 29z" />
    <glyph glyph-name="g" unicode="g" horiz-adv-x="600" 
d="M389 133q8 13 14 30t9 38.5t3 48.5v31q0 26 -3 47.5t-9 38.5t-14.5 30.5t-19 22.5t-23.5 15t-27.5 9t-31.5 3q-16 0 -31 -3t-27.5 -9t-23.5 -15t-19 -22.5t-14 -30.5t-9 -38.5t-3 -47.5v-31q0 -26 3 -47t9 -38t14.5 -30t19 -22.5t23.5 -15t28 -8.5t31 -3t31 2.5t27.5 8
t23.5 14.5t19 22zM255 -2q-27 0 -51 5t-45 15t-38.5 25.5t-31 36t-22.5 45.5t-14 55.5t-5 66.5v32q0 31 4 58.5t11.5 51t18.5 43.5t25 35.5t31 27.5t36.5 20t41.5 12t46 4q25 0 46 -4t38.5 -11.5t31.5 -18t24.5 -24t17.5 -29t11 -33.5l-12 -20l9 126h96v-501q0 -29 -5 -54.5
t-15 -48t-25.5 -41.5t-35.5 -34t-46 -25.5t-57 -16t-68 -5.5q-38 0 -72 5.5t-63.5 15t-53.5 20.5l17 81q17 -9 36 -16t40 -12t43.5 -7.5t44.5 -2.5q23 0 43 3.5t37 11t30 19t22 27t14 35.5t5 44v110l20 3q-4 -21 -12 -38.5t-19 -32t-25.5 -25.5t-33 -18.5t-41 -11.5
t-49.5 -4z" />
    <glyph glyph-name="h" unicode="h" horiz-adv-x="587" 
d="M75 730h110v-335l-24 -27q4 34 13.5 61t25 46t36 31.5t46.5 18.5t56 6q25 0 47 -4t40 -12.5t33 -21t26 -29.5t18.5 -39t11 -49t3.5 -59v-317h-110v312q0 25 -2.5 44t-8 33.5t-14 25t-19.5 16.5t-24.5 9t-30.5 3q-22 0 -41 -5t-34 -16t-26 -29t-16.5 -43t-5.5 -59v-291
h-110v730z" />
    <glyph glyph-name="i" unicode="i" horiz-adv-x="260" 
d="M75 517h110v-517h-110v517zM187 595h-114v118h114v-118z" />
    <glyph glyph-name="j" unicode="j" horiz-adv-x="260" 
d="M186 -8q0 -28 -3.5 -52.5t-11 -45t-18.5 -37t-25.5 -29t-32 -20.5t-39 -12.5t-45.5 -4.5q-20 0 -38.5 3t-34 8t-28.5 11l15 76q10 -4 22 -7.5t24.5 -5.5t24.5 -2q20 0 35 6.5t25 21t15 37.5t5 55v523h110v-525zM189 595h-114v118h114v-118z" />
    <glyph glyph-name="k" unicode="k" horiz-adv-x="553" 
d="M75 730h107v-730h-107v730zM405 0l-236 278v9l222 230h132l-261 -255l1 44l278 -306h-136z" />
    <glyph glyph-name="l" unicode="l" horiz-adv-x="260" 
d="M75 730h110v-730h-110v730z" />
    <glyph glyph-name="m" unicode="m" horiz-adv-x="893" 
d="M75 517h95l11 -122l-20 -27q3 34 12.5 61t24 46t35 31.5t45.5 18.5t55 6q22 0 41 -3.5t35.5 -10.5t30 -17.5t24 -25t18 -33.5t11.5 -43l-22 -30q4 35 14 61.5t25.5 46t36.5 31.5t47.5 18t57.5 6q24 0 45 -4t38.5 -12.5t31.5 -21t24.5 -30t17.5 -39.5t10.5 -48.5
t3.5 -58.5v-317h-109v312q0 25 -2.5 44t-8 33.5t-13 25t-18 16.5t-23 9t-27.5 3q-22 0 -40 -5t-32.5 -16t-24.5 -29t-15.5 -43t-5.5 -59v-291h-110v312q0 25 -2.5 44t-7.5 33.5t-13 25t-18 16.5t-23 9t-28 3q-21 0 -39.5 -5t-32.5 -16t-24 -29t-15.5 -43t-5.5 -59v-291h-110
v517z" />
    <glyph glyph-name="n" unicode="n" horiz-adv-x="587" 
d="M75 517h95l11 -122l-20 -27q4 34 13.5 61t25 46t36 31.5t46.5 18.5t56 6q25 0 47 -4t40 -12.5t33 -21t26 -29.5t18.5 -39t11 -49t3.5 -59v-317h-110v312q0 25 -2.5 44t-8 33.5t-14 25t-19.5 16.5t-24.5 9t-30.5 3q-22 0 -41 -5t-34 -16t-26 -29t-16.5 -43t-5.5 -59v-291
h-110v517z" />
    <glyph glyph-name="o" unicode="o" horiz-adv-x="575" 
d="M286 -14q-32 0 -60.5 5t-52.5 15.5t-44 26t-35 36t-25.5 47t-15.5 58t-5 68.5v33q0 32 4.5 60.5t12.5 52.5t20 44t28 35.5t35 27.5t41 20t47 12t53 4q32 0 60.5 -5t52.5 -15.5t44 -26t35 -36t25.5 -47t15.5 -58t5 -68.5v-32q0 -32 -4.5 -60.5t-12.5 -52.5t-20.5 -44
t-28 -36t-34.5 -28t-41 -20t-47 -12t-53 -4zM347 83q13 6 23.5 15.5t19 23t14 31t8.5 40t3 50.5v31q0 28 -3 50.5t-8.5 40.5t-14 31.5t-19.5 23t-23.5 15.5t-27.5 9t-32 3q-16 0 -31 -3t-28 -9t-23.5 -15.5t-19 -23t-14 -31.5t-8.5 -40.5t-3 -50.5v-30q0 -28 3 -50.5
t8.5 -40.5t14 -31.5t19.5 -23t23.5 -15.5t27.5 -9t32 -3t31.5 3t27.5 9z" />
    <glyph glyph-name="p" unicode="p" horiz-adv-x="600" 
d="M75 517h96l10 -126l-17 10q5 19 12.5 36t19 31.5t26.5 26t33.5 19.5t40.5 12.5t48 4.5q27 0 51.5 -5t45.5 -15.5t38.5 -26t31 -36.5t22.5 -47t14 -57t5 -68v-32q0 -32 -4 -60.5t-11.5 -52.5t-18.5 -44t-25 -36.5t-31 -28.5t-36.5 -20t-41.5 -12t-46 -4t-45.5 4t-39 11.5
t-31.5 18.5t-24.5 24.5t-17.5 29t-11 33.5l16 12v-319h-110v717zM413.5 392.5q-8.5 13.5 -19 23t-23.5 15.5t-27.5 9t-31.5 3q-16 0 -31 -3t-28 -9t-23.5 -15.5t-19 -23t-14 -31t-8.5 -39.5t-3 -49v-31q0 -27 3 -49t9 -40t14 -31.5t19 -23t23.5 -15.5t27.5 -9t31 -3
q17 0 31.5 3t27.5 9t23.5 15.5t19 23t14.5 31.5t9 40t3 49v31q0 27 -3 49t-9 39.5t-14.5 31z" />
    <glyph glyph-name="q" unicode="q" horiz-adv-x="600" 
d="M524 -200h-109v321l20 -4q-4 -19 -12 -36.5t-19.5 -32t-26 -26t-33 -19.5t-40.5 -12.5t-48 -4.5q-27 0 -51.5 5t-45.5 15.5t-38.5 26t-31 36.5t-22.5 47t-14 57t-5 68v33q0 32 4 60t11.5 52t18.5 44.5t25 36.5t31 28t36.5 20t41.5 12t46 4q25 0 46 -4t38.5 -11.5
t31.5 -18t24.5 -24t17.5 -29t11 -33.5l-12 -20l9 126h96v-717zM186.5 124.5q8.5 -13.5 19 -23t23.5 -15.5t28 -9t31 -3t31 3t27.5 9t23.5 15.5t19 23t14 31t9 39.5t3 49v31q0 27 -3 49.5t-9 40t-14.5 31.5t-19 23.5t-23.5 15.5t-27.5 9t-31.5 3q-16 0 -31 -3t-27.5 -9
t-23.5 -15.5t-19 -23.5t-14 -31.5t-9 -40t-3 -49.5v-31q0 -27 3 -49t9 -39.5t14.5 -31z" />
    <glyph glyph-name="r" unicode="r" horiz-adv-x="401" 
d="M75 517h95l11 -122l-18 -38q3 29 9.5 53t17 42.5t24 32t30.5 22t36.5 13t40.5 4.5q14 0 25.5 -1.5t21 -4.5t17.5 -7l-17 -93q-8 4 -16.5 6t-18.5 3.5t-21 1.5q-17 0 -33.5 -3.5t-30.5 -11.5t-25.5 -20.5t-20 -31t-13 -42t-4.5 -54.5v-266h-110v517z" />
    <glyph glyph-name="s" unicode="s" horiz-adv-x="476" 
d="M54 112q20 -9 40 -16t41 -12t43 -8t44 -3q21 0 37.5 2.5t29 6.5t21.5 10.5t14 14t7.5 17t2.5 20.5q0 13 -3.5 23t-11 18t-19.5 13.5t-29 10.5t-40 9q-14 3 -29.5 5.5t-31.5 6.5t-31 9.5t-29 13t-25.5 18.5t-20 25t-13.5 32.5t-5 42.5t5.5 44.5t15.5 36.5t24.5 28.5
t32.5 21t39 14.5t44.5 8.5t48.5 2.5t47.5 -2.5t42.5 -7t38.5 -10.5t34.5 -14l-16 -80q-14 7 -30 12.5t-34 10t-38 7t-42 2.5t-39.5 -2.5t-30.5 -8t-21.5 -13t-12.5 -18t-4 -23.5q0 -12 3 -21.5t10 -17t18.5 -13t29 -10.5t40.5 -9q15 -2 30.5 -5t31.5 -7t31.5 -9.5
t29.5 -13.5t25.5 -18.5t20 -25.5t13.5 -33.5t5 -42.5q0 -27 -6.5 -49.5t-19 -40.5t-30.5 -32t-42 -23t-53 -13.5t-63 -4.5q-28 0 -54 3t-49.5 8.5t-44.5 12.5t-39 16z" />
    <glyph glyph-name="t" unicode="t" horiz-adv-x="447" 
d="M223 183q0 -24 3.5 -42t11 -30.5t18 -20t24 -11t30.5 -3.5q16 0 31 3t29.5 8t28.5 11l16 -80q-16 -7 -35.5 -13t-42 -10t-48.5 -4q-36 0 -64.5 6.5t-49.5 21t-34.5 36.5t-20.5 52.5t-7 70.5v476l110 18v-489zM18 517h375v-77h-375v77z" />
    <glyph glyph-name="u" unicode="u" horiz-adv-x="587" 
d="M512 0h-95l-11 122l20 27q-4 -34 -13.5 -61t-24.5 -46t-36 -31.5t-46.5 -18.5t-56.5 -6q-26 0 -47.5 4t-40 12.5t-33 21t-25.5 30t-18.5 39.5t-11 48.5t-3.5 58.5v317h110v-312q0 -25 2.5 -44t8 -33.5t14 -25t19.5 -16.5t24.5 -9t29.5 -3q23 0 42 5t34 16t26 29t16.5 43
t5.5 59v291h110v-517z" />
    <glyph glyph-name="v" unicode="v" horiz-adv-x="530" 
d="M323 0h-116l-187 517h117l147 -462h-34l147 462h113z" />
    <glyph glyph-name="w" unicode="w" horiz-adv-x="759" 
d="M599 0h-113l-123 438h34l-123 -438h-113l-139 517h110l99 -457h-23l123 443h99l124 -443h-22l98 457h107z" />
    <glyph glyph-name="x" unicode="x" horiz-adv-x="532" 
d="M228 299l-2 -59l-195 277h124l143 -227h-61l142 227h122l-195 -277l-1 58l209 -298h-126l-153 245l59 1l-153 -246h-123z" />
    <glyph glyph-name="y" unicode="y" horiz-adv-x="530" 
d="M300 -66q-10 -27 -21.5 -48t-24.5 -36.5t-27.5 -27t-30 -18.5t-33 -10t-36.5 -3q-18 0 -34.5 3t-30 8t-25.5 11l16 78q9 -4 19.5 -8t22 -6t22.5 -2q16 0 29 4t24 13.5t20.5 25t18.5 38.5l26 71l-1 -66l-214 556h117l149 -434l-29 -12l140 446h113z" />
    <glyph glyph-name="z" unicode="z" horiz-adv-x="505" 
d="M354 474l-13 -36h-283v79h392v-72l-310 -401l13 35h308v-79h-417v72z" />
    <glyph glyph-name="braceleft" unicode="{" horiz-adv-x="363" 
d="M30 343h15q26 0 42 8t24 25t8 45q0 16 -1.5 33t-3.5 35.5t-4.5 37t-4 36.5t-1.5 35q0 28 5.5 51t15.5 41t24.5 31t32.5 21.5t40 12.5t46 4q20 0 36 -2t29 -5l-7 -72q-6 2 -13 2.5t-14.5 1t-13.5 0.5q-30 0 -48.5 -9.5t-27 -28t-8.5 -45.5q0 -12 1 -26t3 -29.5t3.5 -32
t3.5 -32.5t3 -32t1 -30q0 -20 -3 -36.5t-10 -30.5t-18.5 -25.5t-28.5 -20t-41 -14.5v26q24 -6 41 -14.5t28.5 -20t18.5 -25.5t10 -30.5t3 -36.5q0 -14 -1 -30t-3 -32t-3.5 -32.5t-3.5 -32t-3 -29.5t-1 -26q0 -27 8.5 -45.5t27 -28t48.5 -9.5q6 0 13.5 0.5t14.5 1.5t13 2
l7 -72q-13 -3 -29 -5t-36 -2q-24 0 -46 4t-40 12.5t-32.5 21.5t-24.5 31t-15.5 41t-5.5 51q0 17 1.5 35t4 36.5t4.5 37t3.5 35.5t1.5 33q0 28 -8 45t-24 25t-42 8h-15v76z" />
    <glyph glyph-name="bar" unicode="|" horiz-adv-x="255" 
d="M80 756h94v-902h-94v902z" />
    <glyph glyph-name="braceright" unicode="}" horiz-adv-x="363" 
d="M333 267h-16q-25 0 -41.5 -8t-24 -25t-7.5 -45q0 -16 1.5 -33t4 -35.5t4.5 -37t3.5 -36.5t1.5 -35q0 -28 -5.5 -51t-15.5 -41t-24.5 -31t-32.5 -21.5t-39.5 -12.5t-46.5 -4q-19 0 -35.5 2t-29.5 5l7 72q6 -1 13 -2t14.5 -1.5t12.5 -0.5q30 0 48.5 9.5t27.5 28t9 45.5
q0 12 -1 26t-3 29.5t-3.5 32t-3.5 32.5t-3 32t-1 30q0 20 3 36.5t10 30.5t18.5 25.5t28.5 20t41 14.5v-26q-24 6 -41 14.5t-28.5 20t-18.5 25.5t-10 30.5t-3 36.5q0 14 1 30t3 32t3.5 32.5t3.5 32t3 29.5t1 26q0 27 -9 45.5t-27.5 28t-48.5 9.5q-5 0 -12.5 -0.5t-14.5 -1
t-13 -2.5l-7 72q13 3 29.5 5t35.5 2q25 0 46.5 -4t39.5 -12.5t32.5 -21.5t24.5 -31t15.5 -41t5.5 -51q0 -17 -1.5 -35t-3.5 -36.5t-4.5 -37t-4 -35.5t-1.5 -33q0 -28 7.5 -45t24 -25t41.5 -8h16v-76z" />
    <glyph glyph-name="asciitilde" unicode="~" horiz-adv-x="613" 
d="M126 328.5q16 19.5 38 29.5t49 10q17 0 32.5 -4t29 -10.5t26 -14t24 -15t22.5 -14t21.5 -10.5t21.5 -4q12 0 20.5 4.5t14 13t8 21t2.5 28.5h85q0 -39 -8.5 -68.5t-24.5 -49t-38 -29.5t-49 -10q-17 0 -32.5 4t-29 10.5t-26 14t-24 15t-22.5 14t-21.5 10.5t-21.5 4
q-12 0 -20.5 -4.5t-14 -13.5t-8 -21.5t-2.5 -27.5h-85q0 39 8.5 68.5t24.5 49z" />
    <glyph glyph-name="uni00A0" unicode="&#xa0;" horiz-adv-x="186" 
 />
    <glyph glyph-name="exclamdown" unicode="&#xa1;" horiz-adv-x="283" 
d="M200 -183l-10 496h-97l-10 -496h117zM198 389h-113v128h113v-128z" />
    <glyph glyph-name="cent" unicode="&#xa2;" horiz-adv-x="613" 
d="M145.5 449.5q17.5 21.5 39.5 37.5t48 27t56.5 16.5t63.5 5.5q35 0 64.5 -5t54.5 -13t44 -19l-16 -79q-14 8 -29 14t-32 10.5t-35.5 7t-39.5 2.5q-19 0 -36.5 -3.5t-33 -10t-29 -17t-24 -25t-18 -32.5t-11.5 -40.5t-4 -48.5v-30q0 -23 3.5 -42.5t10.5 -36t17.5 -30
t23.5 -23.5t28.5 -17t33.5 -10.5t38 -3.5q22 0 41.5 2.5t37.5 7t35 11t32 13.5l16 -79q-16 -8 -35.5 -15t-42 -12t-47.5 -7.5t-54 -2.5q-34 0 -64 5.5t-56 16t-47 25.5t-37 35.5t-27.5 45t-17 54t-5.5 62.5v30q0 36 6 67.5t18 58t29.5 48zM378 513h-77v141h77v-141z
M378 -129h-77v148h77v-148z" />
    <glyph glyph-name="sterling" unicode="&#xa3;" horiz-adv-x="613" 
d="M260 0h-110v414q0 39 5 71.5t14.5 59.5t23 48.5t31 38t37.5 28.5t43 19.5t48 11t52 3.5q24 0 46 -2.5t42 -8t39 -13t37 -16.5l-16 -83q-24 13 -46.5 21t-45 12t-45.5 4t-43 -3.5t-37.5 -12t-31 -22.5t-23.5 -35.5t-15 -50.5t-5 -67v-417zM57 313v84h430v-84h-430zM57 0
v85h522v-85h-522z" />
    <glyph glyph-name="currency" unicode="&#xa4;" horiz-adv-x="613" 
d="M110 349q0 33 6.5 59.5t19 47t30 36t39.5 25.5t47.5 15t53.5 5t53.5 -5t47 -15t39.5 -25.5t30.5 -36.5t19 -48t6.5 -60q0 -32 -6.5 -59t-19 -47.5t-30 -36t-39.5 -25.5t-47.5 -15t-53.5 -5t-53 5t-47 15t-39.5 25.5t-30 36.5t-19.5 48t-7 60zM351.5 235.5
q10.5 3.5 20.5 9.5t17.5 15t13.5 21.5t9 28.5t3 37q0 25 -4 43.5t-12 31.5t-18 22t-22.5 14.5t-25.5 7.5t-27 2q-12 0 -23.5 -1.5t-22 -5t-20 -9.5t-17.5 -15.5t-13.5 -22t-8.5 -29t-3 -37.5q0 -24 4 -42.5t11.5 -31.5t18 -22t22.5 -14t25 -7t27 -2q12 0 23.5 1.5t22 5z
M170 275l55 -59l-91 -88l-55 60zM170 421l-91 87l55 60l91 -88zM443 421l-55 59l90 88l55 -60zM443 275l90 -87l-55 -60l-90 88z" />
    <glyph glyph-name="yen" unicode="&#xa5;" horiz-adv-x="613" 
d="M252 317h108v-317h-108v317zM82 191h447v-67h-447v67zM82 342h176l45 -67h-221v67zM309 275l45 67h175v-67h-220zM31 680h118l172 -362h-27l172 362h115l-202 -380h-146z" />
    <glyph glyph-name="brokenbar" unicode="&#xa6;" horiz-adv-x="255" 
d="M80 400v356h94v-356h-94zM80 -146v356h94v-356h-94z" />
    <glyph glyph-name="section" unicode="&#xa7;" horiz-adv-x="514" 
d="M240 -107q-37 0 -70 5.5t-62 14.5t-53 19l16 82q20 -9 40 -16t40.5 -12t42 -8t43.5 -3q26 0 44.5 3.5t31.5 10t21 15.5t11.5 20.5t3.5 24.5q0 15 -4.5 26.5t-13 19.5t-22 14.5t-32 12t-41.5 10.5q-16 4 -32.5 8t-33.5 9.5t-33 12.5t-31 16t-27.5 20t-21.5 25.5t-14 32.5
t-5 40t5.5 42t16.5 37t27.5 30.5t37.5 22t46 11.5l-1 -24q-20 8 -36.5 17t-30 21t-22.5 27t-14 34t-5 43t5.5 43.5t15.5 35.5t24.5 28t32 21t38 15t43.5 8.5t47 2.5q34 0 63.5 -4t55 -11.5t46.5 -18.5l-16 -80q-14 7 -30 12.5t-34 10t-39 7t-44 2.5q-27 0 -46.5 -4.5
t-32 -13t-18.5 -21t-6 -29.5q0 -14 4 -24.5t12.5 -19t21.5 -15t31.5 -12t43.5 -10.5q16 -3 32.5 -7t33.5 -9.5t33 -12t31 -15.5t27.5 -20.5t21.5 -26t14 -32.5t5 -40t-5.5 -42t-16.5 -37t-27.5 -30.5t-37 -22t-46.5 -11.5l1 24q20 -8 36.5 -17t30 -21t22.5 -27.5t14 -35.5
t5 -46t-6.5 -48t-19 -39.5t-31 -30.5t-42 -22t-52.5 -13.5t-63 -4.5zM235 225.5q17 -2.5 37 -2.5q23 0 39.5 4t28 11.5t19 18t10.5 22.5t3 25q0 14 -4 25.5t-11.5 21t-18.5 17t-25.5 12t-31.5 7t-37 2.5q-22 0 -39 -4t-28.5 -11.5t-19 -17.5t-10.5 -22t-3 -25q0 -14 4 -26
t11.5 -21.5t18.5 -16.5t25.5 -12t31.5 -7.5z" />
    <glyph glyph-name="dieresis" unicode="&#xa8;" horiz-adv-x="587" 
d="M251 602h-100v104h100v-104zM435 602h-100v104h100v-104z" />
    <glyph glyph-name="copyright" unicode="&#xa9;" horiz-adv-x="811" 
d="M405 -20q-38 0 -73.5 5.5t-67.5 16t-60 27t-52 38.5t-42.5 50t-31.5 61.5t-20 73t-7 84.5v28q0 45 7 84t20.5 72.5t32.5 61.5t42.5 50t52 38.5t60.5 27.5t67.5 16.5t72.5 5.5q38 0 73.5 -5.5t67.5 -16t60 -27t52 -38.5t42.5 -50t31.5 -61.5t20 -73t7 -84.5v-29
q0 -45 -7 -84t-20 -72.5t-32 -61t-43 -49.5t-52.5 -38.5t-60.5 -27.5t-67 -16.5t-73 -5.5zM405 45q29 0 56 4t52 12t47.5 21t41.5 30.5t34 39.5t26 49.5t16.5 60.5t5.5 72v31q0 39 -5.5 72.5t-16.5 61t-26 50t-34 40t-41 30t-47 20.5t-52 12t-56 4t-56 -4t-52 -12t-47 -21
t-41 -30.5t-34 -40t-26 -50t-16.5 -60.5t-5.5 -72v-30q0 -39 5.5 -72.5t16 -61t25.5 -50t34 -40t41 -30t47 -20.5t52 -12t56 -4zM527 478l14 70q-14 7 -32 12.5t-39.5 8.5t-47.5 3q-25 0 -47.5 -4.5t-42.5 -13.5t-36.5 -22.5t-29.5 -31.5t-22.5 -40t-14 -48t-4.5 -56v-24
q0 -28 4.5 -52.5t13 -45.5t20.5 -38t28 -29.5t35.5 -21t42.5 -13t49 -4.5q28 0 51.5 3.5t43.5 9.5t35 13l-14 69q-13 -6 -28 -10.5t-33 -7.5t-39 -3q-17 0 -32 4t-27.5 11.5t-22 18.5t-16 26t-10 33t-3.5 39v22q0 21 2.5 38.5t8 32t13 26t17 20t20.5 14t24 8.5t27 3
q20 0 36 -2.5t30 -7t26 -10.5z" />
    <glyph glyph-name="ordfeminine" unicode="&#xaa;" horiz-adv-x="425" 
d="M282 549q0 17 -3.5 30t-10.5 22t-17.5 15t-24.5 9t-31 3q-15 0 -30.5 -2t-31 -6t-30 -9.5t-28.5 -11.5l-12 63q13 6 28.5 11.5t34 10.5t39 7.5t42.5 2.5q42 0 72.5 -9.5t50.5 -27.5t29.5 -45.5t9.5 -63.5v-245h-76l-6 82l12 -13q-6 -18 -16.5 -33t-26 -25t-36.5 -15.5
t-48 -5.5q-18 0 -35 2.5t-32 8t-28 14.5t-22 22t-14 30.5t-5 39.5q0 18 3.5 34.5t11.5 30.5t21.5 25.5t33.5 19.5t47 12.5t63 4.5q12 0 23.5 -0.5t22 -1.5t20.5 -2t19 -2v-56q-8 1 -16 1.5t-15.5 1l-15 1t-15.5 0.5h-16q-23 0 -40 -3t-28 -8.5t-17.5 -13.5t-9.5 -18t-3 -22
q0 -16 4.5 -27.5t13 -18.5t21 -10.5t27.5 -3.5q16 0 30 3t25.5 9.5t19.5 16.5t12 24.5t4 33.5v108z" />
    <glyph glyph-name="guillemotleft" unicode="&#xab;" horiz-adv-x="478" 
d="M107 268v38l154 -207h-103l-139 188l139 188h103zM296 268v38l154 -207h-103l-139 188l139 188h103z" />
    <glyph glyph-name="logicalnot" unicode="&#xac;" horiz-adv-x="613" 
d="M430 309l13 -12h-351v86h429v-253h-91v179z" />
    <glyph glyph-name="uni00AD" unicode="&#xad;" horiz-adv-x="402" 
d="M49 329h304v-90h-304v90z" />
    <glyph glyph-name="registered" unicode="&#xae;" horiz-adv-x="551" 
d="M221.5 258.5q-25.5 4.5 -48.5 13t-42 22t-34.5 31.5t-26.5 40.5t-16.5 50t-5.5 59.5v18q0 32 6 59t17 49.5t26.5 40.5t34.5 31t42 22t48.5 13.5t52.5 4.5q28 0 53.5 -4.5t48.5 -13t42.5 -22t34.5 -31.5t26 -40.5t16.5 -50t5.5 -59.5v-18q0 -32 -6 -59t-16.5 -49.5
t-26 -40.5t-35 -31t-42 -22t-48 -13.5t-53.5 -4.5t-53.5 4.5zM314 305q19 3 36 9.5t31.5 16t26 23.5t20 31.5t13 40t4.5 49.5v18q0 27 -4.5 49.5t-13 40t-20 31.5t-26 23.5t-31.5 16t-36 9.5t-39 3t-38.5 -3t-35.5 -9.5t-32 -16.5t-26.5 -23.5t-20 -31.5t-13 -40t-4.5 -49
v-18q0 -27 4.5 -49.5t13 -40t20 -31.5t26 -23.5t31.5 -16t36 -9.5t39 -3t39 3zM178 611h57v-251h-57v251zM269 472l54 7l63 -119h-64zM215 570v41h66q16 0 30.5 -2.5t26.5 -8.5t20.5 -15.5t13 -23t4.5 -31.5q0 -16 -5 -29t-14 -22.5t-21.5 -16t-26.5 -9.5t-29 -3h-67v40h63
q9 0 17 2t14 6t9.5 12t3.5 20q0 11 -3.5 19t-9.5 12.5t-14 6.5t-17 2h-61z" />
    <glyph glyph-name="macron" unicode="&#xaf;" horiz-adv-x="587" 
d="M447 618h-308v74h308v-74z" />
    <glyph glyph-name="degree" unicode="&#xb0;" horiz-adv-x="381" 
d="M190 412q-27 0 -50.5 6t-43 18t-33 30.5t-21 43t-7.5 55.5t7 56t21 43t33 30t43 18t52 6q27 0 50.5 -6t42.5 -18t33 -30.5t21.5 -43t7.5 -55.5t-7 -56t-21 -43t-33 -30t-43 -18t-52 -6zM190 482q12 0 23 2.5t20.5 8t16 15t10.5 23.5t4 34t-4 34t-11 23.5t-16.5 15t-20 8
t-21.5 2.5q-12 0 -23 -2.5t-20.5 -8t-16 -15t-10.5 -23.5t-4 -34q0 -19 4 -33.5t11 -24t16.5 -15t20 -8t21.5 -2.5z" />
    <glyph glyph-name="plusminus" unicode="&#xb1;" horiz-adv-x="613" 
d="M102 85h409v-85h-409v85zM92 392h429v-85h-429v85zM261 545h91v-391h-91v391z" />
    <glyph glyph-name="uni00B2" unicode="&#xb2;" 
d="M57 756q16 8 35.5 14.5t43 10t50.5 3.5q18 0 35 -2t32 -7t27.5 -12.5t21 -18.5t13.5 -26t5 -34q0 -18 -5 -32.5t-14.5 -26.5t-23 -21.5t-30 -18t-35.5 -16.5q-22 -9 -38.5 -17.5t-27.5 -17.5t-16.5 -19.5t-5.5 -24.5v-19l-21 20h216v-61h-272v40q0 22 5 39.5t13.5 31.5
t20 25t24.5 20t27 16t28 13q17 7 29 13t20.5 11.5t14 11.5t8 13.5t2.5 16.5q0 15 -6.5 24.5t-20.5 14t-37 4.5q-19 0 -38 -3.5t-36.5 -9t-32.5 -13.5z" />
    <glyph glyph-name="uni00B3" unicode="&#xb3;" 
d="M102 639h57q19 0 33 2.5t22.5 8t13 14t4.5 19.5q0 12 -4 20t-12.5 13t-20.5 7t-27 2t-29 -2t-27.5 -5t-26 -7.5t-23.5 -9.5l-11 57q14 6 28 11t29.5 8t32.5 5t36 2t37 -2t33 -6.5t27.5 -12t21.5 -17.5t14 -23t5 -30q0 -19 -6.5 -34t-18 -25.5t-27.5 -17.5t-36 -11l-1 12
q17 -2 31.5 -6.5t26.5 -12t21 -17.5t13.5 -23.5t4.5 -30.5q0 -16 -4 -29.5t-12 -24.5t-19 -19t-24 -14t-28 -9.5t-32 -5.5t-34 -2q-19 0 -36.5 2t-33 5.5t-30.5 9t-29 11.5l11 57q12 -6 25 -10.5t27.5 -7.5t30 -5t30.5 -2q17 0 31 2.5t23.5 8.5t14.5 15.5t5 23.5
q0 12 -4.5 21t-14.5 15t-25 9t-36 3h-57v58z" />
    <glyph glyph-name="acute" unicode="&#xb4;" horiz-adv-x="587" 
d="M275 730h131l-133 -132h-101z" />
    <glyph glyph-name="mu" unicode="&#xb5;" horiz-adv-x="592" 
d="M517 0h-95l-11 122l20 27q-4 -35 -13.5 -61.5t-24 -45.5t-34 -31t-42 -17.5t-47.5 -5.5q-17 0 -32 2.5t-28.5 8.5t-24 14.5t-17 20t-9.5 26.5l22 -1v-259h-106v717h110v-312q0 -25 2.5 -44t8 -33.5t14 -25t19.5 -16.5t24.5 -9t29.5 -3q23 0 42 5t34 16t26 29t16.5 43
t5.5 59v291h110v-517z" />
    <glyph glyph-name="paragraph" unicode="&#xb6;" horiz-adv-x="575" 
d="M413 700h82v-800h-82v800zM245 689l82 11v-800h-82v789zM61 592.5q12 22.5 29.5 40t39.5 30t47.5 21t54 12.5t59.5 4h36v-440h-36q-32 0 -61 4t-55 12t-47.5 21t-38.5 30.5t-29 40t-18 51t-6 62.5q0 33 6.5 61t18.5 50.5z" />
    <glyph glyph-name="periodcentered" unicode="&#xb7;" horiz-adv-x="223" 
d="M168 218h-113v133h113v-133z" />
    <glyph glyph-name="cedilla" unicode="&#xb8;" horiz-adv-x="587" 
d="M273 11h59l-33 -87l-3 30q25 0 44 -5t31.5 -15t18.5 -24t6 -33q0 -20 -8 -35.5t-23 -26.5t-37 -16.5t-51 -5.5q-25 0 -47 4.5t-39 10.5l11 52q10 -3 21 -6t23 -4.5t23 -1.5q12 0 21 2t15 6.5t8.5 10.5t2.5 13q0 12 -6 19.5t-16.5 10.5t-25.5 3h-33z" />
    <glyph glyph-name="uni00B9" unicode="&#xb9;" 
d="M256 430h-82v339l34 -43l-135 -59l-12 58l120 52h75v-347z" />
    <glyph glyph-name="ordmasculine" unicode="&#xba;" horiz-adv-x="432" 
d="M214 293q-24 0 -45 4t-38.5 11.5t-32 19t-26 26.5t-19 34.5t-11.5 43t-4 50.5v23q0 27 4 50t12 42.5t20 35t27 27t33 19t39 11.5t45 4t45 -4t38.5 -11.5t32 -19t26 -27t19 -34.5t11.5 -42.5t4 -50.5v-23q0 -27 -4 -50.5t-12 -42.5t-20 -34.5t-27 -27t-33 -19t-39 -11.5
t-45 -4zM293 410.5q5 13.5 8 31.5t3 41v20q0 23 -3 41t-8 31.5t-12.5 23t-17.5 15.5t-21.5 8.5t-25.5 2.5q-13 0 -25 -2.5t-22 -8.5t-17.5 -15.5t-12.5 -23t-8 -31.5t-3 -41v-20q0 -23 3 -41t8 -31.5t12.5 -23t17.5 -15.5t22 -8.5t25 -2.5q14 0 25.5 2.5t21.5 8.5t17.5 15.5
t12.5 23z" />
    <glyph glyph-name="guillemotright" unicode="&#xbb;" horiz-adv-x="478" 
d="M183 306v-38l-154 207h102l140 -188l-140 -188h-102zM372 306v-38l-154 207h102l140 -188l-140 -188h-102z" />
    <glyph glyph-name="onequarter" unicode="&#xbc;" horiz-adv-x="843" 
d="M594 680h91l-398 -680h-92zM768 0h-73v328l40 -8l-172 -209l-35 13h289v-55h-308v63l177 215h82v-347zM256 333h-82v339l34 -43l-135 -59l-12 58l120 52h75v-347z" />
    <glyph glyph-name="onehalf" unicode="&#xbd;" horiz-adv-x="843" 
d="M564 680h91l-398 -680h-92zM534 326q16 8 35.5 14.5t43 10t50.5 3.5q18 0 35 -2t32 -7t27.5 -12.5t21 -18.5t13.5 -26t5 -34q0 -18 -5 -32.5t-14.5 -26.5t-23 -21.5t-30 -18t-35.5 -16.5q-22 -9 -38.5 -17.5t-27.5 -17.5t-16.5 -19.5t-5.5 -24.5v-19l-21 20h216v-61h-272
v40q0 22 5 39.5t13.5 31.5t20 25t24.5 20t27 16t28 13q17 7 29 13t20.5 11.5t14 11.5t8 13.5t2.5 16.5q0 15 -6.5 24.5t-20.5 14t-37 4.5q-19 0 -38 -3.5t-36.5 -9t-32.5 -13.5zM256 333h-82v339l34 -43l-135 -59l-12 58l120 52h75v-347z" />
    <glyph glyph-name="threequarters" unicode="&#xbe;" horiz-adv-x="843" 
d="M598 680h91l-398 -680h-92zM768 0h-73v328l40 -8l-172 -209l-35 13h289v-55h-308v63l177 215h82v-347zM102 542h57q19 0 33 2.5t22.5 8t13 14t4.5 19.5q0 12 -4 20t-12.5 13t-20.5 7t-27 2t-29 -2t-27.5 -5t-26 -7.5t-23.5 -9.5l-11 57q14 6 28 11t29.5 8t32.5 5t36 2
t37 -2t33 -6.5t27.5 -12t21.5 -17.5t14 -23t5 -30q0 -19 -6.5 -34t-18 -25.5t-27.5 -17.5t-36 -11l-1 12q17 -2 31.5 -6.5t26.5 -12t21 -17.5t13.5 -23.5t4.5 -30.5q0 -16 -4 -29.5t-12 -24.5t-19 -19t-24 -14t-28 -9.5t-32 -5.5t-34 -2q-19 0 -36.5 2t-33 5.5t-30.5 9
t-29 11.5l11 57q12 -6 25 -10.5t27.5 -7.5t30 -5t30.5 -2q17 0 31 2.5t23.5 8.5t14.5 15.5t5 23.5q0 12 -4.5 21t-14.5 15t-25 9t-36 3h-57v58z" />
    <glyph glyph-name="questiondown" unicode="&#xbf;" horiz-adv-x="506" 
d="M343 313l3 -156q-29 -9 -54 -19t-46.5 -21t-38.5 -24t-29 -27.5t-18 -31t-6 -36.5q0 -21 5.5 -38t16.5 -29.5t26.5 -20.5t36 -12t45.5 -4t47.5 2.5t43 7.5t38.5 11t33.5 12.5t28.5 13.5l17 -85q-16 -9 -38 -17.5t-49 -15.5t-59.5 -11.5t-70.5 -4.5q-36 0 -68 5.5
t-58.5 16t-47.5 26t-35.5 35.5t-22 45.5t-7.5 54.5q0 34 11.5 63.5t32 53.5t49.5 44t65 36t76 28l-28 -37l3 135h98zM237 389v128h114v-128h-114z" />
    <glyph glyph-name="Agrave" unicode="&#xc0;" horiz-adv-x="719" 
d="M300 700h119l277 -700h-119l-236 640h33l-236 -640h-115zM184 270h349l32 -84h-413zM169 888h154l136 -116h-116z" />
    <glyph glyph-name="Aacute" unicode="&#xc1;" horiz-adv-x="719" 
d="M300 700h119l277 -700h-119l-236 640h33l-236 -640h-115zM184 270h349l32 -84h-413zM395 888h154l-175 -116h-116z" />
    <glyph glyph-name="Acircumflex" unicode="&#xc2;" horiz-adv-x="719" 
d="M300 700h119l277 -700h-119l-236 640h33l-236 -640h-115zM184 270h349l32 -84h-413zM306 888h106l143 -116h-109l-111 77h47l-111 -77h-108z" />
    <glyph glyph-name="Atilde" unicode="&#xc3;" horiz-adv-x="719" 
d="M300 700h119l277 -700h-119l-236 640h33l-236 -640h-115zM184 270h349l32 -84h-413zM508.5 797.5q-12.5 -14.5 -30 -21.5t-39.5 -7q-17 0 -32 4t-28 9.5t-25 12.5t-23 12.5t-21 9.5t-19 4q-10 0 -17.5 -6t-11.5 -16.5t-5 -25.5h-70q0 29 7 50.5t19.5 36t30 22t39.5 7.5
q17 0 32 -4t28 -9.5t25 -12.5t23 -12.5t21 -9.5t19 -4q11 0 18 6t11.5 16.5t4.5 25.5h70q0 -29 -7 -51t-19.5 -36.5z" />
    <glyph glyph-name="Adieresis" unicode="&#xc4;" horiz-adv-x="719" 
d="M300 700h119l277 -700h-119l-236 640h33l-236 -640h-115zM184 270h349l32 -84h-413zM517 776h-106v100h106v-100zM307 776h-106v100h106v-100z" />
    <glyph glyph-name="Aring" unicode="&#xc5;" horiz-adv-x="719" 
d="M300 700h119l277 -700h-119l-236 640h33l-236 -640h-115zM184 270h349l32 -84h-413zM359 754q-17 0 -32.5 3t-28 8.5t-22.5 14.5t-17.5 20t-11 24.5t-3.5 29.5t3.5 29.5t11 24.5t17.5 20t22.5 14.5t28 8.5t32.5 3t32.5 -3t28 -8.5t22.5 -14.5t17.5 -20t11 -24.5
t3.5 -29.5t-3.5 -29.5t-11 -24.5t-17.5 -20t-22.5 -14.5t-28 -8.5t-32.5 -3zM405 837.5q2 7.5 2 16.5t-2 16.5t-6.5 13t-10 9.5t-13 6t-16.5 2t-16.5 -2t-13 -6t-10 -9.5t-6.5 -13t-2 -16.5t2 -16.5t6.5 -13.5t10 -10t13 -6t16.5 -2t16.5 2t13 6t10 10t6.5 13.5z" />
    <glyph glyph-name="AE" unicode="&#xc6;" horiz-adv-x="1058" 
d="M467 700h72l1 -56l-400 -644h-122zM250 270h296v-84h-349zM524 700h105v-700h-105v700zM555 405h406v-84h-406v84zM549 700h439v-84h-439v84zM561 84h439v-84h-439v84z" />
    <glyph glyph-name="Ccedilla" unicode="&#xc7;" horiz-adv-x="638" 
d="M564 586q-18 9 -37.5 16t-41 12t-45 8t-49.5 3q-25 0 -48 -4t-43.5 -12t-38 -20t-32 -28.5t-25.5 -37.5t-19 -46t-12 -54.5t-4 -63.5v-37q0 -32 4 -59.5t11.5 -50.5t18.5 -42.5t25.5 -34.5t32 -26.5t37.5 -19t43.5 -11t48.5 -3.5q28 0 53.5 3t48.5 9t44 14t40 17l16 -84
q-19 -10 -42.5 -18.5t-50.5 -14.5t-58 -9.5t-67 -3.5q-38 0 -71.5 5.5t-63.5 16t-55.5 26t-46.5 36.5t-37 47t-27 57t-16.5 67.5t-5.5 77.5v40q0 43 6 80.5t17.5 70.5t28 60.5t38 49.5t48 39t56.5 28.5t64.5 17t72.5 5.5q33 0 61 -3t52.5 -9t45.5 -13.5t39 -16.5zM324 11h60
l-35 -93l-1 31q25 0 44.5 -5t32.5 -15t19.5 -24.5t6.5 -33.5q0 -21 -8 -37t-24 -27t-39.5 -16.5t-53.5 -5.5q-18 0 -34.5 2t-31 5.5t-26.5 7.5l11 54q11 -4 23 -7t25 -4.5t25 -1.5q14 0 24 2.5t16 6.5t9 10.5t3 13.5q0 12 -6.5 19t-18 10t-26.5 3h-34z" />
    <glyph glyph-name="Egrave" unicode="&#xc8;" horiz-adv-x="635" 
d="M80 700h109v-700h-109v700zM110 405h428v-85h-428v85zM117 700h448v-85h-448v85zM117 85h461v-85h-461v85zM137 888h154l136 -116h-116z" />
    <glyph glyph-name="Eacute" unicode="&#xc9;" horiz-adv-x="635" 
d="M80 700h109v-700h-109v700zM110 405h428v-85h-428v85zM117 700h448v-85h-448v85zM117 85h461v-85h-461v85zM363 888h154l-175 -116h-116z" />
    <glyph glyph-name="Ecircumflex" unicode="&#xca;" horiz-adv-x="635" 
d="M80 700h109v-700h-109v700zM110 405h428v-85h-428v85zM117 700h448v-85h-448v85zM117 85h461v-85h-461v85zM274 888h106l143 -116h-109l-111 77h47l-111 -77h-108z" />
    <glyph glyph-name="Edieresis" unicode="&#xcb;" horiz-adv-x="635" 
d="M80 700h109v-700h-109v700zM110 405h428v-85h-428v85zM117 700h448v-85h-448v85zM117 85h461v-85h-461v85zM485 776h-106v100h106v-100zM275 776h-106v100h106v-100z" />
    <glyph glyph-name="Igrave" unicode="&#xcc;" horiz-adv-x="274" 
d="M80 700h114v-700h-114v700zM-53 888h154l136 -116h-116z" />
    <glyph glyph-name="Iacute" unicode="&#xcd;" horiz-adv-x="274" 
d="M80 700h114v-700h-114v700zM173 888h154l-175 -116h-116z" />
    <glyph glyph-name="Icircumflex" unicode="&#xce;" horiz-adv-x="274" 
d="M80 700h114v-700h-114v700zM84 888h106l143 -116h-109l-111 77h47l-111 -77h-108z" />
    <glyph glyph-name="Idieresis" unicode="&#xcf;" horiz-adv-x="274" 
d="M80 700h114v-700h-114v700zM295 776h-106v100h106v-100zM85 776h-106v100h106v-100z" />
    <glyph glyph-name="Eth" unicode="&#xd0;" horiz-adv-x="747" 
d="M16 402h378v-78h-378v78zM96 700h113v-700h-113v700zM552 46q-27 -15 -58.5 -25.5t-67 -15.5t-74.5 -5h-175v87h172q26 0 49.5 3.5t44.5 10t39 17.5t33 25.5t27 33.5t20 42.5t12 51.5t4 61v36q0 33 -4 61.5t-12 51.5t-20 42t-27 34t-33 25.5t-39 17t-44.5 10t-49.5 3.5
h-172v87h175q39 0 74.5 -5t67 -15t58.5 -25t49.5 -35t40 -45.5t29.5 -57t18 -68t6 -79.5v-40q0 -42 -6 -78t-18 -67t-29.5 -57t-40 -46.5t-49.5 -35.5z" />
    <glyph glyph-name="Ntilde" unicode="&#xd1;" horiz-adv-x="746" 
d="M665 0h-98l-6 61v639h104v-700zM185 0h-105v700h99l6 -63v-637zM100 656l79 44l466 -656l-78 -44zM522.5 797.5q-12.5 -14.5 -30 -21.5t-39.5 -7q-17 0 -32 4t-28 9.5t-25 12.5t-23 12.5t-21 9.5t-19 4q-10 0 -17.5 -6t-11.5 -16.5t-5 -25.5h-70q0 29 7 50.5t19.5 36
t30 22t39.5 7.5q17 0 32 -4t28 -9.5t25 -12.5t23 -12.5t21 -9.5t19 -4q11 0 18 6t11.5 16.5t4.5 25.5h70q0 -29 -7 -51t-19.5 -36.5z" />
    <glyph glyph-name="Ograve" unicode="&#xd2;" horiz-adv-x="740" 
d="M368 -18q-37 0 -70 5t-62 15.5t-54 26t-45.5 36.5t-36.5 48t-27 59.5t-16.5 71.5t-5.5 84v44q0 41 4.5 76.5t14 66t22.5 56t30 46.5t38 37.5t44.5 28.5t50.5 19.5t56 11.5t61 4q37 0 70 -5t62 -15.5t54 -26t45.5 -36.5t36 -48t26.5 -59.5t16.5 -71.5t5.5 -84v-44
q0 -41 -4.5 -76.5t-14 -66t-22.5 -56t-30 -46.5t-37.5 -37.5t-44 -28.5t-50.5 -19.5t-56 -11.5t-61 -4zM451 81.5q18 6.5 34 17.5t29.5 26t24 34.5t17.5 44.5t11 56t4 68v44q0 37 -4 68t-11 56t-17.5 44.5t-24 34.5t-29.5 26t-34 17.5t-38.5 9.5t-42.5 3t-42.5 -3
t-38.5 -9.5t-34 -17.5t-29.5 -26t-24 -34.5t-17.5 -44.5t-11 -56t-4 -68v-44q0 -37 4 -68t11 -56t17.5 -44.5t24 -34.5t29.5 -26t34 -17.5t38.5 -9.5t42.5 -3t42.5 3t38.5 9.5zM180 888h154l136 -116h-116z" />
    <glyph glyph-name="Oacute" unicode="&#xd3;" horiz-adv-x="740" 
d="M368 -18q-37 0 -70 5t-62 15.5t-54 26t-45.5 36.5t-36.5 48t-27 59.5t-16.5 71.5t-5.5 84v44q0 41 4.5 76.5t14 66t22.5 56t30 46.5t38 37.5t44.5 28.5t50.5 19.5t56 11.5t61 4q37 0 70 -5t62 -15.5t54 -26t45.5 -36.5t36 -48t26.5 -59.5t16.5 -71.5t5.5 -84v-44
q0 -41 -4.5 -76.5t-14 -66t-22.5 -56t-30 -46.5t-37.5 -37.5t-44 -28.5t-50.5 -19.5t-56 -11.5t-61 -4zM451 81.5q18 6.5 34 17.5t29.5 26t24 34.5t17.5 44.5t11 56t4 68v44q0 37 -4 68t-11 56t-17.5 44.5t-24 34.5t-29.5 26t-34 17.5t-38.5 9.5t-42.5 3t-42.5 -3
t-38.5 -9.5t-34 -17.5t-29.5 -26t-24 -34.5t-17.5 -44.5t-11 -56t-4 -68v-44q0 -37 4 -68t11 -56t17.5 -44.5t24 -34.5t29.5 -26t34 -17.5t38.5 -9.5t42.5 -3t42.5 3t38.5 9.5zM406 888h154l-175 -116h-116z" />
    <glyph glyph-name="Ocircumflex" unicode="&#xd4;" horiz-adv-x="740" 
d="M368 -18q-37 0 -70 5t-62 15.5t-54 26t-45.5 36.5t-36.5 48t-27 59.5t-16.5 71.5t-5.5 84v44q0 41 4.5 76.5t14 66t22.5 56t30 46.5t38 37.5t44.5 28.5t50.5 19.5t56 11.5t61 4q37 0 70 -5t62 -15.5t54 -26t45.5 -36.5t36 -48t26.5 -59.5t16.5 -71.5t5.5 -84v-44
q0 -41 -4.5 -76.5t-14 -66t-22.5 -56t-30 -46.5t-37.5 -37.5t-44 -28.5t-50.5 -19.5t-56 -11.5t-61 -4zM451 81.5q18 6.5 34 17.5t29.5 26t24 34.5t17.5 44.5t11 56t4 68v44q0 37 -4 68t-11 56t-17.5 44.5t-24 34.5t-29.5 26t-34 17.5t-38.5 9.5t-42.5 3t-42.5 -3
t-38.5 -9.5t-34 -17.5t-29.5 -26t-24 -34.5t-17.5 -44.5t-11 -56t-4 -68v-44q0 -37 4 -68t11 -56t17.5 -44.5t24 -34.5t29.5 -26t34 -17.5t38.5 -9.5t42.5 -3t42.5 3t38.5 9.5zM317 888h106l143 -116h-109l-111 77h47l-111 -77h-108z" />
    <glyph glyph-name="Otilde" unicode="&#xd5;" horiz-adv-x="740" 
d="M368 -18q-37 0 -70 5t-62 15.5t-54 26t-45.5 36.5t-36.5 48t-27 59.5t-16.5 71.5t-5.5 84v44q0 41 4.5 76.5t14 66t22.5 56t30 46.5t38 37.5t44.5 28.5t50.5 19.5t56 11.5t61 4q37 0 70 -5t62 -15.5t54 -26t45.5 -36.5t36 -48t26.5 -59.5t16.5 -71.5t5.5 -84v-44
q0 -41 -4.5 -76.5t-14 -66t-22.5 -56t-30 -46.5t-37.5 -37.5t-44 -28.5t-50.5 -19.5t-56 -11.5t-61 -4zM451 81.5q18 6.5 34 17.5t29.5 26t24 34.5t17.5 44.5t11 56t4 68v44q0 37 -4 68t-11 56t-17.5 44.5t-24 34.5t-29.5 26t-34 17.5t-38.5 9.5t-42.5 3t-42.5 -3
t-38.5 -9.5t-34 -17.5t-29.5 -26t-24 -34.5t-17.5 -44.5t-11 -56t-4 -68v-44q0 -37 4 -68t11 -56t17.5 -44.5t24 -34.5t29.5 -26t34 -17.5t38.5 -9.5t42.5 -3t42.5 3t38.5 9.5zM519.5 797.5q-12.5 -14.5 -30 -21.5t-39.5 -7q-17 0 -32 4t-28 9.5t-25 12.5t-23 12.5t-21 9.5
t-19 4q-10 0 -17.5 -6t-11.5 -16.5t-5 -25.5h-70q0 29 7 50.5t19.5 36t30 22t39.5 7.5q17 0 32 -4t28 -9.5t25 -12.5t23 -12.5t21 -9.5t19 -4q11 0 18 6t11.5 16.5t4.5 25.5h70q0 -29 -7 -51t-19.5 -36.5z" />
    <glyph glyph-name="Odieresis" unicode="&#xd6;" horiz-adv-x="740" 
d="M368 -18q-37 0 -70 5t-62 15.5t-54 26t-45.5 36.5t-36.5 48t-27 59.5t-16.5 71.5t-5.5 84v44q0 41 4.5 76.5t14 66t22.5 56t30 46.5t38 37.5t44.5 28.5t50.5 19.5t56 11.5t61 4q37 0 70 -5t62 -15.5t54 -26t45.5 -36.5t36 -48t26.5 -59.5t16.5 -71.5t5.5 -84v-44
q0 -41 -4.5 -76.5t-14 -66t-22.5 -56t-30 -46.5t-37.5 -37.5t-44 -28.5t-50.5 -19.5t-56 -11.5t-61 -4zM451 81.5q18 6.5 34 17.5t29.5 26t24 34.5t17.5 44.5t11 56t4 68v44q0 37 -4 68t-11 56t-17.5 44.5t-24 34.5t-29.5 26t-34 17.5t-38.5 9.5t-42.5 3t-42.5 -3
t-38.5 -9.5t-34 -17.5t-29.5 -26t-24 -34.5t-17.5 -44.5t-11 -56t-4 -68v-44q0 -37 4 -68t11 -56t17.5 -44.5t24 -34.5t29.5 -26t34 -17.5t38.5 -9.5t42.5 -3t42.5 3t38.5 9.5zM528 776h-106v100h106v-100zM318 776h-106v100h106v-100z" />
    <glyph glyph-name="multiply" unicode="&#xd7;" horiz-adv-x="613" 
d="M450 486l59 -59l-353 -354l-59 59zM163 486l353 -354l-59 -59l-353 354z" />
    <glyph glyph-name="Oslash" unicode="&#xd8;" horiz-adv-x="740" 
d="M147 -48h-89l535 796h88zM298 -13q-33 5 -62 15.5t-54 26t-45.5 36.5t-36.5 48t-27 59.5t-16.5 71.5t-5.5 84v44q0 41 4.5 76.5t14 66t22.5 56t30 46.5t38 37.5t44.5 28.5t50.5 19.5t56 11.5t61 4q37 0 70 -5t62 -15.5t54 -26t45.5 -36.5t36 -48t26.5 -59.5t16.5 -71.5
t5.5 -84v-44q0 -41 -4.5 -76.5t-14 -66t-22.5 -56t-30 -46.5t-37.5 -37.5t-44 -28.5t-50.5 -19.5t-56 -11.5t-61 -4q-37 0 -70 5zM413.5 70q20.5 3 39.5 9.5t35.5 17.5t30 26t24 35t18 45.5t11.5 56.5t4 68v44q0 38 -3.5 69t-11 56.5t-18 45.5t-24 35t-29.5 25.5t-35 17
t-40.5 9.5t-44.5 3t-43.5 -3t-39.5 -9.5t-35.5 -17.5t-30 -26t-24 -35t-18 -45.5t-11.5 -56.5t-4 -68v-44q0 -37 3.5 -68.5t11 -57t18 -45t24 -35t30 -26t35 -17t40 -9.5t44.5 -3t43.5 3z" />
    <glyph glyph-name="Ugrave" unicode="&#xd9;" horiz-adv-x="730" 
d="M654 264q0 -37 -5 -68.5t-14.5 -58.5t-23.5 -49t-32.5 -39t-41.5 -29.5t-50.5 -21t-59 -12.5t-66.5 -4t-65.5 4t-57 12t-49 21t-41 30t-32 39t-23 48.5t-14 58.5t-4.5 69v436h114v-435q0 -30 3.5 -55t11 -45t18 -36t25 -27t32.5 -18.5t39.5 -11t46.5 -3.5t46.5 3.5
t39.5 11t32.5 18.5t25 27t18 36t11 45t3.5 55v435h113v-436zM175 888h154l136 -116h-116z" />
    <glyph glyph-name="Uacute" unicode="&#xda;" horiz-adv-x="730" 
d="M654 264q0 -37 -5 -68.5t-14.5 -58.5t-23.5 -49t-32.5 -39t-41.5 -29.5t-50.5 -21t-59 -12.5t-66.5 -4t-65.5 4t-57 12t-49 21t-41 30t-32 39t-23 48.5t-14 58.5t-4.5 69v436h114v-435q0 -30 3.5 -55t11 -45t18 -36t25 -27t32.5 -18.5t39.5 -11t46.5 -3.5t46.5 3.5
t39.5 11t32.5 18.5t25 27t18 36t11 45t3.5 55v435h113v-436zM401 888h154l-175 -116h-116z" />
    <glyph glyph-name="Ucircumflex" unicode="&#xdb;" horiz-adv-x="730" 
d="M654 264q0 -37 -5 -68.5t-14.5 -58.5t-23.5 -49t-32.5 -39t-41.5 -29.5t-50.5 -21t-59 -12.5t-66.5 -4t-65.5 4t-57 12t-49 21t-41 30t-32 39t-23 48.5t-14 58.5t-4.5 69v436h114v-435q0 -30 3.5 -55t11 -45t18 -36t25 -27t32.5 -18.5t39.5 -11t46.5 -3.5t46.5 3.5
t39.5 11t32.5 18.5t25 27t18 36t11 45t3.5 55v435h113v-436zM312 888h106l143 -116h-109l-111 77h47l-111 -77h-108z" />
    <glyph glyph-name="Udieresis" unicode="&#xdc;" horiz-adv-x="730" 
d="M654 264q0 -37 -5 -68.5t-14.5 -58.5t-23.5 -49t-32.5 -39t-41.5 -29.5t-50.5 -21t-59 -12.5t-66.5 -4t-65.5 4t-57 12t-49 21t-41 30t-32 39t-23 48.5t-14 58.5t-4.5 69v436h114v-435q0 -30 3.5 -55t11 -45t18 -36t25 -27t32.5 -18.5t39.5 -11t46.5 -3.5t46.5 3.5
t39.5 11t32.5 18.5t25 27t18 36t11 45t3.5 55v435h113v-436zM523 776h-106v100h106v-100zM313 776h-106v100h106v-100z" />
    <glyph glyph-name="Yacute" unicode="&#xdd;" horiz-adv-x="661" 
d="M274 0v304h113v-304h-113zM519 700h125l-262 -429h-103l-262 429h129l200 -353h-27zM367 888h154l-175 -116h-116z" />
    <glyph glyph-name="Thorn" unicode="&#xde;" horiz-adv-x="629" 
d="M81 700h109v-700h-109v700zM152 129v85h177q22 0 41.5 3t36.5 9t30.5 16.5t23 25.5t14.5 35t5 46t-5 46t-14.5 35t-23 25.5t-30.5 17t-36.5 9.5t-41.5 3h-177v85h181q33 0 62.5 -4t55.5 -12t48 -20.5t39 -30t29 -40.5t18.5 -51t6.5 -62t-6.5 -62t-19 -51t-30 -40.5
t-39.5 -30.5t-48 -21t-55 -12t-61 -4h-181z" />
    <glyph glyph-name="germandbls" unicode="&#xdf;" horiz-adv-x="594" 
d="M70 519q0 29 4 53.5t11.5 45t18.5 38t25.5 30.5t32.5 23t39 17t45 10t51 3q29 0 56 -4t50 -13t42 -23t32.5 -34t20.5 -46.5t7 -59.5q0 -28 -5 -50.5t-13.5 -40t-21 -30.5t-28 -23t-33 -17.5t-36.5 -12.5l10 27q21 -3 40.5 -8t37 -12.5t32 -19t26.5 -27t20 -35.5
t12.5 -45.5t4.5 -56.5q0 -26 -4 -49.5t-11 -44t-17.5 -37.5t-23.5 -30.5t-28.5 -24t-33 -17.5t-36.5 -10.5t-40 -3.5t-40 2.5t-36 8t-33 13.5l13 76q13 -6 25.5 -10.5t26 -6.5t26.5 -2t25 3t22 8.5t18.5 14t15.5 19.5t11.5 25.5t7 32t2.5 37.5q0 23 -3 42t-9.5 33.5t-15 26
t-19.5 19.5t-24 12.5t-28 7t-31 2.5h-38v75h32q18 0 32.5 4.5t25.5 14t18.5 24t11 33.5t3.5 44q0 21 -3 37.5t-9.5 29t-15 21t-20 13.5t-25 7.5t-29.5 2.5q-12 0 -23.5 -1.5t-22 -4.5t-20 -8.5t-17 -13.5t-14 -18.5t-10.5 -24.5t-6.5 -31.5t-2.5 -39.5v-519h-108v519z" />
    <glyph glyph-name="agrave" unicode="&#xe0;" horiz-adv-x="551" 
d="M372 332q0 23 -4.5 41.5t-14 31.5t-23.5 22t-33 13t-43 4q-16 0 -32.5 -2t-33.5 -5.5t-33 -8.5t-31.5 -11t-29.5 -13l-15 80q16 8 36.5 16t45 14t51.5 9.5t56 3.5q54 0 94.5 -12.5t66.5 -37.5t39 -62t13 -85v-330h-98l-8 110l15 -17q-6 -20 -16 -36.5t-24.5 -29.5
t-33.5 -22t-42 -14t-51 -5q-20 0 -39.5 2.5t-37 8t-32.5 14t-27.5 21t-21.5 29t-14 37.5t-5 46q0 20 3 39t10.5 35.5t19.5 31t30 26t42.5 19.5t56 12.5t71.5 4.5q16 0 31.5 -0.5t29.5 -1.5t27.5 -2t26.5 -3l-1 -71l-22 2t-21.5 2t-21 1.5t-21 0.5h-21.5q-31 0 -53 -4
t-37 -11.5t-24 -18.5t-12.5 -25t-3.5 -31q0 -19 4 -33t12 -24t19 -16t25.5 -9t31.5 -3q22 0 40.5 4.5t34 13t26.5 23t17 34t6 45.5v147zM112 731h131l103 -132h-101z" />
    <glyph glyph-name="aacute" unicode="&#xe1;" horiz-adv-x="551" 
d="M372 332q0 23 -4.5 41.5t-14 31.5t-23.5 22t-33 13t-43 4q-16 0 -32.5 -2t-33.5 -5.5t-33 -8.5t-31.5 -11t-29.5 -13l-15 80q16 8 36.5 16t45 14t51.5 9.5t56 3.5q54 0 94.5 -12.5t66.5 -37.5t39 -62t13 -85v-330h-98l-8 110l15 -17q-6 -20 -16 -36.5t-24.5 -29.5
t-33.5 -22t-42 -14t-51 -5q-20 0 -39.5 2.5t-37 8t-32.5 14t-27.5 21t-21.5 29t-14 37.5t-5 46q0 20 3 39t10.5 35.5t19.5 31t30 26t42.5 19.5t56 12.5t71.5 4.5q16 0 31.5 -0.5t29.5 -1.5t27.5 -2t26.5 -3l-1 -71l-22 2t-21.5 2t-21 1.5t-21 0.5h-21.5q-31 0 -53 -4
t-37 -11.5t-24 -18.5t-12.5 -25t-3.5 -31q0 -19 4 -33t12 -24t19 -16t25.5 -9t31.5 -3q22 0 40.5 4.5t34 13t26.5 23t17 34t6 45.5v147zM301 731h131l-133 -132h-101z" />
    <glyph glyph-name="acircumflex" unicode="&#xe2;" horiz-adv-x="551" 
d="M372 332q0 23 -4.5 41.5t-14 31.5t-23.5 22t-33 13t-43 4q-16 0 -32.5 -2t-33.5 -5.5t-33 -8.5t-31.5 -11t-29.5 -13l-15 80q16 8 36.5 16t45 14t51.5 9.5t56 3.5q54 0 94.5 -12.5t66.5 -37.5t39 -62t13 -85v-330h-98l-8 110l15 -17q-6 -20 -16 -36.5t-24.5 -29.5
t-33.5 -22t-42 -14t-51 -5q-20 0 -39.5 2.5t-37 8t-32.5 14t-27.5 21t-21.5 29t-14 37.5t-5 46q0 20 3 39t10.5 35.5t19.5 31t30 26t42.5 19.5t56 12.5t71.5 4.5q16 0 31.5 -0.5t29.5 -1.5t27.5 -2t26.5 -3l-1 -71l-22 2t-21.5 2t-21 1.5t-21 0.5h-21.5q-31 0 -53 -4
t-37 -11.5t-24 -18.5t-12.5 -25t-3.5 -31q0 -19 4 -33t12 -24t19 -16t25.5 -9t31.5 -3q22 0 40.5 4.5t34 13t26.5 23t17 34t6 45.5v147zM221 731h106l126 -131h-100l-94 87h29l-94 -87h-99z" />
    <glyph glyph-name="atilde" unicode="&#xe3;" horiz-adv-x="551" 
d="M372 332q0 23 -4.5 41.5t-14 31.5t-23.5 22t-33 13t-43 4q-16 0 -32.5 -2t-33.5 -5.5t-33 -8.5t-31.5 -11t-29.5 -13l-15 80q16 8 36.5 16t45 14t51.5 9.5t56 3.5q54 0 94.5 -12.5t66.5 -37.5t39 -62t13 -85v-330h-98l-8 110l15 -17q-6 -20 -16 -36.5t-24.5 -29.5
t-33.5 -22t-42 -14t-51 -5q-20 0 -39.5 2.5t-37 8t-32.5 14t-27.5 21t-21.5 29t-14 37.5t-5 46q0 20 3 39t10.5 35.5t19.5 31t30 26t42.5 19.5t56 12.5t71.5 4.5q16 0 31.5 -0.5t29.5 -1.5t27.5 -2t26.5 -3l-1 -71l-22 2t-21.5 2t-21 1.5t-21 0.5h-21.5q-31 0 -53 -4
t-37 -11.5t-24 -18.5t-12.5 -25t-3.5 -31q0 -19 4 -33t12 -24t19 -16t25.5 -9t31.5 -3q22 0 40.5 4.5t34 13t26.5 23t17 34t6 45.5v147zM134.5 692.5q12.5 15.5 30 23t39.5 7.5q15 0 28.5 -4t25.5 -10t22.5 -13t20 -13t18.5 -10t17 -4q11 0 18 6.5t10.5 17.5t3.5 26h69
q0 -30 -6.5 -53t-19 -38.5t-30 -23t-39.5 -7.5q-15 0 -28.5 4t-25.5 10t-22.5 13t-20 13t-18.5 10t-17 4q-11 0 -18 -6t-10 -17.5t-4 -26.5h-69q0 30 6.5 53t19 38.5z" />
    <glyph glyph-name="adieresis" unicode="&#xe4;" horiz-adv-x="551" 
d="M372 332q0 23 -4.5 41.5t-14 31.5t-23.5 22t-33 13t-43 4q-16 0 -32.5 -2t-33.5 -5.5t-33 -8.5t-31.5 -11t-29.5 -13l-15 80q16 8 36.5 16t45 14t51.5 9.5t56 3.5q54 0 94.5 -12.5t66.5 -37.5t39 -62t13 -85v-330h-98l-8 110l15 -17q-6 -20 -16 -36.5t-24.5 -29.5
t-33.5 -22t-42 -14t-51 -5q-20 0 -39.5 2.5t-37 8t-32.5 14t-27.5 21t-21.5 29t-14 37.5t-5 46q0 20 3 39t10.5 35.5t19.5 31t30 26t42.5 19.5t56 12.5t71.5 4.5q16 0 31.5 -0.5t29.5 -1.5t27.5 -2t26.5 -3l-1 -71l-22 2t-21.5 2t-21 1.5t-21 0.5h-21.5q-31 0 -53 -4
t-37 -11.5t-24 -18.5t-12.5 -25t-3.5 -31q0 -19 4 -33t12 -24t19 -16t25.5 -9t31.5 -3q22 0 40.5 4.5t34 13t26.5 23t17 34t6 45.5v147zM232 603h-100v104h100v-104zM416 603h-100v104h100v-104z" />
    <glyph glyph-name="aring" unicode="&#xe5;" horiz-adv-x="551" 
d="M372 332q0 23 -4.5 41.5t-14 31.5t-23.5 22t-33 13t-43 4q-16 0 -32.5 -2t-33.5 -5.5t-33 -8.5t-31.5 -11t-29.5 -13l-15 80q16 8 36.5 16t45 14t51.5 9.5t56 3.5q54 0 94.5 -12.5t66.5 -37.5t39 -62t13 -85v-330h-98l-8 110l15 -17q-6 -20 -16 -36.5t-24.5 -29.5
t-33.5 -22t-42 -14t-51 -5q-20 0 -39.5 2.5t-37 8t-32.5 14t-27.5 21t-21.5 29t-14 37.5t-5 46q0 20 3 39t10.5 35.5t19.5 31t30 26t42.5 19.5t56 12.5t71.5 4.5q16 0 31.5 -0.5t29.5 -1.5t27.5 -2t26.5 -3l-1 -71l-22 2t-21.5 2t-21 1.5t-21 0.5h-21.5q-31 0 -53 -4
t-37 -11.5t-24 -18.5t-12.5 -25t-3.5 -31q0 -19 4 -33t12 -24t19 -16t25.5 -9t31.5 -3q22 0 40.5 4.5t34 13t26.5 23t17 34t6 45.5v147zM274 577q-17 0 -32 3t-27.5 9t-22.5 14.5t-17 20t-10.5 25.5t-3.5 30t3.5 30t10.5 25t17 20t22.5 15t27.5 9t32 3t32 -3t27.5 -9
t22.5 -15t17 -20t10.5 -25t3.5 -30t-3.5 -30t-10.5 -25.5t-17 -20t-22.5 -14.5t-27.5 -9t-32 -3zM320 661q2 8 2 18t-2 18t-6.5 14t-10 10.5t-13 6.5t-16.5 2t-16.5 -2t-13 -6.5t-10 -10.5t-6.5 -14t-2 -18t2 -18t6.5 -14t10 -10.5t13 -6.5t16.5 -2t16.5 2t13 6.5t10 10.5
t6.5 14z" />
    <glyph glyph-name="ae" unicode="&#xe6;" horiz-adv-x="875" 
d="M372 333q0 23 -4.5 41.5t-14 31.5t-24 21.5t-33.5 12.5t-43 4q-16 0 -32.5 -2t-33 -5.5t-32.5 -8.5t-31.5 -11t-29.5 -13l-15 80q16 8 36.5 16t45 14t51.5 9.5t56 3.5q35 0 62.5 -5.5t49 -16.5t37 -27.5t25.5 -38.5t14.5 -49t4.5 -60l-77 -54q0 37 5.5 68.5t15.5 57.5
t25 46.5t34 36t41.5 26t49 15.5t55.5 5q30 0 56 -5t48 -15t39.5 -25t30.5 -35t22 -45t13.5 -55t4.5 -65v-52h-359v72h288l-36 -23q0 32 -3 57t-9 44t-15.5 32t-22 21.5t-28.5 12t-36 3.5q-16 0 -30.5 -3t-27 -9t-22.5 -15.5t-18 -23.5t-13 -32t-8 -40.5t-3 -50.5v-44
q0 -25 3.5 -45.5t10 -37.5t16.5 -29.5t23 -22t28.5 -15.5t33.5 -9t39 -3q30 0 58.5 5t55 13.5t49.5 18.5l17 -79q-19 -9 -40.5 -16t-46.5 -12.5t-52 -8.5t-57 -3q-34 0 -64 5t-54.5 15.5t-45 26t-35.5 36t-25.5 46t-15.5 56.5t-5 67l41 -141q-9 -27 -25 -48.5t-39.5 -36.5
t-55 -23t-71.5 -8q-21 0 -40.5 2.5t-37 8t-33 14t-28 21t-21 29t-13.5 37t-5 46.5q0 20 3 38t10.5 34.5t19.5 30.5t30 25t42.5 19t56 12t71.5 4h118v-72h-109q-31 0 -53.5 -3.5t-38 -11t-24 -18t-12.5 -23.5t-4 -29q0 -19 4 -33t12 -24t19.5 -16t26 -9t31.5 -3q21 0 40 4
t34 13t26 23t17 34t6 46v148z" />
    <glyph glyph-name="ccedilla" unicode="&#xe7;" horiz-adv-x="500" 
d="M438 410q-13 7 -27.5 12.5t-30 9.5t-33 6.5t-37.5 2.5q-18 0 -35 -3.5t-32 -10t-28 -17t-23 -24.5t-17 -32t-11 -40t-4 -48v-30q0 -22 3.5 -41.5t10.5 -35.5t16.5 -29t22 -23.5t27.5 -17t32.5 -10t36.5 -3.5q20 0 38.5 2.5t36 6.5t33 9.5t30.5 12.5l16 -80
q-16 -8 -34.5 -14.5t-40 -11.5t-46 -7.5t-51.5 -2.5q-33 0 -61.5 5.5t-53 16t-45 25.5t-36 35.5t-26 45.5t-16 54t-5.5 63v30q0 36 6 67.5t17.5 58t28 48t37.5 37.5t46 27t54 16.5t61 5.5q34 0 62.5 -4.5t52 -12.5t41.5 -18zM249 11h59l-33 -87l-3 30q25 0 44 -5t31.5 -15
t18.5 -24t6 -33q0 -20 -8 -35.5t-23 -26.5t-37 -16.5t-51 -5.5q-25 0 -47 4.5t-39 10.5l11 52q10 -3 21 -6t23 -4.5t23 -1.5q12 0 21 2t15 6.5t8.5 10.5t2.5 13q0 12 -6 19.5t-16.5 10.5t-25.5 3h-33z" />
    <glyph glyph-name="egrave" unicode="&#xe8;" horiz-adv-x="550" 
d="M491 31q-19 -9 -40.5 -16t-46.5 -12.5t-52 -8.5t-57 -3q-35 0 -65 5t-55 15.5t-45 26t-35.5 36.5t-26 47t-15.5 57.5t-5 68.5v32q0 36 5.5 67.5t16.5 57t26.5 46t35.5 36t43.5 25.5t51 15t57.5 5q31 0 57 -5t48 -15t40 -25t31 -34.5t22 -44.5t13.5 -55t4.5 -65v-59h-376
v73h305l-36 -16q0 32 -3 56.5t-9 43t-15.5 31.5t-22 21.5t-28.5 12t-36 3.5q-16 0 -30.5 -3t-26.5 -9t-22 -15.5t-18 -23t-13 -31t-8 -40t-3 -49.5v-43q0 -26 3.5 -47t10 -38.5t16.5 -30.5t22.5 -22.5t28 -15.5t33.5 -9t39 -3q30 0 58.5 5t55 13.5t49.5 18.5zM114 731h131
l103 -132h-101z" />
    <glyph glyph-name="eacute" unicode="&#xe9;" horiz-adv-x="550" 
d="M491 31q-19 -9 -40.5 -16t-46.5 -12.5t-52 -8.5t-57 -3q-35 0 -65 5t-55 15.5t-45 26t-35.5 36.5t-26 47t-15.5 57.5t-5 68.5v32q0 36 5.5 67.5t16.5 57t26.5 46t35.5 36t43.5 25.5t51 15t57.5 5q31 0 57 -5t48 -15t40 -25t31 -34.5t22 -44.5t13.5 -55t4.5 -65v-59h-376
v73h305l-36 -16q0 32 -3 56.5t-9 43t-15.5 31.5t-22 21.5t-28.5 12t-36 3.5q-16 0 -30.5 -3t-26.5 -9t-22 -15.5t-18 -23t-13 -31t-8 -40t-3 -49.5v-43q0 -26 3.5 -47t10 -38.5t16.5 -30.5t22.5 -22.5t28 -15.5t33.5 -9t39 -3q30 0 58.5 5t55 13.5t49.5 18.5zM303 731h131
l-133 -132h-101z" />
    <glyph glyph-name="ecircumflex" unicode="&#xea;" horiz-adv-x="550" 
d="M491 31q-19 -9 -40.5 -16t-46.5 -12.5t-52 -8.5t-57 -3q-35 0 -65 5t-55 15.5t-45 26t-35.5 36.5t-26 47t-15.5 57.5t-5 68.5v32q0 36 5.5 67.5t16.5 57t26.5 46t35.5 36t43.5 25.5t51 15t57.5 5q31 0 57 -5t48 -15t40 -25t31 -34.5t22 -44.5t13.5 -55t4.5 -65v-59h-376
v73h305l-36 -16q0 32 -3 56.5t-9 43t-15.5 31.5t-22 21.5t-28.5 12t-36 3.5q-16 0 -30.5 -3t-26.5 -9t-22 -15.5t-18 -23t-13 -31t-8 -40t-3 -49.5v-43q0 -26 3.5 -47t10 -38.5t16.5 -30.5t22.5 -22.5t28 -15.5t33.5 -9t39 -3q30 0 58.5 5t55 13.5t49.5 18.5zM223 731h106
l126 -131h-100l-94 87h29l-94 -87h-99z" />
    <glyph glyph-name="edieresis" unicode="&#xeb;" horiz-adv-x="550" 
d="M491 31q-19 -9 -40.5 -16t-46.5 -12.5t-52 -8.5t-57 -3q-35 0 -65 5t-55 15.5t-45 26t-35.5 36.5t-26 47t-15.5 57.5t-5 68.5v32q0 36 5.5 67.5t16.5 57t26.5 46t35.5 36t43.5 25.5t51 15t57.5 5q31 0 57 -5t48 -15t40 -25t31 -34.5t22 -44.5t13.5 -55t4.5 -65v-59h-376
v73h305l-36 -16q0 32 -3 56.5t-9 43t-15.5 31.5t-22 21.5t-28.5 12t-36 3.5q-16 0 -30.5 -3t-26.5 -9t-22 -15.5t-18 -23t-13 -31t-8 -40t-3 -49.5v-43q0 -26 3.5 -47t10 -38.5t16.5 -30.5t22.5 -22.5t28 -15.5t33.5 -9t39 -3q30 0 58.5 5t55 13.5t49.5 18.5zM234 603h-100
v104h100v-104zM418 603h-100v104h100v-104z" />
    <glyph glyph-name="igrave" unicode="&#xec;" horiz-adv-x="260" 
d="M75 517h110v-517h-110v517zM-32 730h131l103 -132h-101z" />
    <glyph glyph-name="iacute" unicode="&#xed;" horiz-adv-x="260" 
d="M75 517h110v-517h-110v517zM157 730h131l-133 -132h-101z" />
    <glyph glyph-name="icircumflex" unicode="&#xee;" horiz-adv-x="260" 
d="M75 517h110v-517h-110v517zM77 730h106l126 -131h-100l-94 87h29l-94 -87h-99z" />
    <glyph glyph-name="idieresis" unicode="&#xef;" horiz-adv-x="260" 
d="M75 517h110v-517h-110v517zM88 602h-100v104h100v-104zM272 602h-100v104h100v-104z" />
    <glyph glyph-name="eth" unicode="&#xf0;" horiz-adv-x="574" 
d="M156 739h147q22 -16 45 -35.5t45 -43.5t41.5 -51.5t36.5 -59.5t29 -69t19 -79t7 -89v-58q0 -37 -5.5 -69.5t-16 -59.5t-26 -49t-35.5 -39t-45 -28t-54.5 -17t-63.5 -6q-26 0 -50 3.5t-45 11.5t-39.5 19t-33.5 26.5t-27 35t-20.5 43t-12.5 51t-4 59.5v32q0 32 4 59.5
t11.5 51t18.5 43.5t25 35.5t30.5 27.5t36 20t41 12t44.5 4q26 0 47.5 -4t39 -11.5t31.5 -18t24 -23.5t17.5 -28.5t11.5 -33.5l-15 -2q-1 28 -9 56t-21.5 55.5t-32 53.5t-41 50.5t-47.5 47t-52.5 42t-55.5 35.5zM228.5 424q-12.5 -6 -23.5 -15t-19 -22.5t-14 -30.5t-9 -39
t-3 -48v-29q0 -26 3 -48t9 -39t14.5 -30.5t19 -22.5t23.5 -15t28 -9t31 -3t31 3t27.5 9t23.5 15t19 22.5t14 30.5t9 39t3 48v29q0 26 -3 48t-9 39t-14.5 30.5t-19 22.5t-23.5 15t-27.5 9t-31.5 3q-16 0 -31 -3t-27.5 -9zM175 626l316 94v-65l-316 -95v66z" />
    <glyph glyph-name="ntilde" unicode="&#xf1;" horiz-adv-x="587" 
d="M75 517h95l11 -122l-20 -27q4 34 13.5 61t25 46t36 31.5t46.5 18.5t56 6q25 0 47 -4t40 -12.5t33 -21t26 -29.5t18.5 -39t11 -49t3.5 -59v-317h-110v312q0 25 -2.5 44t-8 33.5t-14 25t-19.5 16.5t-24.5 9t-30.5 3q-22 0 -41 -5t-34 -16t-26 -29t-16.5 -43t-5.5 -59v-291
h-110v517zM155.5 691.5q12.5 15.5 30 23t39.5 7.5q15 0 28.5 -4t25.5 -10t22.5 -13t20 -13t18.5 -10t17 -4q11 0 18 6.5t10.5 17.5t3.5 26h69q0 -30 -6.5 -53t-19 -38.5t-30 -23t-39.5 -7.5q-15 0 -28.5 4t-25.5 10t-22.5 13t-20 13t-18.5 10t-17 4q-11 0 -18 -6t-10 -17.5
t-4 -26.5h-69q0 30 6.5 53t19 38.5z" />
    <glyph glyph-name="ograve" unicode="&#xf2;" horiz-adv-x="575" 
d="M286 -14q-32 0 -60.5 5t-52.5 15.5t-44 26t-35 36t-25.5 47t-15.5 58t-5 68.5v33q0 32 4.5 60.5t12.5 52.5t20 44t28 35.5t35 27.5t41 20t47 12t53 4q32 0 60.5 -5t52.5 -15.5t44 -26t35 -36t25.5 -47t15.5 -58t5 -68.5v-32q0 -32 -4.5 -60.5t-12.5 -52.5t-20.5 -44
t-28 -36t-34.5 -28t-41 -20t-47 -12t-53 -4zM347 83q13 6 23.5 15.5t19 23t14 31t8.5 40t3 50.5v31q0 28 -3 50.5t-8.5 40.5t-14 31.5t-19.5 23t-23.5 15.5t-27.5 9t-32 3q-16 0 -31 -3t-28 -9t-23.5 -15.5t-19 -23t-14 -31.5t-8.5 -40.5t-3 -50.5v-30q0 -28 3 -50.5
t8.5 -40.5t14 -31.5t19.5 -23t23.5 -15.5t27.5 -9t32 -3t31.5 3t27.5 9zM126 730h131l103 -132h-101z" />
    <glyph glyph-name="oacute" unicode="&#xf3;" horiz-adv-x="575" 
d="M286 -14q-32 0 -60.5 5t-52.5 15.5t-44 26t-35 36t-25.5 47t-15.5 58t-5 68.5v33q0 32 4.5 60.5t12.5 52.5t20 44t28 35.5t35 27.5t41 20t47 12t53 4q32 0 60.5 -5t52.5 -15.5t44 -26t35 -36t25.5 -47t15.5 -58t5 -68.5v-32q0 -32 -4.5 -60.5t-12.5 -52.5t-20.5 -44
t-28 -36t-34.5 -28t-41 -20t-47 -12t-53 -4zM347 83q13 6 23.5 15.5t19 23t14 31t8.5 40t3 50.5v31q0 28 -3 50.5t-8.5 40.5t-14 31.5t-19.5 23t-23.5 15.5t-27.5 9t-32 3q-16 0 -31 -3t-28 -9t-23.5 -15.5t-19 -23t-14 -31.5t-8.5 -40.5t-3 -50.5v-30q0 -28 3 -50.5
t8.5 -40.5t14 -31.5t19.5 -23t23.5 -15.5t27.5 -9t32 -3t31.5 3t27.5 9zM315 730h131l-133 -132h-101z" />
    <glyph glyph-name="ocircumflex" unicode="&#xf4;" horiz-adv-x="575" 
d="M286 -14q-32 0 -60.5 5t-52.5 15.5t-44 26t-35 36t-25.5 47t-15.5 58t-5 68.5v33q0 32 4.5 60.5t12.5 52.5t20 44t28 35.5t35 27.5t41 20t47 12t53 4q32 0 60.5 -5t52.5 -15.5t44 -26t35 -36t25.5 -47t15.5 -58t5 -68.5v-32q0 -32 -4.5 -60.5t-12.5 -52.5t-20.5 -44
t-28 -36t-34.5 -28t-41 -20t-47 -12t-53 -4zM347 83q13 6 23.5 15.5t19 23t14 31t8.5 40t3 50.5v31q0 28 -3 50.5t-8.5 40.5t-14 31.5t-19.5 23t-23.5 15.5t-27.5 9t-32 3q-16 0 -31 -3t-28 -9t-23.5 -15.5t-19 -23t-14 -31.5t-8.5 -40.5t-3 -50.5v-30q0 -28 3 -50.5
t8.5 -40.5t14 -31.5t19.5 -23t23.5 -15.5t27.5 -9t32 -3t31.5 3t27.5 9zM235 730h106l126 -131h-100l-94 87h29l-94 -87h-99z" />
    <glyph glyph-name="otilde" unicode="&#xf5;" horiz-adv-x="575" 
d="M286 -14q-32 0 -60.5 5t-52.5 15.5t-44 26t-35 36t-25.5 47t-15.5 58t-5 68.5v33q0 32 4.5 60.5t12.5 52.5t20 44t28 35.5t35 27.5t41 20t47 12t53 4q32 0 60.5 -5t52.5 -15.5t44 -26t35 -36t25.5 -47t15.5 -58t5 -68.5v-32q0 -32 -4.5 -60.5t-12.5 -52.5t-20.5 -44
t-28 -36t-34.5 -28t-41 -20t-47 -12t-53 -4zM347 83q13 6 23.5 15.5t19 23t14 31t8.5 40t3 50.5v31q0 28 -3 50.5t-8.5 40.5t-14 31.5t-19.5 23t-23.5 15.5t-27.5 9t-32 3q-16 0 -31 -3t-28 -9t-23.5 -15.5t-19 -23t-14 -31.5t-8.5 -40.5t-3 -50.5v-30q0 -28 3 -50.5
t8.5 -40.5t14 -31.5t19.5 -23t23.5 -15.5t27.5 -9t32 -3t31.5 3t27.5 9zM148.5 691.5q12.5 15.5 30 23t39.5 7.5q15 0 28.5 -4t25.5 -10t22.5 -13t20 -13t18.5 -10t17 -4q11 0 18 6.5t10.5 17.5t3.5 26h69q0 -30 -6.5 -53t-19 -38.5t-30 -23t-39.5 -7.5q-15 0 -28.5 4
t-25.5 10t-22.5 13t-20 13t-18.5 10t-17 4q-11 0 -18 -6t-10 -17.5t-4 -26.5h-69q0 30 6.5 53t19 38.5z" />
    <glyph glyph-name="odieresis" unicode="&#xf6;" horiz-adv-x="575" 
d="M286 -14q-32 0 -60.5 5t-52.5 15.5t-44 26t-35 36t-25.5 47t-15.5 58t-5 68.5v33q0 32 4.5 60.5t12.5 52.5t20 44t28 35.5t35 27.5t41 20t47 12t53 4q32 0 60.5 -5t52.5 -15.5t44 -26t35 -36t25.5 -47t15.5 -58t5 -68.5v-32q0 -32 -4.5 -60.5t-12.5 -52.5t-20.5 -44
t-28 -36t-34.5 -28t-41 -20t-47 -12t-53 -4zM347 83q13 6 23.5 15.5t19 23t14 31t8.5 40t3 50.5v31q0 28 -3 50.5t-8.5 40.5t-14 31.5t-19.5 23t-23.5 15.5t-27.5 9t-32 3q-16 0 -31 -3t-28 -9t-23.5 -15.5t-19 -23t-14 -31.5t-8.5 -40.5t-3 -50.5v-30q0 -28 3 -50.5
t8.5 -40.5t14 -31.5t19.5 -23t23.5 -15.5t27.5 -9t32 -3t31.5 3t27.5 9zM246 602h-100v104h100v-104zM430 602h-100v104h100v-104z" />
    <glyph glyph-name="divide" unicode="&#xf7;" horiz-adv-x="613" 
d="M258 62v106h98v-106h-98zM101 238v90h412v-90h-412zM258 397v106h98v-106h-98z" />
    <glyph glyph-name="oslash" unicode="&#xf8;" horiz-adv-x="575" 
d="M446 558h77l-394 -598h-77zM225.5 -9q-28.5 5 -52.5 15.5t-44 26t-35 36t-25.5 47t-15.5 58t-5 68.5v33q0 32 4.5 60.5t12.5 52.5t20 44t28 35.5t35 27.5t41 20t47 12t53 4q32 0 60.5 -5t52.5 -15.5t44 -26t35 -36t25.5 -47t15.5 -58t5 -68.5v-32q0 -32 -4.5 -60.5
t-12.5 -52.5t-20.5 -44t-28 -36t-34.5 -28t-41 -20t-47 -12t-53 -4q-32 0 -60.5 5zM321.5 69q15.5 3 29 9t24.5 16t20 24t15 32.5t9 41.5t3 51v31q0 29 -3 52t-9 41.5t-14.5 32.5t-19.5 23.5t-25 15.5t-30 9t-34 3t-33.5 -3t-29 -9t-24.5 -16t-20 -24t-15 -32t-9 -41.5
t-3 -51.5v-30q0 -29 3 -52.5t9 -42t14.5 -32.5t19.5 -23.5t25 -15.5t30 -9t34 -3t33.5 3z" />
    <glyph glyph-name="ugrave" unicode="&#xf9;" horiz-adv-x="587" 
d="M512 0h-95l-11 122l20 27q-4 -34 -13.5 -61t-24.5 -46t-36 -31.5t-46.5 -18.5t-56.5 -6q-26 0 -47.5 4t-40 12.5t-33 21t-25.5 30t-18.5 39.5t-11 48.5t-3.5 58.5v317h110v-312q0 -25 2.5 -44t8 -33.5t14 -25t19.5 -16.5t24.5 -9t29.5 -3q23 0 42 5t34 16t26 29t16.5 43
t5.5 59v291h110v-517zM132 730h131l103 -132h-101z" />
    <glyph glyph-name="uacute" unicode="&#xfa;" horiz-adv-x="587" 
d="M512 0h-95l-11 122l20 27q-4 -34 -13.5 -61t-24.5 -46t-36 -31.5t-46.5 -18.5t-56.5 -6q-26 0 -47.5 4t-40 12.5t-33 21t-25.5 30t-18.5 39.5t-11 48.5t-3.5 58.5v317h110v-312q0 -25 2.5 -44t8 -33.5t14 -25t19.5 -16.5t24.5 -9t29.5 -3q23 0 42 5t34 16t26 29t16.5 43
t5.5 59v291h110v-517zM321 730h131l-133 -132h-101z" />
    <glyph glyph-name="ucircumflex" unicode="&#xfb;" horiz-adv-x="587" 
d="M512 0h-95l-11 122l20 27q-4 -34 -13.5 -61t-24.5 -46t-36 -31.5t-46.5 -18.5t-56.5 -6q-26 0 -47.5 4t-40 12.5t-33 21t-25.5 30t-18.5 39.5t-11 48.5t-3.5 58.5v317h110v-312q0 -25 2.5 -44t8 -33.5t14 -25t19.5 -16.5t24.5 -9t29.5 -3q23 0 42 5t34 16t26 29t16.5 43
t5.5 59v291h110v-517zM241 730h106l126 -131h-100l-94 87h29l-94 -87h-99z" />
    <glyph glyph-name="udieresis" unicode="&#xfc;" horiz-adv-x="587" 
d="M512 0h-95l-11 122l20 27q-4 -34 -13.5 -61t-24.5 -46t-36 -31.5t-46.5 -18.5t-56.5 -6q-26 0 -47.5 4t-40 12.5t-33 21t-25.5 30t-18.5 39.5t-11 48.5t-3.5 58.5v317h110v-312q0 -25 2.5 -44t8 -33.5t14 -25t19.5 -16.5t24.5 -9t29.5 -3q23 0 42 5t34 16t26 29t16.5 43
t5.5 59v291h110v-517zM252 602h-100v104h100v-104zM436 602h-100v104h100v-104z" />
    <glyph glyph-name="yacute" unicode="&#xfd;" horiz-adv-x="530" 
d="M300 -66q-10 -27 -21.5 -48t-24.5 -36.5t-27.5 -27t-30 -18.5t-33 -10t-36.5 -3q-18 0 -34.5 3t-30 8t-25.5 11l16 78q9 -4 19.5 -8t22 -6t22.5 -2q16 0 29 4t24 13.5t20.5 25t18.5 38.5l26 71l-1 -66l-214 556h117l149 -434l-29 -12l140 446h113zM293 730h131l-133 -132
h-101z" />
    <glyph glyph-name="thorn" unicode="&#xfe;" horiz-adv-x="600" 
d="M75 730h110v-330l-21 1q5 19 12.5 36t19 31.5t26.5 26t33.5 19.5t40.5 12.5t48 4.5q27 0 51.5 -5t45.5 -15.5t38.5 -26t31 -36.5t22.5 -47t14 -57t5 -68v-32q0 -32 -4 -60.5t-11.5 -52.5t-18.5 -44t-25 -36.5t-31 -28.5t-36.5 -20t-41.5 -12t-46 -4t-45.5 4t-39 11.5
t-31.5 18.5t-24.5 24.5t-17.5 29t-11 33.5l16 12v-319h-110v930zM413.5 392.5q-8.5 13.5 -19 23t-23.5 15.5t-27.5 9t-31.5 3q-16 0 -31 -3t-28 -9t-23.5 -15.5t-19 -23t-14 -31t-8.5 -39.5t-3 -49v-31q0 -27 3 -49t9 -40t14 -31.5t19 -23t23.5 -15.5t27.5 -9t31 -3
q17 0 31.5 3t27.5 9t23.5 15.5t19 23t14.5 31.5t9 40t3 49v31q0 27 -3 49t-9 39.5t-14.5 31z" />
    <glyph glyph-name="ydieresis" unicode="&#xff;" horiz-adv-x="530" 
d="M300 -66q-10 -27 -21.5 -48t-24.5 -36.5t-27.5 -27t-30 -18.5t-33 -10t-36.5 -3q-18 0 -34.5 3t-30 8t-25.5 11l16 78q9 -4 19.5 -8t22 -6t22.5 -2q16 0 29 4t24 13.5t20.5 25t18.5 38.5l26 71l-1 -66l-214 556h117l149 -434l-29 -12l140 446h113zM224 602h-100v104h100
v-104zM408 602h-100v104h100v-104z" />
    <glyph glyph-name="Amacron" unicode="&#x100;" horiz-adv-x="719" 
d="M300 700h119l277 -700h-119l-236 640h33l-236 -640h-115zM184 270h349l32 -84h-413zM530 774h-342v75h342v-75z" />
    <glyph glyph-name="amacron" unicode="&#x101;" horiz-adv-x="551" 
d="M372 332q0 23 -4.5 41.5t-14 31.5t-23.5 22t-33 13t-43 4q-16 0 -32.5 -2t-33.5 -5.5t-33 -8.5t-31.5 -11t-29.5 -13l-15 80q16 8 36.5 16t45 14t51.5 9.5t56 3.5q54 0 94.5 -12.5t66.5 -37.5t39 -62t13 -85v-330h-98l-8 110l15 -17q-6 -20 -16 -36.5t-24.5 -29.5
t-33.5 -22t-42 -14t-51 -5q-20 0 -39.5 2.5t-37 8t-32.5 14t-27.5 21t-21.5 29t-14 37.5t-5 46q0 20 3 39t10.5 35.5t19.5 31t30 26t42.5 19.5t56 12.5t71.5 4.5q16 0 31.5 -0.5t29.5 -1.5t27.5 -2t26.5 -3l-1 -71l-22 2t-21.5 2t-21 1.5t-21 0.5h-21.5q-31 0 -53 -4
t-37 -11.5t-24 -18.5t-12.5 -25t-3.5 -31q0 -19 4 -33t12 -24t19 -16t25.5 -9t31.5 -3q22 0 40.5 4.5t34 13t26.5 23t17 34t6 45.5v147zM428 619h-308v74h308v-74z" />
    <glyph glyph-name="Abreve" unicode="&#x102;" horiz-adv-x="719" 
d="M300 700h119l277 -700h-119l-236 640h33l-236 -640h-115zM184 270h349l32 -84h-413zM510 820.5q-9 -13.5 -22.5 -23.5t-32 -17t-42.5 -10.5t-54 -3.5t-54.5 3.5t-43 10.5t-32 17t-22.5 23.5t-13.5 29.5t-5.5 34h81q2 -14 7.5 -24.5t16 -18t26.5 -11.5t40 -4q23 0 39.5 4
t27 11.5t16 18t6.5 24.5h81q-1 -18 -5.5 -34t-13.5 -29.5z" />
    <glyph glyph-name="abreve" unicode="&#x103;" horiz-adv-x="551" 
d="M372 332q0 23 -4.5 41.5t-14 31.5t-23.5 22t-33 13t-43 4q-16 0 -32.5 -2t-33.5 -5.5t-33 -8.5t-31.5 -11t-29.5 -13l-15 80q16 8 36.5 16t45 14t51.5 9.5t56 3.5q54 0 94.5 -12.5t66.5 -37.5t39 -62t13 -85v-330h-98l-8 110l15 -17q-6 -20 -16 -36.5t-24.5 -29.5
t-33.5 -22t-42 -14t-51 -5q-20 0 -39.5 2.5t-37 8t-32.5 14t-27.5 21t-21.5 29t-14 37.5t-5 46q0 20 3 39t10.5 35.5t19.5 31t30 26t42.5 19.5t56 12.5t71.5 4.5q16 0 31.5 -0.5t29.5 -1.5t27.5 -2t26.5 -3l-1 -71l-22 2t-21.5 2t-21 1.5t-21 0.5h-21.5q-31 0 -53 -4
t-37 -11.5t-24 -18.5t-12.5 -25t-3.5 -31q0 -19 4 -33t12 -24t19 -16t25.5 -9t31.5 -3q22 0 40.5 4.5t34 13t26.5 23t17 34t6 45.5v147zM411 659q-8 -15 -20 -27t-29 -20t-39 -12t-49 -4t-49 4t-39 12t-29.5 20t-20.5 27t-12.5 33t-5.5 39h79q2 -16 6.5 -29t13.5 -22t23 -14
t34 -5t34 5t22.5 14t13.5 22t6 29h79q-1 -21 -5.5 -39t-12.5 -33z" />
    <glyph glyph-name="Aogonek" unicode="&#x104;" horiz-adv-x="719" 
d="M300 700h119l277 -700h-119l-236 640h33l-236 -640h-115zM184 270h349l32 -84h-413zM653 23l43 -23q-20 -19 -35 -34t-25.5 -26.5t-16.5 -21t-8.5 -17t-2.5 -15.5t3.5 -14.5t11 -10t18.5 -3.5q10 0 20.5 2.5t21.5 6.5l11 -58q-9 -5 -21 -8.5t-26 -5.5t-29 -2
q-24 0 -42.5 5t-31.5 14.5t-19.5 24t-6.5 32.5t8.5 36t25.5 36t42 38t59 44z" />
    <glyph glyph-name="aogonek" unicode="&#x105;" horiz-adv-x="551" 
d="M372 332q0 23 -4.5 41.5t-14 31.5t-23.5 22t-33 13t-43 4q-16 0 -32.5 -2t-33.5 -5.5t-33 -8.5t-31.5 -11t-29.5 -13l-15 80q16 8 36.5 16t45 14t51.5 9.5t56 3.5q54 0 94.5 -12.5t66.5 -37.5t39 -62t13 -85v-330h-98l-8 110l15 -17q-6 -20 -16 -36.5t-24.5 -29.5
t-33.5 -22t-42 -14t-51 -5q-20 0 -39.5 2.5t-37 8t-32.5 14t-27.5 21t-21.5 29t-14 37.5t-5 46q0 20 3 39t10.5 35.5t19.5 31t30 26t42.5 19.5t56 12.5t71.5 4.5q16 0 31.5 -0.5t29.5 -1.5t27.5 -2t26.5 -3l-1 -71l-22 2t-21.5 2t-21 1.5t-21 0.5h-21.5q-31 0 -53 -4
t-37 -11.5t-24 -18.5t-12.5 -25t-3.5 -31q0 -19 4 -33t12 -24t19 -16t25.5 -9t31.5 -3q22 0 40.5 4.5t34 13t26.5 23t17 34t6 45.5v147zM438 23l43 -23q-21 -19 -36 -34t-25.5 -27t-16.5 -21t-9 -17t-3 -15q0 -9 4 -16t12 -10.5t19 -3.5q9 0 20 2.5t22 7.5l11 -57
q-9 -5 -21 -8.5t-26 -5.5t-29 -2q-23 0 -41.5 5t-31 14.5t-19 24t-6.5 32.5t8.5 36t25 36t41.5 38t58 44z" />
    <glyph glyph-name="Cacute" unicode="&#x106;" horiz-adv-x="638" 
d="M564 586q-18 9 -37.5 16t-41 12t-45 8t-49.5 3q-25 0 -48 -4t-43.5 -12t-38 -20t-32 -28.5t-25.5 -37.5t-19 -46t-12 -54.5t-4 -63.5v-37q0 -32 4 -59.5t11.5 -50.5t18.5 -42.5t25.5 -34.5t32 -26.5t37.5 -19t43.5 -11t48.5 -3.5q28 0 53.5 3t48.5 9t44 14t40 17l16 -84
q-19 -10 -42.5 -18.5t-50.5 -14.5t-58 -9.5t-67 -3.5q-38 0 -71.5 5.5t-63.5 16t-55.5 26t-46.5 36.5t-37 47t-27 57t-16.5 67.5t-5.5 77.5v40q0 43 6 80.5t17.5 70.5t28 60.5t38 49.5t48 39t56.5 28.5t64.5 17t72.5 5.5q33 0 61 -3t52.5 -9t45.5 -13.5t39 -16.5zM403 888
h154l-175 -116h-116z" />
    <glyph glyph-name="cacute" unicode="&#x107;" horiz-adv-x="500" 
d="M438 410q-13 7 -27.5 12.5t-30 9.5t-33 6.5t-37.5 2.5q-18 0 -35 -3.5t-32 -10t-28 -17t-23 -24.5t-17 -32t-11 -40t-4 -48v-30q0 -22 3.5 -41.5t10.5 -35.5t16.5 -29t22 -23.5t27.5 -17t32.5 -10t36.5 -3.5q20 0 38.5 2.5t36 6.5t33 9.5t30.5 12.5l16 -80
q-16 -8 -34.5 -14.5t-40 -11.5t-46 -7.5t-51.5 -2.5q-33 0 -61.5 5.5t-53 16t-45 25.5t-36 35.5t-26 45.5t-16 54t-5.5 63v30q0 36 6 67.5t17.5 58t28 48t37.5 37.5t46 27t54 16.5t61 5.5q34 0 62.5 -4.5t52 -12.5t41.5 -18zM305 730h131l-133 -132h-101z" />
    <glyph glyph-name="Cdotaccent" unicode="&#x10a;" horiz-adv-x="638" 
d="M564 586q-18 9 -37.5 16t-41 12t-45 8t-49.5 3q-25 0 -48 -4t-43.5 -12t-38 -20t-32 -28.5t-25.5 -37.5t-19 -46t-12 -54.5t-4 -63.5v-37q0 -32 4 -59.5t11.5 -50.5t18.5 -42.5t25.5 -34.5t32 -26.5t37.5 -19t43.5 -11t48.5 -3.5q28 0 53.5 3t48.5 9t44 14t40 17l16 -84
q-19 -10 -42.5 -18.5t-50.5 -14.5t-58 -9.5t-67 -3.5q-38 0 -71.5 5.5t-63.5 16t-55.5 26t-46.5 36.5t-37 47t-27 57t-16.5 67.5t-5.5 77.5v40q0 43 6 80.5t17.5 70.5t28 60.5t38 49.5t48 39t56.5 28.5t64.5 17t72.5 5.5q33 0 61 -3t52.5 -9t45.5 -13.5t39 -16.5zM424 774
h-114v108h114v-108z" />
    <glyph glyph-name="cdotaccent" unicode="&#x10b;" horiz-adv-x="500" 
d="M438 410q-13 7 -27.5 12.5t-30 9.5t-33 6.5t-37.5 2.5q-18 0 -35 -3.5t-32 -10t-28 -17t-23 -24.5t-17 -32t-11 -40t-4 -48v-30q0 -22 3.5 -41.5t10.5 -35.5t16.5 -29t22 -23.5t27.5 -17t32.5 -10t36.5 -3.5q20 0 38.5 2.5t36 6.5t33 9.5t30.5 12.5l16 -80
q-16 -8 -34.5 -14.5t-40 -11.5t-46 -7.5t-51.5 -2.5q-33 0 -61.5 5.5t-53 16t-45 25.5t-36 35.5t-26 45.5t-16 54t-5.5 63v30q0 36 6 67.5t17.5 58t28 48t37.5 37.5t46 27t54 16.5t61 5.5q34 0 62.5 -4.5t52 -12.5t41.5 -18zM334 599h-113v114h113v-114z" />
    <glyph glyph-name="Ccaron" unicode="&#x10c;" horiz-adv-x="638" 
d="M564 586q-18 9 -37.5 16t-41 12t-45 8t-49.5 3q-25 0 -48 -4t-43.5 -12t-38 -20t-32 -28.5t-25.5 -37.5t-19 -46t-12 -54.5t-4 -63.5v-37q0 -32 4 -59.5t11.5 -50.5t18.5 -42.5t25.5 -34.5t32 -26.5t37.5 -19t43.5 -11t48.5 -3.5q28 0 53.5 3t48.5 9t44 14t40 17l16 -84
q-19 -10 -42.5 -18.5t-50.5 -14.5t-58 -9.5t-67 -3.5q-38 0 -71.5 5.5t-63.5 16t-55.5 26t-46.5 36.5t-37 47t-27 57t-16.5 67.5t-5.5 77.5v40q0 43 6 80.5t17.5 70.5t28 60.5t38 49.5t48 39t56.5 28.5t64.5 17t72.5 5.5q33 0 61 -3t52.5 -9t45.5 -13.5t39 -16.5zM420 770
h-106l-143 116h109l111 -77h-47l111 77h108z" />
    <glyph glyph-name="ccaron" unicode="&#x10d;" horiz-adv-x="500" 
d="M438 410q-13 7 -27.5 12.5t-30 9.5t-33 6.5t-37.5 2.5q-18 0 -35 -3.5t-32 -10t-28 -17t-23 -24.5t-17 -32t-11 -40t-4 -48v-30q0 -22 3.5 -41.5t10.5 -35.5t16.5 -29t22 -23.5t27.5 -17t32.5 -10t36.5 -3.5q20 0 38.5 2.5t36 6.5t33 9.5t30.5 12.5l16 -80
q-16 -8 -34.5 -14.5t-40 -11.5t-46 -7.5t-51.5 -2.5q-33 0 -61.5 5.5t-53 16t-45 25.5t-36 35.5t-26 45.5t-16 54t-5.5 63v30q0 36 6 67.5t17.5 58t28 48t37.5 37.5t46 27t54 16.5t61 5.5q34 0 62.5 -4.5t52 -12.5t41.5 -18zM331 599h-106l-126 131h99l94 -88h-29l94 88h100
z" />
    <glyph glyph-name="Dcaron" unicode="&#x10e;" horiz-adv-x="731" 
d="M80 700h114v-700h-114v700zM673 252q-6 -36 -18 -67t-29.5 -57t-40 -46.5t-49.5 -35.5t-58.5 -25.5t-66.5 -15.5t-74 -5h-176v87h172q26 0 49.5 3.5t44.5 10t39 17.5t33 25.5t27 33.5t20 42.5t12 51.5t4 61v36q0 33 -4 61.5t-12 51.5t-20 42t-27 34t-33 25.5t-39 17
t-44.5 10t-49.5 3.5h-172v87h176q39 0 74.5 -5t67 -15t58.5 -25t49.5 -35t39.5 -45.5t29 -57t18 -68t6 -79.5v-40q0 -42 -6 -78zM409 770h-106l-143 116h109l111 -77h-47l111 77h108z" />
    <glyph glyph-name="dcaron" unicode="&#x10f;" horiz-adv-x="600" 
d="M524 0h-96l-9 126l16 -9q-5 -19 -13.5 -36.5t-20 -32t-26 -26t-32.5 -19.5t-39.5 -12.5t-47.5 -4.5q-27 0 -51.5 5t-45.5 15.5t-38.5 26t-31 36.5t-22.5 47t-14 57t-5 68v33q0 32 4 60t11.5 52t18.5 44.5t25 36.5t31 28t36.5 20t41.5 12t46 4q25 0 45.5 -4t37.5 -11.5
t31 -18t24.5 -24t18 -29t12.5 -33.5l-16 -13v332h109v-730zM186.5 124.5q8.5 -13.5 19 -23t23.5 -15.5t28 -9t31 -3t31 3t27.5 9t23.5 15.5t19 23t14 31t9 39.5t3 49v31q0 27 -3 49.5t-9 40t-14.5 31.5t-19 23.5t-23.5 15.5t-27.5 9t-31.5 3q-16 0 -31 -3t-27.5 -9
t-23.5 -15.5t-19 -23.5t-14 -31.5t-9 -40t-3 -49.5v-31q0 -27 3 -49t9 -39.5t14.5 -31zM594 730h108l-49 -180h-75z" />
    <glyph glyph-name="Dcroat" unicode="&#x110;" horiz-adv-x="747" 
d="M16 402h378v-78h-378v78zM96 700h113v-700h-113v700zM552 46q-27 -15 -58.5 -25.5t-67 -15.5t-74.5 -5h-175v87h172q26 0 49.5 3.5t44.5 10t39 17.5t33 25.5t27 33.5t20 42.5t12 51.5t4 61v36q0 33 -4 61.5t-12 51.5t-20 42t-27 34t-33 25.5t-39 17t-44.5 10t-49.5 3.5
h-172v87h175q39 0 74.5 -5t67 -15t58.5 -25t49.5 -35t40 -45.5t29.5 -57t18 -68t6 -79.5v-40q0 -42 -6 -78t-18 -67t-29.5 -57t-40 -46.5t-49.5 -35.5z" />
    <glyph glyph-name="dcroat" unicode="&#x111;" horiz-adv-x="600" 
d="M524 0h-96l-9 126l16 -9q-5 -19 -13.5 -36.5t-20 -32t-26 -26t-32.5 -19.5t-39.5 -12.5t-47.5 -4.5q-27 0 -51.5 5t-45.5 15.5t-38.5 25.5t-31 35.5t-22.5 46t-14 56.5t-5 67v30q0 32 4 59.5t11.5 51.5t18.5 43.5t25 35.5t30.5 28t36 20t41 12t45.5 4q25 0 46 -4
t38.5 -11.5t31 -18t24.5 -24t18.5 -29.5t12.5 -34l-16 -12v342h109v-730zM186.5 123.5q8.5 -13.5 19 -22.5t23.5 -15t28 -9t31 -3t31 3t27.5 9t23.5 15t19 22.5t14 30.5t9 38.5t3 47.5v29q0 26 -3 48t-9 39t-14.5 30.5t-19 22.5t-23.5 15t-27.5 9t-31.5 3q-16 0 -31 -3
t-27.5 -9t-23.5 -15t-19 -22.5t-14 -30.5t-9 -39t-3 -48v-29q0 -26 3 -47.5t9 -38.5t14.5 -30.5zM254 590v67h344v-67h-344z" />
    <glyph glyph-name="Emacron" unicode="&#x112;" horiz-adv-x="635" 
d="M80 700h109v-700h-109v700zM110 405h428v-85h-428v85zM117 700h448v-85h-448v85zM117 85h461v-85h-461v85zM498 774h-342v75h342v-75z" />
    <glyph glyph-name="emacron" unicode="&#x113;" horiz-adv-x="550" 
d="M491 31q-19 -9 -40.5 -16t-46.5 -12.5t-52 -8.5t-57 -3q-35 0 -65 5t-55 15.5t-45 26t-35.5 36.5t-26 47t-15.5 57.5t-5 68.5v32q0 36 5.5 67.5t16.5 57t26.5 46t35.5 36t43.5 25.5t51 15t57.5 5q31 0 57 -5t48 -15t40 -25t31 -34.5t22 -44.5t13.5 -55t4.5 -65v-59h-376
v73h305l-36 -16q0 32 -3 56.5t-9 43t-15.5 31.5t-22 21.5t-28.5 12t-36 3.5q-16 0 -30.5 -3t-26.5 -9t-22 -15.5t-18 -23t-13 -31t-8 -40t-3 -49.5v-43q0 -26 3.5 -47t10 -38.5t16.5 -30.5t22.5 -22.5t28 -15.5t33.5 -9t39 -3q30 0 58.5 5t55 13.5t49.5 18.5zM430 619h-308
v74h308v-74z" />
    <glyph glyph-name="Edotaccent" unicode="&#x116;" horiz-adv-x="635" 
d="M80 700h109v-700h-109v700zM110 405h428v-85h-428v85zM117 700h448v-85h-448v85zM117 85h461v-85h-461v85zM384 774h-114v108h114v-108z" />
    <glyph glyph-name="edotaccent" unicode="&#x117;" horiz-adv-x="550" 
d="M491 31q-19 -9 -40.5 -16t-46.5 -12.5t-52 -8.5t-57 -3q-35 0 -65 5t-55 15.5t-45 26t-35.5 36.5t-26 47t-15.5 57.5t-5 68.5v32q0 36 5.5 67.5t16.5 57t26.5 46t35.5 36t43.5 25.5t51 15t57.5 5q31 0 57 -5t48 -15t40 -25t31 -34.5t22 -44.5t13.5 -55t4.5 -65v-59h-376
v73h305l-36 -16q0 32 -3 56.5t-9 43t-15.5 31.5t-22 21.5t-28.5 12t-36 3.5q-16 0 -30.5 -3t-26.5 -9t-22 -15.5t-18 -23t-13 -31t-8 -40t-3 -49.5v-43q0 -26 3.5 -47t10 -38.5t16.5 -30.5t22.5 -22.5t28 -15.5t33.5 -9t39 -3q30 0 58.5 5t55 13.5t49.5 18.5zM332 600h-113
v114h113v-114z" />
    <glyph glyph-name="Eogonek" unicode="&#x118;" horiz-adv-x="635" 
d="M80 700h109v-700h-109v700zM110 405h428v-85h-428v85zM117 700h448v-85h-448v85zM117 85h461v-85h-461v85zM535 23l43 -23q-20 -19 -35 -34t-25.5 -26.5t-16.5 -21t-8.5 -17t-2.5 -15.5t3.5 -14.5t11 -10t18.5 -3.5q10 0 20.5 2.5t21.5 6.5l11 -58q-9 -5 -21 -8.5
t-26 -5.5t-29 -2q-24 0 -42.5 5t-31.5 14.5t-19.5 24t-6.5 32.5t8.5 36t25.5 36t42 38t59 44z" />
    <glyph glyph-name="eogonek" unicode="&#x119;" horiz-adv-x="550" 
d="M491 31q-19 -9 -40.5 -16t-46.5 -12.5t-52 -8.5t-57 -3q-35 0 -65 5t-55 15.5t-45 26t-35.5 36.5t-26 47t-15.5 57.5t-5 68.5v32q0 36 5.5 67.5t16.5 57t26.5 46t35.5 36t43.5 25.5t51 15t57.5 5q31 0 57 -5t48 -15t40 -25t31 -34.5t22 -44.5t13.5 -55t4.5 -65v-59h-376
v73h305l-36 -16q0 32 -3 56.5t-9 43t-15.5 31.5t-22 21.5t-28.5 12t-36 3.5q-16 0 -30.5 -3t-26.5 -9t-22 -15.5t-18 -23t-13 -31t-8 -40t-3 -49.5v-43q0 -26 3.5 -47t10 -38.5t16.5 -30.5t22.5 -22.5t28 -15.5t33.5 -9t39 -3q30 0 58.5 5t55 13.5t49.5 18.5zM415 -45.5
q-13 -15.5 -21 -27.5t-11.5 -22t-3.5 -19t4 -16t11.5 -10.5t18.5 -3.5q10 0 21 2.5t22 7.5l11 -57q-10 -5 -22 -8.5t-25.5 -5.5t-28.5 -2q-23 0 -41.5 5t-31.5 14.5t-19.5 24t-6.5 32.5q0 15 5 29.5t15.5 29t26.5 29.5t37.5 32.5t48.5 37.5l66 5q-25 -24 -44 -43t-32 -34.5z
" />
    <glyph glyph-name="Ecaron" unicode="&#x11a;" horiz-adv-x="635" 
d="M80 700h109v-700h-109v700zM110 405h428v-85h-428v85zM117 700h448v-85h-448v85zM117 85h461v-85h-461v85zM380 770h-106l-143 116h109l111 -77h-47l111 77h108z" />
    <glyph glyph-name="ecaron" unicode="&#x11b;" horiz-adv-x="550" 
d="M491 31q-19 -9 -40.5 -16t-46.5 -12.5t-52 -8.5t-57 -3q-35 0 -65 5t-55 15.5t-45 26t-35.5 36.5t-26 47t-15.5 57.5t-5 68.5v32q0 36 5.5 67.5t16.5 57t26.5 46t35.5 36t43.5 25.5t51 15t57.5 5q31 0 57 -5t48 -15t40 -25t31 -34.5t22 -44.5t13.5 -55t4.5 -65v-59h-376
v73h305l-36 -16q0 32 -3 56.5t-9 43t-15.5 31.5t-22 21.5t-28.5 12t-36 3.5q-16 0 -30.5 -3t-26.5 -9t-22 -15.5t-18 -23t-13 -31t-8 -40t-3 -49.5v-43q0 -26 3.5 -47t10 -38.5t16.5 -30.5t22.5 -22.5t28 -15.5t33.5 -9t39 -3q30 0 58.5 5t55 13.5t49.5 18.5zM329 600h-106
l-126 131h99l94 -88h-29l94 88h100z" />
    <glyph glyph-name="Gbreve" unicode="&#x11e;" horiz-adv-x="699" 
d="M639 33q-17 -7 -38.5 -14t-46.5 -12.5t-51.5 -9.5t-54.5 -6.5t-57 -2.5q-41 0 -77.5 5t-68.5 15.5t-58.5 26t-48 36t-38 46.5t-27.5 57.5t-16.5 68t-5.5 78.5v40q0 44 6 82t18.5 71t30 60.5t40 49.5t50 38.5t59.5 27.5t68 16.5t76 5.5q38 0 70.5 -4t60 -10.5t51 -15.5
t42.5 -19l-16 -84q-25 13 -55.5 23.5t-66.5 16.5t-78 6q-28 0 -53.5 -4t-47.5 -12t-41 -20t-34.5 -28.5t-27 -37t-20 -45.5t-12.5 -55t-4 -64v-37q0 -32 3.5 -59.5t11 -51t18.5 -42.5t25.5 -34.5t32.5 -27t39.5 -19t46.5 -11t53 -3.5t54.5 2.5t50.5 7.5t45 12l-16 -27v246
l28 -27h-192v84h272v-339zM532 820.5q-9 -13.5 -22.5 -23.5t-32 -17t-42.5 -10.5t-54 -3.5t-54.5 3.5t-43 10.5t-32 17t-22.5 23.5t-13.5 29.5t-5.5 34h81q2 -14 7.5 -24.5t16 -18t26.5 -11.5t40 -4q23 0 39.5 4t27 11.5t16 18t6.5 24.5h81q-1 -18 -5.5 -34t-13.5 -29.5z
" />
    <glyph glyph-name="gbreve" unicode="&#x11f;" horiz-adv-x="600" 
d="M389 133q8 13 14 30t9 38.5t3 48.5v31q0 26 -3 47.5t-9 38.5t-14.5 30.5t-19 22.5t-23.5 15t-27.5 9t-31.5 3q-16 0 -31 -3t-27.5 -9t-23.5 -15t-19 -22.5t-14 -30.5t-9 -38.5t-3 -47.5v-31q0 -26 3 -47t9 -38t14.5 -30t19 -22.5t23.5 -15t28 -8.5t31 -3t31 2.5t27.5 8
t23.5 14.5t19 22zM255 -2q-27 0 -51 5t-45 15t-38.5 25.5t-31 36t-22.5 45.5t-14 55.5t-5 66.5v32q0 31 4 58.5t11.5 51t18.5 43.5t25 35.5t31 27.5t36.5 20t41.5 12t46 4q25 0 46 -4t38.5 -11.5t31.5 -18t24.5 -24t17.5 -29t11 -33.5l-12 -20l9 126h96v-501q0 -29 -5 -54.5
t-15 -48t-25.5 -41.5t-35.5 -34t-46 -25.5t-57 -16t-68 -5.5q-38 0 -72 5.5t-63.5 15t-53.5 20.5l17 81q17 -9 36 -16t40 -12t43.5 -7.5t44.5 -2.5q23 0 43 3.5t37 11t30 19t22 27t14 35.5t5 44v110l20 3q-4 -21 -12 -38.5t-19 -32t-25.5 -25.5t-33 -18.5t-41 -11.5
t-49.5 -4zM424 658q-8 -15 -20 -27t-29 -20t-39 -12t-49 -4t-49 4t-39 12t-29.5 20t-20.5 27t-12.5 33t-5.5 39h79q2 -16 6.5 -29t13.5 -22t23 -14t34 -5t34 5t22.5 14t13.5 22t6 29h79q-1 -21 -5.5 -39t-12.5 -33z" />
    <glyph glyph-name="Gdotaccent" unicode="&#x120;" horiz-adv-x="699" 
d="M639 33q-17 -7 -38.5 -14t-46.5 -12.5t-51.5 -9.5t-54.5 -6.5t-57 -2.5q-41 0 -77.5 5t-68.5 15.5t-58.5 26t-48 36t-38 46.5t-27.5 57.5t-16.5 68t-5.5 78.5v40q0 44 6 82t18.5 71t30 60.5t40 49.5t50 38.5t59.5 27.5t68 16.5t76 5.5q38 0 70.5 -4t60 -10.5t51 -15.5
t42.5 -19l-16 -84q-25 13 -55.5 23.5t-66.5 16.5t-78 6q-28 0 -53.5 -4t-47.5 -12t-41 -20t-34.5 -28.5t-27 -37t-20 -45.5t-12.5 -55t-4 -64v-37q0 -32 3.5 -59.5t11 -51t18.5 -42.5t25.5 -34.5t32.5 -27t39.5 -19t46.5 -11t53 -3.5t54.5 2.5t50.5 7.5t45 12l-16 -27v246
l28 -27h-192v84h272v-339zM438 774h-114v108h114v-108z" />
    <glyph glyph-name="gdotaccent" unicode="&#x121;" horiz-adv-x="600" 
d="M389 133q8 13 14 30t9 38.5t3 48.5v31q0 26 -3 47.5t-9 38.5t-14.5 30.5t-19 22.5t-23.5 15t-27.5 9t-31.5 3q-16 0 -31 -3t-27.5 -9t-23.5 -15t-19 -22.5t-14 -30.5t-9 -38.5t-3 -47.5v-31q0 -26 3 -47t9 -38t14.5 -30t19 -22.5t23.5 -15t28 -8.5t31 -3t31 2.5t27.5 8
t23.5 14.5t19 22zM255 -2q-27 0 -51 5t-45 15t-38.5 25.5t-31 36t-22.5 45.5t-14 55.5t-5 66.5v32q0 31 4 58.5t11.5 51t18.5 43.5t25 35.5t31 27.5t36.5 20t41.5 12t46 4q25 0 46 -4t38.5 -11.5t31.5 -18t24.5 -24t17.5 -29t11 -33.5l-12 -20l9 126h96v-501q0 -29 -5 -54.5
t-15 -48t-25.5 -41.5t-35.5 -34t-46 -25.5t-57 -16t-68 -5.5q-38 0 -72 5.5t-63.5 15t-53.5 20.5l17 81q17 -9 36 -16t40 -12t43.5 -7.5t44.5 -2.5q23 0 43 3.5t37 11t30 19t22 27t14 35.5t5 44v110l20 3q-4 -21 -12 -38.5t-19 -32t-25.5 -25.5t-33 -18.5t-41 -11.5
t-49.5 -4zM343 599h-113v114h113v-114z" />
    <glyph glyph-name="uni0122" unicode="&#x122;" horiz-adv-x="699" 
d="M639 33q-17 -7 -38.5 -14t-46.5 -12.5t-51.5 -9.5t-54.5 -6.5t-57 -2.5q-41 0 -77.5 5t-68.5 15.5t-58.5 26t-48 36t-38 46.5t-27.5 57.5t-16.5 68t-5.5 78.5v40q0 44 6 82t18.5 71t30 60.5t40 49.5t50 38.5t59.5 27.5t68 16.5t76 5.5q38 0 70.5 -4t60 -10.5t51 -15.5
t42.5 -19l-16 -84q-25 13 -55.5 23.5t-66.5 16.5t-78 6q-28 0 -53.5 -4t-47.5 -12t-41 -20t-34.5 -28.5t-27 -37t-20 -45.5t-12.5 -55t-4 -64v-37q0 -32 3.5 -59.5t11 -51t18.5 -42.5t25.5 -34.5t32.5 -27t39.5 -19t46.5 -11t53 -3.5t54.5 2.5t50.5 7.5t45 12l-16 -27v246
l28 -27h-192v84h272v-339zM403 -150q-15 -20 -32 -40h-100q14 22 26 42.5t22.5 41t17.5 40.5h115q-9 -21 -21.5 -42.5t-27.5 -41.5z" />
    <glyph glyph-name="uni0123" unicode="&#x123;" horiz-adv-x="600" 
d="M389 133q8 13 14 30t9 38.5t3 48.5v31q0 26 -3 47.5t-9 38.5t-14.5 30.5t-19 22.5t-23.5 15t-27.5 9t-31.5 3q-16 0 -31 -3t-27.5 -9t-23.5 -15t-19 -22.5t-14 -30.5t-9 -38.5t-3 -47.5v-31q0 -26 3 -47t9 -38t14.5 -30t19 -22.5t23.5 -15t28 -8.5t31 -3t31 2.5t27.5 8
t23.5 14.5t19 22zM255 -2q-27 0 -51 5t-45 15t-38.5 25.5t-31 36t-22.5 45.5t-14 55.5t-5 66.5v32q0 31 4 58.5t11.5 51t18.5 43.5t25 35.5t31 27.5t36.5 20t41.5 12t46 4q25 0 46 -4t38.5 -11.5t31.5 -18t24.5 -24t17.5 -29t11 -33.5l-12 -20l9 126h96v-501q0 -29 -5 -54.5
t-15 -48t-25.5 -41.5t-35.5 -34t-46 -25.5t-57 -16t-68 -5.5q-38 0 -72 5.5t-63.5 15t-53.5 20.5l17 81q17 -9 36 -16t40 -12t43.5 -7.5t44.5 -2.5q23 0 43 3.5t37 11t30 19t22 27t14 35.5t5 44v110l20 3q-4 -21 -12 -38.5t-19 -32t-25.5 -25.5t-33 -18.5t-41 -11.5
t-49.5 -4zM339 599h-110q9 23 20.5 45t26.5 44t32 42h95q-20 -34 -36.5 -66.5t-27.5 -64.5z" />
    <glyph glyph-name="Hbar" unicode="&#x126;" horiz-adv-x="780" 
d="M16 520v69h747v-69h-747zM570 700h113v-700h-113v700zM96 700h113v-700h-113v700zM159 403h455v-85h-455v85z" />
    <glyph glyph-name="hbar" unicode="&#x127;" horiz-adv-x="587" 
d="M2 657h343v-67h-343v67zM174.5 419.5q9.5 26.5 25 45.5t36 31t46.5 18t56 6q25 0 47 -4t40 -12.5t33 -21t26 -29.5t18.5 -39t11 -48.5t3.5 -58.5v-307h-110v301q0 25 -2.5 44.5t-8 34t-14 25t-19.5 16.5t-24.5 9t-30.5 3q-22 0 -41 -5t-34 -16.5t-26 -29t-16.5 -43
t-5.5 -58.5v-281h-110v730h110v-346l-24 -26q4 35 13.5 61.5z" />
    <glyph glyph-name="Itilde" unicode="&#x128;" horiz-adv-x="274" 
d="M80 700h114v-700h-114v700zM286.5 797.5q-12.5 -14.5 -30 -21.5t-39.5 -7q-17 0 -32 4t-28 9.5t-25 12.5t-23 12.5t-21 9.5t-19 4q-10 0 -17.5 -6t-11.5 -16.5t-5 -25.5h-70q0 29 7 50.5t19.5 36t30 22t39.5 7.5q17 0 32 -4t28 -9.5t25 -12.5t23 -12.5t21 -9.5t19 -4
q11 0 18 6t11.5 16.5t4.5 25.5h70q0 -29 -7 -51t-19.5 -36.5z" />
    <glyph glyph-name="itilde" unicode="&#x129;" horiz-adv-x="260" 
d="M75 517h110v-517h-110v517zM-9.5 691.5q12.5 15.5 30 23t39.5 7.5q15 0 28.5 -4t25.5 -10t22.5 -13t20 -13t18.5 -10t17 -4q11 0 18 6.5t10.5 17.5t3.5 26h69q0 -30 -6.5 -53t-19 -38.5t-30 -23t-39.5 -7.5q-15 0 -28.5 4t-25.5 10t-22.5 13t-20 13t-18.5 10t-17 4
q-11 0 -18 -6t-10 -17.5t-4 -26.5h-69q0 30 6.5 53t19 38.5z" />
    <glyph glyph-name="Imacron" unicode="&#x12a;" horiz-adv-x="274" 
d="M80 700h114v-700h-114v700zM308 774h-342v75h342v-75z" />
    <glyph glyph-name="imacron" unicode="&#x12b;" horiz-adv-x="260" 
d="M75 517h110v-517h-110v517zM284 618h-308v74h308v-74z" />
    <glyph glyph-name="Iogonek" unicode="&#x12e;" horiz-adv-x="274" 
d="M186 -199.5q-12 -3.5 -25.5 -5.5t-29.5 -2q-24 0 -42 5t-31 14.5t-19.5 24t-6.5 32.5t7.5 36t22.5 36t37 38t52 44l43 -23q-17 -19 -29.5 -34t-20.5 -26.5t-13 -21t-7 -17t-2 -15.5t3.5 -14.5t11 -10t17.5 -3.5t20.5 2.5t21.5 6.5l11 -58q-9 -5 -21 -8.5zM194 700v-700
h-114v700h114z" />
    <glyph glyph-name="iogonek" unicode="&#x12f;" horiz-adv-x="260" 
d="M75 517h110v-517h-110v517zM187 595h-114v118h114v-118zM142 23l43 -23q-17 -19 -30 -34t-21.5 -26.5t-13.5 -20.5t-7.5 -17t-2.5 -15q0 -9 4 -16t12 -11t19 -4q10 0 21 2.5t22 7.5l11 -57q-10 -5 -22 -8.5t-25.5 -5.5t-28.5 -2q-23 0 -41.5 5t-31.5 14.5t-19.5 24
t-6.5 32.5t7.5 36t22.5 36t37 38t51 44z" />
    <glyph glyph-name="Idotaccent" unicode="&#x130;" horiz-adv-x="274" 
d="M80 700h114v-700h-114v700zM194 774h-114v108h114v-108z" />
    <glyph glyph-name="dotlessi" unicode="&#x131;" horiz-adv-x="260" 
d="M75 517h110v-517h-110v517z" />
    <glyph glyph-name="IJ" unicode="&#x132;" horiz-adv-x="700" 
d="M624 277q0 -41 -5.5 -75t-16 -62t-25.5 -50t-34.5 -39t-43 -29t-50.5 -19.5t-57.5 -11t-63.5 -3.5q-30 0 -58.5 2.5t-54.5 7.5t-49.5 12.5t-45 16.5t-40.5 19l17 84q15 -9 32 -16.5t35 -13.5t37 -10.5t38.5 -8t39.5 -5t40 -1.5q25 0 47.5 3t42 9.5t35.5 17t28.5 26.5
t21 37t13 49t4.5 62v421h113v-423zM194 225h-114v475h114v-475z" />
    <glyph glyph-name="ij" unicode="&#x133;" horiz-adv-x="588" 
d="M183 595h-114v118h114v-118zM514 595h-114v118h114v-118zM512 16q0 -29 -5 -54.5t-15 -48t-25.5 -41.5t-35.5 -34t-46 -25.5t-57 -16t-68 -5.5q-28 0 -54.5 3t-49.5 8.5t-44 13t-39 16.5l17 81q17 -9 36 -16t39.5 -12t42 -7.5t43.5 -2.5q23 0 43.5 3.5t37.5 11t30 19
t22 27t14 35.5t5 44v126l24 19q-4 -34 -13.5 -61t-25 -46t-36.5 -31t-46.5 -18t-56.5 -6q-25 0 -47 4t-40 12.5t-32.5 21t-25.5 29.5t-18.5 39t-11 48.5t-3.5 58.5v306h109v-300q0 -25 3 -44t8.5 -33.5t13.5 -25t19 -16.5t25 -9t30 -3q23 0 42 5t34 16t26 29t16.5 43t5.5 59
v279h109v-501z" />
    <glyph glyph-name="uni0136" unicode="&#x136;" horiz-adv-x="682" 
d="M80 700h111v-700h-111v700zM500 700h140l-366 -359l1 58l390 -399h-147l-337 360v13zM373 -150q-15 -20 -32 -40h-100q14 22 26 42.5t22.5 41t17.5 40.5h115q-9 -21 -21.5 -42.5t-27.5 -41.5z" />
    <glyph glyph-name="uni0137" unicode="&#x137;" horiz-adv-x="553" 
d="M75 730h107v-730h-107v730zM405 0l-236 278v9l222 230h132l-261 -255l1 44l278 -306h-136zM246 -59h111q-8 -21 -20 -42t-26 -41t-31 -39h-95q20 32 35.5 62t25.5 60z" />
    <glyph glyph-name="kgreenlandic" unicode="&#x138;" horiz-adv-x="553" 
d="M75 517h107v-517h-107v517zM404 0l-235 266v9l222 242h132l-261 -265l1 45l278 -297h-137z" />
    <glyph glyph-name="Lacute" unicode="&#x139;" horiz-adv-x="584" 
d="M80 700h109v-700h-109v700zM117 87h431v-87h-431v87zM171 888h154l-175 -116h-116z" />
    <glyph glyph-name="lacute" unicode="&#x13a;" horiz-adv-x="260" 
d="M75 730h110v-730h-110v730zM166 888h154l-175 -116h-116z" />
    <glyph glyph-name="uni013B" unicode="&#x13b;" horiz-adv-x="584" 
d="M80 700h109v-700h-109v700zM117 87h431v-87h-431v87zM361 -150q-15 -20 -32 -40h-100q14 22 26 42.5t22.5 41t17.5 40.5h115q-9 -21 -21.5 -42.5t-27.5 -41.5z" />
    <glyph glyph-name="uni013C" unicode="&#x13c;" horiz-adv-x="260" 
d="M75 730h110v-730h-110v730zM84 -59h111q-8 -21 -20 -42t-26 -41t-31 -39h-95q20 32 35.5 62t25.5 60z" />
    <glyph glyph-name="Lcaron" unicode="&#x13d;" horiz-adv-x="584" 
d="M80 700h109v-700h-109v700zM117 87h431v-87h-431v87zM277 700h108l-49 -180h-75z" />
    <glyph glyph-name="lcaron" unicode="&#x13e;" horiz-adv-x="260" 
d="M75 730h110v-730h-110v730zM254 730h108l-49 -180h-75z" />
    <glyph glyph-name="Lslash" unicode="&#x141;" horiz-adv-x="600" 
d="M399 461l-383 -278v87l383 279v-88zM96 700h109v-700h-109v700zM133 87h431v-87h-431v87z" />
    <glyph glyph-name="lslash" unicode="&#x142;" horiz-adv-x="310" 
d="M291 512v-86l-138 -117v85zM100 730h109v-730h-109v730zM19 211v86l134 113v-85z" />
    <glyph glyph-name="Nacute" unicode="&#x143;" horiz-adv-x="746" 
d="M665 0h-98l-6 61v639h104v-700zM185 0h-105v700h99l6 -63v-637zM100 656l79 44l466 -656l-78 -44zM409 888h154l-175 -116h-116z" />
    <glyph glyph-name="nacute" unicode="&#x144;" horiz-adv-x="587" 
d="M75 517h95l11 -122l-20 -27q4 34 13.5 61t25 46t36 31.5t46.5 18.5t56 6q25 0 47 -4t40 -12.5t33 -21t26 -29.5t18.5 -39t11 -49t3.5 -59v-317h-110v312q0 25 -2.5 44t-8 33.5t-14 25t-19.5 16.5t-24.5 9t-30.5 3q-22 0 -41 -5t-34 -16t-26 -29t-16.5 -43t-5.5 -59v-291
h-110v517zM322 730h131l-133 -132h-101z" />
    <glyph glyph-name="uni0145" unicode="&#x145;" horiz-adv-x="746" 
d="M665 0h-98l-6 61v639h104v-700zM185 0h-105v700h99l6 -63v-637zM100 656l79 44l466 -656l-78 -44zM393 -150q-15 -20 -32 -40h-100q14 22 26 42.5t22.5 41t17.5 40.5h115q-9 -21 -21.5 -42.5t-27.5 -41.5z" />
    <glyph glyph-name="uni0146" unicode="&#x146;" horiz-adv-x="587" 
d="M75 517h95l11 -122l-20 -27q4 34 13.5 61t25 46t36 31.5t46.5 18.5t56 6q25 0 47 -4t40 -12.5t33 -21t26 -29.5t18.5 -39t11 -49t3.5 -59v-317h-110v312q0 25 -2.5 44t-8 33.5t-14 25t-19.5 16.5t-24.5 9t-30.5 3q-22 0 -41 -5t-34 -16t-26 -29t-16.5 -43t-5.5 -59v-291
h-110v517zM248 -59h111q-8 -21 -20 -42t-26 -41t-31 -39h-95q20 32 35.5 62t25.5 60z" />
    <glyph glyph-name="Ncaron" unicode="&#x147;" horiz-adv-x="746" 
d="M665 0h-98l-6 61v639h104v-700zM185 0h-105v700h99l6 -63v-637zM100 656l79 44l466 -656l-78 -44zM426 770h-106l-143 116h109l111 -77h-47l111 77h108z" />
    <glyph glyph-name="ncaron" unicode="&#x148;" horiz-adv-x="587" 
d="M75 517h95l11 -122l-20 -27q4 34 13.5 61t25 46t36 31.5t46.5 18.5t56 6q25 0 47 -4t40 -12.5t33 -21t26 -29.5t18.5 -39t11 -49t3.5 -59v-317h-110v312q0 25 -2.5 44t-8 33.5t-14 25t-19.5 16.5t-24.5 9t-30.5 3q-22 0 -41 -5t-34 -16t-26 -29t-16.5 -43t-5.5 -59v-291
h-110v517zM348 599h-106l-126 131h99l94 -88h-29l94 88h100z" />
    <glyph glyph-name="Omacron" unicode="&#x14c;" horiz-adv-x="740" 
d="M368 -18q-37 0 -70 5t-62 15.5t-54 26t-45.5 36.5t-36.5 48t-27 59.5t-16.5 71.5t-5.5 84v44q0 41 4.5 76.5t14 66t22.5 56t30 46.5t38 37.5t44.5 28.5t50.5 19.5t56 11.5t61 4q37 0 70 -5t62 -15.5t54 -26t45.5 -36.5t36 -48t26.5 -59.5t16.5 -71.5t5.5 -84v-44
q0 -41 -4.5 -76.5t-14 -66t-22.5 -56t-30 -46.5t-37.5 -37.5t-44 -28.5t-50.5 -19.5t-56 -11.5t-61 -4zM451 81.5q18 6.5 34 17.5t29.5 26t24 34.5t17.5 44.5t11 56t4 68v44q0 37 -4 68t-11 56t-17.5 44.5t-24 34.5t-29.5 26t-34 17.5t-38.5 9.5t-42.5 3t-42.5 -3
t-38.5 -9.5t-34 -17.5t-29.5 -26t-24 -34.5t-17.5 -44.5t-11 -56t-4 -68v-44q0 -37 4 -68t11 -56t17.5 -44.5t24 -34.5t29.5 -26t34 -17.5t38.5 -9.5t42.5 -3t42.5 3t38.5 9.5zM541 774h-342v75h342v-75z" />
    <glyph glyph-name="omacron" unicode="&#x14d;" horiz-adv-x="575" 
d="M286 -14q-32 0 -60.5 5t-52.5 15.5t-44 26t-35 36t-25.5 47t-15.5 58t-5 68.5v33q0 32 4.5 60.5t12.5 52.5t20 44t28 35.5t35 27.5t41 20t47 12t53 4q32 0 60.5 -5t52.5 -15.5t44 -26t35 -36t25.5 -47t15.5 -58t5 -68.5v-32q0 -32 -4.5 -60.5t-12.5 -52.5t-20.5 -44
t-28 -36t-34.5 -28t-41 -20t-47 -12t-53 -4zM347 83q13 6 23.5 15.5t19 23t14 31t8.5 40t3 50.5v31q0 28 -3 50.5t-8.5 40.5t-14 31.5t-19.5 23t-23.5 15.5t-27.5 9t-32 3q-16 0 -31 -3t-28 -9t-23.5 -15.5t-19 -23t-14 -31.5t-8.5 -40.5t-3 -50.5v-30q0 -28 3 -50.5
t8.5 -40.5t14 -31.5t19.5 -23t23.5 -15.5t27.5 -9t32 -3t31.5 3t27.5 9zM442 618h-308v74h308v-74z" />
    <glyph glyph-name="Ohungarumlaut" unicode="&#x150;" horiz-adv-x="740" 
d="M368 -18q-37 0 -70 5t-62 15.5t-54 26t-45.5 36.5t-36.5 48t-27 59.5t-16.5 71.5t-5.5 84v44q0 41 4.5 76.5t14 66t22.5 56t30 46.5t38 37.5t44.5 28.5t50.5 19.5t56 11.5t61 4q37 0 70 -5t62 -15.5t54 -26t45.5 -36.5t36 -48t26.5 -59.5t16.5 -71.5t5.5 -84v-44
q0 -41 -4.5 -76.5t-14 -66t-22.5 -56t-30 -46.5t-37.5 -37.5t-44 -28.5t-50.5 -19.5t-56 -11.5t-61 -4zM451 81.5q18 6.5 34 17.5t29.5 26t24 34.5t17.5 44.5t11 56t4 68v44q0 37 -4 68t-11 56t-17.5 44.5t-24 34.5t-29.5 26t-34 17.5t-38.5 9.5t-42.5 3t-42.5 -3
t-38.5 -9.5t-34 -17.5t-29.5 -26t-24 -34.5t-17.5 -44.5t-11 -56t-4 -68v-44q0 -37 4 -68t11 -56t17.5 -44.5t24 -34.5t29.5 -26t34 -17.5t38.5 -9.5t42.5 -3t42.5 3t38.5 9.5zM319 888h127l-151 -116h-100zM513 888h127l-151 -116h-99z" />
    <glyph glyph-name="ohungarumlaut" unicode="&#x151;" horiz-adv-x="575" 
d="M286 -14q-32 0 -60.5 5t-52.5 15.5t-44 26t-35 36t-25.5 47t-15.5 58t-5 68.5v33q0 32 4.5 60.5t12.5 52.5t20 44t28 35.5t35 27.5t41 20t47 12t53 4q32 0 60.5 -5t52.5 -15.5t44 -26t35 -36t25.5 -47t15.5 -58t5 -68.5v-32q0 -32 -4.5 -60.5t-12.5 -52.5t-20.5 -44
t-28 -36t-34.5 -28t-41 -20t-47 -12t-53 -4zM347 83q13 6 23.5 15.5t19 23t14 31t8.5 40t3 50.5v31q0 28 -3 50.5t-8.5 40.5t-14 31.5t-19.5 23t-23.5 15.5t-27.5 9t-32 3q-16 0 -31 -3t-28 -9t-23.5 -15.5t-19 -23t-14 -31.5t-8.5 -40.5t-3 -50.5v-30q0 -28 3 -50.5
t8.5 -40.5t14 -31.5t19.5 -23t23.5 -15.5t27.5 -9t32 -3t31.5 3t27.5 9zM236 730h111l-120 -132h-87zM409 730h112l-121 -132h-86z" />
    <glyph glyph-name="OE" unicode="&#x152;" horiz-adv-x="1086" 
d="M1029 85v-85h-441v85h441zM989 405v-85h-411v85h411zM1016 700v-85h-428v85h428zM173 28.5q-23 15.5 -42 37t-33.5 48t-25 59.5t-16 71.5t-5.5 83.5v44q0 41 4.5 76.5t13.5 66t21.5 56t28.5 46.5t35 37.5t40.5 28.5t45.5 19.5t50 11.5t53 4q38 0 70 -6t57 -18t44.5 -29.5
t33.5 -40t23 -50.5h-19v126h106v-700h-106v127h19q-11 -28 -26 -51.5t-35 -41t-45.5 -29t-57 -17.5t-70.5 -6q-31 0 -60 5t-55 15.5t-49 26zM497.5 125q12.5 15 23 34.5t17.5 44.5t10.5 56t3.5 68v44q0 37 -3.5 68t-10.5 56t-17 44.5t-23 34.5t-28 26t-32.5 17.5t-36.5 9.5
t-40 3t-40 -3t-36.5 -9.5t-33 -17.5t-28 -26t-23 -34.5t-17.5 -44.5t-10.5 -56t-3.5 -68v-44q0 -37 3.5 -68t10.5 -56t17 -44.5t23 -34.5t28 -26t32.5 -17.5t36.5 -9.5t40 -3t40 3t36.5 9.5t33 17.5t28 26z" />
    <glyph glyph-name="oe" unicode="&#x153;" horiz-adv-x="910" 
d="M281 -14q-32 0 -59.5 5t-51.5 15.5t-43 26t-34 36t-25 47t-15 58t-5 68.5v33q0 32 4.5 60.5t12.5 52.5t20 44t27.5 36t34 27.5t40.5 19.5t46.5 12t51.5 4q29 0 54.5 -5t47 -15.5t39 -26t31 -36t22.5 -46.5t13.5 -57.5t4.5 -68.5v-33q0 -37 -5 -68.5t-14.5 -57.5
t-23.5 -47t-32 -36.5t-40 -26t-47 -16t-54 -5.5zM319.5 75q14.5 3 27 9t22.5 16t18 23.5t13.5 31t8.5 39.5t3 49v31q0 27 -3 49t-8.5 40t-13.5 31.5t-18 23.5t-22.5 16t-27 9t-31.5 3t-31.5 -3t-27.5 -9t-23.5 -16t-18.5 -23.5t-13.5 -31t-8.5 -39.5t-3 -49v-31q0 -27 3 -49
t8.5 -40t13.5 -31.5t18.5 -23.5t23.5 -16t27.5 -9t31.5 -3t31.5 3zM750 341.5q-3 24.5 -9 43t-15.5 31.5t-22 21.5t-28.5 12t-36 3.5q-16 0 -30.5 -3t-26.5 -9t-22.5 -15.5t-18 -23t-13 -31.5t-8 -40.5t-2.5 -49.5v-42q0 -26 3.5 -47t10 -38.5t16.5 -30.5t22.5 -22.5
t28 -15.5t33.5 -9t39 -3q30 0 58.5 5t55 13.5t49.5 18.5l16 -79q-19 -9 -40.5 -16t-46 -12.5t-52 -8.5t-57.5 -3q-33 0 -61.5 5t-52.5 15.5t-43.5 26t-34 36t-24.5 46t-15 56.5t-5 67l11 33q0 37 5 68.5t14.5 57.5t23.5 46.5t32.5 36t40 26t47 15.5t53.5 5q30 0 56.5 -5
t48.5 -15t39.5 -25t30.5 -34.5t22 -44.5t13.5 -55t4.5 -65v-60h-375v74h304l-36 -16q0 32 -3 56.5z" />
    <glyph glyph-name="Racute" unicode="&#x154;" horiz-adv-x="662" 
d="M340 328h114l177 -328h-124zM81 700h109v-700h-109v700zM417.5 364q16.5 6 30.5 16t23.5 24.5t14.5 34t5 45.5q0 25 -5 44.5t-14.5 34t-23.5 24.5t-30.5 16.5t-36.5 9t-42 2.5h-187v85h192q33 0 62.5 -3.5t55.5 -11.5t48 -20t39.5 -29t29.5 -39t18.5 -49.5t6.5 -60.5
q0 -28 -5.5 -52t-15.5 -44.5t-24.5 -37.5t-32.5 -30t-39 -23t-44 -16.5t-48 -9.5t-51 -3h-192v82h187q22 0 42 2.5t36.5 8.5zM366 888h154l-175 -116h-116z" />
    <glyph glyph-name="racute" unicode="&#x155;" horiz-adv-x="401" 
d="M75 517h95l11 -122l-18 -38q3 29 9.5 53t17 42.5t24 32t30.5 22t36.5 13t40.5 4.5q14 0 25.5 -1.5t21 -4.5t17.5 -7l-17 -93q-8 4 -16.5 6t-18.5 3.5t-21 1.5q-17 0 -33.5 -3.5t-30.5 -11.5t-25.5 -20.5t-20 -31t-13 -42t-4.5 -54.5v-266h-110v517zM260 730h131
l-133 -132h-101z" />
    <glyph glyph-name="Rcaron" unicode="&#x158;" horiz-adv-x="662" 
d="M340 328h114l177 -328h-124zM81 700h109v-700h-109v700zM417.5 364q16.5 6 30.5 16t23.5 24.5t14.5 34t5 45.5q0 25 -5 44.5t-14.5 34t-23.5 24.5t-30.5 16.5t-36.5 9t-42 2.5h-187v85h192q33 0 62.5 -3.5t55.5 -11.5t48 -20t39.5 -29t29.5 -39t18.5 -49.5t6.5 -60.5
q0 -28 -5.5 -52t-15.5 -44.5t-24.5 -37.5t-32.5 -30t-39 -23t-44 -16.5t-48 -9.5t-51 -3h-192v82h187q22 0 42 2.5t36.5 8.5zM383 770h-106l-143 116h109l111 -77h-47l111 77h108z" />
    <glyph glyph-name="rcaron" unicode="&#x159;" horiz-adv-x="401" 
d="M75 517h95l11 -122l-18 -38q3 29 9.5 53t17 42.5t24 32t30.5 22t36.5 13t40.5 4.5q14 0 25.5 -1.5t21 -4.5t17.5 -7l-17 -93q-8 4 -16.5 6t-18.5 3.5t-21 1.5q-17 0 -33.5 -3.5t-30.5 -11.5t-25.5 -20.5t-20 -31t-13 -42t-4.5 -54.5v-266h-110v517zM286 599h-106
l-126 131h99l94 -88h-29l94 88h100z" />
    <glyph glyph-name="Sacute" unicode="&#x15a;" horiz-adv-x="602" 
d="M60 126q25 -11 51.5 -20.5t54.5 -16t58 -10t63 -3.5q30 0 54 4t41.5 11t30 17t20 23t11 28t3.5 31q0 18 -4 32.5t-12 26t-20.5 20t-30 15.5t-39.5 13t-50 11q-19 3 -37.5 7t-37.5 8.5t-36.5 11t-34 14.5t-30.5 18.5t-25.5 24.5t-20 31t-13 38.5t-4.5 47.5q0 28 5.5 51
t15.5 42.5t24.5 35.5t32.5 28t39.5 20.5t45.5 14.5t50.5 8.5t54.5 2.5q32 0 61 -2.5t55.5 -8t51 -13t46.5 -17.5l-19 -87q-16 7 -33 13.5t-35 11t-38.5 8t-43.5 5.5t-49 2q-25 0 -46 -3t-37.5 -9.5t-29 -15.5t-21 -21t-12.5 -26t-4 -31t4 -30.5t11.5 -24.5t19.5 -19
t28.5 -14.5t37.5 -11.5t47 -10q17 -3 35.5 -7t37 -8.5t37 -10.5t35.5 -14t32.5 -19t28 -25.5t22 -32.5t14.5 -40t5 -50q0 -35 -8.5 -64.5t-24.5 -53t-39.5 -41.5t-54 -30t-68 -18t-80.5 -6q-49 0 -93 6t-81.5 17.5t-68.5 26.5zM339 888h154l-175 -116h-116z" />
    <glyph glyph-name="sacute" unicode="&#x15b;" horiz-adv-x="476" 
d="M54 112q20 -9 40 -16t41 -12t43 -8t44 -3q21 0 37.5 2.5t29 6.5t21.5 10.5t14 14t7.5 17t2.5 20.5q0 13 -3.5 23t-11 18t-19.5 13.5t-29 10.5t-40 9q-14 3 -29.5 5.5t-31.5 6.5t-31 9.5t-29 13t-25.5 18.5t-20 25t-13.5 32.5t-5 42.5t5.5 44.5t15.5 36.5t24.5 28.5
t32.5 21t39 14.5t44.5 8.5t48.5 2.5t47.5 -2.5t42.5 -7t38.5 -10.5t34.5 -14l-16 -80q-14 7 -30 12.5t-34 10t-38 7t-42 2.5t-39.5 -2.5t-30.5 -8t-21.5 -13t-12.5 -18t-4 -23.5q0 -12 3 -21.5t10 -17t18.5 -13t29 -10.5t40.5 -9q15 -2 30.5 -5t31.5 -7t31.5 -9.5
t29.5 -13.5t25.5 -18.5t20 -25.5t13.5 -33.5t5 -42.5q0 -27 -6.5 -49.5t-19 -40.5t-30.5 -32t-42 -23t-53 -13.5t-63 -4.5q-28 0 -54 3t-49.5 8.5t-44.5 12.5t-39 16zM266 731h131l-133 -132h-101z" />
    <glyph glyph-name="Scedilla" unicode="&#x15e;" horiz-adv-x="602" 
d="M60 126q25 -11 51.5 -20.5t54.5 -16t58 -10t63 -3.5q30 0 54 4t41.5 11t30 17t20 23t11 28t3.5 31q0 18 -4 32.5t-12 26t-20.5 20t-30 15.5t-39.5 13t-50 11q-19 3 -37.5 7t-37.5 8.5t-36.5 11t-34 14.5t-30.5 18.5t-25.5 24.5t-20 31t-13 38.5t-4.5 47.5q0 28 5.5 51
t15.5 42.5t24.5 35.5t32.5 28t39.5 20.5t45.5 14.5t50.5 8.5t54.5 2.5q32 0 61 -2.5t55.5 -8t51 -13t46.5 -17.5l-19 -87q-16 7 -33 13.5t-35 11t-38.5 8t-43.5 5.5t-49 2q-25 0 -46 -3t-37.5 -9.5t-29 -15.5t-21 -21t-12.5 -26t-4 -31t4 -30.5t11.5 -24.5t19.5 -19
t28.5 -14.5t37.5 -11.5t47 -10q17 -3 35.5 -7t37 -8.5t37 -10.5t35.5 -14t32.5 -19t28 -25.5t22 -32.5t14.5 -40t5 -50q0 -35 -8.5 -64.5t-24.5 -53t-39.5 -41.5t-54 -30t-68 -18t-80.5 -6q-49 0 -93 6t-81.5 17.5t-68.5 26.5zM276 11h60l-35 -93l-1 31q25 0 44.5 -5
t32.5 -15t19.5 -24.5t6.5 -33.5q0 -21 -8 -37t-24 -27t-39.5 -16.5t-53.5 -5.5q-18 0 -34.5 2t-31 5.5t-26.5 7.5l11 54q11 -4 23 -7t25 -4.5t25 -1.5q14 0 24 2.5t16 6.5t9 10.5t3 13.5q0 12 -6.5 19t-18 10t-26.5 3h-34z" />
    <glyph glyph-name="scedilla" unicode="&#x15f;" horiz-adv-x="476" 
d="M54 112q20 -9 40 -16t41 -12t43 -8t44 -3q21 0 37.5 2.5t29 6.5t21.5 10.5t14 14t7.5 17t2.5 20.5q0 13 -3.5 23t-11 18t-19.5 13.5t-29 10.5t-40 9q-14 3 -29.5 5.5t-31.5 6.5t-31 9.5t-29 13t-25.5 18.5t-20 25t-13.5 32.5t-5 42.5t5.5 44.5t15.5 36.5t24.5 28.5
t32.5 21t39 14.5t44.5 8.5t48.5 2.5t47.5 -2.5t42.5 -7t38.5 -10.5t34.5 -14l-16 -80q-14 7 -30 12.5t-34 10t-38 7t-42 2.5t-39.5 -2.5t-30.5 -8t-21.5 -13t-12.5 -18t-4 -23.5q0 -12 3 -21.5t10 -17t18.5 -13t29 -10.5t40.5 -9q15 -2 30.5 -5t31.5 -7t31.5 -9.5
t29.5 -13.5t25.5 -18.5t20 -25.5t13.5 -33.5t5 -42.5q0 -27 -6.5 -49.5t-19 -40.5t-30.5 -32t-42 -23t-53 -13.5t-63 -4.5q-28 0 -54 3t-49.5 8.5t-44.5 12.5t-39 16zM219 11h59l-33 -87l-3 30q25 0 44 -5t31.5 -15t18.5 -24t6 -33q0 -20 -8 -35.5t-23 -26.5t-37 -16.5
t-51 -5.5q-25 0 -47 4.5t-39 10.5l11 52q10 -3 21 -6t23 -4.5t23 -1.5q12 0 21 2t15 6.5t8.5 10.5t2.5 13q0 12 -6 19.5t-16.5 10.5t-25.5 3h-33z" />
    <glyph glyph-name="Scaron" unicode="&#x160;" horiz-adv-x="602" 
d="M60 126q25 -11 51.5 -20.5t54.5 -16t58 -10t63 -3.5q30 0 54 4t41.5 11t30 17t20 23t11 28t3.5 31q0 18 -4 32.5t-12 26t-20.5 20t-30 15.5t-39.5 13t-50 11q-19 3 -37.5 7t-37.5 8.5t-36.5 11t-34 14.5t-30.5 18.5t-25.5 24.5t-20 31t-13 38.5t-4.5 47.5q0 28 5.5 51
t15.5 42.5t24.5 35.5t32.5 28t39.5 20.5t45.5 14.5t50.5 8.5t54.5 2.5q32 0 61 -2.5t55.5 -8t51 -13t46.5 -17.5l-19 -87q-16 7 -33 13.5t-35 11t-38.5 8t-43.5 5.5t-49 2q-25 0 -46 -3t-37.5 -9.5t-29 -15.5t-21 -21t-12.5 -26t-4 -31t4 -30.5t11.5 -24.5t19.5 -19
t28.5 -14.5t37.5 -11.5t47 -10q17 -3 35.5 -7t37 -8.5t37 -10.5t35.5 -14t32.5 -19t28 -25.5t22 -32.5t14.5 -40t5 -50q0 -35 -8.5 -64.5t-24.5 -53t-39.5 -41.5t-54 -30t-68 -18t-80.5 -6q-49 0 -93 6t-81.5 17.5t-68.5 26.5zM356 770h-106l-143 116h109l111 -77h-47
l111 77h108z" />
    <glyph glyph-name="scaron" unicode="&#x161;" horiz-adv-x="476" 
d="M54 112q20 -9 40 -16t41 -12t43 -8t44 -3q21 0 37.5 2.5t29 6.5t21.5 10.5t14 14t7.5 17t2.5 20.5q0 13 -3.5 23t-11 18t-19.5 13.5t-29 10.5t-40 9q-14 3 -29.5 5.5t-31.5 6.5t-31 9.5t-29 13t-25.5 18.5t-20 25t-13.5 32.5t-5 42.5t5.5 44.5t15.5 36.5t24.5 28.5
t32.5 21t39 14.5t44.5 8.5t48.5 2.5t47.5 -2.5t42.5 -7t38.5 -10.5t34.5 -14l-16 -80q-14 7 -30 12.5t-34 10t-38 7t-42 2.5t-39.5 -2.5t-30.5 -8t-21.5 -13t-12.5 -18t-4 -23.5q0 -12 3 -21.5t10 -17t18.5 -13t29 -10.5t40.5 -9q15 -2 30.5 -5t31.5 -7t31.5 -9.5
t29.5 -13.5t25.5 -18.5t20 -25.5t13.5 -33.5t5 -42.5q0 -27 -6.5 -49.5t-19 -40.5t-30.5 -32t-42 -23t-53 -13.5t-63 -4.5q-28 0 -54 3t-49.5 8.5t-44.5 12.5t-39 16zM292 600h-106l-126 131h99l94 -88h-29l94 88h100z" />
    <glyph glyph-name="uni0162" unicode="&#x162;" horiz-adv-x="665" 
d="M278 700h109v-700h-109v700zM36 700h594v-87h-594v87zM308 11h60l-35 -93l-1 31q25 0 44.5 -5t32.5 -15t19.5 -24.5t6.5 -33.5q0 -21 -8 -37t-24 -27t-39.5 -16.5t-53.5 -5.5q-18 0 -34.5 2t-31 5.5t-26.5 7.5l11 54q11 -4 23 -7t25 -4.5t25 -1.5q14 0 24 2.5t16 6.5
t9 10.5t3 13.5q0 12 -6.5 19t-18 10t-26.5 3h-34z" />
    <glyph glyph-name="uni0163" unicode="&#x163;" horiz-adv-x="447" 
d="M223 183q0 -24 3.5 -42t11 -30.5t18 -20t24 -11t30.5 -3.5q16 0 31 3t29.5 8t28.5 11l16 -80q-16 -7 -35.5 -13t-42 -10t-48.5 -4q-36 0 -64.5 6.5t-49.5 21t-34.5 36.5t-20.5 52.5t-7 70.5v476l110 18v-489zM18 517h375v-77h-375v77zM234 11h59l-33 -87l-3 30
q25 0 44 -5t31.5 -15t18.5 -24t6 -33q0 -20 -8 -35.5t-23 -26.5t-37 -16.5t-51 -5.5q-25 0 -47 4.5t-39 10.5l11 52q10 -3 21 -6t23 -4.5t23 -1.5q12 0 21 2t15 6.5t8.5 10.5t2.5 13q0 12 -6 19.5t-16.5 10.5t-25.5 3h-33z" />
    <glyph glyph-name="Tcaron" unicode="&#x164;" horiz-adv-x="665" 
d="M278 700h109v-700h-109v700zM36 700h594v-87h-594v87zM386 770h-106l-143 116h109l111 -77h-47l111 77h108z" />
    <glyph glyph-name="tcaron" unicode="&#x165;" horiz-adv-x="447" 
d="M223 183q0 -24 3.5 -42t11 -30.5t18 -20t24 -11t30.5 -3.5q16 0 31 3t29.5 8t28.5 11l16 -80q-16 -7 -35.5 -13t-42 -10t-48.5 -4q-36 0 -64.5 6.5t-49.5 21t-34.5 36.5t-20.5 52.5t-7 70.5v476l110 18v-489zM18 517h375v-77h-375v77zM297 730h100l-45 -144h-68z" />
    <glyph glyph-name="Utilde" unicode="&#x168;" horiz-adv-x="730" 
d="M654 264q0 -37 -5 -68.5t-14.5 -58.5t-23.5 -49t-32.5 -39t-41.5 -29.5t-50.5 -21t-59 -12.5t-66.5 -4t-65.5 4t-57 12t-49 21t-41 30t-32 39t-23 48.5t-14 58.5t-4.5 69v436h114v-435q0 -30 3.5 -55t11 -45t18 -36t25 -27t32.5 -18.5t39.5 -11t46.5 -3.5t46.5 3.5
t39.5 11t32.5 18.5t25 27t18 36t11 45t3.5 55v435h113v-436zM514.5 797.5q-12.5 -14.5 -30 -21.5t-39.5 -7q-17 0 -32 4t-28 9.5t-25 12.5t-23 12.5t-21 9.5t-19 4q-10 0 -17.5 -6t-11.5 -16.5t-5 -25.5h-70q0 29 7 50.5t19.5 36t30 22t39.5 7.5q17 0 32 -4t28 -9.5
t25 -12.5t23 -12.5t21 -9.5t19 -4q11 0 18 6t11.5 16.5t4.5 25.5h70q0 -29 -7 -51t-19.5 -36.5z" />
    <glyph glyph-name="utilde" unicode="&#x169;" horiz-adv-x="587" 
d="M512 0h-95l-11 122l20 27q-4 -34 -13.5 -61t-24.5 -46t-36 -31.5t-46.5 -18.5t-56.5 -6q-26 0 -47.5 4t-40 12.5t-33 21t-25.5 30t-18.5 39.5t-11 48.5t-3.5 58.5v317h110v-312q0 -25 2.5 -44t8 -33.5t14 -25t19.5 -16.5t24.5 -9t29.5 -3q23 0 42 5t34 16t26 29t16.5 43
t5.5 59v291h110v-517zM154.5 691.5q12.5 15.5 30 23t39.5 7.5q15 0 28.5 -4t25.5 -10t22.5 -13t20 -13t18.5 -10t17 -4q11 0 18 6.5t10.5 17.5t3.5 26h69q0 -30 -6.5 -53t-19 -38.5t-30 -23t-39.5 -7.5q-15 0 -28.5 4t-25.5 10t-22.5 13t-20 13t-18.5 10t-17 4q-11 0 -18 -6
t-10 -17.5t-4 -26.5h-69q0 30 6.5 53t19 38.5z" />
    <glyph glyph-name="Umacron" unicode="&#x16a;" horiz-adv-x="730" 
d="M654 264q0 -37 -5 -68.5t-14.5 -58.5t-23.5 -49t-32.5 -39t-41.5 -29.5t-50.5 -21t-59 -12.5t-66.5 -4t-65.5 4t-57 12t-49 21t-41 30t-32 39t-23 48.5t-14 58.5t-4.5 69v436h114v-435q0 -30 3.5 -55t11 -45t18 -36t25 -27t32.5 -18.5t39.5 -11t46.5 -3.5t46.5 3.5
t39.5 11t32.5 18.5t25 27t18 36t11 45t3.5 55v435h113v-436zM536 774h-342v75h342v-75z" />
    <glyph glyph-name="umacron" unicode="&#x16b;" horiz-adv-x="587" 
d="M512 0h-95l-11 122l20 27q-4 -34 -13.5 -61t-24.5 -46t-36 -31.5t-46.5 -18.5t-56.5 -6q-26 0 -47.5 4t-40 12.5t-33 21t-25.5 30t-18.5 39.5t-11 48.5t-3.5 58.5v317h110v-312q0 -25 2.5 -44t8 -33.5t14 -25t19.5 -16.5t24.5 -9t29.5 -3q23 0 42 5t34 16t26 29t16.5 43
t5.5 59v291h110v-517zM448 618h-308v74h308v-74z" />
    <glyph glyph-name="Uring" unicode="&#x16e;" horiz-adv-x="730" 
d="M654 264q0 -37 -5 -68.5t-14.5 -58.5t-23.5 -49t-32.5 -39t-41.5 -29.5t-50.5 -21t-59 -12.5t-66.5 -4t-65.5 4t-57 12t-49 21t-41 30t-32 39t-23 48.5t-14 58.5t-4.5 69v436h114v-435q0 -30 3.5 -55t11 -45t18 -36t25 -27t32.5 -18.5t39.5 -11t46.5 -3.5t46.5 3.5
t39.5 11t32.5 18.5t25 27t18 36t11 45t3.5 55v435h113v-436zM365 754q-17 0 -32.5 3t-28 8.5t-22.5 14.5t-17.5 20t-11 24.5t-3.5 29.5t3.5 29.5t11 24.5t17.5 20t22.5 14.5t28 8.5t32.5 3t32.5 -3t28 -8.5t22.5 -14.5t17.5 -20t11 -24.5t3.5 -29.5t-3.5 -29.5t-11 -24.5
t-17.5 -20t-22.5 -14.5t-28 -8.5t-32.5 -3zM411 837.5q2 7.5 2 16.5t-2 16.5t-6.5 13t-10 9.5t-13 6t-16.5 2t-16.5 -2t-13 -6t-10 -9.5t-6.5 -13t-2 -16.5t2 -16.5t6.5 -13.5t10 -10t13 -6t16.5 -2t16.5 2t13 6t10 10t6.5 13.5z" />
    <glyph glyph-name="uring" unicode="&#x16f;" horiz-adv-x="587" 
d="M512 0h-95l-11 122l20 27q-4 -34 -13.5 -61t-24.5 -46t-36 -31.5t-46.5 -18.5t-56.5 -6q-26 0 -47.5 4t-40 12.5t-33 21t-25.5 30t-18.5 39.5t-11 48.5t-3.5 58.5v317h110v-312q0 -25 2.5 -44t8 -33.5t14 -25t19.5 -16.5t24.5 -9t29.5 -3q23 0 42 5t34 16t26 29t16.5 43
t5.5 59v291h110v-517zM294 576q-17 0 -32 3t-27.5 9t-22.5 14.5t-17 20t-10.5 25.5t-3.5 30t3.5 30t10.5 25t17 20t22.5 15t27.5 9t32 3t32 -3t27.5 -9t22.5 -15t17 -20t10.5 -25t3.5 -30t-3.5 -30t-10.5 -25.5t-17 -20t-22.5 -14.5t-27.5 -9t-32 -3zM340 660q2 8 2 18
t-2 18t-6.5 14t-10 10.5t-13 6.5t-16.5 2t-16.5 -2t-13 -6.5t-10 -10.5t-6.5 -14t-2 -18t2 -18t6.5 -14t10 -10.5t13 -6.5t16.5 -2t16.5 2t13 6.5t10 10.5t6.5 14z" />
    <glyph glyph-name="Uhungarumlaut" unicode="&#x170;" horiz-adv-x="730" 
d="M654 264q0 -37 -5 -68.5t-14.5 -58.5t-23.5 -49t-32.5 -39t-41.5 -29.5t-50.5 -21t-59 -12.5t-66.5 -4t-65.5 4t-57 12t-49 21t-41 30t-32 39t-23 48.5t-14 58.5t-4.5 69v436h114v-435q0 -30 3.5 -55t11 -45t18 -36t25 -27t32.5 -18.5t39.5 -11t46.5 -3.5t46.5 3.5
t39.5 11t32.5 18.5t25 27t18 36t11 45t3.5 55v435h113v-436zM314 888h127l-151 -116h-100zM508 888h127l-151 -116h-99z" />
    <glyph glyph-name="uhungarumlaut" unicode="&#x171;" horiz-adv-x="587" 
d="M512 0h-95l-11 122l20 27q-4 -34 -13.5 -61t-24.5 -46t-36 -31.5t-46.5 -18.5t-56.5 -6q-26 0 -47.5 4t-40 12.5t-33 21t-25.5 30t-18.5 39.5t-11 48.5t-3.5 58.5v317h110v-312q0 -25 2.5 -44t8 -33.5t14 -25t19.5 -16.5t24.5 -9t29.5 -3q23 0 42 5t34 16t26 29t16.5 43
t5.5 59v291h110v-517zM242 730h111l-120 -132h-87zM415 730h112l-121 -132h-86z" />
    <glyph glyph-name="Uogonek" unicode="&#x172;" horiz-adv-x="730" 
d="M654 264q0 -37 -5 -68.5t-14.5 -58.5t-23.5 -49t-32.5 -39t-41.5 -29.5t-50.5 -21t-59 -12.5t-66.5 -4t-65.5 4t-57 12t-49 21t-41 30t-32 39t-23 48.5t-14 58.5t-4.5 69v436h114v-435q0 -30 3.5 -55t11 -45t18 -36t25 -27t32.5 -18.5t39.5 -11t46.5 -3.5t46.5 3.5
t39.5 11t32.5 18.5t25 27t18 36t11 45t3.5 55v435h113v-436zM481.5 -41.5q-14.5 -15.5 -23 -28.5t-12.5 -23.5t-4 -20.5q0 -8 3.5 -14.5t11 -10t18.5 -3.5q9 0 20 2.5t22 6.5l11 -58q-9 -5 -21 -8.5t-26 -5.5t-29 -2q-24 0 -42.5 5t-31.5 14.5t-19.5 23.5t-6.5 32q0 16 6 32
t18.5 32t31 32.5t44 35t57.5 38.5h57q-28 -25 -49 -44.5t-35.5 -35z" />
    <glyph glyph-name="uogonek" unicode="&#x173;" horiz-adv-x="587" 
d="M512 0h-95l-11 122l20 27q-4 -34 -13.5 -61t-24.5 -46t-36 -31.5t-46.5 -18.5t-56.5 -6q-26 0 -47.5 4t-40 12.5t-33 21t-25.5 30t-18.5 39.5t-11 48.5t-3.5 58.5v317h110v-312q0 -25 2.5 -44t8 -33.5t14 -25t19.5 -16.5t24.5 -9t29.5 -3q23 0 42 5t34 16t26 29t16.5 43
t5.5 59v291h110v-517zM469 23l43 -23q-21 -19 -36 -34t-25.5 -27t-16.5 -21t-9 -17t-3 -15q0 -9 4 -16t12 -10.5t19 -3.5q9 0 20 2.5t22 7.5l11 -57q-9 -5 -21 -8.5t-26 -5.5t-29 -2q-23 0 -41.5 5t-31 14.5t-19 24t-6.5 32.5t8.5 36t25 36t41.5 38t58 44z" />
    <glyph glyph-name="Wcircumflex" unicode="&#x174;" horiz-adv-x="953" 
d="M741 0h-119l-160 591h30l-161 -591h-119l-178 700h117l136 -621h-24l162 601h106l162 -601h-24l136 621h114zM424 888h106l143 -116h-109l-111 77h47l-111 -77h-108z" />
    <glyph glyph-name="wcircumflex" unicode="&#x175;" horiz-adv-x="759" 
d="M599 0h-113l-123 438h34l-123 -438h-113l-139 517h110l99 -457h-23l123 443h99l124 -443h-22l98 457h107zM327 730h106l126 -131h-100l-94 87h29l-94 -87h-99z" />
    <glyph glyph-name="Ycircumflex" unicode="&#x176;" horiz-adv-x="661" 
d="M274 0v304h113v-304h-113zM519 700h125l-262 -429h-103l-262 429h129l200 -353h-27zM278 888h106l143 -116h-109l-111 77h47l-111 -77h-108z" />
    <glyph glyph-name="ycircumflex" unicode="&#x177;" horiz-adv-x="530" 
d="M300 -66q-10 -27 -21.5 -48t-24.5 -36.5t-27.5 -27t-30 -18.5t-33 -10t-36.5 -3q-18 0 -34.5 3t-30 8t-25.5 11l16 78q9 -4 19.5 -8t22 -6t22.5 -2q16 0 29 4t24 13.5t20.5 25t18.5 38.5l26 71l-1 -66l-214 556h117l149 -434l-29 -12l140 446h113zM213 730h106l126 -131
h-100l-94 87h29l-94 -87h-99z" />
    <glyph glyph-name="Ydieresis" unicode="&#x178;" horiz-adv-x="661" 
d="M274 0v304h113v-304h-113zM519 700h125l-262 -429h-103l-262 429h129l200 -353h-27zM489 776h-106v100h106v-100zM279 776h-106v100h106v-100z" />
    <glyph glyph-name="Zacute" unicode="&#x179;" horiz-adv-x="647" 
d="M463 640l1 -25h-396v85h514v-77l-413 -563l-1 25h428v-85h-546v77zM363 888h154l-175 -116h-116z" />
    <glyph glyph-name="zacute" unicode="&#x17a;" horiz-adv-x="505" 
d="M354 474l-13 -36h-283v79h392v-72l-310 -401l13 35h308v-79h-417v72zM283 730h131l-133 -132h-101z" />
    <glyph glyph-name="Zdotaccent" unicode="&#x17b;" horiz-adv-x="647" 
d="M463 640l1 -25h-396v85h514v-77l-413 -563l-1 25h428v-85h-546v77zM384 774h-114v108h114v-108z" />
    <glyph glyph-name="zdotaccent" unicode="&#x17c;" horiz-adv-x="505" 
d="M354 474l-13 -36h-283v79h392v-72l-310 -401l13 35h308v-79h-417v72zM312 599h-113v114h113v-114z" />
    <glyph glyph-name="Zcaron" unicode="&#x17d;" horiz-adv-x="647" 
d="M463 640l1 -25h-396v85h514v-77l-413 -563l-1 25h428v-85h-546v77zM380 770h-106l-143 116h109l111 -77h-47l111 77h108z" />
    <glyph glyph-name="zcaron" unicode="&#x17e;" horiz-adv-x="505" 
d="M354 474l-13 -36h-283v79h392v-72l-310 -401l13 35h308v-79h-417v72zM309 599h-106l-126 131h99l94 -88h-29l94 88h100z" />
    <glyph glyph-name="florin" unicode="&#x192;" horiz-adv-x="399" 
d="M381 438h-364v77h364v-77zM198 715q21 12 47.5 18t57.5 6q23 0 42 -3t35 -8t29 -11l-16 -77q-10 5 -22 9t-26 6.5t-29 2.5q-24 0 -41.5 -6.5t-29 -21t-17.5 -36t-6 -51.5v-550q0 -28 -3.5 -52.5t-11 -45t-18.5 -37t-25 -29t-32 -21t-39 -12.5t-45 -4q-20 0 -39 3t-34.5 8
t-28.5 11l16 76q10 -4 21.5 -8t24.5 -6t25 -2q20 0 34.5 6.5t25 21t15.5 37.5t5 55v549q0 30 5.5 56t16 48t26.5 39t37 29z" />
    <glyph glyph-name="uni0218" unicode="&#x218;" horiz-adv-x="602" 
d="M60 126q25 -11 51.5 -20.5t54.5 -16t58 -10t63 -3.5q30 0 54 4t41.5 11t30 17t20 23t11 28t3.5 31q0 18 -4 32.5t-12 26t-20.5 20t-30 15.5t-39.5 13t-50 11q-19 3 -37.5 7t-37.5 8.5t-36.5 11t-34 14.5t-30.5 18.5t-25.5 24.5t-20 31t-13 38.5t-4.5 47.5q0 28 5.5 51
t15.5 42.5t24.5 35.5t32.5 28t39.5 20.5t45.5 14.5t50.5 8.5t54.5 2.5q32 0 61 -2.5t55.5 -8t51 -13t46.5 -17.5l-19 -87q-16 7 -33 13.5t-35 11t-38.5 8t-43.5 5.5t-49 2q-25 0 -46 -3t-37.5 -9.5t-29 -15.5t-21 -21t-12.5 -26t-4 -31t4 -30.5t11.5 -24.5t19.5 -19
t28.5 -14.5t37.5 -11.5t47 -10q17 -3 35.5 -7t37 -8.5t37 -10.5t35.5 -14t32.5 -19t28 -25.5t22 -32.5t14.5 -40t5 -50q0 -35 -8.5 -64.5t-24.5 -53t-39.5 -41.5t-54 -30t-68 -18t-80.5 -6q-49 0 -93 6t-81.5 17.5t-68.5 26.5zM321 -150q-15 -20 -32 -40h-100q14 22 26 42.5
t22.5 41t17.5 40.5h115q-9 -21 -21.5 -42.5t-27.5 -41.5z" />
    <glyph glyph-name="uni0219" unicode="&#x219;" horiz-adv-x="476" 
d="M54 112q20 -9 40 -16t41 -12t43 -8t44 -3q21 0 37.5 2.5t29 6.5t21.5 10.5t14 14t7.5 17t2.5 20.5q0 13 -3.5 23t-11 18t-19.5 13.5t-29 10.5t-40 9q-14 3 -29.5 5.5t-31.5 6.5t-31 9.5t-29 13t-25.5 18.5t-20 25t-13.5 32.5t-5 42.5t5.5 44.5t15.5 36.5t24.5 28.5
t32.5 21t39 14.5t44.5 8.5t48.5 2.5t47.5 -2.5t42.5 -7t38.5 -10.5t34.5 -14l-16 -80q-14 7 -30 12.5t-34 10t-38 7t-42 2.5t-39.5 -2.5t-30.5 -8t-21.5 -13t-12.5 -18t-4 -23.5q0 -12 3 -21.5t10 -17t18.5 -13t29 -10.5t40.5 -9q15 -2 30.5 -5t31.5 -7t31.5 -9.5
t29.5 -13.5t25.5 -18.5t20 -25.5t13.5 -33.5t5 -42.5q0 -27 -6.5 -49.5t-19 -40.5t-30.5 -32t-42 -23t-53 -13.5t-63 -4.5q-28 0 -54 3t-49.5 8.5t-44.5 12.5t-39 16zM192 -59h111q-8 -21 -20 -42t-26 -41t-31 -39h-95q20 32 35.5 62t25.5 60z" />
    <glyph glyph-name="uni021A" unicode="&#x21a;" horiz-adv-x="665" 
d="M278 700h109v-700h-109v700zM36 700h594v-87h-594v87zM353 -150q-15 -20 -32 -40h-100q14 22 26 42.5t22.5 41t17.5 40.5h115q-9 -21 -21.5 -42.5t-27.5 -41.5z" />
    <glyph glyph-name="uni021B" unicode="&#x21b;" horiz-adv-x="447" 
d="M223 183q0 -24 3.5 -42t11 -30.5t18 -20t24 -11t30.5 -3.5q16 0 31 3t29.5 8t28.5 11l16 -80q-16 -7 -35.5 -13t-42 -10t-48.5 -4q-36 0 -64.5 6.5t-49.5 21t-34.5 36.5t-20.5 52.5t-7 70.5v476l110 18v-489zM18 517h375v-77h-375v77zM207 -59h111q-8 -21 -20 -42
t-26 -41t-31 -39h-95q20 32 35.5 62t25.5 60z" />
    <glyph glyph-name="uni0237" unicode="&#x237;" horiz-adv-x="261" 
d="M186 -8q0 -28 -3.5 -52.5t-11 -45t-18.5 -37t-25.5 -29t-32 -20.5t-39 -12.5t-45.5 -4.5q-20 0 -38.5 3t-34 8t-28.5 11l15 76q10 -4 22 -7.5t24.5 -5.5t24.5 -2q20 0 35 6.5t25 21t15 37.5t5 55v523h110v-525z" />
    <glyph glyph-name="circumflex" unicode="&#x2c6;" horiz-adv-x="587" 
d="M240 730h106l126 -131h-100l-94 87h29l-94 -87h-99z" />
    <glyph glyph-name="caron" unicode="&#x2c7;" horiz-adv-x="587" 
d="M346 599h-106l-126 131h99l94 -88h-29l94 88h100z" />
    <glyph glyph-name="uni02C9" unicode="&#x2c9;" horiz-adv-x="587" 
d="M499 618h-308v74h308v-74z" />
    <glyph glyph-name="uni02CB" unicode="&#x2cb;" horiz-adv-x="587" 
d="M218 730h131l103 -132h-101z" />
    <glyph glyph-name="breve" unicode="&#x2d8;" horiz-adv-x="587" 
d="M431 658q-8 -15 -20 -27t-29 -20t-39 -12t-49 -4t-49 4t-39 12t-29.5 20t-20.5 27t-12.5 33t-5.5 39h79q2 -16 6.5 -29t13.5 -22t23 -14t34 -5t34 5t22.5 14t13.5 22t6 29h79q-1 -21 -5.5 -39t-12.5 -33z" />
    <glyph glyph-name="dotaccent" unicode="&#x2d9;" horiz-adv-x="587" 
d="M349 599h-113v114h113v-114z" />
    <glyph glyph-name="ring" unicode="&#x2da;" horiz-adv-x="587" 
d="M293 576q-17 0 -32 3t-27.5 9t-22.5 14.5t-17 20t-10.5 25.5t-3.5 30t3.5 30t10.5 25t17 20t22.5 15t27.5 9t32 3t32 -3t27.5 -9t22.5 -15t17 -20t10.5 -25t3.5 -30t-3.5 -30t-10.5 -25.5t-17 -20t-22.5 -14.5t-27.5 -9t-32 -3zM339 660q2 8 2 18t-2 18t-6.5 14t-10 10.5
t-13 6.5t-16.5 2t-16.5 -2t-13 -6.5t-10 -10.5t-6.5 -14t-2 -18t2 -18t6.5 -14t10 -10.5t13 -6.5t16.5 -2t16.5 2t13 6.5t10 10.5t6.5 14z" />
    <glyph glyph-name="ogonek" unicode="&#x2db;" horiz-adv-x="587" 
d="M337 23l43 -23q-21 -19 -36 -34t-25.5 -27t-16.5 -21t-9 -17t-3 -15q0 -9 4 -16t12 -10.5t19 -3.5q9 0 20 2.5t22 7.5l11 -57q-9 -5 -21 -8.5t-26 -5.5t-29 -2q-23 0 -41.5 5t-31 14.5t-19 24t-6.5 32.5t8.5 36t25 36t41.5 38t58 44z" />
    <glyph glyph-name="tilde" unicode="&#x2dc;" horiz-adv-x="587" 
d="M154.5 691.5q12.5 15.5 30 23t39.5 7.5q15 0 28.5 -4t25.5 -10t22.5 -13t20 -13t18.5 -10t17 -4q11 0 18 6.5t10.5 17.5t3.5 26h69q0 -30 -6.5 -53t-19 -38.5t-30 -23t-39.5 -7.5q-15 0 -28.5 4t-25.5 10t-22.5 13t-20 13t-18.5 10t-17 4q-11 0 -18 -6t-10 -17.5
t-4 -26.5h-69q0 30 6.5 53t19 38.5z" />
    <glyph glyph-name="hungarumlaut" unicode="&#x2dd;" horiz-adv-x="587" 
d="M198 730h111l-120 -132h-87zM371 730h112l-121 -132h-86z" />
    <glyph glyph-name="gravecomb" unicode="&#x300;" horiz-adv-x="0" 
d="M-162 730h131l103 -132h-101z" />
    <glyph glyph-name="acutecomb" unicode="&#x301;" horiz-adv-x="0" 
d="M27 730h131l-133 -132h-101z" />
    <glyph glyph-name="uni0302" unicode="&#x302;" horiz-adv-x="0" 
d="M-53 730h106l126 -131h-100l-94 87h29l-94 -87h-99z" />
    <glyph glyph-name="tildecomb" unicode="&#x303;" horiz-adv-x="0" 
d="M-139.5 691.5q12.5 15.5 30 23t39.5 7.5q15 0 28.5 -4t25.5 -10t22.5 -13t20 -13t18.5 -10t17 -4q11 0 18 6.5t10.5 17.5t3.5 26h69q0 -30 -6.5 -53t-19 -38.5t-30 -23t-39.5 -7.5q-15 0 -28.5 4t-25.5 10t-22.5 13t-20 13t-18.5 10t-17 4q-11 0 -18 -6t-10 -17.5
t-4 -26.5h-69q0 30 6.5 53t19 38.5z" />
    <glyph glyph-name="uni0304" unicode="&#x304;" horiz-adv-x="0" 
d="M154 618h-308v74h308v-74z" />
    <glyph glyph-name="uni0306" unicode="&#x306;" horiz-adv-x="0" 
d="M137 658q-8 -15 -20 -27t-29 -20t-39 -12t-49 -4t-49 4t-39 12t-29.5 20t-20.5 27t-12.5 33t-5.5 39h79q2 -16 6.5 -29t13.5 -22t23 -14t34 -5t34 5t22.5 14t13.5 22t6 29h79q-1 -21 -5.5 -39t-12.5 -33z" />
    <glyph glyph-name="uni0307" unicode="&#x307;" horiz-adv-x="0" 
d="M56 599h-113v114h113v-114z" />
    <glyph glyph-name="uni0308" unicode="&#x308;" horiz-adv-x="0" 
d="M-42 602h-100v104h100v-104zM142 602h-100v104h100v-104z" />
    <glyph glyph-name="uni030A" unicode="&#x30a;" horiz-adv-x="0" 
d="M0 576q-17 0 -32 3t-27.5 9t-22.5 14.5t-17 20t-10.5 25.5t-3.5 30t3.5 30t10.5 25t17 20t22.5 15t27.5 9t32 3t32 -3t27.5 -9t22.5 -15t17 -20t10.5 -25t3.5 -30t-3.5 -30t-10.5 -25.5t-17 -20t-22.5 -14.5t-27.5 -9t-32 -3zM46 660q2 8 2 18t-2 18t-6.5 14t-10 10.5
t-13 6.5t-16.5 2t-16.5 -2t-13 -6.5t-10 -10.5t-6.5 -14t-2 -18t2 -18t6.5 -14t10 -10.5t13 -6.5t16.5 -2t16.5 2t13 6.5t10 10.5t6.5 14z" />
    <glyph glyph-name="uni030B" unicode="&#x30b;" horiz-adv-x="0" 
d="M-52 730h111l-120 -132h-87zM121 730h112l-121 -132h-86z" />
    <glyph glyph-name="uni030C" unicode="&#x30c;" horiz-adv-x="0" 
d="M53 599h-106l-126 131h99l94 -88h-29l94 88h100z" />
    <glyph glyph-name="uni0312" unicode="&#x312;" horiz-adv-x="0" 
d="M52 599h-110q9 23 20.5 45t26.5 44t32 42h95q-20 -34 -36.5 -66.5t-27.5 -64.5z" />
    <glyph glyph-name="uni0315" unicode="&#x315;" horiz-adv-x="0" 
d="M20 730h108l-49 -180h-75z" />
    <glyph glyph-name="uni0326" unicode="&#x326;" horiz-adv-x="0" 
d="M-46 -59h111q-8 -21 -20 -42t-26 -41t-31 -39h-95q20 32 35.5 62t25.5 60z" />
    <glyph glyph-name="uni0327" unicode="&#x327;" horiz-adv-x="0" 
d="M-19 11h59l-33 -87l-3 30q25 0 44 -5t31.5 -15t18.5 -24t6 -33q0 -20 -8 -35.5t-23 -26.5t-37 -16.5t-51 -5.5q-25 0 -47 4.5t-39 10.5l11 52q10 -3 21 -6t23 -4.5t23 -1.5q12 0 21 2t15 6.5t8.5 10.5t2.5 13q0 12 -6 19.5t-16.5 10.5t-25.5 3h-33z" />
    <glyph glyph-name="uni0328" unicode="&#x328;" horiz-adv-x="0" 
d="M-43 23l43 -23q-21 -19 -36 -34t-25.5 -27t-16.5 -21t-9 -17t-3 -15q0 -9 4 -16t12 -10.5t19 -3.5q9 0 20 2.5t22 7.5l11 -57q-9 -5 -21 -8.5t-26 -5.5t-29 -2q-23 0 -41.5 5t-31 14.5t-19 24t-6.5 32.5t8.5 36t25 36t41.5 38t58 44z" />
    <glyph glyph-name="pi" unicode="&#x3c0;" horiz-adv-x="600" 
d="M103 503h108v-503h-108v503zM526 -4q-20 -5 -43 -5q-31 0 -54.5 8.5t-39.5 26.5t-24 46t-8 67v341h108v-339q0 -16 2 -27t6 -18.5t9 -11.5t12 -6t14 -2q11 0 20.5 3t17.5 8l16 -79q-16 -7 -36 -12zM18 517h543v-77h-543v77z" />
    <glyph glyph-name="Wgrave" unicode="&#x1e80;" horiz-adv-x="953" 
d="M741 0h-119l-160 591h30l-161 -591h-119l-178 700h117l136 -621h-24l162 601h106l162 -601h-24l136 621h114zM287 888h154l136 -116h-116z" />
    <glyph glyph-name="wgrave" unicode="&#x1e81;" horiz-adv-x="759" 
d="M599 0h-113l-123 438h34l-123 -438h-113l-139 517h110l99 -457h-23l123 443h99l124 -443h-22l98 457h107zM218 730h131l103 -132h-101z" />
    <glyph glyph-name="Wacute" unicode="&#x1e82;" horiz-adv-x="953" 
d="M741 0h-119l-160 591h30l-161 -591h-119l-178 700h117l136 -621h-24l162 601h106l162 -601h-24l136 621h114zM513 888h154l-175 -116h-116z" />
    <glyph glyph-name="wacute" unicode="&#x1e83;" horiz-adv-x="759" 
d="M599 0h-113l-123 438h34l-123 -438h-113l-139 517h110l99 -457h-23l123 443h99l124 -443h-22l98 457h107zM407 730h131l-133 -132h-101z" />
    <glyph glyph-name="Wdieresis" unicode="&#x1e84;" horiz-adv-x="953" 
d="M741 0h-119l-160 591h30l-161 -591h-119l-178 700h117l136 -621h-24l162 601h106l162 -601h-24l136 621h114zM635 776h-106v100h106v-100zM425 776h-106v100h106v-100z" />
    <glyph glyph-name="wdieresis" unicode="&#x1e85;" horiz-adv-x="759" 
d="M599 0h-113l-123 438h34l-123 -438h-113l-139 517h110l99 -457h-23l123 443h99l124 -443h-22l98 457h107zM338 602h-100v104h100v-104zM522 602h-100v104h100v-104z" />
    <glyph glyph-name="uni1E9E" unicode="&#x1e9e;" horiz-adv-x="717" 
d="M81 428q0 36 5 67.5t15 58.5t25 49t33.5 39.5t41.5 30.5t49.5 21.5t56.5 13t63 4.5q42 0 79 -6t69 -16.5t59 -25.5t49 -33v-57l-174 -194l-19 34h34q36 0 65 -6.5t52.5 -19.5t40.5 -31t28.5 -40.5t17 -49.5t5.5 -58q0 -30 -5.5 -56.5t-16.5 -48.5t-26.5 -40t-36 -31.5
t-45 -23t-53 -14t-60.5 -4.5t-61 4t-54 11.5t-48 16.5l15 83q22 -9 44 -15t45 -9.5t48 -3.5q20 0 38 3t34 9.5t29 17t22 25.5t14 35.5t5 45.5q0 27 -5.5 48t-17.5 36.5t-29.5 25.5t-41.5 15t-55 5h-64v62l198 218l18 -63q-17 15 -37 27t-43.5 20.5t-50.5 12.5t-59 4
q-25 0 -47.5 -3.5t-41 -10.5t-34 -18.5t-27.5 -27t-20 -36t-12 -46t-4 -56.5v-427h-110v428z" />
    <glyph glyph-name="Ygrave" unicode="&#x1ef2;" horiz-adv-x="661" 
d="M274 0v304h113v-304h-113zM519 700h125l-262 -429h-103l-262 429h129l200 -353h-27zM141 888h154l136 -116h-116z" />
    <glyph glyph-name="ygrave" unicode="&#x1ef3;" horiz-adv-x="530" 
d="M300 -66q-10 -27 -21.5 -48t-24.5 -36.5t-27.5 -27t-30 -18.5t-33 -10t-36.5 -3q-18 0 -34.5 3t-30 8t-25.5 11l16 78q9 -4 19.5 -8t22 -6t22.5 -2q16 0 29 4t24 13.5t20.5 25t18.5 38.5l26 71l-1 -66l-214 556h117l149 -434l-29 -12l140 446h113zM104 730h131l103 -132
h-101z" />
    <glyph glyph-name="uni2000" unicode="&#x2000;" horiz-adv-x="500" 
 />
    <glyph glyph-name="uni2001" unicode="&#x2001;" horiz-adv-x="1000" 
 />
    <glyph glyph-name="uni2002" unicode="&#x2002;" horiz-adv-x="500" 
 />
    <glyph glyph-name="uni2003" unicode="&#x2003;" horiz-adv-x="1000" 
 />
    <glyph glyph-name="uni2004" unicode="&#x2004;" horiz-adv-x="333" 
 />
    <glyph glyph-name="uni2005" unicode="&#x2005;" horiz-adv-x="250" 
 />
    <glyph glyph-name="uni2006" unicode="&#x2006;" horiz-adv-x="167" 
 />
    <glyph glyph-name="uni2007" unicode="&#x2007;" horiz-adv-x="613" 
 />
    <glyph glyph-name="uni2008" unicode="&#x2008;" horiz-adv-x="223" 
 />
    <glyph glyph-name="uni2009" unicode="&#x2009;" horiz-adv-x="200" 
 />
    <glyph glyph-name="uni200A" unicode="&#x200a;" horiz-adv-x="63" 
 />
    <glyph glyph-name="uni200B" unicode="&#x200b;" horiz-adv-x="0" 
 />
    <glyph glyph-name="uni2010" unicode="&#x2010;" horiz-adv-x="402" 
d="M49 329h304v-90h-304v90z" />
    <glyph glyph-name="figuredash" unicode="&#x2012;" horiz-adv-x="500" 
d="M0 382h500v-84h-500v84z" />
    <glyph glyph-name="endash" unicode="&#x2013;" horiz-adv-x="500" 
d="M0 326h500v-84h-500v84z" />
    <glyph glyph-name="emdash" unicode="&#x2014;" horiz-adv-x="1000" 
d="M0 326h1000v-84h-1000v84z" />
    <glyph glyph-name="uni2015" unicode="&#x2015;" horiz-adv-x="1000" 
d="M0 326h1000v-84h-1000v84z" />
    <glyph glyph-name="quoteleft" unicode="&#x2018;" horiz-adv-x="243" 
d="M174.5 525.5q-7.5 -42.5 -9.5 -84.5h-106q2 33 8 66.5t16.5 66.5t24.5 64.5t32 61.5h84q-17 -45 -29.5 -88.5t-20 -86z" />
    <glyph glyph-name="quoteright" unicode="&#x2019;" horiz-adv-x="243" 
d="M68.5 616q7.5 43 9.5 84h106q-2 -33 -8.5 -66.5t-17 -66.5t-24.5 -64.5t-31 -61.5h-85q18 45 30.5 88.5t20 86.5z" />
    <glyph glyph-name="quotesinglbase" unicode="&#x201a;" horiz-adv-x="243" 
d="M68.5 49q7.5 43 9.5 84h106q-2 -33 -8.5 -66.5t-17 -66.5t-24.5 -64.5t-31 -61.5h-85q18 45 30.5 88.5t20 86.5z" />
    <glyph glyph-name="quotedblleft" unicode="&#x201c;" horiz-adv-x="427" 
d="M174.5 525.5q-7.5 -42.5 -9.5 -84.5h-106q2 33 8 66.5t16.5 66.5t24.5 64.5t32 61.5h84q-17 -45 -29.5 -88.5t-20 -86zM359.5 525.5q-7.5 -42.5 -9.5 -84.5h-106q2 33 8 66.5t16.5 66.5t24.5 64.5t32 61.5h84q-17 -45 -29.5 -88.5t-20 -86z" />
    <glyph glyph-name="quotedblright" unicode="&#x201d;" horiz-adv-x="427" 
d="M68.5 616q7.5 43 9.5 84h106q-2 -33 -8.5 -66.5t-17 -66.5t-24.5 -64.5t-31 -61.5h-85q18 45 30.5 88.5t20 86.5zM253.5 616q7.5 43 9.5 84h106q-2 -33 -8.5 -66.5t-17 -66.5t-24.5 -64.5t-31 -61.5h-85q18 45 30.5 88.5t20 86.5z" />
    <glyph glyph-name="quotedblbase" unicode="&#x201e;" horiz-adv-x="427" 
d="M68.5 49q7.5 43 9.5 84h106q-2 -33 -8.5 -66.5t-17 -66.5t-24.5 -64.5t-31 -61.5h-85q18 45 30.5 88.5t20 86.5zM253.5 49q7.5 43 9.5 84h106q-2 -33 -8.5 -66.5t-17 -66.5t-24.5 -64.5t-31 -61.5h-85q18 45 30.5 88.5t20 86.5z" />
    <glyph glyph-name="dagger" unicode="&#x2020;" horiz-adv-x="515" 
d="M205 700h105v-765h-105v765zM36 517h443v-82h-443v82z" />
    <glyph glyph-name="daggerdbl" unicode="&#x2021;" horiz-adv-x="515" 
d="M205 700h104v-765h-104v765zM36 199h443v-81h-443v81zM36 517h443v-81h-443v81z" />
    <glyph glyph-name="bullet" unicode="&#x2022;" 
d="M62 282q0 27 8.5 49t24.5 37.5t38 23.5t50 8t50 -8t37.5 -23.5t24 -37.5t8.5 -50q0 -27 -8.5 -49t-24 -37.5t-38 -23.5t-49.5 -8q-28 0 -50 8t-38 23.5t-24.5 37.5t-8.5 50z" />
    <glyph glyph-name="ellipsis" unicode="&#x2026;" horiz-adv-x="1000" 
d="M223 0h-113v133h113v-133zM557 0h-113v133h113v-133zM890 0h-113v133h113v-133z" />
    <glyph glyph-name="perthousand" unicode="&#x2030;" horiz-adv-x="1184" 
d="M591 680h95l-452 -680h-95zM162.5 352.5q-20.5 4.5 -37.5 14t-30 23t-22 31t-13.5 39t-4.5 46.5v21q0 21 3.5 40t10.5 35t17 29.5t23 23.5t28 17t33 10.5t38 3.5q24 0 44 -4.5t37 -14t30 -23t22 -31t13.5 -39t4.5 -46.5v-21q0 -21 -3.5 -40t-10.5 -35t-17 -29.5
t-23 -23.5t-28 -17t-33 -10.5t-38 -3.5q-23 0 -43.5 4.5zM230.5 419q10.5 4 18.5 11.5t13.5 19t8.5 26t3 32.5v18q0 18 -3 33t-8.5 26t-13.5 18.5t-18.5 11.5t-23.5 4t-23.5 -4t-18.5 -11.5t-13.5 -18.5t-8.5 -26t-3 -33v-18q0 -18 3 -32.5t8.5 -26t13.5 -19t18.5 -11.5
t23.5 -4t23.5 4zM572.5 -1.5q-20.5 4.5 -37 14t-29.5 23t-22 31t-13.5 39t-4.5 46.5v21q0 21 3.5 40t10.5 35t16.5 29.5t22.5 23.5t28.5 17t33 10.5t37.5 3.5q24 0 44 -5t37 -14t30 -22.5t22 -31.5t13.5 -39t4.5 -46v-22q0 -21 -3.5 -40t-10.5 -35t-17 -29t-22.5 -23
t-28 -17t-33.5 -10.5t-38 -3.5q-23 0 -43.5 4.5zM641 65q10 4 18 11.5t13.5 18.5t8.5 26t3 33v18q0 18 -3 33t-8.5 26t-13.5 18.5t-18 11.5t-23 4t-24 -4t-19 -11.5t-13.5 -18.5t-8.5 -26t-3 -33v-18q0 -18 3 -33t8.5 -26t13.5 -18.5t19 -11.5t24 -4t23 4zM932.5 -1.5
q-20.5 4.5 -37 14t-29.5 23t-22 31t-13.5 39t-4.5 46.5v21q0 21 3.5 40t10.5 35t16.5 29.5t22.5 23.5t28.5 17t33 10.5t37.5 3.5q24 0 44 -5t37 -14t30 -22.5t22 -31.5t13.5 -39t4.5 -46v-22q0 -21 -3.5 -40t-10.5 -35t-17 -29t-22.5 -23t-28 -17t-33.5 -10.5t-38 -3.5
q-23 0 -43.5 4.5zM1001 65q10 4 18 11.5t13.5 18.5t8.5 26t3 33v18q0 18 -3 33t-8.5 26t-13.5 18.5t-18 11.5t-23 4t-24 -4t-19 -11.5t-13.5 -18.5t-8.5 -26t-3 -33v-18q0 -18 3 -33t8.5 -26t13.5 -18.5t19 -11.5t24 -4t23 4z" />
    <glyph glyph-name="minute" unicode="&#x2032;" horiz-adv-x="206" 
d="M83 700h106l-71 -259h-85z" />
    <glyph glyph-name="second" unicode="&#x2033;" horiz-adv-x="398" 
d="M83 700h106l-71 -259h-85zM275 700h106l-71 -259h-85z" />
    <glyph glyph-name="guilsinglleft" unicode="&#x2039;" horiz-adv-x="290" 
d="M107 268v38l154 -207h-103l-139 188l139 188h103z" />
    <glyph glyph-name="guilsinglright" unicode="&#x203a;" horiz-adv-x="290" 
d="M183 306v-38l-154 207h102l140 -188l-140 -188h-102z" />
    <glyph glyph-name="fraction" unicode="&#x2044;" horiz-adv-x="111" 
d="M209 680h91l-398 -680h-92z" />
    <glyph glyph-name="uni2070" unicode="&#x2070;" 
d="M181 423q-21 0 -39 3.5t-33.5 11t-28 18t-22 24.5t-16 30.5t-9.5 36.5t-3 43v26q0 23 3.5 43t10 37t16.5 31t22.5 24.5t28 18t34 11t39.5 3.5t39.5 -3.5t34 -11t28 -18t22 -24.5t16 -30.5t9.5 -36.5t3 -43v-26q0 -23 -3.5 -43t-10 -37t-16.5 -31t-22.5 -24.5t-28.5 -18
t-34.5 -11t-39.5 -3.5zM251 657q-3 18 -9 30.5t-14.5 20.5t-19.5 12t-25 4t-25 -4t-19.5 -12t-14.5 -20.5t-9 -30.5t-3 -41v-25q0 -23 3 -40.5t9 -30t14.5 -20.5t19.5 -12t25 -4t25 4t19.5 12t14.5 20.5t9 30t3 40.5v25q0 23 -3 41z" />
    <glyph glyph-name="uni2074" unicode="&#x2074;" 
d="M291 430h-73v328l40 -8l-172 -209l-35 13h289v-55h-308v63l177 215h82v-347z" />
    <glyph glyph-name="uni2075" unicode="&#x2075;" 
d="M61 777h243v-61h-169v-102l-42 16q10 4 20 7.5t22 5.5t25.5 3.5t29.5 1.5q21 0 39.5 -3t33.5 -9t27 -15t20 -21t12 -27t4 -33q0 -19 -4.5 -35t-13.5 -29t-22 -23t-30 -16.5t-37.5 -10t-44.5 -3.5q-21 0 -39 2t-34 5.5t-31 8.5t-29 11l12 56q12 -5 24.5 -9.5t25.5 -7.5
t28 -4.5t32 -1.5q14 0 26.5 2t22 6t16.5 10t10.5 15.5t3.5 21.5q0 11 -3.5 19.5t-10 15t-16.5 10.5t-23 6t-30 2q-12 0 -24.5 -0.5t-25.5 -2t-25 -3t-23 -3.5v195z" />
    <glyph glyph-name="uni2076" unicode="&#x2076;" 
d="M301 710q-9 3 -18.5 6t-20.5 5.5t-22 3.5t-23 1q-14 0 -26.5 -2t-23 -6.5t-19.5 -11.5t-16.5 -16.5t-12.5 -21t-7.5 -26.5t-2.5 -32v-11q0 -3 0.5 -6t0.5 -6v-8l-11 13q2 11 7 19.5t12 15t16.5 11.5t20.5 8t24 4.5t26 1.5q17 0 32 -2.5t28 -7.5t24 -12t20 -16t15 -20.5
t9.5 -24.5t3.5 -28q0 -16 -4 -30t-11 -26t-17 -22t-23 -17.5t-28 -12.5t-32 -7.5t-35 -2.5q-19 0 -36.5 2.5t-33 8.5t-29 14.5t-24.5 21t-18.5 28.5t-11.5 36t-4 44v24q0 26 4.5 48.5t13.5 41t21.5 33.5t28.5 26t34 18.5t38 11t42 3.5t40.5 -2.5t33.5 -6.5t26 -10z
M149.5 485.5q7.5 -3.5 16.5 -5.5t19 -2q13 0 24 2.5t19.5 7.5t14 12t8.5 16.5t3 21.5q0 11 -3 20.5t-8.5 16.5t-13.5 12t-18.5 7.5t-23.5 2.5t-24 -2.5t-19.5 -7.5t-14.5 -12t-9 -16t-3 -20q0 -10 2 -18t6.5 -15t10.5 -12t13.5 -8.5z" />
    <glyph glyph-name="uni2077" unicode="&#x2077;" 
d="M178 430h-90l152 301l38 -19h-234v65h273v-55z" />
    <glyph glyph-name="uni2078" unicode="&#x2078;" 
d="M185 784q21 0 39.5 -3t34 -8t27.5 -13.5t20.5 -18.5t13 -23t4.5 -28q0 -16 -4.5 -30t-14 -25.5t-24 -19t-34.5 -12.5l-1 13q21 -4 37.5 -11.5t27.5 -19t16.5 -26.5t5.5 -34q0 -16 -4.5 -30t-13.5 -25t-22 -20t-30 -15t-37 -9t-44 -3q-23 0 -42.5 3t-36.5 9t-30 15t-22 20
t-13.5 24.5t-4.5 29.5q0 18 5.5 33.5t16 27t27 19.5t38.5 12l-1 -14q-19 5 -33.5 12.5t-24 18.5t-14.5 25t-5 30q0 18 6.5 33t18.5 26.5t29.5 20t39.5 12.5t49 4zM206.5 478.5q10.5 2.5 19 7t14 11t8.5 15.5t3 19t-3 18t-8 14.5t-13.5 11t-19 7t-24.5 2.5q-13 0 -24 -2.5
t-19 -7t-13.5 -11t-8.5 -14.5t-3 -18t3 -19t8.5 -15.5t14 -11t19 -7t23.5 -2.5t23.5 2.5zM203.5 637q9.5 2 17 6t13 10t8 13.5t2.5 16.5t-2.5 16.5t-7.5 13.5t-12.5 10.5t-17 6.5t-21.5 2t-21.5 -2t-17 -6.5t-12.5 -10.5t-7.5 -13.5t-2.5 -16.5t2.5 -16.5t8 -13.5t13 -10
t17 -6t20.5 -2t20.5 2z" />
    <glyph glyph-name="uni2079" unicode="&#x2079;" 
d="M56 498q9 -4 19 -7t21.5 -5.5t24 -3.5t24.5 -1q14 0 27 2t24 7t20.5 11.5t17 16t13 21.5t8 26.5t2.5 31.5v12v6t-0.5 6.5t-0.5 7.5l11 -13q-2 -11 -7 -19.5t-12 -15t-16.5 -11.5t-20.5 -8t-23.5 -4.5t-26.5 -1.5q-16 0 -31.5 2.5t-28.5 7t-24 11.5t-20 16t-15 20.5
t-9.5 24.5t-3.5 28q0 16 4 30t11 26t17 22t23 17.5t28 12.5t32 7.5t35 2.5q19 0 36.5 -2.5t33 -8t29 -14.5t24.5 -21t18.5 -28t11.5 -36.5t4 -44.5v-24q0 -26 -5 -48.5t-14 -41t-22 -33.5t-29 -26t-34.5 -18.5t-39.5 -11t-43 -3.5q-17 0 -32.5 1.5t-28.5 4t-23.5 6
t-19.5 7.5zM200 727.5q-9 1.5 -19 1.5q-13 0 -24 -2.5t-19.5 -7t-14 -12t-8.5 -17t-3 -21.5q0 -11 3 -20t8.5 -16t13.5 -12t18.5 -7.5t23.5 -2.5t24 2.5t19.5 7.5t14.5 12t9 16t3 20q0 10 -2 18t-6.5 15t-10.5 12t-13.5 8.5t-16.5 5z" />
    <glyph glyph-name="uni2080" unicode="&#x2080;" 
d="M181 -117q-21 0 -39 3.5t-33.5 11t-28 18t-22 24.5t-16 30.5t-9.5 36.5t-3 43v26q0 23 3.5 43t10 37t16.5 31t22.5 24.5t28 18t34 11t39.5 3.5t39.5 -3.5t34 -11t28 -18t22 -24.5t16 -30.5t9.5 -36.5t3 -43v-26q0 -23 -3.5 -43t-10 -37t-16.5 -31t-22.5 -24.5t-28.5 -18
t-34.5 -11t-39.5 -3.5zM251 117q-3 18 -9 30.5t-14.5 20.5t-19.5 12t-25 4t-25 -4t-19.5 -12t-14.5 -20.5t-9 -30.5t-3 -41v-25q0 -23 3 -40.5t9 -30t14.5 -20.5t19.5 -12t25 -4t25 4t19.5 12t14.5 20.5t9 30t3 40.5v25q0 23 -3 41z" />
    <glyph glyph-name="uni2081" unicode="&#x2081;" 
d="M256 -110h-82v339l34 -43l-135 -59l-12 58l120 52h75v-347z" />
    <glyph glyph-name="uni2082" unicode="&#x2082;" 
d="M57 216q16 8 35.5 14.5t43 10t50.5 3.5q18 0 35 -2t32 -7t27.5 -12.5t21 -18.5t13.5 -26t5 -34q0 -18 -5 -32.5t-14.5 -26.5t-23 -21.5t-30 -18t-35.5 -16.5q-22 -9 -38.5 -17.5t-27.5 -17.5t-16.5 -19.5t-5.5 -24.5v-19l-21 20h216v-61h-272v40q0 22 5 39.5t13.5 31.5
t20 25t24.5 20t27 16t28 13q17 7 29 13t20.5 11.5t14 11.5t8 13.5t2.5 16.5q0 15 -6.5 24.5t-20.5 14t-37 4.5q-19 0 -38 -3.5t-36.5 -9t-32.5 -13.5z" />
    <glyph glyph-name="uni2083" unicode="&#x2083;" 
d="M102 99h57q19 0 33 2.5t22.5 8t13 14t4.5 19.5q0 12 -4 20t-12.5 13t-20.5 7t-27 2t-29 -2t-27.5 -5t-26 -7.5t-23.5 -9.5l-11 57q14 6 28 11t29.5 8t32.5 5t36 2t37 -2t33 -6.5t27.5 -12t21.5 -17.5t14 -23t5 -30q0 -19 -6.5 -34t-18 -25.5t-27.5 -17.5t-36 -11l-1 12
q17 -2 31.5 -6.5t26.5 -12t21 -17.5t13.5 -23.5t4.5 -30.5q0 -16 -4 -29.5t-12 -24.5t-19 -19t-24 -14t-28 -9.5t-32 -5.5t-34 -2q-19 0 -36.5 2t-33 5.5t-30.5 9t-29 11.5l11 57q12 -6 25 -10.5t27.5 -7.5t30 -5t30.5 -2q17 0 31 2.5t23.5 8.5t14.5 15.5t5 23.5
q0 12 -4.5 21t-14.5 15t-25 9t-36 3h-57v58z" />
    <glyph glyph-name="uni2084" unicode="&#x2084;" 
d="M291 -110h-73v328l40 -8l-172 -209l-35 13h289v-55h-308v63l177 215h82v-347z" />
    <glyph glyph-name="uni2085" unicode="&#x2085;" 
d="M61 237h243v-61h-169v-102l-42 16q10 4 20 7.5t22 5.5t25.5 3.5t29.5 1.5q21 0 39.5 -3t33.5 -9t27 -15t20 -21t12 -27t4 -33q0 -19 -4.5 -35t-13.5 -29t-22 -23t-30 -16.5t-37.5 -10t-44.5 -3.5q-21 0 -39 2t-34 5.5t-31 8.5t-29 11l12 56q12 -5 24.5 -9.5t25.5 -7.5
t28 -4.5t32 -1.5q14 0 26.5 2t22 6t16.5 10t10.5 15.5t3.5 21.5q0 11 -3.5 19.5t-10 15t-16.5 10.5t-23 6t-30 2q-12 0 -24.5 -0.5t-25.5 -2t-25 -3t-23 -3.5v195z" />
    <glyph glyph-name="uni2086" unicode="&#x2086;" 
d="M301 170q-9 3 -18.5 6t-20.5 5.5t-22 3.5t-23 1q-14 0 -26.5 -2t-23 -6.5t-19.5 -11.5t-16.5 -16.5t-12.5 -21t-7.5 -26.5t-2.5 -32v-11q0 -3 0.5 -6t0.5 -6v-8l-11 13q2 11 7 19.5t12 15t16.5 11.5t20.5 8t24 4.5t26 1.5q17 0 32 -2.5t28 -7.5t24 -12t20 -16t15 -20.5
t9.5 -24.5t3.5 -28q0 -16 -4 -30t-11 -26t-17 -22t-23 -17.5t-28 -12.5t-32 -7.5t-35 -2.5q-19 0 -36.5 2.5t-33 8.5t-29 14.5t-24.5 21t-18.5 28.5t-11.5 36t-4 44v24q0 26 4.5 48.5t13.5 41t21.5 33.5t28.5 26t34 18.5t38 11t42 3.5t40.5 -2.5t33.5 -6.5t26 -10z
M149.5 -54.5q7.5 -3.5 16.5 -5.5t19 -2q13 0 24 2.5t19.5 7.5t14 12t8.5 16.5t3 21.5q0 11 -3 20.5t-8.5 16.5t-13.5 12t-18.5 7.5t-23.5 2.5t-24 -2.5t-19.5 -7.5t-14.5 -12t-9 -16t-3 -20q0 -10 2 -18t6.5 -15t10.5 -12t13.5 -8.5z" />
    <glyph glyph-name="uni2087" unicode="&#x2087;" 
d="M178 -110h-90l152 301l38 -19h-234v65h273v-55z" />
    <glyph glyph-name="uni2088" unicode="&#x2088;" 
d="M185 244q21 0 39.5 -3t34 -8t27.5 -13.5t20.5 -18.5t13 -23t4.5 -28q0 -16 -4.5 -30t-14 -25.5t-24 -19t-34.5 -12.5l-1 13q21 -4 37.5 -11.5t27.5 -19t16.5 -26.5t5.5 -34q0 -16 -4.5 -30t-13.5 -25t-22 -20t-30 -15t-37 -9t-44 -3q-23 0 -42.5 3t-36.5 9t-30 15t-22 20
t-13.5 24.5t-4.5 29.5q0 18 5.5 33.5t16 27t27 19.5t38.5 12l-1 -14q-19 5 -33.5 12.5t-24 18.5t-14.5 25t-5 30q0 18 6.5 33t18.5 26.5t29.5 20t39.5 12.5t49 4zM206.5 -61.5q10.5 2.5 19 7t14 11t8.5 15.5t3 19t-3 18t-8 14.5t-13.5 11t-19 7t-24.5 2.5q-13 0 -24 -2.5
t-19 -7t-13.5 -11t-8.5 -14.5t-3 -18t3 -19t8.5 -15.5t14 -11t19 -7t23.5 -2.5t23.5 2.5zM203.5 97q9.5 2 17 6t13 10t8 13.5t2.5 16.5t-2.5 16.5t-7.5 13.5t-12.5 10.5t-17 6.5t-21.5 2t-21.5 -2t-17 -6.5t-12.5 -10.5t-7.5 -13.5t-2.5 -16.5t2.5 -16.5t8 -13.5t13 -10
t17 -6t20.5 -2t20.5 2z" />
    <glyph glyph-name="uni2089" unicode="&#x2089;" 
d="M56 -42q9 -4 19 -7t21.5 -5.5t24 -3.5t24.5 -1q14 0 27 2t24 7t20.5 11.5t17 16t13 21.5t8 26.5t2.5 31.5v12v6t-0.5 6.5t-0.5 7.5l11 -13q-2 -11 -7 -19.5t-12 -15t-16.5 -11.5t-20.5 -8t-23.5 -4.5t-26.5 -1.5q-16 0 -31.5 2.5t-28.5 7t-24 11.5t-20 16t-15 20.5
t-9.5 24.5t-3.5 28q0 16 4 30t11 26t17 22t23 17.5t28 12.5t32 7.5t35 2.5q19 0 36.5 -2.5t33 -8t29 -14.5t24.5 -21t18.5 -28t11.5 -36.5t4 -44.5v-24q0 -26 -5 -48.5t-14 -41t-22 -33.5t-29 -26t-34.5 -18.5t-39.5 -11t-43 -3.5q-17 0 -32.5 1.5t-28.5 4t-23.5 6
t-19.5 7.5zM200 187.5q-9 1.5 -19 1.5q-13 0 -24 -2.5t-19.5 -7t-14 -12t-8.5 -17t-3 -21.5q0 -11 3 -20t8.5 -16t13.5 -12t18.5 -7.5t23.5 -2.5t24 2.5t19.5 7.5t14.5 12t9 16t3 20q0 10 -2 18t-6.5 15t-10.5 12t-13.5 8.5t-16.5 5z" />
    <glyph glyph-name="Euro" unicode="&#x20ac;" horiz-adv-x="613" 
d="M395 -14q-33 0 -63 5t-56.5 15.5t-49 26t-41 36t-33 46t-24 55.5t-14.5 65.5t-5 75.5v40q0 41 5.5 78t15.5 69t25 59t34.5 48.5t42.5 38t49.5 28t56.5 17t62 5.5q21 0 40.5 -2t36.5 -5t33.5 -8t31.5 -10.5t29 -12.5l-17 -82q-18 8 -35 14t-35 10.5t-36 7t-38 2.5
q-21 0 -40.5 -4t-36.5 -11.5t-32 -19t-28 -27.5t-22.5 -36t-16.5 -44.5t-10.5 -53.5t-3.5 -63v-37q0 -31 3.5 -58.5t10 -50t16 -41t21.5 -33.5t27 -25.5t33 -17.5t38 -10.5t42 -3.5q21 0 41 2.5t38.5 7.5t37 12t37.5 16l16 -82q-19 -9 -39.5 -17t-43.5 -13.5t-48.5 -8.5
t-54.5 -3zM34 302h403l-17 -66h-403zM34 450h442l-17 -66h-442z" />
    <glyph glyph-name="uni20BA" unicode="&#x20ba;" horiz-adv-x="613" 
d="M123 680h108v-635l-28 -45h-80v680zM564 238q-6 -32 -16.5 -59t-26.5 -50t-35.5 -41t-42.5 -32.5t-49 -25t-55 -17t-59 -10t-62 -3.5h-34l-2 87h52q19 0 37.5 2t36 6.5t34.5 11t32.5 16.5t29 23t24 29t18.5 36t12 44t4 52h108q0 -37 -6 -69zM38 148v75l362 227v-75z
M38 315v76l362 226v-75z" />
    <glyph glyph-name="trademark" unicode="&#x2122;" horiz-adv-x="927" 
d="M248 308h-90v381h90v-381zM378 631h-350v69h350v-69zM524 308h-84v392h92l135 -266h-29l134 266h91v-392h-83v317l26 -4l-123 -240h-63l-123 240l27 4v-317z" />
    <glyph glyph-name="Omega" unicode="&#x2126;" horiz-adv-x="790" 
d="M62 87h173v-16q-22 12 -42 28t-38 36t-32.5 44t-25 52t-16 60t-5.5 67v30q0 43 6 80t17.5 68.5t28 57t37.5 45.5t46.5 35t54.5 24.5t62 14.5t68 5q37 0 70 -5t62.5 -15t54.5 -25.5t45.5 -35.5t36 -46t26.5 -57t16.5 -67.5t5.5 -78.5v-30q0 -30 -4 -57.5t-12 -52.5
t-18.5 -47t-24 -41.5t-29.5 -36t-33.5 -29.5t-36.5 -23v16h173v-87h-276v75q21 11 39.5 26t34.5 33.5t29 40.5t22 47.5t14 54.5t5 61v39q0 36 -4 66t-11 54.5t-17.5 44t-24 34t-29.5 25.5t-34 17.5t-38.5 9.5t-42.5 3t-42.5 -3t-39 -9.5t-34.5 -17.5t-29.5 -25.5t-24 -34
t-17.5 -44t-11 -54.5t-4 -66v-39q0 -32 5 -61t14.5 -55t22.5 -48t29 -40.5t34.5 -33t38.5 -25.5v-75h-275v87z" />
    <glyph glyph-name="uni2150" unicode="&#x2150;" horiz-adv-x="843" 
d="M552 680h91l-398 -680h-92zM655 0h-90l152 301l38 -19h-234v65h273v-55zM256 333h-82v339l34 -43l-135 -59l-12 58l120 52h75v-347z" />
    <glyph glyph-name="uni2151" unicode="&#x2151;" horiz-adv-x="843" 
d="M568 680h91l-398 -680h-92zM533 68q9 -4 19 -7t21.5 -5.5t24 -3.5t24.5 -1q14 0 27 2t24 7t20.5 11.5t17 16t13 21.5t8 26.5t2.5 31.5v12v6t-0.5 6.5t-0.5 7.5l11 -13q-2 -11 -7 -19.5t-12 -15t-16.5 -11.5t-20.5 -8t-23.5 -4.5t-26.5 -1.5q-16 0 -31.5 2.5t-28.5 7
t-24 11.5t-20 16t-15 20.5t-9.5 24.5t-3.5 28q0 16 4 30t11 26t17 22t23 17.5t28 12.5t32 7.5t35 2.5q19 0 36.5 -2.5t33 -8t29 -14.5t24.5 -21t18.5 -28t11.5 -36.5t4 -44.5v-24q0 -26 -5 -48.5t-14 -41t-22 -33.5t-29 -26t-34.5 -18.5t-39.5 -11t-43 -3.5q-17 0 -32.5 1.5
t-28.5 4t-23.5 6t-19.5 7.5zM677 297.5q-9 1.5 -19 1.5q-13 0 -24 -2.5t-19.5 -7t-14 -12t-8.5 -17t-3 -21.5q0 -11 3 -20t8.5 -16t13.5 -12t18.5 -7.5t23.5 -2.5t24 2.5t19.5 7.5t14.5 12t9 16t3 20q0 10 -2 18t-6.5 15t-10.5 12t-13.5 8.5t-16.5 5zM256 333h-82v339
l34 -43l-135 -59l-12 58l120 52h75v-347z" />
    <glyph glyph-name="onethird" unicode="&#x2153;" horiz-adv-x="843" 
d="M564 680h91l-398 -680h-92zM579 209h57q19 0 33 2.5t22.5 8t13 14t4.5 19.5q0 12 -4 20t-12.5 13t-20.5 7t-27 2t-29 -2t-27.5 -5t-26 -7.5t-23.5 -9.5l-11 57q14 6 28 11t29.5 8t32.5 5t36 2t37 -2t33 -6.5t27.5 -12t21.5 -17.5t14 -23t5 -30q0 -19 -6.5 -34t-18 -25.5
t-27.5 -17.5t-36 -11l-1 12q17 -2 31.5 -6.5t26.5 -12t21 -17.5t13.5 -23.5t4.5 -30.5q0 -16 -4 -29.5t-12 -24.5t-19 -19t-24 -14t-28 -9.5t-32 -5.5t-34 -2q-19 0 -36.5 2t-33 5.5t-30.5 9t-29 11.5l11 57q12 -6 25 -10.5t27.5 -7.5t30 -5t30.5 -2q17 0 31 2.5t23.5 8.5
t14.5 15.5t5 23.5q0 12 -4.5 21t-14.5 15t-25 9t-36 3h-57v58zM256 333h-82v339l34 -43l-135 -59l-12 58l120 52h75v-347z" />
    <glyph glyph-name="twothirds" unicode="&#x2154;" horiz-adv-x="843" 
d="M585 680h91l-398 -680h-92zM579 209h57q19 0 33 2.5t22.5 8t13 14t4.5 19.5q0 12 -4 20t-12.5 13t-20.5 7t-27 2t-29 -2t-27.5 -5t-26 -7.5t-23.5 -9.5l-11 57q14 6 28 11t29.5 8t32.5 5t36 2t37 -2t33 -6.5t27.5 -12t21.5 -17.5t14 -23t5 -30q0 -19 -6.5 -34t-18 -25.5
t-27.5 -17.5t-36 -11l-1 12q17 -2 31.5 -6.5t26.5 -12t21 -17.5t13.5 -23.5t4.5 -30.5q0 -16 -4 -29.5t-12 -24.5t-19 -19t-24 -14t-28 -9.5t-32 -5.5t-34 -2q-19 0 -36.5 2t-33 5.5t-30.5 9t-29 11.5l11 57q12 -6 25 -10.5t27.5 -7.5t30 -5t30.5 -2q17 0 31 2.5t23.5 8.5
t14.5 15.5t5 23.5q0 12 -4.5 21t-14.5 15t-25 9t-36 3h-57v58zM57 659q16 8 35.5 14.5t43 10t50.5 3.5q18 0 35 -2t32 -7t27.5 -12.5t21 -18.5t13.5 -26t5 -34q0 -18 -5 -32.5t-14.5 -26.5t-23 -21.5t-30 -18t-35.5 -16.5q-22 -9 -38.5 -17.5t-27.5 -17.5t-16.5 -19.5
t-5.5 -24.5v-19l-21 20h216v-61h-272v40q0 22 5 39.5t13.5 31.5t20 25t24.5 20t27 16t28 13q17 7 29 13t20.5 11.5t14 11.5t8 13.5t2.5 16.5q0 15 -6.5 24.5t-20.5 14t-37 4.5q-19 0 -38 -3.5t-36.5 -9t-32.5 -13.5z" />
    <glyph glyph-name="uni2155" unicode="&#x2155;" horiz-adv-x="843" 
d="M556 680h91l-398 -680h-92zM538 347h243v-61h-169v-102l-42 16q10 4 20 7.5t22 5.5t25.5 3.5t29.5 1.5q21 0 39.5 -3t33.5 -9t27 -15t20 -21t12 -27t4 -33q0 -19 -4.5 -35t-13.5 -29t-22 -23t-30 -16.5t-37.5 -10t-44.5 -3.5q-21 0 -39 2t-34 5.5t-31 8.5t-29 11l12 56
q12 -5 24.5 -9.5t25.5 -7.5t28 -4.5t32 -1.5q14 0 26.5 2t22 6t16.5 10t10.5 15.5t3.5 21.5q0 11 -3.5 19.5t-10 15t-16.5 10.5t-23 6t-30 2q-12 0 -24.5 -0.5t-25.5 -2t-25 -3t-23 -3.5v195zM256 333h-82v339l34 -43l-135 -59l-12 58l120 52h75v-347z" />
    <glyph glyph-name="uni2156" unicode="&#x2156;" horiz-adv-x="843" 
d="M581 680h91l-398 -680h-92zM538 347h243v-61h-169v-102l-42 16q10 4 20 7.5t22 5.5t25.5 3.5t29.5 1.5q21 0 39.5 -3t33.5 -9t27 -15t20 -21t12 -27t4 -33q0 -19 -4.5 -35t-13.5 -29t-22 -23t-30 -16.5t-37.5 -10t-44.5 -3.5q-21 0 -39 2t-34 5.5t-31 8.5t-29 11l12 56
q12 -5 24.5 -9.5t25.5 -7.5t28 -4.5t32 -1.5q14 0 26.5 2t22 6t16.5 10t10.5 15.5t3.5 21.5q0 11 -3.5 19.5t-10 15t-16.5 10.5t-23 6t-30 2q-12 0 -24.5 -0.5t-25.5 -2t-25 -3t-23 -3.5v195zM57 659q16 8 35.5 14.5t43 10t50.5 3.5q18 0 35 -2t32 -7t27.5 -12.5t21 -18.5
t13.5 -26t5 -34q0 -18 -5 -32.5t-14.5 -26.5t-23 -21.5t-30 -18t-35.5 -16.5q-22 -9 -38.5 -17.5t-27.5 -17.5t-16.5 -19.5t-5.5 -24.5v-19l-21 20h216v-61h-272v40q0 22 5 39.5t13.5 31.5t20 25t24.5 20t27 16t28 13q17 7 29 13t20.5 11.5t14 11.5t8 13.5t2.5 16.5
q0 15 -6.5 24.5t-20.5 14t-37 4.5q-19 0 -38 -3.5t-36.5 -9t-32.5 -13.5z" />
    <glyph glyph-name="uni2157" unicode="&#x2157;" horiz-adv-x="843" 
d="M575 680h91l-398 -680h-92zM538 347h243v-61h-169v-102l-42 16q10 4 20 7.5t22 5.5t25.5 3.5t29.5 1.5q21 0 39.5 -3t33.5 -9t27 -15t20 -21t12 -27t4 -33q0 -19 -4.5 -35t-13.5 -29t-22 -23t-30 -16.5t-37.5 -10t-44.5 -3.5q-21 0 -39 2t-34 5.5t-31 8.5t-29 11l12 56
q12 -5 24.5 -9.5t25.5 -7.5t28 -4.5t32 -1.5q14 0 26.5 2t22 6t16.5 10t10.5 15.5t3.5 21.5q0 11 -3.5 19.5t-10 15t-16.5 10.5t-23 6t-30 2q-12 0 -24.5 -0.5t-25.5 -2t-25 -3t-23 -3.5v195zM102 542h57q19 0 33 2.5t22.5 8t13 14t4.5 19.5q0 12 -4 20t-12.5 13t-20.5 7
t-27 2t-29 -2t-27.5 -5t-26 -7.5t-23.5 -9.5l-11 57q14 6 28 11t29.5 8t32.5 5t36 2t37 -2t33 -6.5t27.5 -12t21.5 -17.5t14 -23t5 -30q0 -19 -6.5 -34t-18 -25.5t-27.5 -17.5t-36 -11l-1 12q17 -2 31.5 -6.5t26.5 -12t21 -17.5t13.5 -23.5t4.5 -30.5q0 -16 -4 -29.5
t-12 -24.5t-19 -19t-24 -14t-28 -9.5t-32 -5.5t-34 -2q-19 0 -36.5 2t-33 5.5t-30.5 9t-29 11.5l11 57q12 -6 25 -10.5t27.5 -7.5t30 -5t30.5 -2q17 0 31 2.5t23.5 8.5t14.5 15.5t5 23.5q0 12 -4.5 21t-14.5 15t-25 9t-36 3h-57v58z" />
    <glyph glyph-name="uni2158" unicode="&#x2158;" horiz-adv-x="843" 
d="M583 680h91l-398 -680h-92zM538 347h243v-61h-169v-102l-42 16q10 4 20 7.5t22 5.5t25.5 3.5t29.5 1.5q21 0 39.5 -3t33.5 -9t27 -15t20 -21t12 -27t4 -33q0 -19 -4.5 -35t-13.5 -29t-22 -23t-30 -16.5t-37.5 -10t-44.5 -3.5q-21 0 -39 2t-34 5.5t-31 8.5t-29 11l12 56
q12 -5 24.5 -9.5t25.5 -7.5t28 -4.5t32 -1.5q14 0 26.5 2t22 6t16.5 10t10.5 15.5t3.5 21.5q0 11 -3.5 19.5t-10 15t-16.5 10.5t-23 6t-30 2q-12 0 -24.5 -0.5t-25.5 -2t-25 -3t-23 -3.5v195zM291 333h-73v328l40 -8l-172 -209l-35 13h289v-55h-308v63l177 215h82v-347z" />
    <glyph glyph-name="uni2159" unicode="&#x2159;" horiz-adv-x="843" 
d="M575 680h91l-398 -680h-92zM778 280q-9 3 -18.5 6t-20.5 5.5t-22 3.5t-23 1q-14 0 -26.5 -2t-23 -6.5t-19.5 -11.5t-16.5 -16.5t-12.5 -21t-7.5 -26.5t-2.5 -32v-11q0 -3 0.5 -6t0.5 -6v-8l-11 13q2 11 7 19.5t12 15t16.5 11.5t20.5 8t24 4.5t26 1.5q17 0 32 -2.5
t28 -7.5t24 -12t20 -16t15 -20.5t9.5 -24.5t3.5 -28q0 -16 -4 -30t-11 -26t-17 -22t-23 -17.5t-28 -12.5t-32 -7.5t-35 -2.5q-19 0 -36.5 2.5t-33 8.5t-29 14.5t-24.5 21t-18.5 28.5t-11.5 36t-4 44v24q0 26 4.5 48.5t13.5 41t21.5 33.5t28.5 26t34 18.5t38 11t42 3.5
t40.5 -2.5t33.5 -6.5t26 -10zM626.5 55.5q7.5 -3.5 16.5 -5.5t19 -2q13 0 24 2.5t19.5 7.5t14 12t8.5 16.5t3 21.5q0 11 -3 20.5t-8.5 16.5t-13.5 12t-18.5 7.5t-23.5 2.5t-24 -2.5t-19.5 -7.5t-14.5 -12t-9 -16t-3 -20q0 -10 2 -18t6.5 -15t10.5 -12t13.5 -8.5zM256 333
h-82v339l34 -43l-135 -59l-12 58l120 52h75v-347z" />
    <glyph glyph-name="uni215A" unicode="&#x215a;" horiz-adv-x="843" 
d="M575 680h91l-398 -680h-92zM778 280q-9 3 -18.5 6t-20.5 5.5t-22 3.5t-23 1q-14 0 -26.5 -2t-23 -6.5t-19.5 -11.5t-16.5 -16.5t-12.5 -21t-7.5 -26.5t-2.5 -32v-11q0 -3 0.5 -6t0.5 -6v-8l-11 13q2 11 7 19.5t12 15t16.5 11.5t20.5 8t24 4.5t26 1.5q17 0 32 -2.5
t28 -7.5t24 -12t20 -16t15 -20.5t9.5 -24.5t3.5 -28q0 -16 -4 -30t-11 -26t-17 -22t-23 -17.5t-28 -12.5t-32 -7.5t-35 -2.5q-19 0 -36.5 2.5t-33 8.5t-29 14.5t-24.5 21t-18.5 28.5t-11.5 36t-4 44v24q0 26 4.5 48.5t13.5 41t21.5 33.5t28.5 26t34 18.5t38 11t42 3.5
t40.5 -2.5t33.5 -6.5t26 -10zM626.5 55.5q7.5 -3.5 16.5 -5.5t19 -2q13 0 24 2.5t19.5 7.5t14 12t8.5 16.5t3 21.5q0 11 -3 20.5t-8.5 16.5t-13.5 12t-18.5 7.5t-23.5 2.5t-24 -2.5t-19.5 -7.5t-14.5 -12t-9 -16t-3 -20q0 -10 2 -18t6.5 -15t10.5 -12t13.5 -8.5zM61 680h243
v-61h-169v-102l-42 16q10 4 20 7.5t22 5.5t25.5 3.5t29.5 1.5q21 0 39.5 -3t33.5 -9t27 -15t20 -21t12 -27t4 -33q0 -19 -4.5 -35t-13.5 -29t-22 -23t-30 -16.5t-37.5 -10t-44.5 -3.5q-21 0 -39 2t-34 5.5t-31 8.5t-29 11l12 56q12 -5 24.5 -9.5t25.5 -7.5t28 -4.5t32 -1.5
q14 0 26.5 2t22 6t16.5 10t10.5 15.5t3.5 21.5q0 11 -3.5 19.5t-10 15t-16.5 10.5t-23 6t-30 2q-12 0 -24.5 -0.5t-25.5 -2t-25 -3t-23 -3.5v195z" />
    <glyph glyph-name="oneeighth" unicode="&#x215b;" horiz-adv-x="843" 
d="M565 680h91l-398 -680h-92zM662 354q21 0 39.5 -3t34 -8t27.5 -13.5t20.5 -18.5t13 -23t4.5 -28q0 -16 -4.5 -30t-14 -25.5t-24 -19t-34.5 -12.5l-1 13q21 -4 37.5 -11.5t27.5 -19t16.5 -26.5t5.5 -34q0 -16 -4.5 -30t-13.5 -25t-22 -20t-30 -15t-37 -9t-44 -3
q-23 0 -42.5 3t-36.5 9t-30 15t-22 20t-13.5 24.5t-4.5 29.5q0 18 5.5 33.5t16 27t27 19.5t38.5 12l-1 -14q-19 5 -33.5 12.5t-24 18.5t-14.5 25t-5 30q0 18 6.5 33t18.5 26.5t29.5 20t39.5 12.5t49 4zM683.5 48.5q10.5 2.5 19 7t14 11t8.5 15.5t3 19t-3 18t-8 14.5
t-13.5 11t-19 7t-24.5 2.5q-13 0 -24 -2.5t-19 -7t-13.5 -11t-8.5 -14.5t-3 -18t3 -19t8.5 -15.5t14 -11t19 -7t23.5 -2.5t23.5 2.5zM680.5 207q9.5 2 17 6t13 10t8 13.5t2.5 16.5t-2.5 16.5t-7.5 13.5t-12.5 10.5t-17 6.5t-21.5 2t-21.5 -2t-17 -6.5t-12.5 -10.5
t-7.5 -13.5t-2.5 -16.5t2.5 -16.5t8 -13.5t13 -10t17 -6t20.5 -2t20.5 2zM256 333h-82v339l34 -43l-135 -59l-12 58l120 52h75v-347z" />
    <glyph glyph-name="threeeighths" unicode="&#x215c;" horiz-adv-x="843" 
d="M575 680h91l-398 -680h-92zM662 354q21 0 39.5 -3t34 -8t27.5 -13.5t20.5 -18.5t13 -23t4.5 -28q0 -16 -4.5 -30t-14 -25.5t-24 -19t-34.5 -12.5l-1 13q21 -4 37.5 -11.5t27.5 -19t16.5 -26.5t5.5 -34q0 -16 -4.5 -30t-13.5 -25t-22 -20t-30 -15t-37 -9t-44 -3
q-23 0 -42.5 3t-36.5 9t-30 15t-22 20t-13.5 24.5t-4.5 29.5q0 18 5.5 33.5t16 27t27 19.5t38.5 12l-1 -14q-19 5 -33.5 12.5t-24 18.5t-14.5 25t-5 30q0 18 6.5 33t18.5 26.5t29.5 20t39.5 12.5t49 4zM683.5 48.5q10.5 2.5 19 7t14 11t8.5 15.5t3 19t-3 18t-8 14.5
t-13.5 11t-19 7t-24.5 2.5q-13 0 -24 -2.5t-19 -7t-13.5 -11t-8.5 -14.5t-3 -18t3 -19t8.5 -15.5t14 -11t19 -7t23.5 -2.5t23.5 2.5zM680.5 207q9.5 2 17 6t13 10t8 13.5t2.5 16.5t-2.5 16.5t-7.5 13.5t-12.5 10.5t-17 6.5t-21.5 2t-21.5 -2t-17 -6.5t-12.5 -10.5
t-7.5 -13.5t-2.5 -16.5t2.5 -16.5t8 -13.5t13 -10t17 -6t20.5 -2t20.5 2zM102 542h57q19 0 33 2.5t22.5 8t13 14t4.5 19.5q0 12 -4 20t-12.5 13t-20.5 7t-27 2t-29 -2t-27.5 -5t-26 -7.5t-23.5 -9.5l-11 57q14 6 28 11t29.5 8t32.5 5t36 2t37 -2t33 -6.5t27.5 -12
t21.5 -17.5t14 -23t5 -30q0 -19 -6.5 -34t-18 -25.5t-27.5 -17.5t-36 -11l-1 12q17 -2 31.5 -6.5t26.5 -12t21 -17.5t13.5 -23.5t4.5 -30.5q0 -16 -4 -29.5t-12 -24.5t-19 -19t-24 -14t-28 -9.5t-32 -5.5t-34 -2q-19 0 -36.5 2t-33 5.5t-30.5 9t-29 11.5l11 57
q12 -6 25 -10.5t27.5 -7.5t30 -5t30.5 -2q17 0 31 2.5t23.5 8.5t14.5 15.5t5 23.5q0 12 -4.5 21t-14.5 15t-25 9t-36 3h-57v58z" />
    <glyph glyph-name="fiveeighths" unicode="&#x215d;" horiz-adv-x="843" 
d="M575 680h91l-398 -680h-92zM662 354q21 0 39.5 -3t34 -8t27.5 -13.5t20.5 -18.5t13 -23t4.5 -28q0 -16 -4.5 -30t-14 -25.5t-24 -19t-34.5 -12.5l-1 13q21 -4 37.5 -11.5t27.5 -19t16.5 -26.5t5.5 -34q0 -16 -4.5 -30t-13.5 -25t-22 -20t-30 -15t-37 -9t-44 -3
q-23 0 -42.5 3t-36.5 9t-30 15t-22 20t-13.5 24.5t-4.5 29.5q0 18 5.5 33.5t16 27t27 19.5t38.5 12l-1 -14q-19 5 -33.5 12.5t-24 18.5t-14.5 25t-5 30q0 18 6.5 33t18.5 26.5t29.5 20t39.5 12.5t49 4zM683.5 48.5q10.5 2.5 19 7t14 11t8.5 15.5t3 19t-3 18t-8 14.5
t-13.5 11t-19 7t-24.5 2.5q-13 0 -24 -2.5t-19 -7t-13.5 -11t-8.5 -14.5t-3 -18t3 -19t8.5 -15.5t14 -11t19 -7t23.5 -2.5t23.5 2.5zM680.5 207q9.5 2 17 6t13 10t8 13.5t2.5 16.5t-2.5 16.5t-7.5 13.5t-12.5 10.5t-17 6.5t-21.5 2t-21.5 -2t-17 -6.5t-12.5 -10.5
t-7.5 -13.5t-2.5 -16.5t2.5 -16.5t8 -13.5t13 -10t17 -6t20.5 -2t20.5 2zM61 680h243v-61h-169v-102l-42 16q10 4 20 7.5t22 5.5t25.5 3.5t29.5 1.5q21 0 39.5 -3t33.5 -9t27 -15t20 -21t12 -27t4 -33q0 -19 -4.5 -35t-13.5 -29t-22 -23t-30 -16.5t-37.5 -10t-44.5 -3.5
q-21 0 -39 2t-34 5.5t-31 8.5t-29 11l12 56q12 -5 24.5 -9.5t25.5 -7.5t28 -4.5t32 -1.5q14 0 26.5 2t22 6t16.5 10t10.5 15.5t3.5 21.5q0 11 -3.5 19.5t-10 15t-16.5 10.5t-23 6t-30 2q-12 0 -24.5 -0.5t-25.5 -2t-25 -3t-23 -3.5v195z" />
    <glyph glyph-name="seveneighths" unicode="&#x215e;" horiz-adv-x="843" 
d="M544 680h91l-398 -680h-92zM662 354q21 0 39.5 -3t34 -8t27.5 -13.5t20.5 -18.5t13 -23t4.5 -28q0 -16 -4.5 -30t-14 -25.5t-24 -19t-34.5 -12.5l-1 13q21 -4 37.5 -11.5t27.5 -19t16.5 -26.5t5.5 -34q0 -16 -4.5 -30t-13.5 -25t-22 -20t-30 -15t-37 -9t-44 -3
q-23 0 -42.5 3t-36.5 9t-30 15t-22 20t-13.5 24.5t-4.5 29.5q0 18 5.5 33.5t16 27t27 19.5t38.5 12l-1 -14q-19 5 -33.5 12.5t-24 18.5t-14.5 25t-5 30q0 18 6.5 33t18.5 26.5t29.5 20t39.5 12.5t49 4zM683.5 48.5q10.5 2.5 19 7t14 11t8.5 15.5t3 19t-3 18t-8 14.5
t-13.5 11t-19 7t-24.5 2.5q-13 0 -24 -2.5t-19 -7t-13.5 -11t-8.5 -14.5t-3 -18t3 -19t8.5 -15.5t14 -11t19 -7t23.5 -2.5t23.5 2.5zM680.5 207q9.5 2 17 6t13 10t8 13.5t2.5 16.5t-2.5 16.5t-7.5 13.5t-12.5 10.5t-17 6.5t-21.5 2t-21.5 -2t-17 -6.5t-12.5 -10.5
t-7.5 -13.5t-2.5 -16.5t2.5 -16.5t8 -13.5t13 -10t17 -6t20.5 -2t20.5 2zM178 333h-90l152 301l38 -19h-234v65h273v-55z" />
    <glyph glyph-name="partialdiff" unicode="&#x2202;" horiz-adv-x="642" 
d="M149 641q18 10 39 18.5t45.5 15t52 10.5t57.5 4q27 0 52 -4t47.5 -12.5t42.5 -21t36.5 -29.5t29.5 -39.5t22 -49.5t13.5 -59t4.5 -70q0 -45 -4.5 -85.5t-13 -76.5t-21 -67t-28.5 -57t-35.5 -47t-42.5 -37t-49 -26.5t-54.5 -16t-59.5 -5.5q-23 0 -45 3t-43 8.5t-39.5 14.5
t-34.5 21t-29 27t-22.5 34t-14.5 41t-5 48q0 32 7 60.5t20 53.5t31 45.5t40 36.5t48 27t54.5 17t58.5 6q21 0 40 -2.5t36 -7t32 -12t27.5 -17.5t22 -23t16.5 -28.5t10.5 -34t3.5 -40.5l-25 19q2 16 4.5 32t4 32t2.5 32t1 31q0 31 -4 56.5t-12 45.5t-18.5 35t-24 26
t-28.5 17.5t-31 9.5t-33 3q-16 0 -33.5 -2t-35 -6t-35 -10t-33.5 -12.5t-31 -14.5zM323 348q-20 0 -38 -4.5t-34 -13t-29.5 -20.5t-24.5 -26.5t-18.5 -31t-11.5 -35t-4 -37.5q0 -16 3 -29.5t9 -25t15 -20.5t19.5 -16t23.5 -11.5t27 -7t30 -2.5q20 0 38 4.5t34.5 13.5
t30 20.5t24.5 26.5t19 31.5t12 35t4 37.5q0 15 -3 28t-9 24.5t-14.5 20.5t-19.5 16t-24 12t-27.5 7.5t-31.5 2.5z" />
    <glyph glyph-name="Delta" unicode="&#x2206;" horiz-adv-x="710" 
d="M297 700h116l274 -700h-664zM558 87l-14 -20l-209 569h37l-209 -572l-19 23h414z" />
    <glyph glyph-name="product" unicode="&#x220f;" horiz-adv-x="717" 
d="M523 700h114v-800h-114v800zM80 700h114v-800h-114v800zM147 700h423v-87h-423v87z" />
    <glyph glyph-name="summation" unicode="&#x2211;" horiz-adv-x="604" 
d="M154 -53l-35 38h428v-85h-497v77l227 353v-56l-209 349v77h466v-85h-396l38 39l208 -348z" />
    <glyph glyph-name="minus" unicode="&#x2212;" horiz-adv-x="613" 
d="M102 328h409v-90h-409v90z" />
    <glyph glyph-name="uni2215" unicode="&#x2215;" horiz-adv-x="111" 
d="M209 680h91l-398 -680h-92z" />
    <glyph glyph-name="uni2219" unicode="&#x2219;" horiz-adv-x="223" 
d="M168 218h-113v133h113v-133z" />
    <glyph glyph-name="radical" unicode="&#x221a;" horiz-adv-x="625" 
d="M360 0h-115l-135 372l66 -52h-131v88h161l111 -345h-27l235 717h103z" />
    <glyph glyph-name="infinity" unicode="&#x221e;" horiz-adv-x="613" 
d="M177 117q-24 0 -44.5 7.5t-36.5 21.5t-27 34t-16.5 46.5t-5.5 57.5q0 32 5.5 58t17 46t27 34t36 21.5t45.5 7.5t45 -7t35.5 -19.5t28 -29t22.5 -35.5t19 -38.5t17 -38.5t17 -35.5t18.5 -29t22 -19.5t27.5 -7q14 0 24.5 6t18.5 18t12 29t4 39t-4 39t-12 29t-18.5 18
t-24.5 6q-15 0 -27 -7t-22 -19.5t-19 -29t-17 -35.5t-17 -38.5t-19.5 -38.5t-23 -35.5t-28 -29t-35.5 -19.5t-45 -7zM183 192q15 0 27 7t22 19.5t19 29t17 35.5t17 38.5t19.5 38.5t23 35.5t28 29t35.5 19.5t45 7q24 0 44.5 -7.5t36.5 -21.5t27 -34t16.5 -46t5.5 -58
q0 -31 -5.5 -57.5t-17 -46.5t-27 -34t-36 -21.5t-45.5 -7.5t-45 7t-35.5 19.5t-28 29t-22.5 35.5t-19 38.5t-17 38.5t-17 35.5t-18.5 29t-22 19.5t-27.5 7q-13 0 -24 -6t-19 -18t-12 -29t-4 -39t4 -39t12 -29t19 -18t24 -6z" />
    <glyph glyph-name="integral" unicode="&#x222b;" horiz-adv-x="410" 
d="M151 563q0 32 6.5 59.5t19 49.5t32 37.5t45.5 23.5t59 8q19 0 35 -3t30 -7.5t26 -10.5l-16 -76q-8 4 -18 7.5t-20.5 5.5t-21.5 2q-16 0 -29 -5t-22 -17t-13.5 -30.5t-4.5 -45.5v-583q0 -32 -6.5 -60t-19 -50t-32 -37.5t-45.5 -23.5t-59 -8q-19 0 -35 3t-29.5 8t-25.5 10
l15 77q9 -4 18.5 -8t20.5 -6t21 -2q17 0 29.5 5.5t21.5 17t13.5 30.5t4.5 46v583z" />
    <glyph glyph-name="approxequal" unicode="&#x2248;" horiz-adv-x="613" 
d="M126 213.5q16 19.5 38 29.5t49 10q17 0 32.5 -4t29 -10.5t26 -14t24 -15t22.5 -14t21.5 -10.5t21.5 -4q12 0 20.5 4.5t14 13t8 21t2.5 28.5h85q0 -39 -8.5 -68.5t-24.5 -49t-38 -29.5t-49 -10q-17 0 -32.5 4t-29 10.5t-26 14t-24 15t-22.5 14t-21.5 10.5t-21.5 4
q-12 0 -20.5 -4.5t-14 -13.5t-8 -21.5t-2.5 -27.5h-85q0 39 8.5 68.5t24.5 49zM126 430.5q16 19.5 38 29.5t49 10q17 0 32.5 -4t29 -10.5t26 -14t24 -15t22.5 -14t21.5 -10.5t21.5 -4q12 0 20.5 4.5t14 13t8 21t2.5 28.5h85q0 -39 -8.5 -68.5t-24.5 -49t-38 -29.5t-49 -10
q-17 0 -32.5 4t-29 10.5t-26 14t-24 15t-22.5 14t-21.5 10.5t-21.5 4q-12 0 -20.5 -4.5t-14 -13.5t-8 -21.5t-2.5 -27.5h-85q0 39 8.5 68.5t24.5 49z" />
    <glyph glyph-name="notequal" unicode="&#x2260;" horiz-adv-x="613" 
d="M218 18h-84l261 527h84zM511 215v-85h-409v85h409zM511 433v-85h-409v85h409z" />
    <glyph glyph-name="lessequal" unicode="&#x2264;" horiz-adv-x="613" 
d="M109 0v85h371v-85h-371zM175 321v33l305 -110v-96l-371 146v85l371 146v-94z" />
    <glyph glyph-name="greaterequal" unicode="&#x2265;" horiz-adv-x="613" 
d="M133 0v85h370v-85h-370zM133 431v94l370 -146v-85l-370 -146v96l305 110v-33z" />
    <glyph glyph-name="lozenge" unicode="&#x25ca;" horiz-adv-x="628" 
d="M23 340l232 340h118l231 -340l-231 -340h-118zM494 353l-1 -29l-192 291h23l-190 -288l1 29l192 -291h-23z" />
    <glyph glyph-name="uniFEFF" unicode="&#xfeff;" horiz-adv-x="0" 
 />
    <glyph glyph-name="zero.pnum" horiz-adv-x="651" 
d="M323 -14q-39 0 -71.5 6.5t-60 19.5t-49 32.5t-37.5 45.5t-26.5 59.5t-16 73.5t-5.5 87v59q0 47 5.5 87t17 73t28 59.5t38.5 46.5t50 33t61 19.5t71 6.5q39 0 71.5 -6.5t60 -19.5t49 -32.5t37.5 -45.5t26.5 -59.5t16 -73.5t5.5 -87v-59q0 -47 -5.5 -87t-17 -73t-28 -59.5
t-38.5 -46.5t-50 -33t-61 -19.5t-71 -6.5zM326 73q23 0 41.5 4.5t34.5 13.5t28 23t21 33t15 43.5t9 54.5t3 66v58q0 36 -3 66.5t-9 55t-15 43.5t-21.5 33t-28 22.5t-34.5 13t-42 4.5q-22 0 -41 -4.5t-35 -13.5t-28 -23t-21 -33t-15 -43.5t-9 -54.5t-3 -66v-58q0 -36 3 -66.5
t9 -55t15 -43.5t21.5 -33t28 -22.5t35 -13t41.5 -4.5z" />
    <glyph glyph-name="one.pnum" horiz-adv-x="451" 
d="M363 0h-111v665l48 -56l-239 -102l-16 84l215 89h103v-680z" />
    <glyph glyph-name="two.pnum" horiz-adv-x="556" 
d="M69 639q16 8 34.5 15.5t38.5 14t42 11t45 7t47 2.5q31 0 58 -3.5t50.5 -10.5t43 -18t34.5 -26t25.5 -34t16 -43t5.5 -52q0 -25 -5 -46t-14 -39.5t-22 -34t-29 -30t-34.5 -27t-38.5 -24.5t-42 -24q-25 -13 -47 -27t-40.5 -28.5t-33 -30.5t-24.5 -34.5t-15.5 -39
t-5.5 -44.5v-26l-20 41h369v-88h-454v59q0 30 5 56.5t14.5 49.5t22 43t28 37t32.5 32t35 27.5t36 23.5t36 21q29 16 51 29t38.5 26t27 26.5t15.5 30t5 36.5q0 28 -7.5 48t-23.5 33t-41 19t-60 6q-19 0 -37.5 -2t-37.5 -6t-37 -9.5t-35.5 -13t-34.5 -15.5z" />
    <glyph glyph-name="three.pnum" horiz-adv-x="550" 
d="M135 395h102q28 0 51 4t40.5 12.5t28.5 21.5t17 30t6 38q0 19 -4 34t-11.5 26.5t-19 19t-26 12.5t-32 7.5t-37.5 2.5q-34 0 -66 -5.5t-61 -16t-56 -24.5l-16 83q31 16 64 26.5t69 16.5t76 6q29 0 55.5 -3t49.5 -10t43 -17t35.5 -24t26.5 -32.5t16.5 -40.5t5.5 -49
q0 -25 -5 -46t-14.5 -38t-22.5 -31t-30 -24.5t-37.5 -18t-43.5 -12.5l-1 23q20 -3 38.5 -8t35 -13t30.5 -18.5t25.5 -24t19.5 -30.5t12.5 -37t4.5 -43q0 -30 -6.5 -55t-18.5 -45.5t-29 -37t-38.5 -28.5t-47.5 -19.5t-55.5 -11.5t-62.5 -4q-30 0 -58.5 3.5t-54.5 10t-50.5 16
t-46.5 20.5l16 83q21 -10 43.5 -19t47 -15t49.5 -9.5t50 -3.5q23 0 42.5 3t36 9t29.5 15t22 22.5t14 31t5 39.5q0 19 -4 35t-12.5 28.5t-21.5 22t-30 16t-38.5 9.5t-47.5 3h-102v84z" />
    <glyph glyph-name="four.pnum" horiz-adv-x="581" 
d="M462 0h-104v643l58 -13l-318 -436l-40 37h497v-79h-528v77l329 451h106v-680z" />
    <glyph glyph-name="five.pnum" horiz-adv-x="609" 
d="M101 680h401v-88h-298v-225l-56 27q16 8 34 13.5t38 10t42 6.5t46 2q32 0 60 -4.5t52 -13.5t43.5 -22t34.5 -30.5t25.5 -39t15.5 -47t5 -55.5q0 -29 -5.5 -55.5t-16.5 -49t-27 -41t-37 -33t-47.5 -24.5t-58 -15t-67.5 -5q-41 0 -79 6t-72 17.5t-65 26.5l17 83
q17 -9 34 -16t35.5 -13t37.5 -10t40 -6t43 -2q20 0 37.5 2.5t33 7.5t28.5 13t23.5 18.5t17.5 24.5t10.5 31t3.5 37t-3 36.5t-9.5 30t-16 24t-22.5 18.5t-28.5 13.5t-34.5 8t-41 2.5t-45 -1.5t-45 -5t-43.5 -7.5t-40.5 -9v359z" />
    <glyph glyph-name="six.pnum" horiz-adv-x="613" 
d="M509 573q-15 7 -32 12.5t-35.5 9.5t-37 6t-36.5 2q-21 0 -40.5 -4t-38 -12.5t-34.5 -20.5t-30 -28.5t-25 -37t-19 -45t-12 -53t-4 -61.5v-22v-12.5t0.5 -14.5t0.5 -14l-15 11q2 23 9 42t17.5 34t23.5 26t29 18.5t34 12.5t37 7t38 2q25 0 48 -3.5t43.5 -11t38.5 -18
t33 -24t26.5 -31t20 -37.5t12.5 -43.5t4 -49.5q0 -27 -4.5 -51t-13 -45t-21 -39t-29 -32.5t-36 -25.5t-42 -18.5t-48.5 -11.5t-54 -4q-23 0 -45.5 3t-43.5 8.5t-40 15t-36.5 23t-32 31t-26 39.5t-19.5 48.5t-12.5 58.5t-4.5 70v50q0 39 5 74t14.5 65.5t23 57t30.5 48.5
t37.5 40t43 31t47.5 22t51.5 13.5t54.5 4.5q24 0 46.5 -2.5t43 -7.5t38.5 -11t33 -13zM206.5 114.5q9.5 -11.5 21.5 -20t25.5 -14.5t29 -9t32.5 -3q18 0 33.5 2.5t29.5 8t25.5 14t21 20t15.5 26t9.5 31.5t3.5 38q0 20 -3 37t-9 31.5t-15 26t-20.5 20t-25.5 14.5t-30.5 9
t-34.5 3t-33.5 -2.5t-29.5 -8t-25.5 -14t-21 -19.5t-15.5 -25.5t-9.5 -32.5t-3.5 -39q0 -20 3.5 -36.5t10 -31t16 -26z" />
    <glyph glyph-name="seven.pnum" horiz-adv-x="532" 
d="M235 0h-121l267 624l49 -33h-403v89h456v-73z" />
    <glyph glyph-name="eight.pnum" horiz-adv-x="598" 
d="M361 689.5q28 -4.5 52 -12.5t43.5 -20t34.5 -27t25.5 -33.5t15.5 -39.5t5 -45q0 -20 -3.5 -38.5t-10.5 -35.5t-18 -32t-26 -27.5t-34.5 -21.5t-44.5 -14l-1 20q27 -5 48.5 -13.5t38.5 -21t29.5 -28t21 -34t12.5 -39.5t4 -45t-5.5 -46.5t-16.5 -42t-27 -36.5t-37 -30
t-47 -22t-56.5 -14t-65.5 -5q-34 0 -64 4.5t-55.5 13.5t-46.5 22t-37 29t-27 35.5t-16.5 42t-5.5 47.5q0 23 4 43.5t12 39.5t20.5 35t29.5 29t38.5 22t48.5 14v-20q-24 5 -44 13.5t-35 20t-26.5 26.5t-18.5 32t-10.5 36t-3.5 40q0 23 5.5 44t15.5 39t25 33.5t35 28t44.5 21
t53 13t61.5 4.5q32 0 60 -4.5zM265 70.5q16 -2.5 34 -2.5t34.5 2.5t30.5 7t26 11.5t21.5 17t15.5 22.5t9.5 28t3.5 33.5q0 17 -3 32t-9 27.5t-15 22.5t-21 17.5t-26 12.5t-31 7.5t-36 2.5t-35.5 -2.5t-30.5 -7.5t-26 -12.5t-21 -17.5t-15 -22.5t-9 -27.5t-3 -32
q0 -18 3.5 -33.5t9.5 -28t15.5 -22.5t21 -17t26 -11.5t30.5 -7zM393 584.5q-11 9.5 -25 15.5t-31.5 9t-37.5 3t-37 -3t-31 -9t-24.5 -15.5t-18 -21.5t-11.5 -27t-4 -33q0 -19 4 -34.5t11.5 -27.5t19 -21t25.5 -14.5t30.5 -8.5t35.5 -3t36 3t31 8.5t25 14.5t19 21t12 27.5
t4 34.5q0 18 -4 33t-11 27t-18 21.5z" />
    <glyph glyph-name="nine.pnum" horiz-adv-x="609" 
d="M87 108q14 -6 29 -11t31 -8.5t32.5 -6t33 -4t33.5 -1.5q22 0 42 3t38.5 9.5t34 16.5t29 24.5t23.5 33t17.5 42t11 51.5t3.5 62v26v16.5v16t-0.5 14t-0.5 10.5l14 -11q-2 -23 -9 -41t-17 -32.5t-23.5 -25.5t-29 -18.5t-33 -12t-36.5 -6.5t-38 -2q-25 0 -47.5 3.5
t-42.5 10.5t-38 17.5t-32.5 24.5t-26.5 31t-20 37t-12 42.5t-4 48.5q0 27 4.5 51t13 45t21 39t28.5 32t35.5 25t42 18.5t48 11.5t53.5 4q23 0 45.5 -3t43.5 -9t40 -15.5t36 -23.5t31.5 -32.5t26 -41.5t19.5 -51.5t12 -63t4 -74.5v-50q0 -41 -4.5 -76t-13.5 -65t-22 -55
t-29.5 -45.5t-36 -36.5t-42 -27.5t-47.5 -19t-51.5 -11t-55.5 -3.5q-27 0 -52.5 2.5t-48.5 7.5t-43 11t-37 13zM403.5 565.5q-9.5 11.5 -21 20t-25 14.5t-28.5 9t-32 3t-33 -2.5t-29.5 -8t-25 -14t-20.5 -19.5t-15 -25t-9.5 -31.5t-3.5 -37.5t3 -36.5t9 -31t14.5 -25.5
t20 -20t25.5 -14.5t30 -8.5t34 -3q17 0 32.5 2.5t29 8t25 13.5t20.5 19t15 25.5t9.5 32t3.5 38.5q0 19 -3.5 35.5t-9.5 30.5t-15.5 25.5z" />
    <glyph glyph-name="zero.dnom" 
d="M181 -7q-21 0 -39 3.5t-33.5 11t-28 18t-22 24.5t-16 30.5t-9.5 36.5t-3 43v26q0 23 3.5 43t10 37t16.5 31t22.5 24.5t28 18t34 11t39.5 3.5t39.5 -3.5t34 -11t28 -18t22 -24.5t16 -30.5t9.5 -36.5t3 -43v-26q0 -23 -3.5 -43t-10 -37t-16.5 -31t-22.5 -24.5t-28.5 -18
t-34.5 -11t-39.5 -3.5zM251 227q-3 18 -9 30.5t-14.5 20.5t-19.5 12t-25 4t-25 -4t-19.5 -12t-14.5 -20.5t-9 -30.5t-3 -41v-25q0 -23 3 -40.5t9 -30t14.5 -20.5t19.5 -12t25 -4t25 4t19.5 12t14.5 20.5t9 30t3 40.5v25q0 23 -3 41z" />
    <glyph glyph-name="one.dnom" 
d="M256 0h-82v339l34 -43l-135 -59l-12 58l120 52h75v-347z" />
    <glyph glyph-name="two.dnom" 
d="M57 326q16 8 35.5 14.5t43 10t50.5 3.5q18 0 35 -2t32 -7t27.5 -12.5t21 -18.5t13.5 -26t5 -34q0 -18 -5 -32.5t-14.5 -26.5t-23 -21.5t-30 -18t-35.5 -16.5q-22 -9 -38.5 -17.5t-27.5 -17.5t-16.5 -19.5t-5.5 -24.5v-19l-21 20h216v-61h-272v40q0 22 5 39.5t13.5 31.5
t20 25t24.5 20t27 16t28 13q17 7 29 13t20.5 11.5t14 11.5t8 13.5t2.5 16.5q0 15 -6.5 24.5t-20.5 14t-37 4.5q-19 0 -38 -3.5t-36.5 -9t-32.5 -13.5z" />
    <glyph glyph-name="three.dnom" 
d="M102 209h57q19 0 33 2.5t22.5 8t13 14t4.5 19.5q0 12 -4 20t-12.5 13t-20.5 7t-27 2t-29 -2t-27.5 -5t-26 -7.5t-23.5 -9.5l-11 57q14 6 28 11t29.5 8t32.5 5t36 2t37 -2t33 -6.5t27.5 -12t21.5 -17.5t14 -23t5 -30q0 -19 -6.5 -34t-18 -25.5t-27.5 -17.5t-36 -11l-1 12
q17 -2 31.5 -6.5t26.5 -12t21 -17.5t13.5 -23.5t4.5 -30.5q0 -16 -4 -29.5t-12 -24.5t-19 -19t-24 -14t-28 -9.5t-32 -5.5t-34 -2q-19 0 -36.5 2t-33 5.5t-30.5 9t-29 11.5l11 57q12 -6 25 -10.5t27.5 -7.5t30 -5t30.5 -2q17 0 31 2.5t23.5 8.5t14.5 15.5t5 23.5
q0 12 -4.5 21t-14.5 15t-25 9t-36 3h-57v58z" />
    <glyph glyph-name="four.dnom" 
d="M291 0h-73v328l40 -8l-172 -209l-35 13h289v-55h-308v63l177 215h82v-347z" />
    <glyph glyph-name="five.dnom" 
d="M61 347h243v-61h-169v-102l-42 16q10 4 20 7.5t22 5.5t25.5 3.5t29.5 1.5q21 0 39.5 -3t33.5 -9t27 -15t20 -21t12 -27t4 -33q0 -19 -4.5 -35t-13.5 -29t-22 -23t-30 -16.5t-37.5 -10t-44.5 -3.5q-21 0 -39 2t-34 5.5t-31 8.5t-29 11l12 56q12 -5 24.5 -9.5t25.5 -7.5
t28 -4.5t32 -1.5q14 0 26.5 2t22 6t16.5 10t10.5 15.5t3.5 21.5q0 11 -3.5 19.5t-10 15t-16.5 10.5t-23 6t-30 2q-12 0 -24.5 -0.5t-25.5 -2t-25 -3t-23 -3.5v195z" />
    <glyph glyph-name="six.dnom" 
d="M301 280q-9 3 -18.5 6t-20.5 5.5t-22 3.5t-23 1q-14 0 -26.5 -2t-23 -6.5t-19.5 -11.5t-16.5 -16.5t-12.5 -21t-7.5 -26.5t-2.5 -32v-11q0 -3 0.5 -6t0.5 -6v-8l-11 13q2 11 7 19.5t12 15t16.5 11.5t20.5 8t24 4.5t26 1.5q17 0 32 -2.5t28 -7.5t24 -12t20 -16t15 -20.5
t9.5 -24.5t3.5 -28q0 -16 -4 -30t-11 -26t-17 -22t-23 -17.5t-28 -12.5t-32 -7.5t-35 -2.5q-19 0 -36.5 2.5t-33 8.5t-29 14.5t-24.5 21t-18.5 28.5t-11.5 36t-4 44v24q0 26 4.5 48.5t13.5 41t21.5 33.5t28.5 26t34 18.5t38 11t42 3.5t40.5 -2.5t33.5 -6.5t26 -10z
M149.5 55.5q7.5 -3.5 16.5 -5.5t19 -2q13 0 24 2.5t19.5 7.5t14 12t8.5 16.5t3 21.5q0 11 -3 20.5t-8.5 16.5t-13.5 12t-18.5 7.5t-23.5 2.5t-24 -2.5t-19.5 -7.5t-14.5 -12t-9 -16t-3 -20q0 -10 2 -18t6.5 -15t10.5 -12t13.5 -8.5z" />
    <glyph glyph-name="seven.dnom" 
d="M178 0h-90l152 301l38 -19h-234v65h273v-55z" />
    <glyph glyph-name="eight.dnom" 
d="M185 354q21 0 39.5 -3t34 -8t27.5 -13.5t20.5 -18.5t13 -23t4.5 -28q0 -16 -4.5 -30t-14 -25.5t-24 -19t-34.5 -12.5l-1 13q21 -4 37.5 -11.5t27.5 -19t16.5 -26.5t5.5 -34q0 -16 -4.5 -30t-13.5 -25t-22 -20t-30 -15t-37 -9t-44 -3q-23 0 -42.5 3t-36.5 9t-30 15t-22 20
t-13.5 24.5t-4.5 29.5q0 18 5.5 33.5t16 27t27 19.5t38.5 12l-1 -14q-19 5 -33.5 12.5t-24 18.5t-14.5 25t-5 30q0 18 6.5 33t18.5 26.5t29.5 20t39.5 12.5t49 4zM206.5 48.5q10.5 2.5 19 7t14 11t8.5 15.5t3 19t-3 18t-8 14.5t-13.5 11t-19 7t-24.5 2.5q-13 0 -24 -2.5
t-19 -7t-13.5 -11t-8.5 -14.5t-3 -18t3 -19t8.5 -15.5t14 -11t19 -7t23.5 -2.5t23.5 2.5zM203.5 207q9.5 2 17 6t13 10t8 13.5t2.5 16.5t-2.5 16.5t-7.5 13.5t-12.5 10.5t-17 6.5t-21.5 2t-21.5 -2t-17 -6.5t-12.5 -10.5t-7.5 -13.5t-2.5 -16.5t2.5 -16.5t8 -13.5t13 -10
t17 -6t20.5 -2t20.5 2z" />
    <glyph glyph-name="nine.dnom" 
d="M56 68q9 -4 19 -7t21.5 -5.5t24 -3.5t24.5 -1q14 0 27 2t24 7t20.5 11.5t17 16t13 21.5t8 26.5t2.5 31.5v12v6t-0.5 6.5t-0.5 7.5l11 -13q-2 -11 -7 -19.5t-12 -15t-16.5 -11.5t-20.5 -8t-23.5 -4.5t-26.5 -1.5q-16 0 -31.5 2.5t-28.5 7t-24 11.5t-20 16t-15 20.5
t-9.5 24.5t-3.5 28q0 16 4 30t11 26t17 22t23 17.5t28 12.5t32 7.5t35 2.5q19 0 36.5 -2.5t33 -8t29 -14.5t24.5 -21t18.5 -28t11.5 -36.5t4 -44.5v-24q0 -26 -5 -48.5t-14 -41t-22 -33.5t-29 -26t-34.5 -18.5t-39.5 -11t-43 -3.5q-17 0 -32.5 1.5t-28.5 4t-23.5 6
t-19.5 7.5zM200 297.5q-9 1.5 -19 1.5q-13 0 -24 -2.5t-19.5 -7t-14 -12t-8.5 -17t-3 -21.5q0 -11 3 -20t8.5 -16t13.5 -12t18.5 -7.5t23.5 -2.5t24 2.5t19.5 7.5t14.5 12t9 16t3 20q0 10 -2 18t-6.5 15t-10.5 12t-13.5 8.5t-16.5 5z" />
    <glyph glyph-name="zero.numr" 
d="M181 326q-21 0 -39 3.5t-33.5 11t-28 18t-22 24.5t-16 30.5t-9.5 36.5t-3 43v26q0 23 3.5 43t10 37t16.5 31t22.5 24.5t28 18t34 11t39.5 3.5t39.5 -3.5t34 -11t28 -18t22 -24.5t16 -30.5t9.5 -36.5t3 -43v-26q0 -23 -3.5 -43t-10 -37t-16.5 -31t-22.5 -24.5t-28.5 -18
t-34.5 -11t-39.5 -3.5zM251 560q-3 18 -9 30.5t-14.5 20.5t-19.5 12t-25 4t-25 -4t-19.5 -12t-14.5 -20.5t-9 -30.5t-3 -41v-25q0 -23 3 -40.5t9 -30t14.5 -20.5t19.5 -12t25 -4t25 4t19.5 12t14.5 20.5t9 30t3 40.5v25q0 23 -3 41z" />
    <glyph glyph-name="one.numr" 
d="M256 333h-82v339l34 -43l-135 -59l-12 58l120 52h75v-347z" />
    <glyph glyph-name="two.numr" 
d="M57 659q16 8 35.5 14.5t43 10t50.5 3.5q18 0 35 -2t32 -7t27.5 -12.5t21 -18.5t13.5 -26t5 -34q0 -18 -5 -32.5t-14.5 -26.5t-23 -21.5t-30 -18t-35.5 -16.5q-22 -9 -38.5 -17.5t-27.5 -17.5t-16.5 -19.5t-5.5 -24.5v-19l-21 20h216v-61h-272v40q0 22 5 39.5t13.5 31.5
t20 25t24.5 20t27 16t28 13q17 7 29 13t20.5 11.5t14 11.5t8 13.5t2.5 16.5q0 15 -6.5 24.5t-20.5 14t-37 4.5q-19 0 -38 -3.5t-36.5 -9t-32.5 -13.5z" />
    <glyph glyph-name="three.numr" 
d="M102 542h57q19 0 33 2.5t22.5 8t13 14t4.5 19.5q0 12 -4 20t-12.5 13t-20.5 7t-27 2t-29 -2t-27.5 -5t-26 -7.5t-23.5 -9.5l-11 57q14 6 28 11t29.5 8t32.5 5t36 2t37 -2t33 -6.5t27.5 -12t21.5 -17.5t14 -23t5 -30q0 -19 -6.5 -34t-18 -25.5t-27.5 -17.5t-36 -11l-1 12
q17 -2 31.5 -6.5t26.5 -12t21 -17.5t13.5 -23.5t4.5 -30.5q0 -16 -4 -29.5t-12 -24.5t-19 -19t-24 -14t-28 -9.5t-32 -5.5t-34 -2q-19 0 -36.5 2t-33 5.5t-30.5 9t-29 11.5l11 57q12 -6 25 -10.5t27.5 -7.5t30 -5t30.5 -2q17 0 31 2.5t23.5 8.5t14.5 15.5t5 23.5
q0 12 -4.5 21t-14.5 15t-25 9t-36 3h-57v58z" />
    <glyph glyph-name="four.numr" 
d="M291 333h-73v328l40 -8l-172 -209l-35 13h289v-55h-308v63l177 215h82v-347z" />
    <glyph glyph-name="five.numr" 
d="M61 680h243v-61h-169v-102l-42 16q10 4 20 7.5t22 5.5t25.5 3.5t29.5 1.5q21 0 39.5 -3t33.5 -9t27 -15t20 -21t12 -27t4 -33q0 -19 -4.5 -35t-13.5 -29t-22 -23t-30 -16.5t-37.5 -10t-44.5 -3.5q-21 0 -39 2t-34 5.5t-31 8.5t-29 11l12 56q12 -5 24.5 -9.5t25.5 -7.5
t28 -4.5t32 -1.5q14 0 26.5 2t22 6t16.5 10t10.5 15.5t3.5 21.5q0 11 -3.5 19.5t-10 15t-16.5 10.5t-23 6t-30 2q-12 0 -24.5 -0.5t-25.5 -2t-25 -3t-23 -3.5v195z" />
    <glyph glyph-name="six.numr" 
d="M301 613q-9 3 -18.5 6t-20.5 5.5t-22 3.5t-23 1q-14 0 -26.5 -2t-23 -6.5t-19.5 -11.5t-16.5 -16.5t-12.5 -21t-7.5 -26.5t-2.5 -32v-11q0 -3 0.5 -6t0.5 -6v-8l-11 13q2 11 7 19.5t12 15t16.5 11.5t20.5 8t24 4.5t26 1.5q17 0 32 -2.5t28 -7.5t24 -12t20 -16t15 -20.5
t9.5 -24.5t3.5 -28q0 -16 -4 -30t-11 -26t-17 -22t-23 -17.5t-28 -12.5t-32 -7.5t-35 -2.5q-19 0 -36.5 2.5t-33 8.5t-29 14.5t-24.5 21t-18.5 28.5t-11.5 36t-4 44v24q0 26 4.5 48.5t13.5 41t21.5 33.5t28.5 26t34 18.5t38 11t42 3.5t40.5 -2.5t33.5 -6.5t26 -10z
M149.5 388.5q7.5 -3.5 16.5 -5.5t19 -2q13 0 24 2.5t19.5 7.5t14 12t8.5 16.5t3 21.5q0 11 -3 20.5t-8.5 16.5t-13.5 12t-18.5 7.5t-23.5 2.5t-24 -2.5t-19.5 -7.5t-14.5 -12t-9 -16t-3 -20q0 -10 2 -18t6.5 -15t10.5 -12t13.5 -8.5z" />
    <glyph glyph-name="seven.numr" 
d="M178 333h-90l152 301l38 -19h-234v65h273v-55z" />
    <glyph glyph-name="eight.numr" 
d="M185 687q21 0 39.5 -3t34 -8t27.5 -13.5t20.5 -18.5t13 -23t4.5 -28q0 -16 -4.5 -30t-14 -25.5t-24 -19t-34.5 -12.5l-1 13q21 -4 37.5 -11.5t27.5 -19t16.5 -26.5t5.5 -34q0 -16 -4.5 -30t-13.5 -25t-22 -20t-30 -15t-37 -9t-44 -3q-23 0 -42.5 3t-36.5 9t-30 15t-22 20
t-13.5 24.5t-4.5 29.5q0 18 5.5 33.5t16 27t27 19.5t38.5 12l-1 -14q-19 5 -33.5 12.5t-24 18.5t-14.5 25t-5 30q0 18 6.5 33t18.5 26.5t29.5 20t39.5 12.5t49 4zM206.5 381.5q10.5 2.5 19 7t14 11t8.5 15.5t3 19t-3 18t-8 14.5t-13.5 11t-19 7t-24.5 2.5q-13 0 -24 -2.5
t-19 -7t-13.5 -11t-8.5 -14.5t-3 -18t3 -19t8.5 -15.5t14 -11t19 -7t23.5 -2.5t23.5 2.5zM203.5 540q9.5 2 17 6t13 10t8 13.5t2.5 16.5t-2.5 16.5t-7.5 13.5t-12.5 10.5t-17 6.5t-21.5 2t-21.5 -2t-17 -6.5t-12.5 -10.5t-7.5 -13.5t-2.5 -16.5t2.5 -16.5t8 -13.5t13 -10
t17 -6t20.5 -2t20.5 2z" />
    <glyph glyph-name="nine.numr" 
d="M56 401q9 -4 19 -7t21.5 -5.5t24 -3.5t24.5 -1q14 0 27 2t24 7t20.5 11.5t17 16t13 21.5t8 26.5t2.5 31.5v12v6t-0.5 6.5t-0.5 7.5l11 -13q-2 -11 -7 -19.5t-12 -15t-16.5 -11.5t-20.5 -8t-23.5 -4.5t-26.5 -1.5q-16 0 -31.5 2.5t-28.5 7t-24 11.5t-20 16t-15 20.5
t-9.5 24.5t-3.5 28q0 16 4 30t11 26t17 22t23 17.5t28 12.5t32 7.5t35 2.5q19 0 36.5 -2.5t33 -8t29 -14.5t24.5 -21t18.5 -28t11.5 -36.5t4 -44.5v-24q0 -26 -5 -48.5t-14 -41t-22 -33.5t-29 -26t-34.5 -18.5t-39.5 -11t-43 -3.5q-17 0 -32.5 1.5t-28.5 4t-23.5 6
t-19.5 7.5zM200 630.5q-9 1.5 -19 1.5q-13 0 -24 -2.5t-19.5 -7t-14 -12t-8.5 -17t-3 -21.5q0 -11 3 -20t8.5 -16t13.5 -12t18.5 -7.5t23.5 -2.5t24 2.5t19.5 7.5t14.5 12t9 16t3 20q0 10 -2 18t-6.5 15t-10.5 12t-13.5 8.5t-16.5 5z" />
    <glyph glyph-name="twosevenths" horiz-adv-x="843" 
d="M575 680h91l-398 -680h-92zM655 0h-90l152 301l38 -19h-234v65h273v-55zM57 659q16 8 35.5 14.5t43 10t50.5 3.5q18 0 35 -2t32 -7t27.5 -12.5t21 -18.5t13.5 -26t5 -34q0 -18 -5 -32.5t-14.5 -26.5t-23 -21.5t-30 -18t-35.5 -16.5q-22 -9 -38.5 -17.5t-27.5 -17.5
t-16.5 -19.5t-5.5 -24.5v-19l-21 20h216v-61h-272v40q0 22 5 39.5t13.5 31.5t20 25t24.5 20t27 16t28 13q17 7 29 13t20.5 11.5t14 11.5t8 13.5t2.5 16.5q0 15 -6.5 24.5t-20.5 14t-37 4.5q-19 0 -38 -3.5t-36.5 -9t-32.5 -13.5z" />
    <glyph glyph-name="threesevenths" horiz-adv-x="843" 
d="M559 680h91l-398 -680h-92zM655 0h-90l152 301l38 -19h-234v65h273v-55zM102 542h57q19 0 33 2.5t22.5 8t13 14t4.5 19.5q0 12 -4 20t-12.5 13t-20.5 7t-27 2t-29 -2t-27.5 -5t-26 -7.5t-23.5 -9.5l-11 57q14 6 28 11t29.5 8t32.5 5t36 2t37 -2t33 -6.5t27.5 -12
t21.5 -17.5t14 -23t5 -30q0 -19 -6.5 -34t-18 -25.5t-27.5 -17.5t-36 -11l-1 12q17 -2 31.5 -6.5t26.5 -12t21 -17.5t13.5 -23.5t4.5 -30.5q0 -16 -4 -29.5t-12 -24.5t-19 -19t-24 -14t-28 -9.5t-32 -5.5t-34 -2q-19 0 -36.5 2t-33 5.5t-30.5 9t-29 11.5l11 57
q12 -6 25 -10.5t27.5 -7.5t30 -5t30.5 -2q17 0 31 2.5t23.5 8.5t14.5 15.5t5 23.5q0 12 -4.5 21t-14.5 15t-25 9t-36 3h-57v58z" />
    <glyph glyph-name="foursevenths" horiz-adv-x="843" 
d="M575 680h91l-398 -680h-92zM655 0h-90l152 301l38 -19h-234v65h273v-55zM291 333h-73v328l40 -8l-172 -209l-35 13h289v-55h-308v63l177 215h82v-347z" />
    <glyph glyph-name="fivesevenths" horiz-adv-x="843" 
d="M559 680h91l-398 -680h-92zM655 0h-90l152 301l38 -19h-234v65h273v-55zM61 680h243v-61h-169v-102l-42 16q10 4 20 7.5t22 5.5t25.5 3.5t29.5 1.5q21 0 39.5 -3t33.5 -9t27 -15t20 -21t12 -27t4 -33q0 -19 -4.5 -35t-13.5 -29t-22 -23t-30 -16.5t-37.5 -10t-44.5 -3.5
q-21 0 -39 2t-34 5.5t-31 8.5t-29 11l12 56q12 -5 24.5 -9.5t25.5 -7.5t28 -4.5t32 -1.5q14 0 26.5 2t22 6t16.5 10t10.5 15.5t3.5 21.5q0 11 -3.5 19.5t-10 15t-16.5 10.5t-23 6t-30 2q-12 0 -24.5 -0.5t-25.5 -2t-25 -3t-23 -3.5v195z" />
    <glyph glyph-name="sixsevenths" horiz-adv-x="843" 
d="M565 680h91l-398 -680h-92zM655 0h-90l152 301l38 -19h-234v65h273v-55zM301 613q-9 3 -18.5 6t-20.5 5.5t-22 3.5t-23 1q-14 0 -26.5 -2t-23 -6.5t-19.5 -11.5t-16.5 -16.5t-12.5 -21t-7.5 -26.5t-2.5 -32v-11q0 -3 0.5 -6t0.5 -6v-8l-11 13q2 11 7 19.5t12 15
t16.5 11.5t20.5 8t24 4.5t26 1.5q17 0 32 -2.5t28 -7.5t24 -12t20 -16t15 -20.5t9.5 -24.5t3.5 -28q0 -16 -4 -30t-11 -26t-17 -22t-23 -17.5t-28 -12.5t-32 -7.5t-35 -2.5q-19 0 -36.5 2.5t-33 8.5t-29 14.5t-24.5 21t-18.5 28.5t-11.5 36t-4 44v24q0 26 4.5 48.5t13.5 41
t21.5 33.5t28.5 26t34 18.5t38 11t42 3.5t40.5 -2.5t33.5 -6.5t26 -10zM149.5 388.5q7.5 -3.5 16.5 -5.5t19 -2q13 0 24 2.5t19.5 7.5t14 12t8.5 16.5t3 21.5q0 11 -3 20.5t-8.5 16.5t-13.5 12t-18.5 7.5t-23.5 2.5t-24 -2.5t-19.5 -7.5t-14.5 -12t-9 -16t-3 -20
q0 -10 2 -18t6.5 -15t10.5 -12t13.5 -8.5z" />
    <glyph glyph-name="twoninths" horiz-adv-x="843" 
d="M588 680h91l-398 -680h-92zM533 68q9 -4 19 -7t21.5 -5.5t24 -3.5t24.5 -1q14 0 27 2t24 7t20.5 11.5t17 16t13 21.5t8 26.5t2.5 31.5v12v6t-0.5 6.5t-0.5 7.5l11 -13q-2 -11 -7 -19.5t-12 -15t-16.5 -11.5t-20.5 -8t-23.5 -4.5t-26.5 -1.5q-16 0 -31.5 2.5t-28.5 7
t-24 11.5t-20 16t-15 20.5t-9.5 24.5t-3.5 28q0 16 4 30t11 26t17 22t23 17.5t28 12.5t32 7.5t35 2.5q19 0 36.5 -2.5t33 -8t29 -14.5t24.5 -21t18.5 -28t11.5 -36.5t4 -44.5v-24q0 -26 -5 -48.5t-14 -41t-22 -33.5t-29 -26t-34.5 -18.5t-39.5 -11t-43 -3.5q-17 0 -32.5 1.5
t-28.5 4t-23.5 6t-19.5 7.5zM677 297.5q-9 1.5 -19 1.5q-13 0 -24 -2.5t-19.5 -7t-14 -12t-8.5 -17t-3 -21.5q0 -11 3 -20t8.5 -16t13.5 -12t18.5 -7.5t23.5 -2.5t24 2.5t19.5 7.5t14.5 12t9 16t3 20q0 10 -2 18t-6.5 15t-10.5 12t-13.5 8.5t-16.5 5zM57 659q16 8 35.5 14.5
t43 10t50.5 3.5q18 0 35 -2t32 -7t27.5 -12.5t21 -18.5t13.5 -26t5 -34q0 -18 -5 -32.5t-14.5 -26.5t-23 -21.5t-30 -18t-35.5 -16.5q-22 -9 -38.5 -17.5t-27.5 -17.5t-16.5 -19.5t-5.5 -24.5v-19l-21 20h216v-61h-272v40q0 22 5 39.5t13.5 31.5t20 25t24.5 20t27 16t28 13
q17 7 29 13t20.5 11.5t14 11.5t8 13.5t2.5 16.5q0 15 -6.5 24.5t-20.5 14t-37 4.5q-19 0 -38 -3.5t-36.5 -9t-32.5 -13.5z" />
    <glyph glyph-name="fourninths" horiz-adv-x="843" 
d="M586 680h91l-398 -680h-92zM533 68q9 -4 19 -7t21.5 -5.5t24 -3.5t24.5 -1q14 0 27 2t24 7t20.5 11.5t17 16t13 21.5t8 26.5t2.5 31.5v12v6t-0.5 6.5t-0.5 7.5l11 -13q-2 -11 -7 -19.5t-12 -15t-16.5 -11.5t-20.5 -8t-23.5 -4.5t-26.5 -1.5q-16 0 -31.5 2.5t-28.5 7
t-24 11.5t-20 16t-15 20.5t-9.5 24.5t-3.5 28q0 16 4 30t11 26t17 22t23 17.5t28 12.5t32 7.5t35 2.5q19 0 36.5 -2.5t33 -8t29 -14.5t24.5 -21t18.5 -28t11.5 -36.5t4 -44.5v-24q0 -26 -5 -48.5t-14 -41t-22 -33.5t-29 -26t-34.5 -18.5t-39.5 -11t-43 -3.5q-17 0 -32.5 1.5
t-28.5 4t-23.5 6t-19.5 7.5zM677 297.5q-9 1.5 -19 1.5q-13 0 -24 -2.5t-19.5 -7t-14 -12t-8.5 -17t-3 -21.5q0 -11 3 -20t8.5 -16t13.5 -12t18.5 -7.5t23.5 -2.5t24 2.5t19.5 7.5t14.5 12t9 16t3 20q0 10 -2 18t-6.5 15t-10.5 12t-13.5 8.5t-16.5 5zM291 333h-73v328l40 -8
l-172 -209l-35 13h289v-55h-308v63l177 215h82v-347z" />
    <glyph glyph-name="fiveninths" horiz-adv-x="843" 
d="M570 680h91l-398 -680h-92zM533 68q9 -4 19 -7t21.5 -5.5t24 -3.5t24.5 -1q14 0 27 2t24 7t20.5 11.5t17 16t13 21.5t8 26.5t2.5 31.5v12v6t-0.5 6.5t-0.5 7.5l11 -13q-2 -11 -7 -19.5t-12 -15t-16.5 -11.5t-20.5 -8t-23.5 -4.5t-26.5 -1.5q-16 0 -31.5 2.5t-28.5 7
t-24 11.5t-20 16t-15 20.5t-9.5 24.5t-3.5 28q0 16 4 30t11 26t17 22t23 17.5t28 12.5t32 7.5t35 2.5q19 0 36.5 -2.5t33 -8t29 -14.5t24.5 -21t18.5 -28t11.5 -36.5t4 -44.5v-24q0 -26 -5 -48.5t-14 -41t-22 -33.5t-29 -26t-34.5 -18.5t-39.5 -11t-43 -3.5q-17 0 -32.5 1.5
t-28.5 4t-23.5 6t-19.5 7.5zM677 297.5q-9 1.5 -19 1.5q-13 0 -24 -2.5t-19.5 -7t-14 -12t-8.5 -17t-3 -21.5q0 -11 3 -20t8.5 -16t13.5 -12t18.5 -7.5t23.5 -2.5t24 2.5t19.5 7.5t14.5 12t9 16t3 20q0 10 -2 18t-6.5 15t-10.5 12t-13.5 8.5t-16.5 5zM61 680h243v-61h-169
v-102l-42 16q10 4 20 7.5t22 5.5t25.5 3.5t29.5 1.5q21 0 39.5 -3t33.5 -9t27 -15t20 -21t12 -27t4 -33q0 -19 -4.5 -35t-13.5 -29t-22 -23t-30 -16.5t-37.5 -10t-44.5 -3.5q-21 0 -39 2t-34 5.5t-31 8.5t-29 11l12 56q12 -5 24.5 -9.5t25.5 -7.5t28 -4.5t32 -1.5
q14 0 26.5 2t22 6t16.5 10t10.5 15.5t3.5 21.5q0 11 -3.5 19.5t-10 15t-16.5 10.5t-23 6t-30 2q-12 0 -24.5 -0.5t-25.5 -2t-25 -3t-23 -3.5v195z" />
    <glyph glyph-name="sevenninths" horiz-adv-x="843" 
d="M545 680h91l-398 -680h-92zM533 68q9 -4 19 -7t21.5 -5.5t24 -3.5t24.5 -1q14 0 27 2t24 7t20.5 11.5t17 16t13 21.5t8 26.5t2.5 31.5v12v6t-0.5 6.5t-0.5 7.5l11 -13q-2 -11 -7 -19.5t-12 -15t-16.5 -11.5t-20.5 -8t-23.5 -4.5t-26.5 -1.5q-16 0 -31.5 2.5t-28.5 7
t-24 11.5t-20 16t-15 20.5t-9.5 24.5t-3.5 28q0 16 4 30t11 26t17 22t23 17.5t28 12.5t32 7.5t35 2.5q19 0 36.5 -2.5t33 -8t29 -14.5t24.5 -21t18.5 -28t11.5 -36.5t4 -44.5v-24q0 -26 -5 -48.5t-14 -41t-22 -33.5t-29 -26t-34.5 -18.5t-39.5 -11t-43 -3.5q-17 0 -32.5 1.5
t-28.5 4t-23.5 6t-19.5 7.5zM677 297.5q-9 1.5 -19 1.5q-13 0 -24 -2.5t-19.5 -7t-14 -12t-8.5 -17t-3 -21.5q0 -11 3 -20t8.5 -16t13.5 -12t18.5 -7.5t23.5 -2.5t24 2.5t19.5 7.5t14.5 12t9 16t3 20q0 10 -2 18t-6.5 15t-10.5 12t-13.5 8.5t-16.5 5zM178 333h-90l152 301
l38 -19h-234v65h273v-55z" />
    <glyph glyph-name="eightninths" horiz-adv-x="843" 
d="M575 680h91l-398 -680h-92zM533 68q9 -4 19 -7t21.5 -5.5t24 -3.5t24.5 -1q14 0 27 2t24 7t20.5 11.5t17 16t13 21.5t8 26.5t2.5 31.5v12v6t-0.5 6.5t-0.5 7.5l11 -13q-2 -11 -7 -19.5t-12 -15t-16.5 -11.5t-20.5 -8t-23.5 -4.5t-26.5 -1.5q-16 0 -31.5 2.5t-28.5 7
t-24 11.5t-20 16t-15 20.5t-9.5 24.5t-3.5 28q0 16 4 30t11 26t17 22t23 17.5t28 12.5t32 7.5t35 2.5q19 0 36.5 -2.5t33 -8t29 -14.5t24.5 -21t18.5 -28t11.5 -36.5t4 -44.5v-24q0 -26 -5 -48.5t-14 -41t-22 -33.5t-29 -26t-34.5 -18.5t-39.5 -11t-43 -3.5q-17 0 -32.5 1.5
t-28.5 4t-23.5 6t-19.5 7.5zM677 297.5q-9 1.5 -19 1.5q-13 0 -24 -2.5t-19.5 -7t-14 -12t-8.5 -17t-3 -21.5q0 -11 3 -20t8.5 -16t13.5 -12t18.5 -7.5t23.5 -2.5t24 2.5t19.5 7.5t14.5 12t9 16t3 20q0 10 -2 18t-6.5 15t-10.5 12t-13.5 8.5t-16.5 5zM185 687q21 0 39.5 -3
t34 -8t27.5 -13.5t20.5 -18.5t13 -23t4.5 -28q0 -16 -4.5 -30t-14 -25.5t-24 -19t-34.5 -12.5l-1 13q21 -4 37.5 -11.5t27.5 -19t16.5 -26.5t5.5 -34q0 -16 -4.5 -30t-13.5 -25t-22 -20t-30 -15t-37 -9t-44 -3q-23 0 -42.5 3t-36.5 9t-30 15t-22 20t-13.5 24.5t-4.5 29.5
q0 18 5.5 33.5t16 27t27 19.5t38.5 12l-1 -14q-19 5 -33.5 12.5t-24 18.5t-14.5 25t-5 30q0 18 6.5 33t18.5 26.5t29.5 20t39.5 12.5t49 4zM206.5 381.5q10.5 2.5 19 7t14 11t8.5 15.5t3 19t-3 18t-8 14.5t-13.5 11t-19 7t-24.5 2.5q-13 0 -24 -2.5t-19 -7t-13.5 -11
t-8.5 -14.5t-3 -18t3 -19t8.5 -15.5t14 -11t19 -7t23.5 -2.5t23.5 2.5zM203.5 540q9.5 2 17 6t13 10t8 13.5t2.5 16.5t-2.5 16.5t-7.5 13.5t-12.5 10.5t-17 6.5t-21.5 2t-21.5 -2t-17 -6.5t-12.5 -10.5t-7.5 -13.5t-2.5 -16.5t2.5 -16.5t8 -13.5t13 -10t17 -6t20.5 -2
t20.5 2z" />
    <glyph glyph-name="hyphen.case" horiz-adv-x="402" 
d="M49 410h304v-90h-304v90z" />
    <glyph glyph-name="endash.case" horiz-adv-x="500" 
d="M0 407h500v-84h-500v84z" />
    <glyph glyph-name="emdash.case" horiz-adv-x="1000" 
d="M0 407h1000v-84h-1000v84z" />
    <glyph glyph-name="parenleft.case" horiz-adv-x="329" 
d="M164 365q0 -64 9.5 -124.5t27.5 -117t44.5 -109t59.5 -100.5h-100q-26 34 -48.5 73.5t-40.5 83.5t-30.5 91.5t-19 98.5t-6.5 104t6.5 104t19 98.5t30.5 91.5t40.5 83.5t48.5 73.5h100q-33 -48 -59.5 -100.5t-44.5 -109t-27.5 -117t-9.5 -124.5z" />
    <glyph glyph-name="parenright.case" horiz-adv-x="329" 
d="M165 365q0 64 -9.5 124.5t-27.5 117t-44.5 109t-59.5 100.5h100q26 -34 48.5 -73.5t40.5 -83.5t30.5 -91.5t19 -98.5t6.5 -104t-6.5 -104t-19 -98.5t-30.5 -91.5t-40.5 -83t-48.5 -74h-100q33 48 59.5 100.5t44.5 109t27.5 117t9.5 124.5z" />
    <glyph glyph-name="slash.case" horiz-adv-x="476" 
d="M349 816h103l-325 -902h-103z" />
    <glyph glyph-name="backslash.case" horiz-adv-x="476" 
d="M24 816h103l325 -902h-103z" />
    <glyph glyph-name="bracketleft.case" horiz-adv-x="342" 
d="M80 816h231v-75h-133v-752h133v-75h-231v902z" />
    <glyph glyph-name="bracketright.case" horiz-adv-x="342" 
d="M261 -86h-231v75h134v752h-134v75h231v-902z" />
    <glyph glyph-name="braceleft.case" horiz-adv-x="363" 
d="M30 402h15q26 0 42 8t24 25t8 45q0 16 -1.5 33t-3.5 35.5t-4.5 37t-4 36.5t-1.5 35q0 28 5.5 51t15.5 41t24.5 31t32.5 21.5t40 12.5t46 4q20 0 36 -2t29 -5l-7 -72q-6 2 -13 2.5t-14.5 1t-13.5 0.5q-30 0 -48.5 -9.5t-27 -28t-8.5 -45.5q0 -12 1 -26t3 -29.5t3.5 -32
t3.5 -32.5t3 -32t1 -30q0 -20 -3 -36.5t-10 -30.5t-18.5 -25.5t-28.5 -20t-41 -14.5v26q24 -6 41 -14.5t28.5 -20t18.5 -25.5t10 -30.5t3 -36.5q0 -14 -1 -30t-3 -32t-3.5 -32.5t-3.5 -32t-3 -29.5t-1 -26q0 -27 8.5 -45.5t27 -28t48.5 -9.5q6 0 13.5 0.5t14.5 1.5t13 2
l7 -72q-13 -3 -29 -5t-36 -2q-24 0 -46 4t-40 12.5t-32.5 21.5t-24.5 31t-15.5 41t-5.5 51q0 17 1.5 35t4 36.5t4.5 37t3.5 35.5t1.5 33q0 28 -8 45t-24 25t-42 8h-15v76z" />
    <glyph glyph-name="braceright.case" horiz-adv-x="363" 
d="M333 326h-16q-25 0 -41.5 -8t-24 -25t-7.5 -45q0 -16 1.5 -33t4 -35.5t4.5 -37t3.5 -36.5t1.5 -35q0 -28 -5.5 -51t-15.5 -41t-24.5 -31t-32.5 -21.5t-39.5 -12.5t-46.5 -4q-19 0 -35.5 2t-29.5 5l7 72q6 -1 13 -2t14.5 -1.5t12.5 -0.5q30 0 48.5 9.5t27.5 28t9 45.5
q0 12 -1 26t-3 29.5t-3.5 32t-3.5 32.5t-3 32t-1 30q0 20 3 36.5t10 30.5t18.5 25.5t28.5 20t41 14.5v-26q-24 6 -41 14.5t-28.5 20t-18.5 25.5t-10 30.5t-3 36.5q0 14 1 30t3 32t3.5 32.5t3.5 32t3 29.5t1 26q0 27 -9 45.5t-27.5 28t-48.5 9.5q-5 0 -12.5 -0.5t-14.5 -1
t-13 -2.5l-7 72q13 3 29.5 5t35.5 2q25 0 46.5 -4t39.5 -12.5t32.5 -21.5t24.5 -31t15.5 -41t5.5 -51q0 -17 -1.5 -35t-3.5 -36.5t-4.5 -37t-4 -35.5t-1.5 -33q0 -28 7.5 -45t24 -25t41.5 -8h16v-76z" />
    <glyph glyph-name="bullet.case" 
d="M62 364q0 27 8.5 49t24.5 37.5t38 23.5t50 8t50 -8t37.5 -23.5t24 -37.5t8.5 -50q0 -27 -8.5 -49t-24 -37.5t-38 -23.5t-49.5 -8q-28 0 -50 8t-38 23.5t-24.5 37.5t-8.5 50z" />
    <glyph glyph-name="guilsinglleft.case" horiz-adv-x="290" 
d="M107 341v38l154 -207h-103l-139 188l139 188h103z" />
    <glyph glyph-name="guilsinglright.case" horiz-adv-x="290" 
d="M183 379v-38l-154 207h102l140 -188l-140 -188h-102z" />
    <glyph glyph-name="guillemotleft.case" horiz-adv-x="478" 
d="M107 341v38l154 -207h-103l-139 188l139 188h103zM296 341v38l154 -207h-103l-139 188l139 188h103z" />
    <glyph glyph-name="guillemotright.case" horiz-adv-x="478" 
d="M183 379v-38l-154 207h102l140 -188l-140 -188h-102zM372 379v-38l-154 207h102l140 -188l-140 -188h-102z" />
    <glyph glyph-name="at.case" horiz-adv-x="942" 
d="M657 302q-1 -10 -1.5 -19.5t-0.5 -17.5q0 -16 2.5 -28t8 -20.5t14.5 -13t22 -4.5q14 0 26 7t22 19.5t18 29.5t13.5 36.5t9.5 41t7 43.5t4 42.5t1 38.5q0 33 -4 61.5t-12 53t-19.5 45.5t-26 38t-33 30.5t-39.5 23.5t-45.5 16.5t-51 9.5t-56.5 3q-48 0 -89.5 -8.5
t-77 -24.5t-64.5 -39t-52 -52t-40 -63.5t-28.5 -74.5t-17 -83.5t-5.5 -90.5q0 -35 4 -66t11.5 -58t18.5 -50t25 -41.5t31.5 -33.5t38 -26t44 -18.5t49.5 -11t55 -3.5q31 0 58 3.5t52 10t49 16.5l16 -68q-18 -8 -38.5 -14t-42.5 -10.5t-46 -7t-51 -2.5q-37 0 -71 4.5
t-64.5 13t-58 22t-51 32t-43 41.5t-34.5 51.5t-25 61.5t-15.5 72t-5.5 83q0 56 7.5 107.5t23 97.5t38 86t52 73.5t66.5 60t80.5 44.5t94 27.5t107.5 9.5q39 0 75 -4.5t68 -13.5t60 -22.5t51.5 -31t43 -39.5t34.5 -48t25 -56.5t15 -64.5t5 -72q0 -30 -2.5 -60.5t-8 -59.5
t-14 -55.5t-20.5 -50t-27 -42.5t-34 -32.5t-41.5 -21t-48.5 -7.5q-23 0 -42.5 5t-34 14.5t-24.5 23t-15.5 31t-6.5 38.5l17 28q-4 -26 -13.5 -48t-23.5 -39t-32.5 -29t-42 -18t-50.5 -6q-21 0 -40.5 3.5t-36.5 11t-31 18t-25 25.5t-18.5 33t-11.5 40t-4 47q0 32 3.5 61
t10.5 55t17 49t23 42.5t29 34.5t34.5 25.5t39.5 16t44 5.5q32 0 56 -7.5t42 -21.5t29.5 -34.5t16.5 -47.5l-18 -4l21 102h77zM354 311q0 -22 4 -40t12 -31t19.5 -21.5t27 -13t34.5 -4.5t35 6.5t29 18t23 27.5t17.5 35t12 39.5t7 42t2.5 42.5q0 23 -4 40.5t-11.5 31t-19.5 22
t-27 13t-34 4.5t-35 -6.5t-29.5 -18.5t-23.5 -28t-17.5 -35t-12 -40t-7 -42t-2.5 -42z" />
    <glyph glyph-name="periodcentered.case" horiz-adv-x="223" 
d="M168 298h-113v133h113v-133z" />
    <glyph glyph-name="periodcentered.loclCAT" horiz-adv-x="146" 
d="M127 262h-108v126h108v-126z" />
    <glyph glyph-name="periodcentered.loclCAT.cap" horiz-adv-x="194" 
d="M153 303h-113v133h113v-133z" />
    <glyph glyph-name="uni0307.i" horiz-adv-x="0" 
d="M57 595h-114v118h114v-118z" />
    <glyph glyph-name="ijdotless" horiz-adv-x="590" 
d="M512 16q0 -29 -5 -54.5t-15 -48t-25.5 -41.5t-35.5 -34t-46 -25.5t-57 -16t-68 -5.5q-28 0 -54.5 3t-49.5 8.5t-44 13t-39 16.5l17 81q17 -9 36 -16t39.5 -12t42 -7.5t43.5 -2.5q23 0 43.5 3.5t37.5 11t30 19t22 27t14 35.5t5 44v126l24 19q-4 -34 -13.5 -61t-25 -46
t-36.5 -31t-46.5 -18t-56.5 -6q-25 0 -47 4t-40 12.5t-32.5 21t-25.5 29.5t-18.5 39t-11 48.5t-3.5 58.5v306h109v-300q0 -25 3 -44t8.5 -33.5t13.5 -25t19 -16.5t25 -9t30 -3q23 0 42 5t34 16t26 29t16.5 43t5.5 59v279h109v-501z" />
    <glyph glyph-name="IJacute" horiz-adv-x="710" 
d="M624 277q0 -41 -5.5 -75t-16 -62t-25.5 -50t-34.5 -39t-43 -29t-50.5 -19.5t-57.5 -11t-63.5 -3.5q-30 0 -58.5 2.5t-54.5 7.5t-49.5 12.5t-45 16.5t-40.5 19l17 84q15 -9 32 -16.5t35 -13.5t37 -10.5t38.5 -8t39.5 -5t40 -1.5q25 0 47.5 3t42 9.5t35.5 17t28.5 26.5
t21 37t13 49t4.5 62v421h113v-423zM194 225h-114v475h114v-475zM184 888h154l-175 -116h-116zM614 888h154l-175 -116h-116z" />
    </font>
</defs>
</svg>
