<svg width="830" height="736" viewBox="0 0 830 736" fill="none" xmlns="http://www.w3.org/2000/svg">
<g clip-path="url(#clip0_114_44)">
<path d="M0.699595 713.97C0.227369 713.97 0 713.767 0 713.353C0 713.248 0.239028 713.137 0.687935 713.009C0.606316 712.869 0.582996 712.753 0.699595 712.753V713.009C3.10154 712.357 11.5375 711.407 23.5297 710.061C63.7973 705.534 145.329 696.375 169.699 691.393C168.521 691.522 167.384 691.65 166.311 691.766C164.195 691.999 162.341 692.209 160.627 692.372C152.477 693.159 149.83 692.728 149.428 688.626C149.34 687.723 149.031 685.975 148.647 683.767C147.002 674.381 143.918 656.808 149.655 655.468C154.028 654.443 160.015 665.862 164.918 675.22C167.926 680.958 170.515 685.893 171.716 686.336C172.421 686.598 173.949 686.802 175.954 686.936C174.088 682.869 169.145 674.538 163.939 666.486C158.103 657.461 151.964 648.838 149.474 647.014C148.308 646.158 147.609 645.394 147.253 644.719C146.845 643.938 146.857 643.256 147.16 642.668C147.434 642.126 147.947 641.701 148.582 641.363C149.772 640.728 151.422 640.39 152.599 640.227C154.675 639.929 157.409 642.965 160.254 646.129C161.828 647.876 163.437 649.671 164.918 650.889C167.203 652.776 172.165 652.596 177.085 652.421C180.525 652.299 183.947 652.171 186.565 652.747C189.217 653.324 191.788 657.397 193.963 662.46C197.397 670.442 199.956 681.017 200.154 683.79C200.172 684.046 200.137 684.291 200.049 684.53C199.641 685.637 198.055 686.441 195.805 687.006C193.712 687.531 190.99 687.88 188.121 688.084C184.606 688.335 180.851 688.37 177.738 688.247C177.837 688.556 177.901 688.812 177.919 689.005C177.936 689.191 177.785 689.389 177.499 689.593C178.688 689.546 179.895 689.506 181.114 689.471C184.419 689.366 187.812 689.261 191.124 688.941C202.545 687.839 214.583 686.89 225.789 688.002C226.541 688.078 227.287 688.16 228.027 688.253C229.112 687.379 230.114 686.412 231.018 685.351C234.481 681.273 277.64 676.892 314.153 673.186C341.228 670.436 364.6 668.065 364.763 666.999C364.787 666.83 364.816 666.631 364.833 666.393C364.839 666.305 364.845 666.218 364.851 666.125C357.773 666.777 347.851 667.505 337.736 668.17C335.025 668.344 332.302 668.519 329.614 668.682C328.926 670.692 322.595 671.508 315.628 671.788C308.761 672.067 301.234 671.887 298.214 671.805C295.649 671.735 290 672.353 283.954 673.011C278.008 673.658 271.682 674.346 267.38 674.456C267.38 674.491 267.368 674.52 267.368 674.544C267.094 676.175 266.155 676.105 262.675 675.843C261.707 675.767 260.518 675.68 259.13 675.604C256.308 675.458 247.523 676.629 238.766 678.074C229.158 679.659 219.62 681.547 218.076 682.351C217.65 682.572 217.242 682.631 216.851 682.549C216.152 682.409 215.609 681.832 215.207 680.97C214.863 680.23 214.613 679.251 214.461 678.156C214.047 675.155 214.374 671.205 215.51 669.014C216.863 666.41 228.715 664.994 240.556 663.584C248.805 662.6 257.055 661.615 261.526 660.316C264.902 659.337 271.764 658.445 280.118 657.74C288.997 656.995 299.613 656.459 309.53 656.272C316.625 656.138 323.324 656.383 328.792 656.587C331.976 656.703 334.739 656.808 336.978 656.808C343.443 656.808 348.83 656.214 353.255 654.996C344.16 654.466 319.225 653.697 296.063 654.524C281.027 655.06 266.744 656.261 258.057 658.638C255.201 659.418 252.356 660.129 249.563 660.77C239.297 663.112 229.543 664.452 222.081 664.237C214.391 664.015 209.062 662.128 207.926 657.962C207.902 657.869 207.879 657.787 207.861 657.711C207.319 655.346 206.923 652.479 206.643 649.263C197.933 650.393 189.025 650.324 182.798 650.271C180.676 650.254 178.869 650.242 177.487 650.271C169.25 650.493 167.028 648.226 166.947 645.22C166.9 643.571 167.553 641.759 168.177 640.034L168.34 639.58C167.821 640.401 167.227 641.299 166.585 642.114C164.935 644.218 163.017 645.744 161.251 644.363C159.076 642.662 155.654 636.393 153.853 630.124C152.5 625.416 152.034 620.662 153.643 617.702C154.704 615.75 156.266 613.303 158.044 610.838C159.659 608.601 161.449 606.364 163.198 604.488C164.504 603.078 165.851 601.93 166.929 601.004C167.687 600.357 168.294 599.832 168.614 599.506C168.037 599.704 167.157 600.159 166.201 600.648C164.708 601.411 163.052 602.262 161.793 602.507C160.54 602.751 159.619 602.478 159.374 601.237C157.613 592.206 161.362 575.274 164.358 561.746C166.428 552.4 168.13 544.698 167.402 542.641C165.425 537.065 169.786 525.698 173.581 515.793C176.502 508.172 179.079 501.449 178.228 499.456C177.703 500.709 177.202 501.973 176.729 503.22C175.546 506.372 174.549 509.53 173.715 512.175C172.777 515.141 172.042 517.483 171.395 518.637C170.899 519.528 170.363 519.872 169.739 519.522C168.597 518.887 168.678 514.978 168.754 511.272C168.807 508.749 168.859 506.326 168.579 505.382C168.509 505.143 168.439 504.933 168.375 504.758C168.247 505.382 168.165 506.384 168.142 507.835C168.119 509.746 167.751 515.683 167.326 522.517C166.649 533.435 165.827 546.65 166.043 549.196C166.276 551.911 164.452 557.9 162.755 561.303C162.335 562.142 161.921 562.841 161.537 563.313C161.006 563.96 160.464 564.245 159.933 564.053C159.648 563.948 159.414 563.715 159.257 563.342C158.534 561.652 157.351 544.15 157.094 529.305C156.919 519.074 157.182 510.043 158.348 508.143C159.648 506.017 163.455 503.43 167.384 501.367C171.465 499.229 175.762 497.656 177.651 497.72C179.102 494.399 180.729 491.171 182.472 488.38C184.699 484.821 187.118 481.948 189.614 480.451C192.762 478.563 197.607 476.011 202.982 473.185C212.56 468.146 223.818 462.22 229.98 457.676C237.029 452.479 242.101 452.012 245.22 451.721C246.363 451.616 247.22 451.535 247.715 451.261C248.386 450.888 248.899 448.814 249.429 446.664C249.773 445.283 250.117 443.867 250.566 442.749C251.027 441.595 251.598 440.738 252.362 440.47C252.583 438.792 252.548 437.266 251.942 435.949C250.945 433.776 249.33 429.703 247.703 425.339C247.476 425.555 247.185 425.689 246.811 425.73C244.94 425.922 243.436 425.001 242.287 423.58C240.853 421.809 239.985 419.228 239.652 417.183C239.524 416.373 238.609 415.336 237.524 414.112C234.534 410.733 230.4 406.054 235.472 398.573C236.347 397.286 237.128 396.4 237.839 395.852C237.011 393.19 236.434 390.463 235.927 388.092C235.74 387.206 235.56 386.367 235.391 385.621C232.546 373.287 236.656 361.39 243.768 352.137C247.19 347.68 251.312 343.835 255.69 340.852C260.075 337.857 264.721 335.724 269.181 334.693C275.256 333.295 281.004 333.942 285.318 337.257C287.33 338.801 289.009 340.514 290.385 342.244C290.513 341.277 290.752 340.386 291.107 339.611C291.743 338.241 292.752 337.239 294.227 336.861C295.293 336.587 296.582 336.651 298.133 337.158C302.622 338.626 307.332 343.27 311.273 348.991C315.628 355.307 319.074 362.974 320.257 369.139C320.747 371.702 321.219 373.945 321.633 375.909C322.537 380.214 323.166 383.215 323.062 384.945C322.974 386.431 322.409 387.136 321.173 387.06C319.902 386.985 319.132 385.33 318.153 383.227C316.549 379.783 314.311 374.971 309.093 375.402C300.616 376.101 295.841 375.874 292.215 375.705C284.56 375.344 282.124 375.227 259.602 385.015C250.129 389.135 247.418 397 247.027 404.668C247.424 404.312 247.797 403.799 248.141 403.164C249.173 401.247 249.872 398.288 250.199 395.013C250.263 394.384 250.461 393.766 250.793 393.149C253.149 388.785 262.412 384.444 273.349 381.438C284.205 378.455 296.763 376.748 305.822 377.639C309.309 377.983 312.288 378.705 314.48 379.888C317.465 381.496 318.911 387.089 319.803 393.37C319.89 393.137 319.989 392.922 320.088 392.724C321.208 390.498 322.519 388.767 323.761 387.8C324.42 387.288 325.067 386.973 325.685 386.891C326.379 386.798 327.008 386.985 327.533 387.492C327.935 387.882 328.262 388.465 328.489 389.251C329.165 391.617 328.198 395.479 327.347 398.859C326.734 401.288 326.192 403.462 326.402 404.411C326.688 405.722 326.973 408.985 326.647 411.63C326.507 412.749 326.256 413.774 325.848 414.537C325.37 415.429 324.694 415.976 323.744 415.965C323.347 415.965 322.916 415.848 322.449 415.615C320.834 414.811 320.286 409.894 319.721 403.898C319.663 408.857 319.977 414.537 320.246 419.315C320.391 421.966 320.525 424.337 320.566 426.202C320.718 432.506 317.809 441.653 316.13 446.943C315.71 448.272 315.366 449.356 315.174 450.066C316.229 449.862 317.424 450.02 318.788 450.678C319.342 450.946 320.094 451.366 321.033 451.89C325.376 454.308 333.678 458.928 343.122 460.053C348.084 460.641 351.663 462.605 354.887 464.37C357.965 466.06 360.711 467.563 363.982 467.411C367.031 467.272 369.975 467.924 372.744 469.124C378.697 471.705 383.856 476.821 387.553 482.018C391.26 487.233 393.522 492.575 393.657 495.541C393.686 496.234 393.61 496.823 393.406 497.283C392.724 498.862 389.016 504.834 384.404 512.257C381.594 516.79 378.44 521.864 375.444 526.793C375.333 529.182 375.199 531.711 375.036 534.35C375.257 535.312 375.479 536.22 375.706 537.071C382.58 529.812 391.074 520.466 398.659 511.831C399.137 511.29 399.597 511.278 400.058 511.68C400.74 512.274 401.16 514.401 401.62 516.696C402.104 519.12 402.629 521.748 403.311 522.424C403.363 522.476 403.445 522.459 403.567 522.342C404.454 521.451 405.34 520.513 406.214 519.528C404.821 516.912 403.492 514.389 402.262 512.035C397.93 503.721 394.892 497.446 394.968 496.724C395.067 495.815 396.711 493.175 398.612 490.478C401.09 486.947 404.092 483.218 404.634 483.078C405.287 482.904 405.765 483.958 406.197 485.584C406.43 486.464 406.663 487.454 406.908 488.491C407.672 491.713 408.558 495.419 408.692 495.389C409.24 495.261 413.123 487.227 416.726 479.763C418.731 475.615 420.649 471.636 421.926 469.247C421.967 469.177 422.008 469.101 422.054 469.019C416.714 465.331 410.896 460.909 406.29 455.444C401.177 449.379 397.399 443.582 395.155 437.132C392.904 430.671 392.187 423.574 393.202 414.934C394.24 406.089 399.113 397.099 406.127 389.315C413.484 381.152 423.203 374.312 433.306 370.368C449.665 363.988 472.239 360.16 493.978 361.885C511.847 363.301 529.168 368.474 542.058 379.049C546.087 382.359 549.649 385.93 552.71 389.7C560.86 399.727 565.5 411.123 566.101 422.45C566.701 433.793 563.256 445.062 555.246 454.809C552.884 457.681 550.133 460.42 546.967 462.989C542.968 466.24 537.348 470.062 530.567 473.418C525.256 476.046 519.228 478.388 512.698 479.938C498.602 483.294 482.872 483.83 469.429 482.799C452.732 481.517 439.486 477.753 437.177 473.919C437.072 473.745 436.973 473.564 436.874 473.378C435.399 470.523 435.795 467.691 436.728 465.471C437.655 463.263 439.154 461.638 439.818 461.235C439.853 461.212 439.882 461.195 439.911 461.183C440.465 460.898 452.58 461.043 467.685 461.23C492.987 461.538 526.795 461.958 527.221 461.189C527.676 460.367 527.781 445.114 527.623 430.694C527.477 417.829 527.163 405.716 526.731 405.361C526.481 405.151 517.333 411.339 508.005 417.654C505.866 419.105 503.715 420.562 501.925 421.762C498.747 423.9 495.617 425.747 493.104 427.239C490.813 428.596 489.035 429.645 488.259 430.292C488.16 430.379 487.735 429.983 487.886 430.164C488.382 430.758 493.302 434.265 499.447 438.647C511.27 447.072 527.512 458.649 526.422 460.362C525.962 461.084 524.003 460.233 521.111 458.392C515.765 454.99 506.554 448.284 498.304 442.277C489.554 435.903 481.905 430.338 481.636 430.432C481.234 430.571 475.451 434.726 468.158 439.964C454.784 449.565 436.419 462.75 435.376 461.94C435.294 461.876 435.23 461.795 435.178 461.696C435.067 461.48 434.968 460.752 434.88 459.616C429.697 463.38 425.576 466.648 423.774 468.722C424.952 469.521 426.094 470.29 427.19 471.024C430.968 473.547 434.175 475.691 436.064 477.608C438.396 479.973 434.554 484.815 429.103 491.684C427.913 493.181 426.648 494.778 425.395 496.403C423.471 498.897 421.46 501.67 419.407 504.502C415.635 509.693 411.718 515.094 407.678 519.703C411.007 525.937 414.656 532.62 418.061 538.656C420.533 543.037 423.092 546.964 425.197 550.192C427.709 554.043 429.587 556.921 429.936 558.489C430.49 560.942 433.306 563.977 436.752 567.689C443.73 575.199 453.204 585.401 452.452 599.996C451.892 610.937 451.222 617.242 448.237 620.836C445.217 624.472 440.005 625.206 430.397 624.967C421.681 624.746 415.391 624.833 411.088 625.398C416.615 627.222 423.319 627.554 429.552 627.863L429.843 627.875C438.775 628.317 443.351 625.865 447.531 623.621C448.534 623.085 449.513 622.555 450.563 622.072C450.744 621.99 450.93 621.926 451.128 621.885C454.125 621.268 460.031 625.754 465.522 631.155C470.933 636.48 476.005 642.72 477.416 645.738C477.608 646.146 477.736 646.507 477.8 646.816C477.87 647.142 477.754 647.439 477.486 647.708C476.967 648.22 475.515 648.727 473.597 649.164C471.761 649.589 469.458 649.974 467.137 650.254C461.99 650.877 456.69 650.935 455.862 649.741C454.702 648.075 447.047 640.017 441.631 635.49C440.314 634.389 439.142 633.509 438.244 632.99C437.597 632.617 437.195 632.419 437.148 632.472C437.148 632.477 437.154 632.472 437.148 632.507C436.979 634.086 442.255 638.438 447.024 642.371C451.058 645.697 454.743 648.739 454.836 650.131C454.883 650.807 454.51 651.203 453.624 651.262C450.843 651.448 443.683 645.622 436.757 639.982C431.067 635.35 425.541 630.852 423.057 630.089C421.815 629.71 420.947 630.904 420.329 632.92C418.964 637.377 418.959 645.505 418.953 650.883C418.953 652.316 418.953 653.551 418.924 654.478C418.894 655.608 417 656.494 414.539 657.053C413.35 657.321 412.021 657.537 410.727 657.671C409.432 657.805 408.161 657.869 407.095 657.84C405.305 657.787 403.999 657.414 403.818 656.616C403.486 655.171 402.914 647.632 402.629 640.693C402.413 635.519 402.355 630.66 402.664 628.859C402.973 627.082 404.325 625.835 406.972 625.008C404.121 623.517 401.743 621.431 400.11 618.483C399.393 617.177 398.734 616.012 398.064 614.812C393.196 606.119 387.512 595.964 388.316 592.014C388.602 590.604 389.173 589.456 389.855 588.593C389.325 587.76 389.185 586.578 389.855 585.004C390.549 583.385 393.365 581.782 396.834 579.819C404.914 575.228 416.708 568.533 410.482 556.578L410.085 555.814C408.214 552.196 405.818 547.553 402.227 546.586C401.795 546.469 401.591 546.539 401.544 546.714C401.492 546.918 401.492 547.186 401.544 547.483C403.363 547.728 404.786 548.584 404.733 551.311C404.71 552.383 404.308 552.826 403.69 552.808C402.979 552.796 401.982 551.631 401.27 550.244C401.002 549.72 400.769 549.161 400.594 548.613C400.513 548.613 400.431 548.607 400.349 548.607C399.877 548.596 399.382 548.613 398.898 548.631C398.49 548.642 398.087 548.66 397.79 548.66C397.003 548.66 396.053 548.875 394.997 549.114C393.773 549.388 392.421 549.697 390.975 549.767L391.482 549.965C396.088 551.777 400.291 553.431 401.626 555.028C403.637 557.428 403.223 558.232 401.912 560.767C401.189 562.165 400.151 564.169 399.125 567.473C397.761 571.895 396.309 575.484 394.508 577.821C392.601 580.291 390.322 581.386 387.383 580.635C385.063 580.04 384.416 577.063 384.655 573.591C384.416 574.156 384.189 574.733 383.985 575.333C382.597 579.365 381.25 581.742 379.7 583.047C378.067 584.416 376.272 584.597 374.039 584.212C372.488 583.944 372.086 582.668 372.412 580.786C372.913 577.89 375.257 573.317 377.438 569.052C379.571 564.886 381.548 561.023 381.402 559.631C381.186 557.609 377.595 557.195 373.275 557.073L373.222 557.673C376.61 557.766 378.971 557.964 379.251 558.296C379.758 558.902 380.154 559.619 380.259 560.202C380.3 560.423 380.3 560.639 380.259 560.825C380.207 561.07 380.084 561.274 379.892 561.437C379.857 561.466 379.822 561.495 379.787 561.518C379.472 563.092 377.373 566.547 374.773 570.299C373.747 571.784 372.64 573.328 371.532 574.82C370.582 583.723 369.608 591.577 368.792 596.849C367.054 608.077 368.016 618.535 368.809 627.117C369.608 635.764 370.232 642.54 367.76 646.496C365.626 649.904 362.571 652.538 358.449 654.425C361.58 655.305 363.51 657.204 364.647 659.349C365.603 661.143 365.993 663.107 366.063 664.785C368.564 664.546 370.64 664.313 372.15 664.103C380.848 662.891 432.857 655.998 470.828 651.332C492.515 648.663 509.684 646.717 511.754 646.956C512.926 647.09 516.097 648.453 520.551 650.364C524.609 652.106 529.734 654.309 535.301 656.435C535.494 656.4 535.669 656.371 535.82 656.348C534.392 655.515 531.22 654.064 527.897 652.538C523.449 650.498 518.744 648.343 517.368 647.259C516.756 646.781 516.575 646.321 516.919 645.878C517.683 644.905 553.572 639.306 579.032 636.305C585.812 635.507 591.858 634.884 596.312 634.569C600.941 634.243 603.955 634.307 604.48 634.913C604.608 635.064 604.672 635.233 604.672 635.42C604.672 636.737 603.448 644.66 602.066 653.61C600.095 666.352 597.793 681.244 597.828 681.25C598.131 681.314 598.801 678.669 599.757 673.926C603.506 655.346 609.068 606.34 614.42 559.2C620.098 509.163 625.543 461.224 628.359 453.789C628.756 452.741 649.143 448.511 673.063 443.955C706.848 437.522 747.868 430.292 749.109 430.56C749.5 430.641 749.838 430.711 750.229 430.793C752.357 431.23 755.592 431.888 756.303 432.506C756.7 432.85 756.764 433.217 756.42 433.613C756.088 433.992 742.142 436.637 723.912 440.092C689.649 446.594 640.118 455.992 639.681 457.046C639.681 457.058 639.681 457.075 639.663 457.163C638.836 461.311 631.227 517.798 624.115 573.363C617.078 628.3 610.432 682.287 611.12 683.435C612.064 683.417 616.361 681.279 621.497 678.523C630.703 673.588 642.374 666.713 642.806 666.259C642.963 666.09 644.421 644.287 646.082 619.444C648.228 587.288 650.717 550.07 651.539 547.238C652.367 544.395 659.713 537.968 669.699 531.629C677.698 526.555 687.428 521.486 696.861 518.322C706.883 514.96 715.15 513.113 721.038 512.507C724.087 512.193 726.518 512.21 728.244 512.525C730.179 512.874 731.305 513.62 731.538 514.721C731.579 514.914 731.59 515.106 731.573 515.304C731.421 517.174 730.028 520.6 728.314 524.055C726.221 528.279 723.621 532.602 722.227 534.187C720.781 535.836 714.765 538.644 707.559 541.581C694.768 546.795 678.083 552.499 676.8 552.756C675.669 552.983 671.238 551.305 667 549.697C664.592 548.782 662.243 547.896 660.733 547.407C661.881 548.089 663.665 549.033 665.525 550.017C669.513 552.132 673.845 554.428 673.961 555.745L674.119 557.568V557.638V557.708C673.699 560.487 672.673 569.769 671.343 581.806C669.379 599.594 666.744 623.4 664.423 641.17C663.269 649.986 661.572 657.152 660.558 661.44C659.998 663.812 659.077 664.965 659.375 665.07C659.864 665.239 662.569 664.085 665.863 662.518C671.717 659.721 679.191 655.614 680.065 655.008C680.182 654.926 680.316 654.886 680.45 654.88C681.062 654.868 681.336 655.847 681.342 657.525C681.348 658.842 681.278 660.683 681.149 662.833C680.549 673.075 678.724 690.624 678.275 692.238C678.112 692.838 677.803 693.048 677.372 692.932C676.678 692.739 676.433 689.43 676.194 686.132C675.996 683.429 675.803 680.737 675.599 680.248C675.506 680.015 665.403 683.825 654.454 688.084C648.507 690.397 642.339 692.885 637.349 694.994C632.778 696.923 629.193 698.537 627.66 699.399C630.458 699.917 642.462 701.461 656.04 703.209C661.228 703.879 666.644 704.573 671.746 705.248C679.354 706.251 686.42 707.107 691.824 707.614C697.159 708.115 700.831 708.29 701.741 707.94C703.123 707.41 706.073 705.674 709.605 703.332C712.929 701.129 716.753 698.403 720.268 695.647C723.481 693.13 726.565 690.799 728.926 689.069C730.459 687.95 731.748 687.076 732.645 686.552C731.724 686.301 729.556 685.876 726.81 685.375C722.822 684.652 717.68 683.924 713.168 683.336C707.822 682.636 703.327 682.141 702.714 682.083C700.371 681.879 700.592 660.263 700.732 647.003C700.785 642.021 700.826 638.24 700.732 637.342C700.732 637.342 700.732 637.342 700.738 637.342C700.627 637.319 700.412 637.36 700.126 637.453C699.712 637.587 699.217 637.826 698.68 638.135C696.675 639.283 694.325 641.229 694.249 641.945C694.144 642.918 693.048 663.176 692.541 677.632C692.273 685.351 692.145 691.347 692.372 691.632C692.419 691.685 692.658 691.283 693.182 690.863C694.039 690.176 695.159 689.08 696.261 687.997C698.33 685.969 700.336 684 701.251 684.565C701.391 684.652 701.484 684.775 701.537 684.938C701.648 685.287 701.35 686.045 700.779 686.989C700.289 687.793 699.59 688.83 698.791 689.896C696.873 692.454 694.395 695.157 692.973 695.35C691.579 695.536 687.317 695.769 683.971 695.781C681.458 695.786 679.383 695.606 679.091 695.087C678.852 694.656 678.992 694.324 679.453 694.068C680.077 693.718 682.088 693.444 684.105 693.165C686.169 692.879 688.244 692.594 688.274 692.541C688.425 692.238 689.002 677.975 689.463 664.493C689.871 652.549 690.192 641.287 690.058 641.013C689.883 640.658 688.478 639.556 687.23 638.694C686.764 638.374 686.326 638.094 685.977 637.896C685.866 638.671 685.638 640.285 685.382 642.161C684.723 646.956 683.843 653.318 682.992 653.324H682.986H682.98C682.91 653.324 682.852 653.307 682.794 653.283C682.345 653.085 682.216 650.644 682.286 647.568C682.356 644.701 682.502 641.223 682.665 638.688C682.788 636.795 682.922 635.373 683.05 635.029C683.318 634.289 686.245 631.912 689.195 630.287C691.229 629.168 693.328 628.364 694.669 628.62C696.249 628.918 697.835 629.395 699.164 630.007C700.417 630.584 701.455 631.289 702.085 632.087C702.872 633.083 703.402 636.241 703.834 638.822C704.085 640.32 704.3 641.602 704.37 641.893C704.883 641.893 705.997 641.619 707.169 641.147C708.399 640.658 709.658 639.958 710.264 639.149C710.457 638.892 710.579 638.624 710.597 638.362C710.62 638.007 710.643 637.599 710.684 637.15C710.066 637.016 709.699 636.894 709.64 636.783C709.547 636.614 709.518 636.294 709.536 635.833C709.751 631.248 714.468 603.666 719.347 577.121C724.25 550.448 729.398 524.76 730.459 524.183C730.57 524.125 730.681 524.102 730.797 524.108C731.305 524.131 731.52 524.673 731.468 525.675C731.141 532.573 723.306 575.851 718.42 602.856C716.357 614.253 714.823 622.736 714.602 624.262C714.759 624.262 715.027 624.251 715.366 624.216C716.013 624.152 716.835 623.994 717.715 623.779C720.251 623.167 723.178 622.171 723.411 621.693C723.696 621.122 733.532 555.739 741.39 503.471C746.626 468.641 750.992 439.631 751.132 439.305C751.15 439.264 751.167 439.229 751.185 439.2C751.418 438.787 752.252 438.157 753.19 437.744C754.146 437.318 755.266 437.074 756.088 437.423C756.152 437.452 756.216 437.482 756.268 437.511C757.044 437.948 752.718 467.138 747.162 502.218C738.825 554.818 727.912 620.901 727.381 622.305C726.95 623.435 725.113 624.862 722.915 626.173C720.099 627.857 716.636 629.419 714.922 629.879C713.716 630.205 712.981 631.656 712.526 633.322C712.241 634.377 712.066 635.513 711.961 636.533C724.612 638.566 829.639 644.695 829.959 644.713L829.895 645.925C829.58 645.907 728.343 640.011 711.885 637.372C711.856 637.762 711.827 638.123 711.809 638.438C711.78 638.956 711.57 639.434 711.238 639.877C710.48 640.891 709.022 641.712 707.617 642.277C706.218 642.837 704.825 643.14 704.219 643.105C703.997 643.093 703.805 643.035 703.665 642.924C703.233 642.604 702.959 640.966 702.633 639.02C702.225 636.579 701.723 633.584 701.135 632.839C700.633 632.204 699.747 631.615 698.651 631.114C697.409 630.543 695.928 630.094 694.442 629.815C693.416 629.623 691.597 630.351 689.772 631.353C687.038 632.856 684.385 634.89 684.187 635.443C684.105 635.676 683.989 636.975 683.878 638.764C683.715 641.316 683.563 644.777 683.499 647.597C683.464 649.094 683.336 650.364 683.254 651.174C683.47 649.362 683.726 645.26 684.175 641.992C684.548 639.277 684.851 637.08 684.986 636.824C685.032 636.731 685.102 636.655 685.19 636.597C685.487 636.387 685.965 636.498 686.536 636.806C686.915 637.016 687.405 637.325 687.918 637.686C689.288 638.636 690.874 639.935 691.136 640.465C691.369 640.937 691.084 652.427 690.67 664.528C690.203 678.144 689.58 692.629 689.352 693.077C689.037 693.706 686.647 694.039 684.263 694.365C683.767 694.435 683.277 694.499 682.805 694.569C683.172 694.569 683.563 694.569 683.965 694.569C687.259 694.557 691.445 694.336 692.809 694.149C693.859 694.009 696.051 691.527 697.823 689.174C698.587 688.16 699.263 687.158 699.741 686.371L699.799 686.278C699.129 686.901 698.132 687.88 697.118 688.876C696.004 689.966 694.873 691.079 693.946 691.819C692.856 692.693 691.952 693.048 691.433 692.396C690.996 691.848 691.06 685.573 691.334 677.597C691.836 663.112 692.943 642.802 693.043 641.823C693.153 640.786 695.823 638.38 698.08 637.086C698.674 636.742 699.251 636.468 699.759 636.305C700.359 636.113 700.884 636.078 701.28 636.259C701.659 636.434 701.892 636.748 701.939 637.232C702.032 638.187 701.992 641.998 701.939 647.02C701.805 659.85 701.589 680.772 702.814 680.877C703.408 680.929 707.891 681.43 713.319 682.135C717.843 682.724 722.997 683.458 727.02 684.186C730.109 684.746 732.564 685.369 733.683 686.033C733.829 685.987 733.928 685.975 733.986 685.998C734.663 686.307 735.31 689.424 735.677 691.219C735.776 691.708 735.858 692.087 735.904 692.256V692.279H735.91V692.302C736.033 692.955 728.378 698.81 720.496 704.508C712.719 710.125 704.702 715.701 703.869 715.916H703.845L703.828 715.922H703.805C703.28 716.021 693.101 715.124 680.17 713.924C656.809 711.756 624.354 708.599 623.888 708.523C623.287 708.43 622.803 707.095 622.704 705.627C622.669 705.138 622.663 704.625 622.704 704.147C622.739 703.646 622.821 703.174 622.955 702.79C623.217 702.021 623.684 701.531 624.424 701.584C624.815 701.613 628.68 702.096 634.521 702.825C655.014 705.388 699.829 710.987 702.58 710.568C704.137 710.329 710.649 705.627 717.278 700.424C722.63 696.223 728.028 691.749 730.937 689.075C730.547 689.372 730.115 689.698 729.643 690.048C727.264 691.784 724.192 694.109 721.015 696.596C717.464 699.381 713.611 702.126 710.276 704.34C706.667 706.728 703.63 708.511 702.172 709.071C701.082 709.484 697.223 709.333 691.713 708.814C686.28 708.301 679.196 707.445 671.588 706.443C666.306 705.744 660.984 705.062 655.888 704.404C640.112 702.376 626.424 700.611 625.986 699.83C625.753 699.416 625.998 698.997 626.657 698.583C627.974 697.756 631.845 695.996 636.883 693.87C641.902 691.749 648.076 689.261 654.023 686.948C665.548 682.467 676.322 678.791 676.73 679.782C677.01 680.452 677.208 683.242 677.412 686.039C677.488 687.053 677.529 688.055 677.552 688.935C678.264 683.202 679.47 670.757 679.937 662.763C680.065 660.613 680.135 658.795 680.129 657.525C680.129 656.797 680.502 656.307 680.526 656.144C678.969 657.105 671.932 660.957 666.382 663.608C662.838 665.297 659.818 666.503 658.972 666.212C658.238 665.956 658.652 664.208 659.369 661.161C660.383 656.89 662.074 649.741 663.216 641.013C665.525 623.348 668.16 599.495 670.131 581.672C671.454 569.704 672.474 560.452 672.9 557.603L672.748 555.849C672.69 555.185 668.667 553.053 664.96 551.089C661.619 549.318 658.518 547.675 658.267 546.772C658.133 546.288 658.319 545.991 658.797 545.857C659.672 545.613 663.473 547.052 667.432 548.555C671.512 550.099 675.768 551.713 676.567 551.555C677.826 551.305 694.372 545.636 707.104 540.445C714.165 537.566 720.012 534.863 721.318 533.377C722.647 531.862 725.171 527.65 727.229 523.507C728.885 520.169 730.226 516.906 730.366 515.199C730.372 515.112 730.366 515.03 730.354 514.96C730.232 514.389 729.439 513.964 728.034 513.708C726.419 513.416 724.105 513.405 721.166 513.708C715.36 514.308 707.18 516.131 697.252 519.464C687.93 522.593 678.293 527.615 670.358 532.649C660.605 538.842 653.463 544.977 652.711 547.564C651.93 550.262 649.446 587.417 647.301 619.514C645.627 644.59 644.158 666.591 643.692 667.08C643.226 667.575 631.362 674.596 622.08 679.578C616.542 682.549 611.843 684.81 610.799 684.606C610.758 684.594 610.718 684.582 610.683 684.565C609.237 683.848 615.784 628.964 622.926 573.194C630.044 517.576 637.658 461.049 638.486 456.912C638.515 456.755 638.55 456.639 638.579 456.569C639.267 454.914 689.183 445.44 723.714 438.891C738.93 436.007 751.126 433.689 754.56 433.007C753.383 432.657 751.435 432.261 750.013 431.97C749.535 431.871 749.109 431.783 748.888 431.737C747.757 431.492 706.994 438.728 673.32 445.137C649.761 449.624 629.747 453.62 629.525 454.203C626.762 461.498 621.328 509.361 615.656 559.322C610.304 606.48 604.736 655.492 600.976 674.153C599.868 679.653 598.749 682.654 597.618 682.427C596.452 682.194 598.848 666.684 600.9 653.411C602.206 644.946 603.372 637.407 603.483 635.63C602.888 635.426 600.323 635.496 596.423 635.769C591.998 636.078 585.964 636.702 579.201 637.5C555.38 640.308 522.522 645.202 518.342 646.432C519.846 647.486 524.254 649.502 528.428 651.419C532.509 653.289 536.374 655.06 537.278 655.835C537.727 656.22 537.814 656.593 537.499 656.966C537.476 656.995 537.342 657.035 537.114 657.094C538.554 657.63 540.024 658.16 541.499 658.667C550.465 661.761 559.671 664.406 566.597 666.398C572.706 668.152 577.055 669.405 578.064 670.069C578.554 670.395 578.676 670.762 578.402 671.17C577.732 672.12 526.416 680.819 472.332 689.605C412.534 699.317 349.25 709.205 347.454 708.837C345.787 708.494 337.007 704.963 328.221 701.426C323.522 699.533 318.817 697.639 315.238 696.247C316.707 697.004 318.368 697.832 320.152 698.688C330.104 703.483 343.653 709.234 347.203 709.822C348.877 710.102 369.392 707.171 397.615 702.848C430.782 697.762 474.448 690.752 510.681 684.728C536.992 680.352 559.338 676.262 571.033 674.124C576.525 673.122 579.691 672.539 579.93 672.557C580.414 672.598 580.857 672.813 581.212 673.157C581.498 673.431 581.725 673.786 581.871 674.194C582.011 674.59 582.075 675.039 582.034 675.511C581.964 676.327 581.597 677.224 580.792 678.057C579.86 679.024 538.327 685.917 490.632 693.479C426.514 703.646 351.15 715.107 348.62 714.99C346.999 714.914 341.56 712.712 335.141 709.857C323.405 704.637 308.271 697.202 307.56 696.765C307.087 696.474 306.784 695.985 306.674 695.454C306.598 695.087 306.609 694.703 306.72 694.342C306.831 693.969 307.047 693.625 307.367 693.351C307.595 693.159 307.869 693.013 308.195 692.92C308.166 692.821 308.166 692.728 308.195 692.64C308.213 692.57 308.242 692.506 308.277 692.454C309.07 691.16 320.537 689.232 331.107 687.449C335.928 686.639 340.557 685.858 343.886 685.2C348.667 684.262 389.068 678.272 431.691 671.963C474.757 665.583 520.091 658.865 532.975 656.808C528.119 654.909 523.694 653.009 520.108 651.466C515.748 649.595 512.646 648.261 511.655 648.144C509.696 647.923 492.626 649.863 471.014 652.52C432.962 657.199 381.023 664.08 372.354 665.291C370.803 665.507 368.669 665.74 366.098 665.991C366.092 666.16 366.081 666.317 366.063 666.474C366.046 666.696 366.017 666.923 365.976 667.162C365.667 669.154 341.863 671.572 314.287 674.369C278.002 678.051 235.105 682.409 231.963 686.109C231.251 686.948 230.482 687.723 229.666 688.451C234.569 689.174 239.273 690.345 243.64 692.145C244.036 692.186 244.439 692.227 244.847 692.273C251.72 693.031 259.678 694.586 268.691 696.812C275.763 698.56 281.546 701.7 285.563 705.219C290.122 709.216 292.425 713.749 291.807 717.379C291.621 718.48 291.177 719.523 290.507 720.519C285.318 728.21 265.858 732.749 244.194 734.753C222.64 736.746 198.86 736.262 184.874 733.873C179.808 733.011 175.995 731.886 173.984 730.529C168.911 727.109 164.836 723.514 162.918 719.546C160.954 715.485 161.233 711.098 164.965 706.216C169.634 700.098 180.892 698.973 193.211 697.744C205.121 696.556 218.046 695.268 226.634 689.278C226.319 689.244 226.004 689.209 225.684 689.179C214.583 688.078 202.609 689.028 191.252 690.117C187.9 690.438 184.495 690.549 181.166 690.653C178.677 690.729 176.24 690.811 173.908 690.974C154.127 696.591 66.1234 706.478 23.6522 711.25C10.0159 712.782 1.20097 712.904 1.20097 713.335C1.20097 713.481 1.0902 713.44 0.961944 713.335H0.682106V713.953L0.699595 713.97ZM0.979434 713.353C0.880324 713.271 0.775385 713.143 0.699595 713.032V713.353H0.979434ZM176.17 689.64C176.555 689.447 176.753 689.267 176.735 689.104C176.712 688.882 176.625 688.568 176.479 688.171C174.042 688.032 172.141 687.793 171.308 687.484C169.669 686.878 166.982 681.751 163.857 675.785C159.152 666.806 153.404 655.847 149.947 656.657C145.329 657.74 148.285 674.573 149.859 683.563C150.244 685.771 150.553 687.519 150.652 688.515C150.949 691.58 153.293 691.865 160.528 691.166C162.102 691.015 164.014 690.799 166.195 690.56C167.751 690.385 169.448 690.199 171.383 689.995C172.928 689.832 174.532 689.721 176.181 689.645L176.17 689.64ZM164.965 665.827C170.369 674.182 175.494 682.899 177.283 687.006C180.414 687.146 184.361 687.117 188.057 686.855C190.861 686.657 193.514 686.319 195.531 685.812C197.397 685.346 198.673 684.775 198.924 684.099C198.953 684.023 198.965 683.947 198.959 683.866C198.767 681.162 196.242 670.797 192.861 662.932C190.82 658.195 188.518 654.408 186.32 653.93C183.836 653.388 180.496 653.511 177.138 653.627C171.984 653.814 166.789 654 164.148 651.821C162.603 650.539 160.959 648.715 159.356 646.933C156.733 644.014 154.208 641.217 152.774 641.421C151.69 641.578 150.18 641.881 149.154 642.429C148.728 642.656 148.396 642.918 148.244 643.215C148.122 643.466 148.128 643.769 148.326 644.153C148.6 644.672 149.189 645.295 150.191 646.035C152.803 647.952 159.059 656.709 164.959 665.833L164.965 665.827ZM247.179 693.782C250.181 695.332 252.991 697.226 255.562 699.527C260.675 704.106 263.089 707.276 263.712 709.251C265.963 709.915 267.98 711.133 267.811 713.528V713.533C267.589 716.581 264.709 718.713 261.002 720.012C257.434 721.259 253.067 721.743 249.674 721.498H249.645C245.558 721.201 242.165 719.896 239.279 718.195C236.422 716.505 234.061 714.425 232.003 712.543C222.74 704.077 218.798 705.563 211.523 708.313C211.144 708.459 210.753 708.604 210.357 708.756C210.881 709.012 211.68 708.937 212.735 708.424C214.717 707.457 216.56 707.171 218.583 707.457C220.559 707.736 222.681 708.552 225.27 709.81C228.855 711.547 231.636 713.691 234.289 715.73C240.41 720.444 245.809 724.598 258.914 721.417C260.016 721.149 261.176 720.653 262.401 720.123C263.304 719.733 264.243 719.331 265.269 718.975C265.893 718.76 266.388 718.777 266.738 718.958C267.047 719.121 267.24 719.389 267.31 719.733C267.362 720.001 267.339 720.304 267.228 720.624C266.966 721.399 266.167 722.407 264.855 723.211C263.613 723.974 261.369 724.79 258.605 725.413C256.238 725.949 253.487 726.34 250.648 726.439C246.922 726.561 243.063 726.317 239.786 725.903C235.828 725.402 232.685 724.638 231.607 723.986C229.94 722.972 227.427 721.865 224.279 720.822C221.41 719.873 218.029 718.987 214.298 718.282C211.027 717.659 209.004 716.19 207.838 714.6C207.139 713.644 206.748 712.648 206.579 711.751C206.404 710.824 206.474 709.991 206.69 709.42C206.87 708.942 207.174 708.61 207.552 708.476C207.867 708.366 208.17 708.261 208.474 708.15C208.392 707.853 208.351 707.532 208.345 707.189C208.322 706.181 208.625 704.957 209.284 703.658C211.324 699.638 216.91 694.633 227.369 692.512C230.738 691.83 234.662 691.615 239.139 691.825C235.705 690.747 232.102 690.001 228.383 689.512C219.556 696.352 205.879 697.715 193.316 698.968C181.271 700.168 170.264 701.269 165.915 706.967C162.51 711.424 162.236 715.392 163.997 719.034C165.804 722.774 169.734 726.223 174.648 729.533C176.514 730.791 180.163 731.852 185.066 732.685C198.965 735.056 222.623 735.54 244.077 733.553C265.421 731.578 284.531 727.19 289.493 719.843C290.064 718.993 290.443 718.107 290.6 717.181C291.148 713.965 288.991 709.851 284.753 706.14C280.87 702.737 275.262 699.696 268.388 697.995C260.483 696.043 253.405 694.61 247.161 693.782H247.179ZM254.752 700.43C251.347 697.383 247.511 695.07 243.348 693.339C237.157 692.739 231.904 692.827 227.619 693.695C217.603 695.722 212.298 700.43 210.386 704.2C209.814 705.324 209.558 706.344 209.575 707.165C209.575 707.369 209.599 707.556 209.64 707.73C210.141 707.544 210.625 707.363 211.097 707.183C218.822 704.264 223.008 702.679 232.825 711.652C234.837 713.487 237.134 715.514 239.903 717.152C242.643 718.771 245.861 720.007 249.732 720.286H249.761C253.015 720.519 257.189 720.059 260.599 718.865C263.876 717.723 266.412 715.916 266.592 713.446V713.44C266.692 711.995 265.444 711.127 263.87 710.58C263.812 711.075 263.602 711.471 263.258 711.774C262.721 712.252 261.876 712.438 260.832 712.357C258.261 712.158 254.134 710.329 250.385 707.369C249.05 706.315 247.803 705.225 246.718 704.223C245.016 702.65 243.716 701.292 243.144 700.675C242.369 699.836 242.107 699.125 242.165 698.618C242.2 698.292 242.352 698.035 242.591 697.855C242.8 697.692 243.063 697.604 243.366 697.598C243.984 697.581 244.829 697.936 245.517 698.729C246.059 699.346 247.639 700.914 249.412 702.463C249.196 702.009 249.103 701.584 249.178 701.211C249.208 701.077 249.254 700.943 249.324 700.82C249.61 700.308 250.059 700.069 250.618 700.046C251.131 700.028 251.726 700.214 252.327 700.541C252.88 700.844 253.463 701.281 254 701.788C255.411 703.116 256.547 704.992 256.233 706.455C256.192 706.658 256.11 706.833 255.999 706.985L255.988 707.002C256.512 707.352 257.008 707.655 257.434 707.888C257.9 708.144 258.261 708.307 258.454 708.348C258.675 708.395 259.031 708.435 259.468 708.488C260.238 708.581 261.235 708.703 262.272 708.913C261.398 707.09 259.095 704.328 254.763 700.448L254.752 700.43ZM262.459 710.865C262.605 710.731 262.681 710.527 262.669 710.23C261.456 709.939 260.209 709.787 259.317 709.676C258.844 709.618 258.46 709.572 258.209 709.519C257.894 709.455 257.416 709.245 256.839 708.931C256.128 708.54 255.242 707.975 254.326 707.317C254.215 707.282 254.099 707.241 253.982 707.194C253.324 706.932 252.519 706.437 251.656 705.819C248.899 703.838 245.459 700.5 244.596 699.515C244.159 699.02 243.698 698.793 243.383 698.799H243.366C243.378 699.003 243.57 699.346 244.031 699.842C244.596 700.453 245.867 701.776 247.54 703.326C248.601 704.305 249.826 705.377 251.137 706.414C254.699 709.228 258.559 710.958 260.926 711.139C261.649 711.191 262.179 711.11 262.459 710.859V710.865ZM254.898 706.239C254.968 706.256 255.008 706.256 255.02 706.239C255.02 706.239 255.026 706.216 255.038 706.186C255.253 705.184 254.309 703.739 253.16 702.656C252.694 702.219 252.198 701.846 251.732 701.589C251.312 701.362 250.933 701.228 250.653 701.24C250.531 701.24 250.432 701.292 250.379 701.386C250.374 701.397 250.368 701.415 250.362 701.432C250.239 702.05 251.33 703.273 252.741 704.514C253.417 705.109 254.163 705.697 254.898 706.227V706.239ZM209.045 709.239C208.695 709.368 208.34 709.496 207.966 709.624C207.937 709.636 207.896 709.717 207.844 709.857C207.698 710.242 207.657 710.836 207.792 711.529C207.931 712.263 208.252 713.085 208.835 713.883C209.844 715.258 211.622 716.534 214.537 717.088C218.332 717.81 221.766 718.707 224.669 719.669C227.905 720.735 230.505 721.883 232.254 722.949C233.204 723.526 236.16 724.219 239.955 724.703C243.174 725.11 246.963 725.355 250.624 725.233C253.376 725.14 256.052 724.755 258.355 724.237C260.978 723.642 263.089 722.879 264.231 722.18C265.281 721.533 265.905 720.787 266.085 720.24C266.114 720.152 266.132 720.082 266.132 720.03C266.044 720.018 265.899 720.047 265.671 720.129C264.704 720.467 263.777 720.863 262.885 721.248C261.614 721.795 260.424 722.308 259.2 722.599C245.529 725.92 239.915 721.597 233.542 716.691C230.942 714.687 228.208 712.59 224.739 710.906C222.256 709.706 220.238 708.919 218.414 708.663C216.636 708.412 215.009 708.663 213.266 709.519C211.68 710.294 210.403 710.271 209.54 709.688C209.354 709.566 209.191 709.414 209.045 709.245V709.239ZM364.891 664.889C364.833 663.351 364.483 661.545 363.609 659.908C362.449 657.729 360.35 655.835 356.741 655.276C356.66 655.264 356.572 655.253 356.485 655.241C351.453 657.105 345.035 658.02 337.007 658.02C334.856 658.02 332.034 657.915 328.781 657.799C323.324 657.595 316.637 657.35 309.583 657.484C299.73 657.671 289.143 658.207 280.246 658.952C271.956 659.646 265.176 660.525 261.888 661.481C257.3 662.809 249.009 663.8 240.719 664.79C229.199 666.165 217.673 667.54 216.612 669.574C215.58 671.555 215.3 675.196 215.685 677.993C215.819 678.966 216.035 679.828 216.332 680.463C216.571 680.976 216.834 681.302 217.114 681.36C217.23 681.384 217.37 681.36 217.539 681.267C219.189 680.411 228.878 678.471 238.597 676.874C247.424 675.423 256.303 674.241 259.218 674.392C260.698 674.468 261.853 674.555 262.791 674.631C265.17 674.812 265.969 674.87 266.155 674.474C264.342 674.474 263.025 674.322 262.465 673.967C261.206 673.174 261.503 666.014 261.602 663.637C261.614 663.369 261.62 663.165 261.625 663.066C261.678 661.341 263.952 661.376 265.479 661.399C265.566 661.399 265.648 661.399 265.916 661.399C265.957 661.399 266.004 661.399 266.05 661.411C266.767 661.533 267.158 662.908 267.333 664.773C267.49 666.404 267.549 668.449 267.549 670.244C267.549 671.403 267.525 672.475 267.484 673.273C271.606 673.128 277.914 672.44 283.843 671.799C289.924 671.135 295.608 670.518 298.261 670.588C301.263 670.669 308.755 670.844 315.599 670.57C321.4 670.337 326.699 669.824 328.122 668.764C312.002 669.743 297.55 670.448 295.976 670.29C295.661 670.261 295.381 670.186 295.136 670.069C294.366 669.714 293.912 669.02 293.69 668.14C293.492 667.366 293.474 666.428 293.568 665.472C293.754 663.567 294.384 661.533 294.85 660.525C295.34 659.465 300.523 658.947 306.732 658.766C316.077 658.486 327.959 658.83 328.921 659.232C329.848 659.622 330.262 660.881 330.337 662.506C330.401 663.957 330.215 665.758 329.9 667.435C332.477 667.278 335.083 667.109 337.677 666.94C347.851 666.276 357.82 665.548 364.88 664.889H364.891ZM355.931 653.953C356.065 653.965 356.205 653.982 356.345 653.994C361.085 652.182 364.489 649.479 366.763 645.837C369.019 642.225 368.413 635.63 367.637 627.21C366.839 618.564 365.865 608.018 367.632 596.645C368.057 593.89 368.529 590.417 369.019 586.461C368.862 586.933 368.611 587.376 368.25 587.766C366.023 590.172 363.795 591.78 361.458 593.47C359.685 594.752 357.849 596.08 355.937 597.811C351.401 601.912 346.323 604.715 341.886 606.451C342.615 606.364 343.309 606.236 343.979 606.067C346.113 605.531 347.99 604.622 349.757 603.713C353.698 601.685 356.648 598.79 358.962 596.511C361.353 594.158 363.119 592.421 364.868 592.759C365.737 592.928 366.04 593.429 365.883 594.222C365.62 595.568 363.335 598.05 360.379 601.254C359.505 602.198 358.578 603.212 357.598 604.295C354.957 607.232 352.771 609.248 350.561 610.57C348.317 611.91 346.061 612.528 343.303 612.65C342.353 612.691 341.333 612.808 340.312 612.942H340.33C340.528 612.965 340.808 613.012 341.14 613.064C342.86 613.338 346.247 613.88 348.713 612.674C350.299 611.899 351.774 610.978 352.975 610.227C354.38 609.347 355.429 608.694 356.053 608.7C356.625 608.706 356.922 608.997 356.916 609.627C356.91 610.174 356.817 610.699 356.654 611.2C355.464 614.835 350.346 617.253 344.172 618.733C338.132 620.178 331.054 620.743 325.755 620.662H325.644C326.956 628.953 327.743 634.377 327.632 634.703C326.513 637.861 323.645 641.543 320.549 644.701C316.497 648.832 311.955 652.089 310.387 652.101C308.201 652.118 302.441 649.566 297.474 646.665C293.031 644.072 289.16 641.135 288.869 639.382C288.77 638.805 288.496 635.303 288.105 629.867C284.881 631.435 281.092 633.124 277.174 634.726C269.059 638.036 260.337 640.984 254.833 641.706C251.318 642.167 245.471 642.965 237.845 644.124C230.249 645.278 221.002 646.775 210.794 648.611C209.826 648.785 208.847 648.943 207.867 649.083C208.141 652.258 208.532 655.095 209.062 657.426C209.08 657.502 209.097 657.566 209.109 657.624C210.083 661.178 214.992 662.804 222.127 663.007C229.485 663.217 239.139 661.889 249.312 659.57C252.111 658.935 254.938 658.224 257.754 657.455C266.546 655.055 280.923 653.837 296.034 653.301C322.006 652.374 350.188 653.446 355.908 653.948L355.931 653.953ZM206.579 648.045C206.048 640.897 206.089 632.209 206.538 623.575C207.139 612.12 208.462 600.741 210.129 593.132C208.071 593.074 206.013 593.016 204.014 592.987C200.23 596.71 196.371 598.492 193.199 599.098C191.304 599.465 189.637 599.413 188.366 599.098C186.984 598.76 186.022 598.096 185.673 597.298C185.352 596.576 185.486 595.795 186.18 595.061C188.932 592.159 195.782 591.693 203.524 591.769C206.567 588.669 209.552 584.224 212.047 577.99C214.175 572.682 216.857 555.383 218.589 544.214C219.16 540.549 219.626 537.543 219.935 535.818C220.565 532.375 218.717 524.358 216.35 517.53C214.799 516.551 213.225 515.1 211.925 513.55C210.876 512.298 210.001 510.969 209.465 509.775C208.882 508.475 208.683 507.293 209.057 506.43C209.232 506.023 209.523 505.696 209.943 505.463C210.141 505.353 210.351 505.3 210.578 505.3C211.581 505.3 212.724 506.57 213.866 508.621C214.922 510.509 216.047 513.113 217.09 515.986C217.184 516.236 217.271 516.487 217.358 516.743C218.035 517.133 218.694 517.407 219.3 517.518C219.865 517.623 220.448 517.436 221.014 517.052C220.512 511.01 220.775 506.652 223.666 505.661C224.698 505.306 225.45 505.487 225.958 506.046C226.541 506.681 226.686 507.811 226.512 509.151C226.348 510.375 225.917 511.802 225.299 513.171C224.535 514.884 223.474 516.504 222.273 517.559C222.442 519.429 222.681 521.468 222.926 523.624C223.433 528.046 223.999 532.917 224.15 537.817C224.389 545.333 222.361 555.529 219.854 565.055C217.347 574.569 214.374 583.408 212.712 588.244C212.345 589.304 211.995 590.557 211.651 591.973C218.285 592.159 224.768 592.282 229.118 591.256C233.618 590.196 240.655 590.033 248.147 589.864C259.725 589.601 272.399 589.31 278.06 585.64C280.847 583.828 283.12 582.447 284.986 581.573C284.7 576.883 284.421 572.204 284.158 567.659C282.969 547.197 282.089 529.433 282.31 525.861C282.666 520.099 285.517 509.448 287.575 501.764C288.758 497.335 289.679 493.91 289.679 493.106C289.679 492.57 289.912 492.034 290.291 491.544C288.816 489.313 288.95 482.105 289.02 478.452C289.032 477.887 289.038 477.421 289.038 476.949C289.038 476.209 289.458 475.615 290.128 475.108C290.35 474.939 290.6 474.782 290.874 474.63C289.959 474.38 289.108 474.135 288.408 473.867C287.755 473.622 287.219 473.179 286.875 472.678C286.683 472.393 286.548 472.09 286.484 471.781C286.414 471.443 286.432 471.105 286.548 470.791C286.665 470.482 286.875 470.208 287.19 469.992C287.674 469.666 288.566 469.241 289.679 468.856C289.522 468.833 289.364 468.804 289.207 468.775C287.429 469.538 285.686 470.511 284.053 471.816C281.902 473.535 279.121 477.188 276.48 480.649C273.997 483.9 271.641 486.994 269.939 488.299C269.846 488.375 269.741 488.433 269.636 488.479C268.493 489.004 267.018 487.99 265.392 485.992C263.922 484.185 262.249 481.552 260.57 478.569C256.687 471.682 252.723 462.902 251.085 458.322C249.365 453.527 250.49 448.919 251.499 444.788C251.685 444.03 251.866 443.29 252.023 442.568C251.924 442.76 251.825 442.976 251.732 443.209C251.318 444.246 250.98 445.621 250.648 446.967C250.053 449.379 249.476 451.709 248.345 452.339C247.622 452.741 246.654 452.828 245.366 452.95C242.381 453.224 237.518 453.679 230.738 458.678C224.506 463.275 213.202 469.223 203.588 474.281C198.219 477.106 193.38 479.653 190.272 481.517C187.964 482.904 185.673 485.636 183.539 489.045C181.831 491.783 180.227 494.947 178.805 498.198C180.886 500.243 178.024 507.706 174.753 516.236C171.028 525.949 166.754 537.094 168.579 542.245C169.425 544.622 167.681 552.482 165.571 562.014C162.598 575.432 158.884 592.223 160.598 601.015C160.668 601.376 161.053 601.429 161.589 601.324C162.697 601.108 164.265 600.304 165.682 599.576C167.087 598.854 168.346 598.207 169.092 598.195C169.734 598.184 170.107 598.463 170.118 599.139C170.136 599.897 169.151 600.736 167.751 601.936C166.702 602.839 165.384 603.963 164.119 605.321C162.399 607.168 160.645 609.364 159.065 611.555C157.327 613.961 155.794 616.362 154.751 618.29C153.316 620.93 153.783 625.364 155.059 629.797C156.803 635.857 160.021 641.84 162.038 643.419C163.041 644.206 164.417 642.977 165.67 641.38C166.591 640.203 167.448 638.805 168.089 637.75C168.818 636.556 169.331 635.723 169.897 635.851C170.381 635.962 170.515 636.492 170.264 637.616C170.066 638.502 169.716 639.463 169.36 640.454C168.777 642.079 168.165 643.781 168.206 645.202C168.27 647.521 170.223 649.269 177.505 649.071C178.892 649.036 180.717 649.048 182.851 649.071C189.06 649.123 197.939 649.193 206.591 648.063L206.579 648.045ZM207.751 623.633C207.302 632.198 207.255 640.803 207.78 647.876C208.724 647.742 209.663 647.591 210.59 647.422C220.915 645.563 230.144 644.066 237.67 642.924C245.167 641.788 251.091 640.978 254.682 640.506C260.069 639.795 268.685 636.882 276.725 633.602C280.818 631.936 284.753 630.182 288.023 628.585C287.26 617.783 286.117 600.351 285.05 582.855C283.348 583.699 281.255 584.981 278.707 586.636C272.761 590.499 259.906 590.79 248.158 591.058C240.742 591.227 233.776 591.384 229.38 592.421C224.838 593.493 218.163 593.354 211.359 593.161C209.686 600.683 208.351 612.114 207.745 623.633H207.751ZM210.403 591.92C210.771 590.359 211.155 588.984 211.552 587.83C213.213 583 216.187 574.179 218.67 564.729C221.154 555.29 223.165 545.211 222.932 537.84C222.78 533.022 222.221 528.157 221.708 523.746C221.492 521.853 221.282 520.041 221.119 518.339C220.454 518.683 219.76 518.829 219.067 518.701C218.688 518.631 218.297 518.508 217.895 518.345C220.116 525.051 221.743 532.597 221.119 536.028C220.81 537.741 220.343 540.742 219.772 544.395C218.029 555.622 215.335 573.002 213.161 578.438C210.817 584.299 208.031 588.634 205.151 591.792C206.865 591.821 208.614 591.874 210.363 591.926H210.392L210.403 591.92ZM224.057 506.797C222.028 507.497 221.772 511.004 222.139 515.997C222.914 515.1 223.626 513.906 224.185 512.659C224.751 511.389 225.153 510.078 225.299 508.977C225.433 507.986 225.369 507.199 225.054 506.85C224.885 506.663 224.564 506.629 224.057 506.797ZM212.858 512.764C213.697 513.766 214.653 514.727 215.621 515.519C214.694 513.049 213.715 510.841 212.799 509.204C211.867 507.537 211.074 506.506 210.567 506.506C210.549 506.506 210.537 506.506 210.52 506.518C210.351 506.611 210.234 506.739 210.164 506.902C209.937 507.427 210.118 508.277 210.567 509.268C211.062 510.363 211.872 511.593 212.852 512.764H212.858ZM192.972 597.904C195.706 597.38 198.982 595.917 202.271 592.969C195.333 592.952 189.369 593.458 187.06 595.894C186.745 596.226 186.664 596.546 186.78 596.809C186.984 597.269 187.649 597.677 188.652 597.921C189.771 598.195 191.252 598.236 192.972 597.904ZM286.164 581.054C287.032 580.728 287.796 580.536 288.472 580.501C289.685 580.437 290.612 580.792 291.317 581.619C292.151 580.909 293.072 580.466 294.046 579.994C295.847 579.126 297.87 578.153 299.893 574.884C301.881 571.674 304.207 569.652 306.691 568.528C309.553 567.234 312.603 567.135 315.582 567.793C311.693 545.327 308.09 525.354 307.367 523.263C306.353 520.338 303.502 511.126 301.292 503.541C299.672 497.988 298.395 493.269 298.401 492.412C298.401 491.882 298.43 490.629 298.465 489.056C298.552 484.885 298.681 478.476 298.605 477.887C298.453 476.734 295.527 475.871 292.664 475.102C291.953 475.405 291.312 475.72 290.845 476.064C290.472 476.343 290.239 476.635 290.239 476.937C290.239 477.188 290.227 477.765 290.215 478.458C290.146 482.024 290.006 489.243 291.043 490.734C291.644 490.227 292.384 489.802 293.125 489.505C293.626 489.307 294.127 489.161 294.588 489.091C295.084 489.015 295.55 489.021 295.941 489.132C296.623 489.324 297.072 489.779 297.112 490.565C297.2 492.284 296.18 492.855 294.874 492.925C293.673 492.983 292.244 492.54 291.457 492.296L291.23 492.226C291.008 492.511 290.874 492.808 290.874 493.094C290.874 494.049 289.936 497.545 288.729 502.061C286.683 509.693 283.849 520.28 283.505 525.914C283.29 529.433 284.17 547.151 285.353 567.572C285.61 571.977 285.878 576.51 286.152 581.048L286.164 581.054ZM288.542 581.713C287.895 581.748 287.131 581.957 286.239 582.324C287.301 599.728 288.437 617.113 289.207 628.02C293.072 626.086 295.806 624.449 296.442 623.581C297.346 622.334 298.756 621.541 300.191 621.25C300.284 621.233 300.377 621.215 300.476 621.198C300.138 620.33 299.858 619.508 299.683 618.867C299.619 618.622 299.602 618.395 299.631 618.18C299.747 617.346 300.47 616.805 301.631 616.513C302.593 616.274 303.898 616.187 305.42 616.234C309.402 616.356 314.888 617.37 319.161 618.762C320.205 619.106 322.018 619.333 324.292 619.426C322.706 609.638 320.444 596.121 318.089 582.307C317.395 582.219 316.695 582.085 315.996 581.893C314.509 581.491 314.031 580.891 314.2 580.273C314.334 579.784 314.958 579.417 315.821 579.213C316.31 579.102 316.899 579.027 317.523 579.003C317.296 577.687 317.074 576.37 316.847 575.059C316.503 573.06 316.159 571.062 315.821 569.087C315.657 569.058 315.506 569.029 315.348 568.994C312.608 568.388 309.81 568.469 307.204 569.646C304.93 570.677 302.785 572.548 300.937 575.531C298.727 579.102 296.535 580.157 294.582 581.095C293.644 581.549 292.769 581.969 291.988 582.68C292.413 583.565 292.717 584.736 292.938 586.21C293.27 588.459 292.967 589.834 292.413 590.51C291.953 591.07 291.352 591.221 290.74 591.046C290.227 590.895 289.72 590.493 289.335 589.899C288.583 588.727 288.233 586.735 289.248 584.503C289.615 583.694 290.011 583.053 290.443 582.528C289.953 581.934 289.335 581.672 288.548 581.718L288.542 581.713ZM291.731 586.379C291.568 585.278 291.358 584.387 291.084 583.694C290.822 584.066 290.577 584.498 290.35 584.999C289.533 586.799 289.784 588.355 290.35 589.24C290.571 589.584 290.828 589.811 291.067 589.881C291.207 589.922 291.347 589.881 291.463 589.741C291.825 589.298 292.005 588.25 291.725 586.385L291.731 586.379ZM316.858 567.992C318.52 568.155 320.56 568.061 322.578 567.962C324.14 567.892 325.691 567.817 327.084 567.863C330.221 567.968 332.529 568.679 332.448 571.219C332.419 572.117 332.285 572.979 332.063 573.8C331.334 576.475 329.638 578.677 327.382 580.186C326 581.107 324.414 581.771 322.706 582.12C322.776 582.633 323.423 582.872 324.467 582.913C328.495 583.076 337.281 580.256 344.691 577.879C349.489 576.341 353.715 574.983 355.814 574.715C357.202 574.535 358.607 574.803 359.685 575.35C360.338 575.682 360.88 576.125 361.242 576.638C361.633 577.197 361.819 577.832 361.708 578.52C361.615 579.097 361.318 579.679 360.764 580.256C358.688 582.4 351.203 586.945 344.009 590.539C341.082 592.002 338.19 593.313 335.707 594.251C337.73 595.323 341.647 594.426 345.921 592.748C353.191 589.893 361.318 584.789 363.294 583.076C363.212 582.983 363.137 582.872 363.067 582.761C362.775 582.284 362.618 581.654 362.548 580.978C362.42 579.72 362.583 578.252 362.752 577.366C362.775 577.25 362.787 577.127 362.793 576.999C362.822 576.253 362.565 575.333 361.977 574.54C361.376 573.736 360.426 573.06 359.062 572.804C358.758 572.746 358.438 572.711 358.1 572.699C355.803 572.612 349.734 575.071 344.778 577.075C341.117 578.555 338.044 579.802 337.211 579.644C337.135 579.627 337.059 579.603 336.995 579.574C336.418 579.283 336.459 578.479 336.931 577.331C337.275 576.492 337.846 575.368 338.54 574.115C341.14 569.413 345.466 562.835 345.822 562.299C346.381 561.46 362.058 561.006 371.788 560.732L371.817 560.435C369.357 560.347 366.483 560.336 363.551 560.382C356.875 560.487 349.938 560.907 346.865 561.419C346.107 561.548 345.723 561.495 345.699 561.542C345.553 561.938 344.831 563.045 343.828 564.571C342.633 566.395 341.041 568.831 339.636 571.254C338.383 573.416 337.322 575.566 336.558 577.121C335.963 578.339 335.538 579.207 335.293 579.499C334.821 580.064 334.15 580.338 333.509 580.361C333.147 580.372 332.786 580.308 332.471 580.169C332.133 580.017 331.847 579.784 331.649 579.475C331.398 579.079 331.311 578.578 331.468 578.001C331.725 577.057 334.978 571.26 337.998 566.29C340.33 562.451 342.569 559.06 343.291 558.664C344.131 558.197 353.966 557.766 363.078 557.632C366.291 557.586 369.427 557.58 372.074 557.632L372.126 557.032C371.567 557.021 371.001 557.015 370.436 557.009H370.395C368.768 556.986 367.836 556.572 367.369 556.007C366.938 556.152 366.466 556.286 365.964 556.403C363.994 556.857 361.533 557.096 359.528 556.91H359.516C357.452 556.718 355.808 556.1 355.581 554.457C355.377 553.006 356.485 550.786 359.825 547.349C360.624 546.527 361.877 545.956 363.422 545.589C365.282 541.656 368.803 535.55 372.768 528.961C372.476 527.306 372.22 525.611 371.998 523.933C370.949 515.863 370.908 508.114 373.31 506.687H373.316L373.351 506.663H373.357C373.508 506.576 373.66 506.529 373.817 506.518C374.861 506.46 375.432 508.283 375.636 511.511C375.817 514.366 375.794 518.45 375.624 523.327C375.613 523.647 375.601 523.974 375.589 524.3C378.236 519.965 380.953 515.589 383.413 511.628C387.996 504.24 391.686 498.297 392.333 496.811C392.456 496.526 392.502 496.118 392.479 495.599C392.351 492.832 390.176 487.757 386.596 482.729C383.005 477.683 378.021 472.725 372.296 470.243C369.69 469.113 366.92 468.501 364.064 468.629C360.455 468.798 357.569 467.213 354.328 465.442C351.203 463.729 347.734 461.83 343.006 461.265C333.328 460.111 324.892 455.415 320.467 452.956C319.558 452.449 318.817 452.042 318.287 451.779C317.016 451.162 315.931 451.103 314.999 451.412C314.935 452.816 314.981 455.549 315.039 458.818C315.191 467.58 315.413 480.13 313.57 482.49C312.649 483.673 311.518 483.48 310.206 482.461C308.947 481.482 307.501 479.658 305.886 477.631C303.776 474.98 301.368 471.956 298.856 470.121C298.442 469.818 297.964 469.59 297.45 469.433C297.713 469.672 297.929 469.963 298.092 470.319C298.879 472.043 297.381 473.185 295.637 473.978C295.299 474.135 294.955 474.269 294.635 474.397C297.281 475.178 299.625 476.151 299.841 477.742C299.928 478.417 299.8 484.879 299.713 489.091C299.678 490.67 299.654 491.934 299.648 492.436C299.643 493.164 300.902 497.755 302.493 503.214C304.703 510.794 307.542 519.977 308.551 522.884C309.303 525.057 312.964 545.327 316.888 568.003L316.858 567.992ZM322.63 569.174C320.7 569.262 318.753 569.355 317.074 569.227C317.395 571.085 317.715 572.961 318.042 574.843C318.281 576.236 318.52 577.628 318.759 579.021C320.397 579.155 321.971 579.708 322.508 580.926C324.041 580.606 325.469 580.011 326.705 579.178C328.728 577.826 330.238 575.863 330.891 573.48C331.089 572.752 331.206 571.983 331.235 571.179C331.288 569.605 329.486 569.157 327.049 569.075C325.708 569.029 324.175 569.104 322.636 569.174H322.63ZM321.499 582.313C320.811 582.394 320.106 582.423 319.394 582.4H319.336C321.68 596.162 323.913 609.632 325.475 619.456C325.58 619.456 325.685 619.456 325.79 619.456C331.008 619.537 337.98 618.978 343.915 617.556C349.71 616.17 354.491 613.985 355.523 610.827C355.604 610.57 355.668 610.302 355.698 610.034C355.26 610.244 354.532 610.699 353.64 611.258C352.415 612.021 350.905 612.965 349.267 613.763C346.463 615.132 342.819 614.55 340.971 614.258C340.662 614.212 340.411 614.171 340.219 614.148C339.385 614.06 338.569 613.722 337.77 613.32C335.118 613.74 332.844 614.09 331.976 613.519C331.363 613.117 331.27 612.511 331.853 611.625C333.27 609.481 335.182 610.535 337.257 611.672C337.496 611.8 337.736 611.934 337.975 612.062C339.712 611.788 341.583 611.508 343.268 611.433C345.822 611.316 347.897 610.751 349.955 609.522C352.048 608.275 354.147 606.329 356.712 603.474C357.662 602.419 358.613 601.388 359.505 600.421C362.326 597.362 364.513 594.991 364.711 593.983C364.711 593.965 364.699 593.954 364.658 593.942C363.533 593.726 361.965 595.27 359.831 597.362C357.452 599.698 354.433 602.67 350.328 604.779C348.498 605.723 346.545 606.667 344.288 607.232C342.493 607.681 340.522 607.896 338.284 607.675C337.561 607.884 336.867 608.059 336.214 608.205C334.547 608.578 333.124 608.747 332.069 608.735C330.827 608.723 329.982 608.438 329.684 607.908C329.574 607.716 329.533 607.506 329.556 607.279C329.743 605.606 330.232 605.158 332.11 605.362C332.78 605.437 333.684 605.618 334.908 605.863C335.345 605.95 335.829 606.049 336.674 606.212C337.193 606.311 337.695 606.387 338.184 606.445C343.122 604.983 349.547 601.965 355.144 596.908C357.126 595.113 358.98 593.773 360.764 592.485C363.061 590.825 365.247 589.24 367.375 586.945C367.876 586.403 368.069 585.674 368.005 584.999C367.97 584.626 367.859 584.27 367.678 583.979C367.515 583.711 367.293 583.495 367.025 583.373C366.675 583.216 366.221 583.21 365.679 583.437C365.305 583.594 364.961 583.67 364.652 583.676C364.577 583.676 364.501 583.676 364.431 583.67C364.361 583.74 364.291 583.81 364.227 583.868C362.425 585.517 353.914 590.912 346.364 593.884C341.647 595.737 337.246 596.657 334.89 595.183C334.663 595.043 334.43 594.909 334.203 594.793C332.314 595.428 330.757 595.772 329.748 595.707C327.93 595.591 326.868 595.282 326.396 594.915C325.761 594.426 325.767 593.878 326.274 593.371C326.559 593.086 327.073 592.841 327.737 592.684C329.27 592.322 331.83 592.363 334.302 593.488C336.896 592.573 340.149 591.116 343.466 589.456C350.561 585.913 357.901 581.474 359.895 579.411C360.262 579.032 360.461 578.665 360.513 578.333C360.571 577.984 360.467 577.646 360.251 577.343C360.006 576.993 359.615 576.684 359.131 576.44C358.251 575.991 357.103 575.776 355.966 575.921C353.984 576.178 349.804 577.518 345.064 579.038C337.561 581.445 328.664 584.299 324.42 584.13C322.7 584.061 321.627 583.519 321.499 582.319V582.313ZM319.429 581.188C320.024 581.206 320.613 581.188 321.19 581.13C320.759 580.641 319.896 580.373 318.969 580.262L319.126 581.177C319.231 581.177 319.33 581.188 319.435 581.188H319.429ZM316.305 580.716C316.823 580.856 317.348 580.967 317.867 581.048L317.721 580.204C317.121 580.215 316.544 580.285 316.083 580.39C315.646 580.489 315.366 580.565 315.36 580.582C315.343 580.652 315.652 580.536 316.305 580.716ZM329.813 594.496C330.442 594.536 331.334 594.385 332.419 594.088C330.699 593.592 329.066 593.622 328.005 593.866C327.731 593.93 327.51 594.006 327.352 594.082C327.76 594.263 328.547 594.414 329.818 594.496H329.813ZM364.145 582.214C365.556 580.67 367.958 577.657 370.412 574.348C370.838 570.374 371.258 566.191 371.654 561.944C362.151 562.212 347.028 562.643 346.819 562.963C346.463 563.499 342.149 570.072 339.584 574.698C338.913 575.91 338.359 576.987 338.039 577.786C337.864 578.211 337.52 578.374 337.508 578.456C338.184 578.427 340.994 577.29 344.312 575.95C349.372 573.905 355.575 571.394 358.135 571.493C358.543 571.511 358.922 571.551 359.277 571.616C360.98 571.936 362.181 572.792 362.944 573.818C363.714 574.849 364.04 576.049 363.999 577.046C363.994 577.238 363.97 577.419 363.941 577.593C363.79 578.403 363.638 579.737 363.755 580.856C363.807 581.369 363.912 581.829 364.099 582.138C364.116 582.167 364.134 582.19 364.151 582.219L364.145 582.214ZM371.835 572.408C372.517 571.47 373.188 570.52 373.823 569.6C376.19 566.18 378.131 563.092 378.574 561.734C377.502 561.781 375.45 561.839 372.873 561.909C372.535 565.48 372.185 569.005 371.835 572.402V572.408ZM370.156 576.708C368.535 578.84 367.008 580.757 365.836 582.12C366.466 581.981 367.031 582.05 367.521 582.272C368.022 582.499 368.424 582.878 368.716 583.35C368.99 583.798 369.159 584.334 369.211 584.894V584.952C369.526 582.371 369.847 579.603 370.162 576.708H370.156ZM378.848 560.044C378.907 560.068 378.965 560.091 379.023 560.114C378.895 559.788 378.656 559.415 378.359 559.066C378.225 558.902 376.184 558.821 373.158 558.792L373.112 559.287C375.759 559.427 377.834 559.672 378.843 560.044H378.848ZM375.211 560.639C374.54 560.58 373.8 560.528 373.001 560.487L372.983 560.697C373.782 560.674 374.534 560.656 375.211 560.633V560.639ZM363.504 559.17C366.471 559.124 369.386 559.135 371.899 559.235L371.94 558.786C369.369 558.774 366.267 558.798 363.067 558.844C354.106 558.972 344.533 559.345 343.857 559.718C343.338 560.004 341.257 563.226 339.012 566.914C336.033 571.808 332.85 577.459 332.617 578.316C332.559 578.531 332.582 578.706 332.658 578.823C332.722 578.922 332.821 579.003 332.943 579.056C333.089 579.12 333.264 579.155 333.445 579.143C333.765 579.131 334.103 578.997 334.337 578.712C334.494 578.526 334.891 577.716 335.444 576.585C336.22 575.001 337.298 572.81 338.558 570.643C339.974 568.207 341.583 565.743 342.784 563.901C343.735 562.445 344.428 561.384 344.527 561.111C344.679 560.709 345.431 560.411 346.632 560.213C349.745 559.695 356.765 559.269 363.498 559.165L363.504 559.17ZM332.069 607.541C332.897 607.547 333.975 607.436 335.246 607.185L334.657 607.069C333.48 606.83 332.611 606.655 331.964 606.585C331.089 606.486 330.845 606.673 330.757 607.366C330.891 607.477 331.352 607.541 332.063 607.547L332.069 607.541ZM332.628 612.522C332.996 612.761 334.302 612.627 335.981 612.382C334.686 611.701 333.532 611.275 332.856 612.307C332.739 612.487 332.593 612.499 332.628 612.522ZM324.472 620.644C321.965 620.551 319.948 620.295 318.771 619.91C314.591 618.547 309.239 617.556 305.373 617.44C303.968 617.399 302.767 617.469 301.916 617.684C301.263 617.848 300.861 618.063 300.826 618.331C300.82 618.389 300.826 618.459 300.844 618.541C301.036 619.24 301.357 620.161 301.741 621.116C302.091 621.134 302.429 621.186 302.756 621.268C303.589 621.483 304.324 621.92 304.831 622.579C305.344 623.243 305.618 624.128 305.537 625.229C305.484 625.958 305.333 626.441 305.111 626.721C304.697 627.24 304.202 627.234 303.659 626.843C303.35 626.622 303.018 626.226 302.68 625.713C302.109 624.851 301.491 623.598 300.943 622.34C300.774 622.357 300.599 622.386 300.424 622.421C299.269 622.66 298.133 623.289 297.421 624.28C296.693 625.288 293.591 627.146 289.294 629.296C289.697 634.954 289.982 638.601 290.081 639.189C290.309 640.547 293.923 643.18 298.103 645.622C302.925 648.436 308.417 650.912 310.399 650.895C311.693 650.883 315.838 647.789 319.698 643.856C322.688 640.809 325.446 637.278 326.501 634.307C326.589 634.062 325.79 628.778 324.478 620.638L324.472 620.644ZM302.289 622.41C302.744 623.412 303.234 624.367 303.689 625.061C303.893 625.369 304.079 625.614 304.242 625.771C304.277 625.632 304.307 625.428 304.324 625.154C304.382 624.367 304.202 623.761 303.863 623.324C303.531 622.887 303.03 622.602 302.453 622.45C302.4 622.439 302.348 622.421 302.289 622.415V622.41ZM169.489 637.092C169.652 637.057 169.768 637.051 169.623 637.022C169.553 637.005 169.518 637.034 169.489 637.092ZM177.178 498.874C175.546 498.961 171.716 500.476 167.961 502.445C164.195 504.42 160.58 506.856 159.397 508.778C158.371 510.456 158.149 519.248 158.324 529.287C158.581 544.01 159.706 561.274 160.388 562.87C160.406 562.917 160.33 562.905 160.365 562.917C160.394 562.928 160.429 562.771 160.615 562.55C160.942 562.154 161.309 561.53 161.688 560.767C163.315 557.498 165.064 551.823 164.854 549.301C164.632 546.685 165.454 533.418 166.136 522.453C166.562 515.613 166.929 509.664 166.953 507.823C166.982 505.737 167.157 504.449 167.407 503.82C167.559 503.447 167.763 503.22 168.02 503.115C168.375 502.975 168.702 503.069 168.993 503.383C169.261 503.669 169.529 504.246 169.763 505.044C170.089 506.168 170.037 508.679 169.984 511.295C169.914 514.646 169.844 518.182 170.346 518.462C170.468 518.526 170.235 518.252 170.351 518.048C170.929 517.011 171.652 514.715 172.567 511.808C173.401 509.175 174.386 506.046 175.604 502.795C176.094 501.49 176.613 500.179 177.167 498.874H177.178ZM253.603 440.517C253.603 440.517 253.662 440.54 253.691 440.546C254.513 440.878 255.982 442.486 258.022 444.724C260.191 447.101 263.025 450.206 266.266 453.137C269.916 456.435 274.026 459.639 277.699 462.144C281.383 464.661 284.59 466.462 286.379 466.922C287.33 467.167 288.222 467.353 289.055 467.51C291.72 466.409 294.431 465.745 296.99 465.122C302.295 463.828 306.924 462.698 308.766 458.043C309.536 456.097 310.556 453.644 312.084 451.96C312.608 451.383 313.186 450.894 313.827 450.55C313.839 450.463 313.85 450.393 313.862 450.329C314.002 449.635 314.427 448.313 314.975 446.576C316.637 441.362 319.505 432.337 319.354 426.231C319.313 424.431 319.179 422.048 319.027 419.379C318.619 412.026 318.094 402.57 318.998 396.656C318.188 389.484 316.911 382.574 313.903 380.954C311.85 379.847 309.029 379.166 305.706 378.845C296.792 377.971 284.397 379.661 273.67 382.609C263.019 385.534 254.052 389.671 251.86 393.732C251.604 394.209 251.446 394.675 251.4 395.136C251.061 398.567 250.315 401.684 249.208 403.747C248.636 404.807 247.96 405.606 247.185 406.054C247.115 406.095 247.05 406.13 246.981 406.159C246.922 410.238 247.447 414.182 247.878 417.392C248.222 419.979 248.508 422.135 248.368 423.609C250.152 428.439 251.983 433.1 253.055 435.448C253.761 436.992 253.825 438.688 253.592 440.517H253.603ZM257.125 445.545C255.364 443.611 254.052 442.178 253.405 441.764C253.207 442.824 252.939 443.925 252.665 445.067C251.697 449.029 250.624 453.452 252.222 457.909C253.842 462.442 257.772 471.14 261.62 477.969C263.269 480.899 264.902 483.48 266.324 485.223C267.584 486.767 268.581 487.623 269.117 487.372C269.14 487.361 269.164 487.343 269.187 487.326C270.755 486.12 273.07 483.09 275.501 479.903C278.182 476.39 281.01 472.684 283.284 470.861C284.537 469.858 285.849 469.043 287.184 468.367C286.822 468.285 286.455 468.198 286.082 468.099C284.158 467.61 280.812 465.739 277.016 463.147C273.314 460.618 269.158 457.373 265.456 454.034C262.144 451.045 259.299 447.922 257.125 445.539V445.545ZM291.486 467.901C291.871 467.953 292.233 468 292.582 468.046L292.792 468.076C293.212 468.012 293.638 467.959 294.063 467.924C296.045 467.778 298.045 468.046 299.538 469.13C302.196 471.07 304.656 474.158 306.808 476.862C308.382 478.837 309.787 480.602 310.924 481.494C311.641 482.053 312.212 482.216 312.591 481.733C314.171 479.711 313.955 467.411 313.804 458.823C313.757 456.044 313.71 453.65 313.745 452.065C313.477 452.275 313.221 452.513 312.981 452.776C311.6 454.296 310.632 456.633 309.897 458.491C307.822 463.723 302.907 464.924 297.276 466.299C295.398 466.759 293.439 467.237 291.486 467.895V467.901ZM296.955 470.814C296.506 469.829 295.084 469.596 292.81 469.299C290.606 469.666 288.63 470.464 287.854 470.989C287.761 471.053 287.697 471.129 287.668 471.21C287.633 471.303 287.633 471.414 287.656 471.531C287.685 471.676 287.755 471.834 287.86 471.991C288.07 472.3 288.408 472.574 288.816 472.731C289.732 473.075 290.968 473.407 292.262 473.75L292.582 473.838C292.769 473.768 292.973 473.692 293.189 473.616C293.772 473.407 294.477 473.156 295.101 472.871C296.279 472.335 297.328 471.636 296.955 470.814ZM292.308 491.288C293.037 491.503 294.028 491.754 294.815 491.713C295.445 491.684 295.935 491.416 295.894 490.624C295.888 490.449 295.777 490.344 295.614 490.297C295.398 490.239 295.101 490.239 294.763 490.291C294.39 490.35 293.982 490.466 293.574 490.629C293.136 490.804 292.699 491.026 292.308 491.282V491.288ZM321.184 393.271C320.764 394.104 320.456 395.264 320.228 396.651C320.456 398.672 320.648 400.706 320.829 402.652C321.4 408.787 321.884 413.978 322.997 414.532C323.295 414.677 323.551 414.747 323.767 414.753C324.193 414.753 324.531 414.456 324.787 413.966C325.114 413.355 325.324 412.469 325.446 411.484C325.755 408.973 325.487 405.897 325.219 404.668C324.95 403.438 325.528 401.137 326.175 398.562C326.985 395.328 327.912 391.634 327.329 389.577C327.166 389.001 326.95 388.599 326.699 388.36C326.466 388.132 326.181 388.045 325.86 388.092C325.463 388.144 325.009 388.377 324.525 388.756C323.423 389.618 322.228 391.203 321.19 393.271H321.184ZM245.768 406.462C245.336 406.468 244.882 406.375 244.409 406.171C244.019 406.002 243.622 405.751 243.214 405.419C243.232 405.676 243.249 405.92 243.261 406.159C243.325 407.173 243.378 408.024 243.453 408.536C243.663 410.045 245.167 414.648 246.975 419.729C246.893 419.053 246.794 418.324 246.689 417.55C246.263 414.368 245.75 410.488 245.768 406.456V406.462ZM244.899 405.058C245.214 405.192 245.511 405.25 245.791 405.239C246.059 397.023 248.77 388.412 259.13 383.908C281.908 374.009 284.421 374.126 292.285 374.499C295.871 374.668 300.593 374.889 309.011 374.196C315.069 373.695 317.523 378.962 319.272 382.726C320.077 384.456 320.712 385.825 321.26 385.854C321.639 385.878 321.82 385.551 321.861 384.875C321.954 383.302 321.342 380.372 320.456 376.153C320.036 374.155 319.558 371.877 319.08 369.366C317.925 363.353 314.556 355.866 310.294 349.679C306.487 344.155 301.992 339.692 297.777 338.311C296.459 337.88 295.393 337.816 294.547 338.032C293.469 338.306 292.717 339.069 292.233 340.112C291.772 341.108 291.545 342.355 291.498 343.707C293.719 346.888 294.967 350.005 295.451 352.184C295.684 353.209 295.748 354.054 295.672 354.625C295.544 355.598 295.072 356.023 294.302 355.75C293.888 355.604 293.387 355.109 292.845 354.206C291.37 351.747 290.285 347.762 290.274 344.26C290.274 344.202 290.274 344.144 290.274 344.079C288.816 342.058 286.945 340.024 284.595 338.218C280.59 335.142 275.203 334.553 269.467 335.876C265.152 336.872 260.652 338.941 256.39 341.848C252.117 344.767 248.094 348.519 244.748 352.871C237.833 361.867 233.834 373.409 236.586 385.347C236.766 386.128 236.941 386.955 237.128 387.835C237.612 390.102 238.166 392.7 238.935 395.235C239.588 395.019 240.159 395.118 240.661 395.462C242.229 396.528 242.789 400.263 243.069 403.584C243.722 404.33 244.328 404.807 244.888 405.046L244.899 405.058ZM241.903 404.079C241.862 404.027 241.821 403.98 241.78 403.928C240.253 402.011 239.128 399.599 238.259 397.064C237.763 397.53 237.18 398.247 236.498 399.255C231.951 405.961 235.729 410.232 238.457 413.314C239.664 414.677 240.69 415.837 240.877 416.996C241.18 418.878 241.973 421.232 243.261 422.822C244.165 423.941 245.319 424.669 246.712 424.524C246.957 424.5 247.103 424.273 247.185 423.871C246.753 422.706 246.328 421.535 245.919 420.387C244.048 415.149 242.48 410.331 242.252 408.699C242.177 408.134 242.118 407.266 242.054 406.229C242.013 405.571 241.967 404.837 241.908 404.079H241.903ZM239.308 396.377C239.938 398.259 240.707 400.076 241.669 401.65C241.384 399.267 240.9 397.082 239.99 396.47C239.798 396.342 239.571 396.301 239.302 396.377H239.308ZM294.267 352.452C293.888 350.774 293.037 348.496 291.586 346.072C291.871 348.851 292.757 351.7 293.883 353.576C294.122 353.978 294.32 354.252 294.471 354.421C294.518 353.984 294.454 353.308 294.261 352.452H294.267ZM294.705 354.602C294.792 354.631 294.71 354.602 294.617 354.555C294.646 354.579 294.675 354.596 294.705 354.602ZM374.132 528.967L374.004 529.182C374.033 529.357 374.068 529.526 374.097 529.695L374.132 528.961V528.967ZM373.059 530.75C369.655 536.436 366.652 541.656 364.868 545.292C365.853 545.146 366.914 545.059 368.028 545.024C369.585 543.451 371.439 541.54 373.502 539.384C373.619 537.695 373.73 536.034 373.829 534.414C373.561 533.243 373.304 532.014 373.065 530.744L373.059 530.75ZM364.239 546.615C364.005 547.127 363.801 547.599 363.638 548.019C363.236 549.056 362.997 549.644 363.003 549.644C363.195 549.72 364.565 548.473 366.757 546.294C365.859 546.358 365.008 546.463 364.239 546.609V546.615ZM362.507 547.582C362.577 547.395 362.659 547.203 362.746 546.999C361.86 547.296 361.149 547.681 360.659 548.182C357.622 551.305 356.595 553.187 356.747 554.282C356.875 555.185 358.07 555.552 359.592 555.692H359.604C361.481 555.867 363.795 555.64 365.661 555.209C366.122 555.104 366.553 554.993 366.932 554.876C366.932 554.853 366.932 554.83 366.932 554.801C366.938 554.224 367.206 553.659 367.55 553.245C367.935 552.779 368.459 552.488 368.908 552.528C369.497 552.581 369.911 553.029 369.829 554.061V554.113C369.783 554.603 369.322 555.063 368.594 555.459C368.937 555.646 369.503 555.774 370.383 555.785H370.424C371.025 555.797 371.619 555.803 372.208 555.814C372.488 552.651 372.75 549.487 372.995 546.376C372.068 546.306 371.141 546.253 370.232 546.236C369.625 546.218 369.025 546.218 368.442 546.23C365.288 549.26 363.137 551.002 362.577 550.781C361.79 550.478 361.837 549.341 362.519 547.588L362.507 547.582ZM373.695 527.353C373.881 527.044 374.068 526.735 374.26 526.426C374.307 525.343 374.348 524.294 374.388 523.274C374.558 518.444 374.575 514.395 374.4 511.569C374.254 509.233 374.085 507.84 373.887 507.724C371.998 508.883 372.179 516.125 373.176 523.758C373.333 524.958 373.508 526.164 373.701 527.353H373.695ZM374.686 539.909C374.563 541.674 374.429 543.463 374.295 545.275C376.266 545.467 378.213 545.741 379.997 546.067C378.429 545.106 377.216 544.098 376.592 543.043C376.575 543.014 376.551 542.967 376.511 542.897C376.079 542.128 375.619 540.934 375.152 539.431L374.692 539.909H374.686ZM373.368 541.278C372.051 542.641 370.809 543.894 369.678 545.012C369.87 545.012 370.057 545.012 370.249 545.024C371.176 545.047 372.126 545.1 373.077 545.17C373.176 543.859 373.275 542.56 373.368 541.278ZM399.422 512.804C391.674 521.62 383.011 531.14 376.097 538.423C376.598 540.13 377.099 541.487 377.56 542.303C377.572 542.321 377.595 542.361 377.63 542.42C378.592 544.034 381.314 545.601 384.597 547.092C385.506 547.343 386.264 547.599 386.812 547.832C389.675 549.062 392.467 548.432 394.77 547.914C395.901 547.658 396.921 547.43 397.831 547.43C398.233 547.43 398.565 547.419 398.903 547.407C399.382 547.39 399.877 547.378 400.367 547.384C400.326 547.011 400.338 546.667 400.413 546.382C400.652 545.502 401.305 545.047 402.582 545.391C406.692 546.498 409.228 551.41 411.211 555.238C411.275 555.36 411.333 555.477 411.607 555.995C418.376 568.988 405.981 576.026 397.481 580.85C394.21 582.709 391.552 584.218 391.021 585.459C390.613 586.414 390.596 587.131 390.794 587.65C391.301 587.236 391.832 586.956 392.333 586.828C392.899 586.682 393.435 586.723 393.878 586.962C394.274 587.172 394.583 587.527 394.758 588.034C394.992 588.71 394.776 589.246 394.298 589.613C393.831 589.968 393.079 590.12 392.316 590.021C391.785 589.951 391.231 589.765 390.759 589.444C390.229 590.149 389.785 591.087 389.552 592.229C388.835 595.737 394.403 605.682 399.172 614.194C399.918 615.523 400.641 616.822 401.224 617.871C402.949 621 405.637 623.091 408.873 624.519C409.228 624.449 409.601 624.379 409.992 624.321C414.376 623.621 421.017 623.499 430.461 623.738C439.672 623.971 444.622 623.318 447.339 620.044C450.091 616.723 450.732 610.594 451.28 599.92C452.003 585.838 442.733 575.857 435.9 568.504C432.332 564.665 429.412 561.518 428.788 558.745C428.485 557.388 426.654 554.591 424.211 550.845C422.089 547.588 419.507 543.632 417.029 539.244C413.688 533.319 410.114 526.788 406.844 520.664C406.051 521.544 405.252 522.389 404.448 523.193C403.719 523.921 403.072 523.869 402.477 523.28C401.533 522.342 400.973 519.528 400.454 516.929C400.093 515.129 399.755 513.44 399.434 512.804H399.422ZM407.083 518.549C410.977 514.063 414.778 508.825 418.44 503.785C420.48 500.977 422.474 498.227 424.45 495.658C425.762 493.95 427.004 492.389 428.164 490.927C433.224 484.553 436.787 480.055 435.212 478.458C433.411 476.629 430.251 474.52 426.532 472.032C425.418 471.292 424.258 470.511 423.069 469.701C423.045 469.736 423.028 469.771 423.01 469.806C421.722 472.23 419.816 476.168 417.833 480.282C414.108 487.996 410.097 496.304 408.983 496.561C407.666 496.869 406.634 492.529 405.742 488.759C405.486 487.681 405.241 486.656 405.037 485.881C404.792 484.955 405.217 484.174 404.961 484.238C404.646 484.319 401.976 487.809 399.626 491.16C397.825 493.723 396.274 496.159 396.198 496.84C396.146 497.318 399.131 503.342 403.363 511.464C404.524 513.696 405.783 516.079 407.095 518.543L407.083 518.549ZM407.223 454.652C411.747 460.012 417.507 464.388 422.795 468.035C424.765 465.757 429.243 462.22 434.804 458.194C434.519 452.985 434.39 442.807 434.39 432.716C434.39 418.808 434.664 404.971 435.131 404.37C435.189 404.295 435.259 404.236 435.341 404.19C436.023 403.84 443.503 408.81 451.851 414.363C461.681 420.894 472.746 428.247 474.273 428.567C474.32 428.579 474.81 428.346 475.468 428.025C474.413 426.295 471.51 424.005 468.7 421.855C467.878 421.517 467.05 421.162 466.222 420.789C458.748 417.404 451.286 412.621 448.097 409.69C447.467 409.113 446.937 400.595 446.733 392.275C446.54 384.322 446.645 376.439 447.257 375.74C447.852 375.052 460.958 374.924 475.299 375.081C492.83 375.274 512.355 375.862 512.99 376.375C513.538 376.812 513.87 381.228 514.045 386.687C514.319 394.978 514.354 405.85 514.243 408.356C514.197 409.422 512.611 411.129 510.162 413.18C507.83 415.132 504.659 417.474 501.301 419.892C498.922 421.599 496.001 423.568 493.133 425.322C490.743 426.784 488.376 428.107 486.376 429.022C485.234 429.54 483.968 428.847 482.744 428.171C481.975 427.752 481.228 427.338 480.739 427.361C479.672 427.414 478.226 428.043 476.984 428.637C477.147 429.255 477.101 429.837 476.792 430.373C476.081 431.597 468.408 436.736 459.016 443.034C451.525 448.056 442.926 453.819 435.988 458.812C436.052 459.878 436.122 460.618 436.204 460.956C437.515 460.466 454.778 448.068 467.458 438.967C474.833 433.671 480.68 429.476 481.24 429.278C482.109 428.975 489.997 434.714 499.027 441.286C507.259 447.276 516.453 453.97 521.77 457.355C524.026 458.794 525.402 459.709 525.408 459.692C525.88 458.952 510.174 447.759 498.747 439.62C492.538 435.192 487.56 431.649 486.959 430.927C486.569 430.455 486.784 429.936 487.49 429.348C488.353 428.625 490.166 427.559 492.492 426.178C495.005 424.693 498.129 422.846 501.254 420.742C503.423 419.286 505.382 417.957 507.335 416.635C517.042 410.063 526.562 403.619 527.512 404.411C528.241 405.017 528.69 417.503 528.842 430.665C529.005 445.242 528.842 460.764 528.294 461.754C527.518 463.152 493.291 462.733 467.68 462.418C452.737 462.232 440.763 462.086 440.471 462.238C440.459 462.238 440.454 462.249 440.448 462.249C439.911 462.576 438.67 463.962 437.853 465.914C437.037 467.854 436.682 470.33 437.958 472.795C438.034 472.946 438.122 473.098 438.221 473.267C440.349 476.792 453.192 480.311 469.522 481.558C482.855 482.577 498.45 482.047 512.419 478.726C518.855 477.194 524.796 474.887 530.025 472.3C536.718 468.99 542.256 465.221 546.197 462.022C549.299 459.505 551.998 456.825 554.301 454.017C562.107 444.52 565.465 433.543 564.877 422.49C564.288 411.42 559.746 400.269 551.759 390.445C548.745 386.74 545.241 383.221 541.283 379.97C528.608 369.564 511.521 364.477 493.879 363.079C472.32 361.366 449.951 365.159 433.743 371.481C423.815 375.355 414.26 382.079 407.025 390.108C400.169 397.711 395.411 406.468 394.403 415.05C393.412 423.504 394.105 430.426 396.297 436.712C398.49 443.011 402.192 448.691 407.217 454.646L407.223 454.652ZM435.603 432.716C435.603 442.44 435.702 452.21 435.93 457.39C442.791 452.467 451.087 446.903 458.357 442.032C467.615 435.827 475.183 430.752 475.754 429.773C475.859 429.593 475.906 429.395 475.894 429.179C475.072 429.569 474.425 429.843 474.034 429.762C472.274 429.389 461.109 421.972 451.187 415.376C443.753 410.436 437.043 405.978 436.035 405.349C435.76 407.219 435.603 419.892 435.603 432.721V432.716ZM476.512 427.53C477.841 426.895 479.415 426.219 480.698 426.155C481.532 426.114 482.429 426.61 483.345 427.111C484.307 427.641 485.304 428.188 485.892 427.92C487.84 427.029 490.166 425.73 492.521 424.291C495.372 422.549 498.264 420.603 500.613 418.913C503.942 416.524 507.078 414.199 509.405 412.253C511.608 410.406 513.025 408.979 513.054 408.309C513.165 405.821 513.124 394.99 512.856 386.734C512.687 381.589 512.477 377.511 512.255 377.33C511.801 376.969 492.638 376.491 475.311 376.305C461.267 376.153 448.522 376.165 448.196 376.544C447.794 377.004 447.782 384.543 447.968 392.257C448.161 400.315 448.557 408.455 448.942 408.804C451.77 411.403 458.072 415.51 464.724 418.744L464.584 418.627C462.421 416.804 461.401 413.017 461.22 408.647C461.01 403.642 461.885 397.816 463.371 393.347C464.252 390.708 466.304 388.138 469.055 386.064C471.731 384.048 475.072 382.481 478.634 381.77L478.756 381.747C483.467 380.832 488.51 381.251 492.655 383.262C496.841 385.295 500.112 388.931 501.213 394.431L501.231 394.524C501.738 397.111 501.837 399.639 501.581 401.976C501.237 405.052 500.263 407.796 498.742 409.905C497.191 412.05 495.075 413.529 492.474 414.036C491.442 414.234 490.335 414.281 489.163 414.153C484.633 413.652 484.715 411.409 484.767 410.092C484.773 409.905 485.047 409.935 484.913 409.853C484.79 409.777 484.027 410.511 482.907 411.583C482.616 411.863 482.307 412.16 481.998 412.452C481.829 412.609 481.642 412.755 481.438 412.889C480.377 413.605 478.797 414.083 477.147 414.025C475.486 413.966 473.754 413.372 472.413 411.939C472.163 411.671 471.93 411.379 471.726 411.077C470.746 409.626 470.408 407.476 470.63 405.116C470.845 402.838 471.574 400.339 472.746 398.084C473.929 395.812 475.567 393.766 477.585 392.409C479.409 391.18 481.543 390.51 483.933 390.731C484.884 390.818 485.642 391.215 486.166 391.698C486.499 392.013 486.744 392.368 486.883 392.718C487.047 393.12 487.076 393.522 486.959 393.866C486.872 394.134 486.697 394.361 486.44 394.524C485.776 394.932 485.502 394.699 485.041 394.308C484.651 393.976 483.974 393.399 481.497 393.854C480.179 394.093 477.789 397.653 476.448 401.44C475.964 402.809 475.626 404.201 475.538 405.466C475.457 406.678 475.608 407.767 476.081 408.589C476.634 409.556 477.678 410.179 479.386 410.238C480.599 410.278 481.975 408.297 483.263 405.67C485.822 400.443 487.805 392.846 487.834 392.292C487.863 391.652 488.463 391.314 489.25 391.226C489.612 391.185 490.026 391.197 490.428 391.249C490.836 391.302 491.233 391.407 491.553 391.558C492.177 391.855 492.55 392.316 492.381 392.957C492.247 393.481 491.705 395.573 491.11 398.282C490.521 400.962 489.892 404.196 489.594 406.951C489.425 408.542 489.513 409.468 489.769 409.999C489.956 410.383 490.276 410.517 490.655 410.558C490.795 410.575 490.947 410.558 491.11 410.517C492.218 410.238 493.658 408.903 494.917 406.94C496.211 404.924 497.284 402.279 497.593 399.465C497.768 397.886 497.704 396.254 497.307 394.652C496.899 393.009 496.427 391.331 495.477 389.851C494.544 388.395 493.122 387.107 490.79 386.186C487.618 384.934 484.709 384.439 482.091 384.573C478.791 384.741 475.946 385.907 473.609 387.818C471.259 389.746 469.417 392.432 468.158 395.625C466.659 399.424 465.977 403.928 466.216 408.717C466.414 412.615 468.309 415.679 470.968 417.8C472.478 419.006 474.238 419.903 476.075 420.48C477.917 421.057 479.829 421.313 481.648 421.22C484.662 421.069 487.42 419.968 489.122 417.829C489.472 417.386 489.892 417.113 490.329 416.973C490.702 416.856 491.093 416.839 491.46 416.915C491.827 416.99 492.171 417.148 492.457 417.381C492.813 417.666 493.092 418.056 493.244 418.523C493.261 418.575 493.273 418.639 493.279 418.709C493.343 419.362 492.445 420.381 490.935 421.36C489.577 422.246 487.676 423.189 485.56 423.86C484.254 424.273 482.855 424.582 481.432 424.722C478.955 424.955 475.795 424.343 472.396 423.224C474.168 424.699 475.713 426.173 476.512 427.53ZM469.318 420.795C473.865 422.642 478.208 423.807 481.322 423.516C482.639 423.393 483.957 423.096 485.193 422.706C487.204 422.071 488.994 421.185 490.271 420.352C491.355 419.647 492.031 419.082 492.066 418.855C491.991 418.645 491.862 418.464 491.699 418.336C491.553 418.22 491.39 418.144 491.221 418.109C491.052 418.074 490.871 418.08 490.69 418.138C490.469 418.208 490.253 418.354 490.067 418.593C488.131 421.022 485.047 422.269 481.695 422.438C479.73 422.537 477.672 422.263 475.702 421.646C473.725 421.022 471.83 420.055 470.204 418.756C467.289 416.431 465.213 413.069 464.998 408.781C464.747 403.817 465.458 399.144 467.021 395.188C468.356 391.803 470.315 388.948 472.833 386.886C475.363 384.811 478.453 383.547 482.027 383.366C484.814 383.227 487.892 383.745 491.227 385.062C493.833 386.087 495.43 387.55 496.491 389.199C497.541 390.83 498.042 392.619 498.479 394.367C498.916 396.114 498.986 397.892 498.794 399.604C498.462 402.617 497.313 405.448 495.932 407.604C494.509 409.818 492.795 411.35 491.396 411.706C491.093 411.782 490.795 411.805 490.516 411.776C489.752 411.688 489.087 411.403 488.667 410.541C488.318 409.818 488.178 408.676 488.376 406.835C488.679 404.015 489.315 400.741 489.909 398.037C490.492 395.369 491.052 393.207 491.198 392.665C491.209 392.613 491.116 392.706 491.023 392.665C490.819 392.566 490.545 392.496 490.247 392.461C489.944 392.421 489.635 392.415 489.367 392.444C489.169 392.467 489.035 392.269 489.029 392.357C489 392.939 486.959 400.851 484.336 406.212C482.849 409.241 481.129 411.519 479.328 411.461C477.136 411.391 475.766 410.529 475.002 409.206C474.401 408.158 474.209 406.835 474.302 405.396C474.396 404.009 474.757 402.512 475.276 401.044C476.745 396.901 479.573 392.974 481.252 392.665C484.266 392.112 485.234 392.91 485.787 393.382C485.782 393.324 485.764 393.254 485.729 393.172C485.653 392.98 485.513 392.776 485.315 392.59C484.971 392.263 484.458 392.001 483.805 391.943C481.724 391.751 479.853 392.339 478.249 393.417C476.407 394.658 474.903 396.54 473.807 398.643C472.699 400.764 472.017 403.1 471.819 405.221C471.621 407.313 471.9 409.183 472.717 410.395C472.897 410.669 473.09 410.908 473.282 411.111C474.372 412.277 475.795 412.766 477.165 412.813C478.547 412.859 479.864 412.469 480.739 411.881C480.896 411.776 481.03 411.671 481.147 411.56C481.479 411.245 481.771 410.966 482.045 410.704C483.566 409.241 484.61 408.239 485.531 408.816C485.991 409.101 485.974 409.544 485.956 410.127C485.921 411.024 485.863 412.562 489.274 412.941C490.323 413.057 491.308 413.017 492.224 412.842C494.497 412.399 496.363 411.088 497.739 409.189C499.138 407.254 500.036 404.708 500.356 401.842C500.601 399.628 500.502 397.221 500.024 394.757L500.007 394.67C498.986 389.589 495.972 386.227 492.113 384.351C488.213 382.458 483.438 382.061 478.972 382.935L478.856 382.959C475.474 383.634 472.303 385.114 469.772 387.025C467.213 388.96 465.307 391.319 464.508 393.72C463.062 398.06 462.217 403.724 462.421 408.595C462.59 412.655 463.482 416.122 465.353 417.701C466.298 418.499 467.499 419.414 468.746 420.37L469.318 420.807V420.795ZM485.793 393.44C485.764 393.481 485.729 393.516 485.782 393.481C485.782 393.481 485.782 393.481 485.782 393.475C485.782 393.464 485.787 393.452 485.787 393.44H485.793ZM408.709 625.783C405.655 626.453 404.156 627.496 403.888 629.034C403.591 630.747 403.655 635.519 403.865 640.617C404.15 647.492 404.71 654.926 405.025 656.319C405.06 656.476 405.917 656.564 407.153 656.599C408.161 656.628 409.38 656.569 410.628 656.435C411.881 656.301 413.158 656.097 414.3 655.841C416.236 655.398 417.723 654.88 417.734 654.419C417.758 653.493 417.763 652.275 417.763 650.86C417.763 645.412 417.775 637.173 419.192 632.547C420.02 629.832 421.343 628.271 423.43 628.912C426.147 629.739 431.767 634.319 437.544 639.02C444.29 644.509 451.257 650.184 453.559 650.026C453.606 650.026 453.647 650.294 453.641 650.19C453.583 649.316 450.091 646.432 446.272 643.28C441.264 639.149 435.72 634.575 435.959 632.355C435.988 632.087 436.075 631.866 436.215 631.691C436.711 631.067 437.644 631.213 438.862 631.918C439.836 632.477 441.066 633.398 442.424 634.534C447.91 639.114 455.687 647.317 456.877 649.018C457.419 649.799 462.234 649.595 467.015 649.018C469.3 648.745 471.556 648.366 473.346 647.952C474.967 647.579 476.168 647.201 476.588 646.869C476.535 646.688 476.448 646.467 476.331 646.222C474.973 643.32 470.006 637.232 464.683 631.994C459.442 626.832 453.921 622.526 451.385 623.05C451.28 623.074 451.181 623.103 451.087 623.149C450.108 623.604 449.123 624.134 448.12 624.67C443.8 626.989 439.072 629.524 429.802 629.063L429.511 629.052C422.416 628.702 414.732 628.323 408.704 625.789L408.709 625.783ZM392.625 587.999C392.304 588.081 391.954 588.267 391.604 588.547C391.873 588.693 392.164 588.78 392.456 588.815C392.916 588.873 393.33 588.815 393.546 588.646C393.61 588.599 393.633 588.524 393.598 588.424C393.528 588.226 393.423 588.098 393.295 588.028C393.126 587.935 392.893 587.929 392.619 587.999H392.625ZM401.982 548.805C402.098 549.097 402.238 549.394 402.384 549.679C402.915 550.711 403.497 551.579 403.748 551.579C403.871 551.579 403.55 551.486 403.556 551.27C403.585 549.778 402.926 549.103 401.982 548.805ZM384.171 548.229C381.67 547.535 377.974 546.842 374.19 546.475C373.951 549.563 373.689 552.703 373.409 555.838C378.254 555.989 382.323 556.537 382.632 559.479C382.819 561.221 380.761 565.241 378.539 569.576C376.4 573.76 374.103 578.246 373.631 580.967C373.432 582.115 373.578 582.872 374.26 582.994C376.143 583.321 377.642 583.187 378.936 582.097C380.312 580.943 381.542 578.729 382.854 574.919C383.518 572.991 384.369 571.243 385.244 569.693C385.349 569.209 385.465 568.726 385.588 568.254C385.967 566.815 386.422 565.457 386.9 564.338C387.821 562.183 388.928 560.843 389.908 561.146C390.835 561.431 391.039 562.043 390.753 562.969C390.503 563.773 389.785 564.845 388.858 566.22C388.118 567.322 387.244 568.632 386.387 570.13C386.2 571.021 386.054 571.924 385.955 572.804C385.6 576.078 385.926 578.98 387.692 579.434C390.083 580.046 391.96 579.12 393.557 577.057C395.254 574.855 396.647 571.388 397.977 567.094C399.032 563.68 400.099 561.629 400.839 560.19C401.871 558.197 402.197 557.568 400.705 555.785C399.568 554.428 395.505 552.826 391.051 551.072C388.748 550.163 386.34 549.219 384.148 548.223L384.171 548.229ZM368.255 554.358C368.477 554.23 368.599 554.113 368.611 554.002C368.629 553.799 368.879 553.74 368.792 553.734C368.745 553.734 368.617 553.845 368.477 554.02C368.389 554.119 368.314 554.236 368.261 554.358H368.255ZM387.558 566.016L387.867 565.556C388.736 564.263 389.412 563.255 389.605 562.62C389.657 562.445 389.651 562.34 389.564 562.311C389.284 562.223 388.689 563.261 388.025 564.816C387.867 565.189 387.71 565.585 387.558 566.011V566.016ZM266.278 673.291C266.313 672.522 266.336 671.432 266.336 670.232C266.336 668.443 266.284 666.433 266.132 664.878C266.009 663.608 265.905 662.687 265.858 662.605H265.461C264.412 662.582 262.855 662.559 262.844 663.083C262.844 663.235 262.832 663.427 262.821 663.672C262.727 665.88 262.447 672.51 263.118 672.93C263.549 673.204 264.674 673.308 266.278 673.297V673.291ZM328.652 667.505C328.985 665.822 329.189 663.992 329.125 662.547C329.072 661.376 328.868 660.514 328.448 660.333C327.58 659.966 315.99 659.686 306.767 659.96C300.978 660.135 296.209 660.461 295.952 661.021C295.527 661.947 294.949 663.817 294.775 665.577C294.693 666.404 294.705 667.197 294.868 667.832C295.002 668.368 295.253 668.776 295.643 668.956C295.771 669.014 295.923 669.055 296.086 669.073C297.637 669.224 312.34 668.502 328.647 667.505H328.652ZM541.108 659.809C538.98 659.075 536.893 658.306 534.864 657.537C523.391 659.599 476.419 666.562 431.866 673.157C389.261 679.467 348.877 685.451 344.119 686.389C340.825 687.035 336.161 687.822 331.305 688.643C321.668 690.269 311.268 692.017 309.542 692.914C311.693 693.468 320.187 696.888 328.676 700.308C337.415 703.827 346.148 707.34 347.699 707.661C349.36 707.998 412.446 698.117 472.139 688.416C522.411 680.248 570.194 672.271 576.647 670.733C575.009 670.081 571.225 668.997 566.264 667.57C559.356 665.583 550.174 662.949 541.102 659.815L541.108 659.809ZM309.145 694.05C309.145 694.05 309.093 694.044 309.07 694.039C308.644 694.009 308.347 694.108 308.154 694.272C308.026 694.382 307.939 694.528 307.886 694.685C307.834 694.854 307.828 695.035 307.863 695.204C307.909 695.425 308.02 695.623 308.195 695.728C308.895 696.159 323.936 703.541 335.637 708.744C341.939 711.547 347.227 713.708 348.673 713.772C351.144 713.883 426.38 702.434 490.44 692.279C537.919 684.751 579.195 677.97 579.918 677.212C580.507 676.6 580.775 675.965 580.822 675.406C580.845 675.109 580.81 674.829 580.722 674.59C580.641 674.363 580.518 674.171 580.373 674.025C580.215 673.874 580.029 673.78 579.831 673.763C579.737 673.757 576.63 674.322 571.249 675.307C559.525 677.451 537.12 681.553 510.88 685.917C474.553 691.959 430.875 698.973 397.79 704.042C369.462 708.383 348.812 711.314 346.999 711.011C343.35 710.405 329.644 704.596 319.622 699.772C316.415 698.228 313.576 696.777 311.559 695.629C310.539 695.047 309.717 694.516 309.14 694.044L309.145 694.05ZM627.088 699.247C627.042 699.166 627.018 699.137 627.077 699.236C627.077 699.236 627.082 699.242 627.088 699.247ZM734.523 691.458C734.301 690.38 733.963 688.76 733.736 687.828C731.66 690.216 724.816 696.084 718.059 701.38C711.29 706.688 704.574 711.5 702.79 711.774C699.869 712.217 654.944 706.6 634.399 704.031C628.563 703.302 624.698 702.819 624.354 702.79C624.284 702.79 624.208 702.935 624.127 703.168C624.027 703.454 623.969 703.821 623.94 704.223C623.911 704.648 623.911 705.103 623.94 705.54C624.004 706.489 624.074 707.317 624.097 707.323C624.564 707.393 656.961 710.545 680.304 712.712C692.99 713.889 702.965 714.78 703.595 714.734C704.353 714.501 712.165 709.036 719.808 703.518C727.334 698.082 734.68 692.71 734.738 692.518C734.692 692.326 734.61 691.941 734.511 691.458H734.523ZM700.773 637.342C700.773 637.342 700.831 637.366 700.808 637.354C700.796 637.354 700.785 637.348 700.773 637.342ZM710.806 636.247C710.923 635.216 711.104 634.074 711.395 633.002C711.949 630.963 712.923 629.168 714.648 628.702C716.275 628.259 719.604 626.756 722.332 625.125C724.32 623.936 725.964 622.713 726.279 621.868C726.792 620.51 737.677 554.562 746.002 502.02C751.488 467.394 755.948 438.693 755.715 438.565C755.691 438.554 755.668 438.542 755.651 438.536C755.19 438.338 754.42 438.536 753.721 438.851C753.01 439.165 752.421 439.567 752.287 439.789C752.164 440.278 747.833 469.095 742.632 503.657C734.762 556.001 724.915 621.483 724.536 622.241C724.145 623.015 720.84 624.286 718.036 624.961C717.109 625.189 716.228 625.352 715.523 625.428C714.695 625.509 714.042 625.451 713.716 625.183C713.529 625.031 713.418 624.833 713.401 624.589C713.372 624.157 715.004 615.138 717.266 602.652C721.557 578.957 728.116 542.717 729.865 529.637C727.964 538.038 724.245 557.393 720.577 577.354C715.704 603.858 710.999 631.37 710.783 635.909C710.771 636.148 710.725 636.195 710.742 636.224C710.748 636.235 710.783 636.253 710.806 636.265V636.247Z" fill="#2C2E41"/>
<path d="M829.5 645V0" stroke="#2C2E41"/>
</g>
<defs>
<clipPath id="clip0_114_44">
<rect width="830" height="736" fill="white"/>
</clipPath>
</defs>
</svg>
