<svg width="56" height="56" viewBox="0 0 56 56" fill="none" xmlns="http://www.w3.org/2000/svg">
<path d="M52.2728 13.0559H37.709C37.1934 13.0559 36.7755 13.4739 36.7755 13.9894C36.7755 14.505 37.1935 14.9229 37.709 14.9229H52.2728C52.7874 14.9229 53.2063 15.3418 53.2063 15.8565V20.5244H38.2228C37.7071 20.5244 37.2892 20.9424 37.2892 21.4579C37.2892 21.9734 37.7073 22.3914 38.2228 22.3914H53.2063V53.1992C53.2063 53.7138 52.7874 54.1327 52.2728 54.1327H3.72725C3.21262 54.1327 2.79372 53.7138 2.79372 53.1992V22.3914H17.7773C18.2929 22.3914 18.7108 21.9734 18.7108 21.4579C18.7108 20.9424 18.2928 20.5244 17.7773 20.5244H2.79361V15.8565C2.79361 15.3418 3.21251 14.9229 3.72714 14.9229H18.291C18.8066 14.9229 19.2246 14.5049 19.2246 13.9894C19.2246 13.4738 18.8065 13.0559 18.291 13.0559H3.72725C2.18281 13.0559 0.926544 14.3121 0.926544 15.8566V53.1993C0.926544 54.7437 2.18281 56 3.72725 56H52.2728C53.8172 56 55.0735 54.7437 55.0735 53.1993V15.8566C55.0735 14.3121 53.8172 13.0559 52.2728 13.0559Z" fill="#2C2E41"/>
<path d="M4.93155 17.0609C4.76329 17.2382 4.66078 17.4716 4.66078 17.7236C4.66078 17.9757 4.76329 18.2092 4.93155 18.3864C5.10889 18.5541 5.34225 18.6572 5.59431 18.6572C5.83686 18.6572 6.07984 18.5541 6.25707 18.3864C6.42479 18.2091 6.52785 17.9661 6.52785 17.7236C6.52785 17.4807 6.42479 17.2381 6.25707 17.0609C5.90206 16.7154 5.27661 16.7154 4.93155 17.0609Z" fill="#2C2E41"/>
<path d="M8.66579 17.0609C8.49753 17.2382 8.39502 17.4808 8.39502 17.7236C8.39502 17.9662 8.49764 18.2092 8.66579 18.3864C8.84313 18.5541 9.08568 18.6572 9.32855 18.6572C9.5711 18.6572 9.81408 18.5541 9.99131 18.3864C10.159 18.2091 10.2621 17.9661 10.2621 17.7236C10.2621 17.4807 10.159 17.2381 9.99131 17.0609C9.6363 16.7154 9.01096 16.7154 8.66579 17.0609Z" fill="#2C2E41"/>
<path d="M12.4001 17.0609C12.2319 17.2382 12.1294 17.4808 12.1294 17.7237C12.1294 17.9757 12.2319 18.2092 12.4001 18.3769C12.5775 18.5542 12.8108 18.6573 13.0629 18.6573C13.315 18.6573 13.5484 18.5542 13.7257 18.3865C13.8934 18.2092 13.9964 17.9758 13.9964 17.7238C13.9964 17.4808 13.8934 17.2382 13.7257 17.061C13.3802 16.7154 12.7452 16.7154 12.4001 17.0609Z" fill="#2C2E41"/>
<path d="M14.1752 32.1115C13.9865 32.3713 13.944 32.7096 14.0631 33.0077L15.9302 37.6756C16.035 37.9373 16.253 38.1378 16.5229 38.2208C16.6127 38.2486 16.7052 38.2622 16.7973 38.2622C16.9809 38.2622 17.1633 38.208 17.3192 38.1027L22.5318 34.5885C22.8588 35.5114 23.1579 36.2613 23.3597 36.7507C23.3602 36.752 23.3614 36.7529 23.362 36.7542C23.4094 36.8681 23.4784 36.9706 23.5645 37.0564C23.6047 37.0964 23.6569 37.1182 23.7033 37.1499C23.7561 37.1864 23.803 37.2309 23.8629 37.2561C23.975 37.303 24.0962 37.3275 24.2196 37.328C24.2208 37.328 24.2217 37.3287 24.2231 37.3287H24.6224L23.4308 39.7118C23.2862 40.0013 23.3018 40.3449 23.4718 40.6203C23.6418 40.8952 23.9422 41.0629 24.2658 41.0629H31.7344C32.058 41.0629 32.3585 40.8952 32.5285 40.6203C32.6985 40.3449 32.714 40.0013 32.5695 39.7118L31.3779 37.3287H31.501C31.5491 37.3287 31.5906 37.3084 31.6367 37.3012C31.6837 37.3085 31.73 37.3291 31.7768 37.3291C32.1437 37.3291 32.4919 37.1112 32.6406 36.7506C32.8422 36.2612 33.1416 35.5112 33.4686 34.5885L38.6809 38.1026C38.8368 38.2079 39.0192 38.2621 39.2029 38.2621C39.295 38.2621 39.3875 38.2485 39.4773 38.2207C39.7472 38.1377 39.965 37.9371 40.0699 37.6755L41.9371 33.0076C42.0561 32.7095 42.0137 32.3712 41.8249 32.1114L36.1043 24.2469C36.5841 20.486 36.5541 16.1736 35.2453 11.7471C34.0259 7.62623 31.8218 3.77308 28.6942 0.295387C28.3395 -0.0984623 27.6604 -0.0984623 27.3057 0.295387C24.1772 3.77439 21.9732 7.62766 20.7548 11.7471C19.4458 16.1736 19.4159 20.4861 19.8958 24.2469L14.1752 32.1115ZM25.7764 39.1958L26.7099 37.3286H29.2899L30.2235 39.1958H25.7764ZM35.6871 26.8477L40.0115 32.793L38.7657 35.9078L34.0997 32.7622C34.6283 31.1751 35.2315 29.161 35.6871 26.8477ZM22.5454 12.2768C23.5925 8.73623 25.4254 5.39814 28 2.34121C30.5737 5.39716 32.4066 8.73536 33.4546 12.2768C34.7265 16.5774 34.7265 20.7259 34.2274 24.3435C34.2243 24.3606 34.2227 24.3769 34.2205 24.394C33.6578 28.428 32.4756 31.7964 31.7178 33.939C31.5083 34.5318 31.3133 35.0409 31.1466 35.4615H24.8533C24.6866 35.0409 24.4915 34.5317 24.2821 33.9385C23.5243 31.7962 22.3421 28.428 21.7794 24.394C21.7773 24.3769 21.7757 24.3607 21.7727 24.3436C21.2735 20.7259 21.2735 16.5774 22.5454 12.2768ZM21.9003 32.7621L17.2343 35.9078L15.9884 32.793L20.3128 26.8477C20.7686 29.1609 21.3718 31.1751 21.9003 32.7621Z" fill="#2C2E41"/>
<path d="M27.0664 45.7307V48.5314C27.0664 49.047 27.4844 49.4649 28 49.4649C28.5156 49.4649 28.9335 49.0469 28.9335 48.5314V45.7307C28.9335 45.2151 28.5155 44.7972 28 44.7972C27.4844 44.7972 27.0664 45.2152 27.0664 45.7307Z" fill="#2C2E41"/>
<path d="M23.3322 43.8636V46.6644C23.3322 47.18 23.7502 47.5979 24.2657 47.5979C24.7812 47.5979 25.1992 47.1799 25.1992 46.6644V43.8636C25.1992 43.348 24.7812 42.9301 24.2657 42.9301C23.7502 42.9301 23.3322 43.348 23.3322 43.8636Z" fill="#2C2E41"/>
<path d="M31.7343 42.93C31.2187 42.93 30.8008 43.348 30.8008 43.8635V46.6642C30.8008 47.1798 31.2188 47.5978 31.7343 47.5978C32.2498 47.5978 32.6678 47.1797 32.6678 46.6642V43.8635C32.6678 43.348 32.2498 42.93 31.7343 42.93Z" fill="#2C2E41"/>
<path d="M28 21.458C30.5737 21.458 32.6678 19.3638 32.6678 16.7901C32.6678 14.2164 30.5737 12.1223 28 12.1223C25.4263 12.1223 23.3321 14.2164 23.3321 16.7901C23.3322 19.3638 25.4263 21.458 28 21.458ZM28 13.9894C29.5444 13.9894 30.8007 15.2457 30.8007 16.7901C30.8007 18.3346 29.5444 19.5908 28 19.5908C26.4555 19.5908 25.1993 18.3346 25.1993 16.7901C25.1993 15.2457 26.4556 13.9894 28 13.9894Z" fill="#2C2E41"/>
</svg>
