<svg width="56" height="56" viewBox="0 0 56 56" fill="none" xmlns="http://www.w3.org/2000/svg">
<path d="M55.2796 51.2567L51.5038 45.5117L53.5258 44.958C54.7331 44.6273 54.9555 42.9491 53.8746 42.3158L48.1946 38.9885V4.04808C48.1946 1.81599 46.3787 0 44.1466 0H4.53136C2.29927 0 0.483276 1.81599 0.483276 4.04808V41.1231C0.483276 43.3551 2.29916 45.171 4.53125 45.171H20.4059C21.0101 45.171 21.4998 44.6813 21.4998 44.0771C21.4998 43.473 21.0101 42.9833 20.4059 42.9833H4.53125C3.50556 42.9833 2.67096 42.1488 2.67096 41.1231V9.79621H46.0069V37.7071L42.1452 35.445C41.6003 35.1258 41.0351 34.9325 40.4288 35.2763C39.9247 35.562 39.6335 36.1265 39.7048 36.7077L40.4739 42.9834H29.9884C29.3843 42.9834 28.8946 43.4731 28.8946 44.0773C28.8946 44.6814 29.3843 45.1711 29.9884 45.1711H40.7422L41.3974 50.5164C41.5497 51.7586 43.1781 52.2222 43.9611 51.2442L45.2716 49.6078L49.0474 55.3528C49.4795 56.0104 50.3901 56.2005 51.0497 55.767L54.8657 53.2591C55.5317 52.8211 55.7174 51.9229 55.2796 51.2567ZM2.67096 4.04808C2.67096 3.02228 3.50556 2.18768 4.53136 2.18768H44.1466C45.1724 2.18768 46.007 3.02228 46.007 4.04808V7.60809H2.67096V4.04808ZM50.468 53.5313L46.5389 47.5529C46.0082 46.7457 44.8069 46.688 44.2021 47.4433L43.3544 48.5018L42.0587 37.9298L51.2493 43.3132L49.9412 43.6714C49.0102 43.9264 48.583 45.0505 49.1148 45.8601L53.0439 51.8384L50.468 53.5313Z" fill="black"/>
<path d="M10.1225 23.8321H17.4626C18.0668 23.8321 18.5565 23.3424 18.5565 22.7383V15.4268C18.5565 14.8227 18.0668 14.333 17.4626 14.333H10.1225C9.5184 14.333 9.02869 14.8227 9.02869 15.4268V22.7383C9.02869 23.3424 9.5184 23.8321 10.1225 23.8321ZM11.2164 16.5208H16.3688V21.6446H11.2164V16.5208Z" fill="black"/>
<path d="M24.2533 16.5208H38.5749C39.179 16.5208 39.6687 16.0311 39.6687 15.427C39.6687 14.8228 39.179 14.3331 38.5749 14.3331H24.2533C23.6491 14.3331 23.1594 14.8228 23.1594 15.427C23.1594 16.0311 23.6492 16.5208 24.2533 16.5208Z" fill="black"/>
<path d="M24.2533 23.4306H38.5749C39.179 23.4306 39.6687 22.9409 39.6687 22.3368C39.6687 21.7326 39.179 21.2429 38.5749 21.2429H24.2533C23.6491 21.2429 23.1594 21.7326 23.1594 22.3368C23.1594 22.9409 23.6492 23.4306 24.2533 23.4306Z" fill="black"/>
<path d="M10.1225 30.3404H38.5749C39.1791 30.3404 39.6688 29.8507 39.6688 29.2465C39.6688 28.6424 39.1791 28.1527 38.5749 28.1527H10.1225C9.5184 28.1527 9.02869 28.6424 9.02869 29.2465C9.02869 29.8507 9.5184 30.3404 10.1225 30.3404Z" fill="black"/>
<path d="M10.1225 37.2501H33.7566C34.3607 37.2501 34.8504 36.7603 34.8504 36.1562C34.8504 35.5521 34.3607 35.0624 33.7566 35.0624H10.1225C9.5184 35.0624 9.02869 35.5521 9.02869 36.1562C9.02869 36.7603 9.5184 37.2501 10.1225 37.2501Z" fill="black"/>
<path d="M6.87929 4.57553C6.49294 3.63231 5.08769 3.72321 4.81641 4.70198C4.55422 5.64782 5.63023 6.43965 6.45685 5.9156C6.89887 5.63535 7.08077 5.05879 6.87929 4.57553Z" fill="black"/>
<path d="M10.8871 4.57554C10.6611 4.02392 10.008 3.75615 9.45855 3.98378C8.90802 4.21173 8.63871 4.8618 8.86678 5.41233C9.09484 5.96297 9.74535 6.23118 10.2953 6.0041C10.8451 5.77702 11.1163 5.12509 10.8871 4.57554Z" fill="black"/>
<path d="M14.9023 4.57554C14.6763 4.02392 14.0232 3.75615 13.4737 3.98378C12.9232 4.21173 12.6539 4.8618 12.882 5.41233C13.11 5.96297 13.7605 6.23118 14.3105 6.0041C14.8603 5.77702 15.1315 5.12509 14.9023 4.57554Z" fill="black"/>
<path d="M26.2534 43.6584C26.0241 43.108 25.376 42.8398 24.8248 43.0677C24.2741 43.2955 24.0058 43.9447 24.2331 44.4952C24.4605 45.0458 25.1116 45.3151 25.6616 45.087C26.2138 44.8578 26.4798 44.2106 26.2534 43.6584Z" fill="black"/>
</svg>
