<svg width="54" height="54" viewBox="0 0 54 54" fill="none" xmlns="http://www.w3.org/2000/svg">
<path d="M18.1406 7.75C19.0467 7.75 19.7812 7.01547 19.7812 6.10938C19.7812 5.20328 19.0467 4.46875 18.1406 4.46875C17.2345 4.46875 16.5 5.20328 16.5 6.10938C16.5 7.01547 17.2345 7.75 18.1406 7.75Z" fill="#2C2E41"/>
<path d="M49.8594 44.9375C50.7655 44.9375 51.5 44.203 51.5 43.2969C51.5 42.3908 50.7655 41.6562 49.8594 41.6562C48.9533 41.6562 48.2188 42.3908 48.2188 43.2969C48.2188 44.203 48.9533 44.9375 49.8594 44.9375Z" fill="#2C2E41"/>
<path d="M4.46875 7.75C5.07281 7.75 5.5625 7.26031 5.5625 6.65625C5.5625 6.05219 5.07281 5.5625 4.46875 5.5625C3.86469 5.5625 3.375 6.05219 3.375 6.65625C3.375 7.26031 3.86469 7.75 4.46875 7.75Z" fill="#2C2E41"/>
<path d="M26.3438 12.125C26.9478 12.125 27.4375 11.6353 27.4375 11.0312C27.4375 10.4272 26.9478 9.9375 26.3438 9.9375C25.7397 9.9375 25.25 10.4272 25.25 11.0312C25.25 11.6353 25.7397 12.125 26.3438 12.125Z" fill="#2C2E41"/>
<path d="M28.5312 43.8438C29.1353 43.8438 29.625 43.3541 29.625 42.75C29.625 42.1459 29.1353 41.6562 28.5312 41.6562C27.9272 41.6562 27.4375 42.1459 27.4375 42.75C27.4375 43.3541 27.9272 43.8438 28.5312 43.8438Z" fill="#2C2E41"/>
<path d="M40.5625 52.5938C41.1666 52.5938 41.6562 52.1041 41.6562 51.5C41.6562 50.8959 41.1666 50.4062 40.5625 50.4062C39.9584 50.4062 39.4688 50.8959 39.4688 51.5C39.4688 52.1041 39.9584 52.5938 40.5625 52.5938Z" fill="#2C2E41"/>
<path d="M17.9328 53.6875H5.22344C2.40156 53.6875 0.09375 51.3797 0.09375 48.5578V21.6297C0.09375 18.7969 2.40156 16.5 5.22344 16.5H17.9219C20.7547 16.5 23.0516 18.8078 23.0516 21.6297V48.5469C23.0625 51.3797 20.7547 53.6875 17.9328 53.6875ZM5.22344 18.6875C3.60469 18.6875 2.28125 20.0109 2.28125 21.6297V48.5469C2.28125 50.1766 3.60469 51.4891 5.22344 51.4891H17.9219C19.5516 51.4891 20.8641 50.1656 20.8641 48.5469V21.6297C20.8641 20 19.5406 18.6875 17.9219 18.6875H5.22344Z" fill="#2C2E41"/>
<path d="M21.9688 25.25H1.1875C0.585938 25.25 0.09375 24.7578 0.09375 24.1562C0.09375 23.5547 0.585938 23.0625 1.1875 23.0625H21.9688C22.5703 23.0625 23.0625 23.5547 23.0625 24.1562C23.0625 24.7578 22.5703 25.25 21.9688 25.25Z" fill="#2C2E41"/>
<path d="M21.9688 47.125H1.1875C0.585938 47.125 0.09375 46.6328 0.09375 46.0312C0.09375 45.4297 0.585938 44.9375 1.1875 44.9375H21.9688C22.5703 44.9375 23.0625 45.4297 23.0625 46.0312C23.0625 46.6328 22.5703 47.125 21.9688 47.125Z" fill="#2C2E41"/>
<path d="M48.5578 37.2812H35.8484C33.0156 37.2812 30.7188 34.9734 30.7188 32.1516V5.22344C30.7188 2.39063 33.0266 0.09375 35.8484 0.09375H48.5469C51.3797 0.09375 53.6766 2.40156 53.6766 5.22344V32.1406C53.6875 34.9734 51.3797 37.2812 48.5578 37.2812ZM35.8484 2.28125C34.2297 2.28125 32.9063 3.60469 32.9063 5.22344V32.1406C32.9063 33.7703 34.2297 35.0828 35.8484 35.0828H48.5469C50.1766 35.0828 51.4891 33.7594 51.4891 32.1406V5.22344C51.4891 3.59375 50.1656 2.28125 48.5469 2.28125H35.8484Z" fill="#2C2E41"/>
<path d="M52.5938 8.84375H31.8125C31.2109 8.84375 30.7188 8.35156 30.7188 7.75C30.7188 7.14844 31.2109 6.65625 31.8125 6.65625H52.5938C53.1953 6.65625 53.6875 7.14844 53.6875 7.75C53.6875 8.35156 53.1953 8.84375 52.5938 8.84375Z" fill="#2C2E41"/>
<path d="M52.5938 30.7188H31.8125C31.2109 30.7188 30.7188 30.2266 30.7188 29.625C30.7188 29.0234 31.2109 28.5312 31.8125 28.5312H52.5938C53.1953 28.5312 53.6875 29.0234 53.6875 29.625C53.6875 30.2266 53.1953 30.7188 52.5938 30.7188Z" fill="#2C2E41"/>
<path d="M22.7125 37.2812H14.3125C13.7109 37.2812 13.2188 36.7891 13.2188 36.1875C13.2188 35.5859 13.7109 35.0938 14.3125 35.0938H22.7125C24.1125 35.0938 25.25 33.9562 25.25 32.5562V23.4234C25.25 20.8203 27.3719 18.6984 29.975 18.6984H43.8438C44.4453 18.6984 44.9375 19.1906 44.9375 19.7922C44.9375 20.3938 44.4453 20.8859 43.8438 20.8859H29.975C28.575 20.8859 27.4375 22.0234 27.4375 23.4234V32.5562C27.4375 35.1594 25.3156 37.2812 22.7125 37.2812Z" fill="#2C2E41"/>
<path d="M40.8797 22.7453C40.4531 22.3187 40.4531 21.6297 40.8797 21.2031L42.2906 19.7922L40.8797 18.3812C40.4531 17.9547 40.4531 17.2656 40.8797 16.8391C41.3063 16.4125 41.9953 16.4125 42.4219 16.8391L44.6094 19.0266C45.0359 19.4531 45.0359 20.1422 44.6094 20.5687L42.4219 22.7562C42.0063 23.1719 41.3063 23.1719 40.8797 22.7453Z" fill="#2C2E41"/>
<path d="M11.0312 40.5625C8.61406 40.5625 6.65625 38.6047 6.65625 36.1875C6.65625 33.7703 8.61406 31.8125 11.0312 31.8125C13.4484 31.8125 15.4062 33.7703 15.4062 36.1875C15.4062 38.6047 13.4484 40.5625 11.0312 40.5625ZM11.0312 34C9.82812 34 8.84375 34.9844 8.84375 36.1875C8.84375 37.3906 9.82812 38.375 11.0312 38.375C12.2344 38.375 13.2188 37.3906 13.2188 36.1875C13.2188 34.9844 12.2344 34 11.0312 34Z" fill="#2C2E41"/>
</svg>
