<svg width="54" height="36" viewBox="0 0 54 36" fill="none" xmlns="http://www.w3.org/2000/svg">
<path d="M3.375 0.498932C1.93589 0.498932 0.75 1.68476 0.75 3.12387V27.6238C0.75 29.063 1.93589 30.2489 3.375 30.2489H15.6404C15.6202 30.4152 15.5871 30.6051 15.5293 30.8266C15.3245 31.6097 14.8232 32.659 13.552 33.7472H12.1216C10.9546 33.7472 10.9546 35.4972 12.1216 35.4972H22.625C23.792 35.4972 23.792 33.7472 22.625 33.7472H15.9719C16.6543 32.8638 17.0319 31.9999 17.2229 31.2691C17.3228 30.8869 17.3614 30.5523 17.3818 30.2489H22.625C23.8082 30.2654 23.8082 28.4823 22.625 28.499H3.375C2.87513 28.499 2.5 28.1237 2.5 27.6238V23.2489H22.625C23.8083 23.2654 23.8083 21.4823 22.625 21.499H2.5V3.12387C2.5 2.62397 2.87513 2.24896 3.375 2.24896H36.625C37.1249 2.24896 37.5 2.62397 37.5 3.12387C37.4838 4.30662 39.2662 4.30662 39.25 3.12387C39.25 1.68476 38.0641 0.498932 36.625 0.498932H3.375ZM27.875 5.74548C26.4359 5.74548 25.2466 6.93659 25.2466 8.37567V32.8756C25.2466 34.3147 26.4359 35.4972 27.875 35.4972H38.3716C39.5385 35.4972 39.5385 33.7472 38.3716 33.7472H27.875C27.3751 33.7472 26.9966 33.3756 26.9966 32.8756V28.5023H38.3716C39.5385 28.5023 39.5385 26.7523 38.3716 26.7523H26.9966V10.9972H44.5017V13.6273C44.5017 14.7942 46.2517 14.7942 46.2517 13.6273V8.37567C46.2517 6.93656 45.0624 5.74548 43.6233 5.74548H27.875ZM5.11304 7.4835C4.62706 7.49011 4.23922 7.88972 4.24829 8.37567V10.1256C4.24829 11.2926 5.99829 11.2926 5.99829 10.1256V8.37567C6.00749 7.88215 5.60661 7.47784 5.11304 7.4835ZM27.875 7.49672H43.6233C44.1231 7.49672 44.5017 7.87526 44.5017 8.37516V9.24675H26.9966V8.37516C26.9966 7.87523 27.3751 7.49672 27.875 7.49672ZM5.11304 12.7348C4.62706 12.7414 4.23922 13.1409 4.24829 13.6269V18.8701C4.24829 20.037 5.99829 20.037 5.99829 18.8701V13.6269C6.00749 13.1333 5.60661 12.7292 5.11304 12.7348ZM29.613 12.7348C29.1271 12.7414 28.7392 13.141 28.7483 13.6269V15.3769C28.7483 16.5438 30.4983 16.5438 30.4983 15.3769V13.6269C30.5075 13.1333 30.1066 12.7292 29.613 12.7348ZM43.6233 16.2485C42.1842 16.2485 41 17.431 41 18.8701V32.8751C41 34.3142 42.1842 35.4967 43.6233 35.4967H50.625C52.0641 35.4967 53.2466 34.3142 53.2466 32.8751V18.8701C53.2466 17.431 52.0641 16.2485 50.625 16.2485H43.6233ZM29.613 17.9865C29.1296 17.9931 28.7428 18.3867 28.7483 18.8701V24.1218C28.7483 25.2887 30.4983 25.2887 30.4983 24.1218V18.8701C30.5036 18.3791 30.104 17.9809 29.613 17.9865ZM43.6233 17.9997H50.625C51.1248 17.9997 51.4966 18.3714 51.4966 18.8713V19.7506H42.7517V18.8705C42.7517 18.3706 43.1234 17.9989 43.6233 17.9989V17.9997ZM42.7517 21.5015H51.4966V30.2464H42.7517V21.5015ZM19.1233 26.7532H20.875C22.042 26.7532 22.042 25.0014 20.875 25.0014H19.0814C17.8726 25.0573 17.9563 26.8092 19.1233 26.7532H19.1233ZM34.8784 30.2464C33.7115 30.2464 33.7115 31.9963 34.8784 31.9963H36.6284C37.7954 31.9963 37.7954 30.2464 36.6284 30.2464H34.8784ZM42.7517 31.9963H51.4966V32.8764C51.4966 33.3763 51.1248 33.748 50.625 33.748H43.6233C43.1234 33.748 42.7517 33.3763 42.7517 32.8764V31.9963Z" fill="black"/>
</svg>
