<svg width="67" height="67" viewBox="0 0 67 67" fill="none" xmlns="http://www.w3.org/2000/svg">
<path d="M65.1028 31.646C62.6923 31.3782 45.5095 33.7919 38 18.025C34.0521 9.73166 35.0648 2.21332 34.8496 1.27008C34.6559 0.422108 33.8542 -0.0859001 33.0876 0.0120101C32.2135 0.110975 31.6336 0.834842 31.6336 1.56363V4.98504C31.0378 16.7469 25.6853 26.7594 14.4455 30.2836C7.95476 32.3197 2.31992 31.4403 1.26787 31.6704C-0.419282 32.0532 -0.431937 34.4764 1.2858 34.858C2.75673 35.1684 13.8236 33.3755 22.4177 40.5127C22.9781 40.9778 23.8094 40.9007 24.2746 40.3408C24.7398 39.7804 24.6629 38.9493 24.1027 38.4838C21.1538 36.0349 17.6194 34.2848 13.575 33.2681C24.2226 30.5862 30.758 22.9857 33.2595 12.3394C35.7402 22.9207 42.2216 30.5883 52.9836 33.2568C42.329 35.9229 35.7032 43.517 33.2442 54.1342C32.3288 50.2427 30.8016 46.5181 28.5059 43.2654C28.0859 42.6704 27.2633 42.5286 26.6683 42.9483C26.0731 43.3683 25.9314 44.1909 26.3511 44.786C27.1604 45.9324 27.8887 47.1817 28.5166 48.4992C32.2412 56.3242 31.5831 64.2854 31.6371 65.0534C31.7761 67.0151 34.9767 67.1139 34.8765 64.6883C34.6957 60.3162 35.0347 45.5054 46.9977 38.4773C55.0701 33.7397 64.0501 35.1236 65.2487 34.854C67.0554 34.4439 66.8599 31.8432 65.1028 31.646Z" fill="#2C2E41"/>
</svg>
