<svg width="809" height="348" viewBox="0 0 809 348" fill="none" xmlns="http://www.w3.org/2000/svg">
<path d="M0.538544 347.231C10.5134 347.144 22.7783 347.093 38.5409 347.093C43.5236 310.65 43.2652 296.697 40.9306 250.323C40.0529 232.883 42.382 206.224 59.4532 202.552C83.6734 197.343 89.573 195.123 117.327 192.985C126.039 175.868 113.541 155.169 116.61 136.209C118.47 124.706 118.696 116.779 125.86 107.589C128.88 103.715 139.282 97.8865 143.817 95.999C149.375 93.6847 155.703 95.0593 161.558 96.4648C179.687 100.816 187.082 105.178 204.731 111.196C208.625 112.524 219.168 122.739 210.658 130.15C197.187 141.876 195.862 220.914 153.542 199.265C144.204 194.489 138.055 184.177 138.012 173.687C137.976 164.792 141.926 156.242 141.897 147.347C141.891 145.067 141.543 142.618 139.991 140.948C136.571 137.276 129.992 140.162 127.703 144.629C123.044 153.711 131.721 166.368 141.872 165.294C141.823 160.956 141.798 156.494 143.382 152.457C144.967 148.419 148.572 144.859 152.906 144.678C154.092 144.629 151.783 148.398 152.799 147.785C154.97 146.476 157.622 139.641 157.656 137.107C157.71 132.996 161.2 129.569 165.094 128.245C168.987 126.92 173.709 125.612 177.322 127.577C188.923 133.891 201.711 134.117 206.099 134.117C221.092 134.117 182.903 132.033 168.709 127.207C162.096 124.958 155.906 121.548 149.205 119.582C142.503 117.614 127.686 119.052 121.728 122.694C112.913 128.084 118.046 138.101 117.917 148.433C117.732 163.153 117.848 170.719 121.778 184.906C128.512 181.229 129.993 177.665 137.336 175.741C140.789 188.896 151.669 199.831 164.808 203.346C161.147 213.746 154.747 223.172 146.426 230.408C145.495 231.219 144.394 232.051 143.164 231.923C142.206 231.825 141.414 231.158 140.702 230.509C129.094 219.945 120.752 205.839 117.106 190.781C114.589 191.758 112.071 192.737 109.554 193.713C109.306 212.995 116.567 231.714 126.885 248.005C134.491 242.576 134.918 238.942 142.525 233.514C143.213 233.024 143.938 232.518 144.777 232.42C146.253 232.249 147.533 233.363 148.598 234.399C152.061 237.771 155.525 241.141 158.988 244.511C166.256 232.098 170.916 218.165 174.367 203.4C190.042 212.751 210.399 214.757 222.637 228.299C231.08 237.639 233.849 250.596 237.587 262.62C241.946 276.647 244.431 282.963 252.043 295.525C274.776 284.46 303.557 280.144 328.027 270.985C373.524 252.139 363.019 292.316 363.222 296.295C363.533 302.354 345.044 298.545 339.97 293.311C334.893 288.076 332.435 283.952 330.515 276.918C332.526 281.973 335.815 284.515 337.828 289.571C338.348 290.879 341.548 291.896 341.379 293.295C341.142 295.287 339.567 296.819 338.063 298.147C316.664 317.025 288.213 331.674 260.117 336.669C257.213 337.186 254.23 337.621 250.414 338.113C246.044 338.836 241.278 339.499 237.417 337.326C235.85 336.444 234.559 335.154 233.289 333.881C223.484 324.043 213.678 314.204 203.872 304.367C203.199 303.689 202.504 302.985 202.184 302.086C201.682 300.694 202.169 299.163 202.6 297.745C206.397 285.246 203.295 282.516 197.833 319.029C201.084 327.099 202.537 335.887 202.055 344.574C209.115 346.59 216.923 348.557 223.559 345.416C224.793 344.833 225.969 344.077 227.305 343.803C228.443 343.567 232.134 342.623 233.284 342.785C239.566 343.66 244.955 348.18 248.36 346.71C255.028 343.827 240.071 337.701 233.812 334.012C238.249 337.153 242.921 339.963 247.774 342.409C242.765 337.548 238.067 332.335 232.605 327.985C227.145 323.636 220.76 320.136 213.82 319.378C208.446 318.791 202.58 319.77 197.966 316.952C201.037 326.025 203.967 336.573 198.004 344.634C165.73 350.713 132.62 343.21 102.516 337.373C88.3815 332.067 76.9001 321.12 68.5368 308.55C60.1749 295.979 54.6415 281.767 49.5403 267.557C45.9336 257.51 42.4681 247.163 42.5099 236.488C42.553 225.813 46.7023 214.59 55.5503 208.619C57.9938 206.97 60.8063 205.741 63.752 205.632C71.5566 205.343 77.4346 212.606 80.9094 219.6C90.9974 239.928 92.4797 264.036 104.617 283.212C106.282 285.844 108.179 288.459 108.761 291.519C109.341 294.58 108.11 298.268 105.175 299.313C106.753 295.851 110.783 294.044 114.589 293.991C118.394 293.937 122.055 295.306 129.269 298.367C136.886 302.855 145.055 306.41 153.531 308.929C154.3 309.157 155.208 309.352 155.834 308.855C156.45 308.368 156.481 307.46 156.455 306.676C155.957 290.524 154.988 274.386 153.554 258.292C153.398 256.547 153.107 254.572 151.662 253.585C150.721 252.944 149.511 252.889 148.375 252.928C144.832 253.048 141.313 253.86 138.078 255.306C136.958 250.822 135.84 246.34 134.723 241.857C134.474 240.864 134.225 239.835 134.394 238.823C134.668 237.21 135.94 235.977 137.144 234.866C139.64 232.564 143.132 230.105 146.118 231.726C146.969 232.187 147.626 232.93 148.252 233.669C150.682 236.531 152.933 239.544 154.994 242.687C153.091 246.308 151.975 250.342 151.747 254.428C147.724 254.702 143.677 254.655 139.661 254.289C141.655 257.281 141.052 261.232 140.372 264.762C138.2 276.033 136.029 287.305 134.346 298.276C142.287 305.441 152.615 309.38 162.961 312.096C173.306 314.813 183.94 311.082 194.917 315.269C206.988 286.611 213.686 255.7 214.242 223.27C221.897 231.745 227.93 241.68 231.921 252.38C242.19 206.592 220.028 157.196 234.446 112.541C235.913 107.992 237.828 103.437 241.177 100.024C246.875 94.2151 255.559 92.749 263.641 91.8133C274.722 90.5289 285.852 89.674 296.601 89.4249C300.029 89.5959 303.454 89.7642 306.881 89.9325C305.592 107.316 313.695 125.117 327.652 135.559C334.928 141.002 345.487 144.326 352.847 138.996C355.096 137.367 356.784 135.093 358.346 132.796C366.432 120.908 372.104 107.387 374.919 93.2875C375.947 88.1338 378.53 81.3753 383.722 82.1818C386.866 82.6705 388.817 86.214 388.542 89.3845C388.269 92.5538 386.342 95.3299 384.246 97.7236C380.65 101.831 376.354 105.324 371.597 108.003C374.197 94.8398 373.928 86.7404 370.104 73.879C369.423 71.5836 368.724 69.2504 367.409 67.2498C363.501 61.3031 355.528 59.9097 348.462 59.0548C341.583 67.927 323.817 61.7434 315.51 69.2935C308.371 75.7854 307.468 86.5075 307.05 96.1498C308.046 91.3273 309.006 86.1319 307.007 81.6325C305.007 77.1331 298.709 74.2951 294.985 77.5141C291.221 86.8306 296.679 98.763 306.189 102.005C307.25 94.689 306.222 87.081 303.253 80.3077C302.561 78.7298 301.759 77.1681 301.502 75.4623C301.274 73.9464 301.492 72.4008 301.712 70.8808C303.042 61.6666 304.455 52.202 309.08 44.1201C313.702 36.0395 322.345 27.753 331.628 28.476C335.581 28.7829 339.355 30.3473 343.306 30.6583C346.314 30.8939 349.324 30.3958 352.34 30.3312C363.505 30.0888 374.584 38.0671 380.241 47.6986C385.895 57.3275 387.693 70.0178 381.251 80.7991C377.692 87.7676 374.028 95.3056 375.11 103.054C375.503 105.878 376.524 108.596 376.782 111.436C377.132 115.251 376.095 119.049 374.9 122.691C370.734 135.384 364.529 147.403 356.594 158.15C351.856 151.238 345.288 145.592 337.742 141.95C332.535 147.315 326.772 152.139 320.574 156.318C309.589 142.569 304.186 124.49 306.471 105.018C300.201 97.379 289.771 94.1586 279.889 94.3296C270.007 94.5019 260.443 97.6213 251.054 100.707C247.679 101.818 243.904 103.291 242.617 106.601C253.29 106.592 263.766 112.606 269.143 121.825C272.152 126.984 273.586 132.893 274.757 138.748C279.864 164.295 280.645 190.7 277.057 216.503C276.895 217.659 276.713 218.85 276.099 219.845C274.47 222.48 270.664 222.587 267.663 221.817C264.662 221.05 261.571 219.71 258.587 220.54C262.391 224.234 270.635 220.405 273.147 225.074C273.735 226.167 273.777 227.461 273.807 228.701C274.189 245.004 274.571 261.305 274.131 277.8C274.761 280.316 275.393 282.831 276.023 285.347C287.795 282.928 299.408 279.747 310.768 275.833C308.284 243.89 322.737 213.317 328.331 181.77C329.137 177.223 329.846 172.433 332.626 168.746C335.224 165.3 339.262 163.316 342.676 160.68C346.09 158.044 349.141 154.008 348.314 149.775C344.584 146.9 340.853 144.027 337.122 141.152C334.159 145.476 331.666 150.121 329.695 154.978C332.268 158.477 333.388 163.016 332.739 167.312C336.193 164.708 340.791 163.684 345.024 164.573C344.244 199.167 341.126 233.711 338.533 268.509C345.255 267.927 351.976 267.346 358.698 266.767C358.449 261.48 357.755 256.213 356.626 251.043C393.436 249.932 430.26 249.293 467.087 249.129C470.43 249.113 473.962 249.152 477.632 252.71C483.749 281.792 489.868 310.872 496.455 342.708C455.921 342.999 415.389 343.29 375.346 343.986C368.71 314.141 362.072 284.297 355.436 254.451C377.931 253.269 400.437 252.353 425.644 252.344C439.196 251.152 452.814 250.709 466.414 251.019C468.035 251.057 469.769 251.141 471.071 252.107C472.582 253.228 473.104 255.217 473.528 257.049C480.147 285.717 486.764 314.386 493.382 343.053C513.3 344.06 547.689 346.288 565.896 341.747C569.924 343.387 574.666 343.174 578.531 341.18C574.665 327.939 573.409 313.939 574.487 297.584C555.815 287.672 536.381 277.092 524.607 259.534C523.845 258.401 523.099 257.185 522.963 255.825C522.838 254.562 523.253 253.309 523.755 252.143C526.304 246.231 531.329 241.039 530.848 233.47C526.744 227.263 524.438 221.983 517.165 220.406C514.428 219.814 510.96 217.776 508.851 215.931C507.947 215.14 505.189 214.787 504.602 213.738C502.25 209.532 501.212 202.354 496.825 204.349C492.643 206.251 496.219 219.389 501.639 219.914C497.56 220.526 491.256 220.801 487.546 222.6C483.836 224.4 480.564 227.581 479.701 231.613C482.889 231.007 485.897 229.479 488.269 227.265C485.823 228.694 483.537 230.396 481.461 232.325C480.332 233.377 479.175 234.86 479.702 236.31C480.381 238.175 483.161 238.093 484.813 236.997C486.464 235.901 487.736 234.16 489.629 233.573C487.356 234.58 485.269 236.006 483.507 237.76C481.739 239.519 480.502 242.887 482.649 244.158C483.468 244.641 484.49 244.571 485.427 244.415C488.549 243.893 491.538 242.58 494.034 240.629C491.491 241.793 489.132 243.353 487.065 245.238C486.472 245.779 485.874 246.397 485.711 247.185C485.409 248.639 486.675 249.919 487.888 250.774C492.853 254.27 499.089 255.917 505.132 255.333C507.03 255.149 509.401 254.159 509.251 252.256C505.966 252.503 502.622 251.942 499.596 250.643C504.227 249.906 509.088 250.701 513.244 252.876C516.457 254.557 520.326 257.058 523.303 254.988C524.673 254.035 525.317 252.364 525.885 250.794C527.887 245.259 529.892 239.726 534.935 234.65C557.189 252.411 592.024 250.856 610.451 272.56C615.846 278.915 619.298 286.894 620.233 295.175C620.396 296.604 620.476 298.101 619.937 299.434C618.984 301.79 616.4 303.004 613.98 303.778C602.539 307.439 589.56 305.973 579.222 299.854C585.335 300.314 591.254 302.497 597.385 302.625C603.515 302.752 610.446 299.982 612.246 294.12C613.134 291.229 612.617 288.115 612.091 285.139C608.143 262.822 603.897 240.254 594.21 219.766C591.024 213.022 587.114 206.374 581.209 201.815C576.147 197.906 569.963 195.792 563.904 193.741C555.593 190.933 549.796 185.969 540.195 181.94C535.111 179.526 530.029 177.831 524.945 175.417C522.103 169.104 522.6 169.475 520.741 164.316C519.295 160.302 525.578 149.477 526.468 145.304C528.743 134.615 529.664 123.332 526.515 112.868C523.367 102.403 515.536 92.8809 504.993 90.0106C495.916 87.5414 486.321 90.1506 477.28 92.749C470.751 94.6257 464.22 96.5025 457.69 98.3806C455.723 98.9461 453.69 99.5465 452.133 100.875C450.984 101.853 450.17 103.172 449.565 104.553C446.719 111.055 448.724 119.34 454.226 123.821C458.221 127.072 463.487 128.257 468.591 128.953C471.599 129.363 474.624 129.639 477.655 129.779C485.975 130.163 494.411 129.506 502.362 127.03C504.992 126.212 508.286 125.358 510.141 127.387C511.022 128.352 511.277 129.716 511.496 131.004C512.542 137.176 513.588 143.346 514.634 149.518C510.853 145.122 515.98 137.2 521.691 138.186C527.405 139.171 530.102 147.117 526.798 151.882C524.404 155.331 519.81 156.91 515.676 156.183C517.481 170.781 512.808 177.089 503.151 188.184C491.196 201.915 475.196 192.404 462.393 162.951C461.028 152.061 459.661 141.172 458.295 130.282C459.362 135.064 459.933 139.957 459.996 144.858C459.879 142.852 458.292 141.025 456.324 140.631C454.355 140.236 452.185 141.313 451.306 143.117C450.281 145.226 451 147.753 451.982 149.881C454.159 154.608 457.586 158.753 461.608 161.247C463.971 167.651 467.346 173.683 471.572 179.046C474.371 182.601 477.56 185.891 479.799 189.824C481.426 192.675 482.509 195.796 483.783 198.821C485.461 202.806 487.476 206.648 489.801 210.293C502.166 200.111 512.944 188.007 522.39 175.907C523.933 175.411 525.552 174.91 527.145 175.201C528.739 175.492 530.262 176.861 530.13 178.476C530.088 178.97 529.9 179.439 529.711 179.899C524.886 191.668 518.196 202.67 509.966 212.369C509.352 213.092 508.662 213.851 507.734 214.04C506.984 214.192 506.219 213.944 505.495 213.7C503.407 212.995 501.317 212.29 499.229 211.584C495.096 210.188 490.054 208.948 486.767 211.816C485.387 213.019 484.592 214.765 483.296 216.059C482.001 217.353 479.721 218.067 478.4 216.801C477.824 216.248 477.573 215.449 477.354 214.683C474.476 204.628 473.485 194.035 472.111 187.282C462.989 190.88 453.35 193.006 444.169 196.453C434.99 199.899 426.014 204.922 420.29 212.883C413.434 222.418 412.154 234.737 410.766 245.593C413.691 223.265 416.615 200.937 419.541 178.611C421.388 164.526 423.187 149.888 418.813 136.374C413.364 119.538 397.917 106.378 380.513 103.661C377.603 110.9 374.865 119.721 379.533 125.972C381.081 128.044 383.273 129.524 385.16 131.291C391.975 137.669 394.496 147.561 394.256 156.891C394.018 166.223 391.382 175.297 389.377 184.413C384.731 205.539 383.44 227.238 384.015 247.485C396.994 248.709 410.067 248.947 423.082 248.197C423.421 238.105 425.062 227.724 430.449 219.18C439.328 205.099 456.287 198.797 471.669 193.817C475.173 190.559 475.55 185.001 474.113 180.437C472.675 175.872 469.769 171.945 467.394 167.79C462.628 159.457 459.926 149.958 459.59 140.365C459.411 135.189 459.882 129.841 458.102 124.976C457.218 122.564 455.793 120.327 455.342 117.796C454.499 113.074 457.325 108.294 461.207 105.477C465.088 102.659 469.869 101.425 474.542 100.345C482.917 98.4102 491.555 96.7812 500.068 97.9767C508.579 99.1722 517.053 103.653 521.028 111.274C523.981 116.938 524.167 123.586 524.29 129.973C524.447 138.21 524.593 146.56 522.609 154.556C521.822 157.726 520.702 160.832 520.334 164.079C519.696 169.696 521.407 175.461 524.613 180.118C527.439 179.557 530.526 180.533 532.586 182.237C544.596 186.561 556.278 191.797 567.498 197.887C568.361 198.354 569.266 198.869 569.736 199.731C570.863 201.788 568.94 204.099 567.455 205.915C563.046 211.301 561.623 218.644 562.118 225.587C562.614 232.531 564.842 239.218 568.301 245.98C573.803 250.378 580.1 253.779 586.792 255.968C589.076 256.715 591.634 257.305 593.815 256.301C595.699 255.432 596.902 253.53 597.622 251.587C601.125 242.157 595.542 232.111 592.265 222.601C587.185 207.847 587.657 191.807 588.928 176.251C589.966 163.54 591.495 150.867 593.516 138.273C594.67 131.085 596.107 123.625 600.495 117.813C608.728 106.908 624.202 105.299 638.434 105.696C642.893 109.088 648.923 110.321 654.354 108.951C659.788 107.577 664.51 103.631 666.824 98.5287C663.463 102.008 660.025 105.546 655.748 107.806C651.47 110.065 646.136 110.874 641.808 108.716C637.715 106.674 635.247 102.446 633.151 98.382C624.179 80.9634 617.67 61.295 621.527 42.277C626.06 36.4704 630.595 30.6637 635.128 24.8557C637.699 30.4685 642.11 35.2183 647.515 38.1977C652.549 40.9697 658.463 42.2959 662.738 46.1369C670.458 53.0745 669.939 65.0957 673.51 74.839C672.363 69.9545 671.244 64.6716 673.211 60.0564C675.178 55.4413 681.66 52.5265 685.39 55.8842C689.196 59.3119 687.184 65.5871 684.566 69.9882C682.748 73.0443 680.381 76.2566 676.64 79.0125C675.592 94.7792 678.172 110.597 677.464 126.383C676.754 142.168 672.015 158.907 659.643 168.738C665.226 167.943 670.887 167.713 676.516 168.052C677.962 161.104 680.033 154.288 682.696 147.708C681.219 154.647 678.702 161.367 675.257 167.569C683.501 165.101 692.276 162.282 697.609 155.53C701.236 150.938 702.785 145.092 704.249 139.427C706.544 130.532 708.841 121.638 711.991 112.413C715.991 111.047 719.991 109.682 723.992 108.318C717.713 108.118 712.213 103.585 709.153 98.1006C706.093 92.6143 705.051 86.2624 704.172 80.0425C701.548 61.4782 699.771 42.1895 690.65 25.8103C681.528 9.42966 662.528 -3.26339 644.419 1.58603C631.32 5.09453 621.826 16.8573 616.889 29.487C611.952 42.1168 610.715 55.825 608.409 69.1858C606.504 80.2242 604.137 92.6696 610.695 101.752C615.298 108.124 624.021 111.192 631.637 111.25C634.438 110.819 637.239 110.391 640.04 109.962C644.359 115.757 648.828 121.443 653.436 127.011C662.244 120.818 670.277 113.528 677.294 105.363C678.511 117.504 674.216 130.09 665.833 138.957C660.425 135.889 655.908 131.268 652.961 125.793C649.053 129.522 644.332 132.393 639.224 134.148C636.609 126.462 635.519 118.258 636.202 110.608C628.703 134.792 621.181 159.076 617.214 184.083C615.533 194.669 615.24 207.3 622.288 214.353C627.604 256.504 621.901 299.177 616.391 341.744C618.05 330.131 619.706 318.516 621.363 306.903C633.458 307.09 645.567 306.296 657.857 303.707C659.336 283.878 660.813 264.051 662.292 244.221C662.806 237.331 663.232 229.995 659.92 223.93C649.708 224.958 639.417 225.19 629.167 224.619C640.681 224.785 652.196 224.948 663.71 225.113C660.038 204.004 660.967 182.107 667.269 161.787C674.249 145.514 681.227 129.242 688.203 112.969C688.871 111.413 689.579 109.803 690.866 108.701C692.293 107.483 694.227 107.068 696.089 106.838C709.857 105.149 723.737 111.576 733.605 121.324C743.476 131.072 777.625 186.046 779.786 203.093C781.588 217.302 781.426 233.308 771.803 243.913C765.316 251.062 755.717 254.36 744.618 258.216C727.735 263.704 708.834 268.506 693.03 272.66C694.026 266.729 695.024 260.8 696.02 254.869C696.385 252.707 696.727 250.379 695.768 248.406C693.389 243.498 686.243 244.961 680.793 244.713C673.224 244.368 666.56 239.247 659.013 238.557C658.506 238.51 657.968 238.493 657.521 238.735C655.958 239.589 657.248 241.97 658.658 243.06C664.417 247.508 671.151 250.689 678.245 252.311C673.071 263.163 660.712 270.119 648.752 268.91C646.333 268.666 643.899 268.123 641.496 268.489C639.091 268.855 636.648 270.441 636.24 272.839C647.02 276.51 659.29 275.549 669.364 270.239C661.816 274.186 652.951 275.565 644.561 274.097C642.722 273.774 640.385 273.525 639.413 275.118C647.992 279.558 658.279 280.589 667.568 277.938C660.819 279.869 653.59 280.091 646.734 278.582C654.82 287.667 669.712 288.918 680.119 282.621C690.527 276.326 696.279 263.785 696.027 251.623C696.004 250.497 695.966 249.262 696.657 248.372C697.019 247.905 697.541 247.594 698.052 247.294C714.37 237.672 730.692 228.049 747.01 218.427C754.874 213.791 764.566 209.064 771.043 212.726C764.652 212.622 758.263 212.517 751.873 212.413C750.258 212.386 748.6 212.353 747.102 211.751C744.455 210.687 742.802 208.092 741.34 205.644C733.662 192.812 726.282 179.802 719.206 166.629C721.496 171.593 726.414 175.703 726.239 181.168C726.175 183.17 725.398 185.075 724.632 186.926C721.774 193.842 718.914 200.756 716.056 207.67C712.853 215.417 709.696 224.48 713.748 231.819C714.66 233.472 715.958 235.274 715.344 237.059C714.979 238.117 714.023 238.836 713.185 239.578C709.046 243.245 706.932 249.069 707.753 254.538C708.265 257.936 710.024 261.34 713.074 262.927C714.584 263.713 716.367 264.043 717.635 265.179C719.156 266.543 719.577 268.722 719.904 270.737C723.887 295.303 726.724 320.057 728.714 347.223C738.83 347.026 773.106 346.828 808.459 346.63" stroke="#F1F1F1" stroke-width="1.07705" stroke-linecap="round" stroke-linejoin="round"/>
</svg>
